<?xml version="1.0" encoding="UTF-8"?>
<svg id="Layer_1" xmlns="http://www.w3.org/2000/svg" version="1.1" viewBox="0 0 1512 168.3">
  <!-- Generator: Adobe Illustrator 29.6.0, SVG Export Plug-In . SVG Version: 2.1.1 Build 207)  -->
  <defs>
    <style>
      .st0 {
        fill: #866344;
      }

      .st1 {
        fill: #725941;
      }

      .st2 {
        fill: #e1f9ff;
      }
    </style>
  </defs>
  <path class="st2" d="M655.6-88.3c4.7-1.1,18-2.1,34.1,5.7,9.7,4.7,17.1,12.1,20.5,21.1,14.8-5.3,37.5-9.7,62.6-.4,11.1,4.1,24.9,9.5,32.5,26.5,3.5,7.7,4.6,15.4,4.9,20.7,4.6,9,5.3,16.5,5.4,20.4.4,18.6-11.6,36.3-30.1,42.9.9,1.6,10.9,20.9-5.3,39.1-12.9,14.5-37.1,22.1-60.6,18.9-.9,1.4-13.6,20.3-41.1,24.1-21.5,2.9-42.9-4.7-53.5-19.1-18.1,7.7-39.9,6.9-54.8-2-9.7-5.8-12.2-16.6-16.3-23.4-28.1-46-102.4,15.3-175.7-18.2-39.8-18.2-81.4-65.3-78.3-101.7,2.7-32.1,39.9-52.9,69.9-52.2,42.3,1,70.2,44.9,74.3,51.6,8-.8,17.3-.8,27.4.4,19.8,2.5,36.5,9.2,48.9,15.8,4.9-7.8,29.9-45.6,68.3-43,11.1.7,20.7,4.7,28.1,9,2.7-5.8,15.1-30.5,39.1-36.1h0Z"/>
  <path class="st0" d="M628.3-71.1l.4-.5c-1.1,1.2-2.1,2.6-3.1,3.9.9-1.1,1.8-2.3,2.8-3.4Z"/>
  <path class="st0" d="M608-57c1.3.6,3.7,1.7,6.4,3.2.6.3,1.2.7,1.9,1,.1.2.2-.1.2-.2l.2-.5.6-1.2c.8-1.6,1.6-3,2.4-4.3l.5-.8,1.3-2.4c-1,1.5-2,3.2-2.9,4.9-.5.9-1,1.8-1.4,2.7l-.7,1.4-.2.4c0,0-.2-.1-.3-.2-3-1.7-6-3.1-8-4h0Z"/>
  <path class="st0" d="M593.4-61.9c.9.3-3.2-.5,3.5.7-.3,0-.4-.1-.6-.2-.6-.1-1.4-.3-2.8-.6Z"/>
  <path class="st0" d="M596.2-61.3c2.9.6-1.9-.5,0,0Z"/>
  <path class="st0" d="M582.5-62.5h3.9c-.8-.1-4.3-.2-3-.2-1,0-1.7,0-2.1,0-.4,0-.6.1-.6.1,0,0,.2,0,.5,0,.3,0,.8,0,1.4,0h0Z"/>
  <path class="st0" d="M578.9-62.1l2-.3c-.4,0-.9,0-2,.3Z"/>
  <path class="st0" d="M585.2-62.4c-1.4,0-2.9,0-4.3,0,.6,0,.6.1,2,0-.3,0,.5,0,2.3,0Z"/>
  <path class="st0" d="M587.6-62.3c2.2.1,5,.5,1.1.3,3.7.3,5.3.6,5,.5-.3,0-2.4-.6-6.1-.8Z"/>
  <path class="st0" d="M606.6-57.3c.9.4,1.9.8,2.8,1.2.8.3,1.6.7,2.4,1.1-1.2-.6-5.4-2.5-5.2-2.3Z"/>
  <path class="st0" d="M558.9-57.1c-.2.2,1.3-.3,1.6-.3l1.3-.7,1.4-.5c-.4.1-.8.2-1.2.4-.4.2-.9.4-1.3.6-.9.4-1.6.6-1.7.6h0Z"/>
  <path class="st0" d="M560.5-57.5l-4,2c3.6-1.6,4.2-2,4-2Z"/>
  <path class="st0" d="M578.2-61.6c1.2-.2,2.3-.4,3.5-.5h3.5c-1.4,0-2.8,0-4.2,0l-4.2.6h1.3c0-.1,0-.2,0-.2Z"/>
  <path class="st0" d="M544.2-48.3c.7-.6,1.3-1.2,2-1.8-1.2.9-2.4,2.1-3.6,3.1l1.6-1.4Z"/>
  <path class="st0" d="M535.2-40.5c1.3-1.6-2.1,1.6-.7,0-2.4,2.3-4.2,4.6-5.8,6.6,1.8-2.1,3.7-4.3,6.5-6.6h0Z"/>
  <path class="st0" d="M526.1-30.3c.8-1.1,1.7-2.3,2.7-3.5-.9,1.2-1.8,2.3-2.7,3.5Z"/>
  <path class="st0" d="M550-51.7c-.3.1-.9.4-3.1,1.8l1.6-.7c.5-.3,1-.7,1.5-1Z"/>
  <path class="st0" d="M548.5-50.7h0c-1.6,1.1-2.7,1.8-3.2,2.2.4-.3,1.4-1,3.2-2.2h0Z"/>
  <path class="st0" d="M550.3-52c-.1,0-.2.2-.4.3.2,0,.2-.1.4-.3Z"/>
  <path class="st0" d="M567.2-59.6c-2.4,1-7.3,2.9-2.5,1.4,1.7-.8-1.1.1,2.5-1.4Z"/>
  <path class="st0" d="M552.3-52.8l4.1-2.3c0,0-.9.3.2-.4-1.5.8-2.9,1.8-4.4,2.7Z"/>
  <path class="st0" d="M550.3-51.5c.6-.5,1.3-.9,2-1.3l-1.5.9-.4.4Z"/>
  <path class="st0" d="M532.1-36.7c-.7.9-1.5,1.8-2.3,2.7-.8,1-1.6,2-2.5,3,1.9-2.3,4-4.5,5.9-6.6.2-.3,1-1.5-1.1.8Z"/>
  <path class="st0" d="M539.8-44.1c-.1.1-.2.2-.4.3.2-.2.4-.3.4-.3Z"/>
  <path class="st0" d="M509.3-25.9c.1,0,.2.2.4.2,0,0,0,0,.1,0l-.5-.2h0Z"/>
  <path class="st0" d="M533.6-37.9c1.6-1.5,2.5-2.5,3.3-3.4-1.1,1.2-2.4,2.4-3.7,3.7-.1.2-.1.2.4-.3h0Z"/>
  <path class="st0" d="M521.5-24c.7-.9,1.6-1.9,2.5-3-.8.8-2.3,2.6-2.5,3Z"/>
  <path class="st0" d="M538.9-43.3c0,0,.1-.1.2-.2-.6.4-.5.4-.2.2Z"/>
  <path class="st0" d="M538.9-43.3c-.8.8-1.4,1.4-2,2.1,1-.9,1.8-1.7,2.6-2.5-.2.2-.4.3-.6.4h0Z"/>
  <path class="st0" d="M501.7-26.1c.4-.3,5.5,1.2,9.7,3.6,4.3,1.7,1.8-.8-1.8-3.2-.2.1-.2.2-4.6-1.4,1.5.8,9.6,4.7,5.8,3.4-2.9-1.2-4.1-1.7-4.9-2.1-.8-.4-1.2-.7-2.6-1.4,1.2.7-.7.2-2.7-.3-2-.5-4.2-1-3.6-.4,1.7.5,3.4,1,5.1,1.5,0,.1-1.8-.3-.4.3h0Z"/>
  <path class="st0" d="M517.9-21.6c.6.3,1.3.7,1.4.7-.9-.5-1.6-1-2.4-1.4-.9-.6-1.9-1.2-3.3-2-3-1.3-3.7-1.4-3.9-1.3,2.9,1.3,5.9,2.8,8.8,4.3l-.6-.3h0Z"/>
  <path class="st0" d="M523.8-26.7c-.4.8-1.3,2.3-1.9,3.3-.5,1-.8,1.5.3.4,3.7-5.1,2.4-3.8,4.6-6.9-6.1,8,1.7-2.4-2.9,3.2,1.2-1.6,2.3-3.1,3.3-4.3-1.2,1.3-2.3,2.7-3.3,3.9,0,0,.1-.1.2-.2h0c.3-.3.4-.4,0,0,0,0,0,.1-.1.2,0,.1-.1.3-.2.5-1.8,2.3-.3.3.2-.5,0,0,0-.1,0-.1h0c-1,1.4-2,2.8-3,4.2-.4.7-1.1,1.7-1.2,1.8l-.3.5c-.1,0-.3-.1-.4-.2,0,0,.2.1.3.2,0,0,.1,0,.1,0v-.2c.3-.3.5-.6.8-1,.9-1.3,2-2.8,3.4-4.8h0Z"/>
  <path class="st0" d="M560.5-55.9c-.3,0-.2,0-.3,0-.5.3-.7.4.3,0Z"/>
  <path class="st0" d="M557.2-54.5c.6-.3,1-.6,3-1.5,1.7-.7,0,.1.1.2,1.1-.6,4-2.1.3-.5l-.6.3c-3.3,1.3-7.5,3.5-6.9,3.2,1-.3,1.9-.7,4.1-1.6h0Z"/>
  <path class="st0" d="M539.3-42.5c-2,1.8-3.8,3.8-5.7,5.7l3-2.7h-.2c3.3-3.1,2.5-2.5,2.9-3h0Z"/>
  <path class="st0" d="M508.5-26.5h1c-1.4-.4-2.8-.8-4.2-1.2,1.1.4,2.1.8,3.2,1.2h0Z"/>
  <path class="st0" d="M499.2-30.2l.4-.3c-.8-.2-1.7-.4-2.5-.6l2.1.9h0Z"/>
  <path class="st0" d="M564.1,100.7c.5.6,1,1.2,1.6,1.7-.7-.8-1.2-1.3-1.6-1.7Z"/>
  <path class="st0" d="M554.7,83.5l-.4-.3c.6.7.9,1,.4.3Z"/>
  <path class="st0" d="M296.5-26.7c-.2,4.7.3,10.2.7,9.4l.2-1.5c-.3-1.6-.6-3-.7-4.3-.1-1.3-.2-2.5-.2-3.5h0Z"/>
  <path class="st0" d="M430.2,78.2c-.3,0-.6-.1-.9-.2-.7.2-1.4.4-2.1.6.9-.1,1.9-.2,3-.4Z"/>
  <path class="st0" d="M432.3,75.8l4.1.3c-.9-.1-2.2-.2-4.1-.3Z"/>
  <path class="st0" d="M642.9,122.6c.8.2,1.6.5,2.4.6-3.6-1.6-2.1-.7-2.4-.6Z"/>
  <path class="st0" d="M411.9-74.2c-2.4-2-4.4-3.5-6.2-4.7,3,2.4,5.2,4.6,6.2,4.7Z"/>
  <path class="st0" d="M557.1,97.5c.9,1.5,1.3,2.1,1.3,2-.9-1.5-1.4-2.4-1.3-2Z"/>
  <path class="st0" d="M398.1-83c.5.3.9.5,1.4.8,1.9,1,3.9,2,6.2,3.4-1.1-.8-2.3-1.6-3.6-2.4-1.3-.7-2.6-1.5-4-1.8h0Z"/>
  <path class="st0" d="M764.5-63.9c-.2,0-.5-.2-.7-.2,0,0,.2,0,.7.2Z"/>
  <path class="st0" d="M460.9-38.4c2,0,.3,0,0,0Z"/>
  <path class="st0" d="M470.7-35.3c-.4,0-.8,0-.8.2.2-.1.4-.2.8-.2Z"/>
  <path class="st0" d="M463.9-38c-.8-.1-1.6-.3-2.6-.3.4,0,1.2.2,2.6.3Z"/>
  <path class="st0" d="M463.5-38.3c.7,0,1.3.2,1.8.2.3,0,0-.2-1.8-.2Z"/>
  <path class="st0" d="M458-38.5c1.2,0,2.2.1,3.3.2-.4,0-.6-.1-.5-.1-.6,0-1.4,0-2.8-.1Z"/>
  <path class="st0" d="M775.4,90.8c.1,0,.2-.2.4-.3,1.6-1.5.9-.9-.4.3Z"/>
  <path class="st0" d="M331,29.2c0,0-.1-.1-.2-.2,0,0,.2.2.2.3h0c0,0,0-.1,0-.1Z"/>
  <path class="st0" d="M337,34.8c-2.8-1.8-4.2-3.4-6-5.5l1,3.6c1.7.7,3.3,1.3,4.9,1.9Z"/>
  <path class="st0" d="M597.9,113.9c-1.7-.1-3.3-.4-4.9-.7,5.9-.2,10.2-.3,5.6-.8-.3.7-5.1.8-9.8,0-4.8-.7-9.4-2.3-9.8-1.7-1-.5-2.1-1-3.1-1.6.9.4,1,.4,1.9.7-3-1.6-4.1-1.9-5.5-2.3-.7-.2-1.5-.4-2.4-.9-1-.5-2.2-1.4-3.8-3-2.1-2.4-3.2-4.7-1.9-2.9-1.5-1.9-2.9-4-4.1-6.4-1-2.2-.6-1.8.4.4-.9-1.8-1.8-3.7-2.8-5.7-.5-1-1-2-1.5-3l-.9-1.5-.9-1.3h0c-.6-.6-1.5-1.8-2.5-2.9-1-1-2.1-2-2.8-2.7-1-1.2-.8-.9-.2-.5.5.5,1.1,1.2.9.8-.8-.9-1.7-1.5-2.5-2.2l-1.3-1-.6-.5-.7-.4c-1-.9-.4-.7.9,0,.6.5,1.4,1.1,2.3,1.8.4.4.9.7,1.3,1.1.4.5.8.9,1.2,1.4-.5-.8-.9-1.4-1.2-2-.4-.5-.8-.9-1.2-1.3-.8-.7-1.5-1.3-2.4-1.9-1-.5-2.1-1.2-3.6-2.2-1.6-.7-3.6-2-6.4-3.1.9.3,1.8.5,2.7.9l2.7,1.2c-.8-.7-1.7-1.2-2.6-1.8-1-.5-2-.9-3.1-1.4-1.1-.5-2.3-.8-3.6-1.2-.7-.2-1.3-.4-2-.6-.7-.2-1.4-.3-2.2-.5.4.1,1.3.4,2.4.7,1.1.4,2.4.9,3.4,1.4,1,.4,1.8,1,1.9,1.2.1.3-.4.1-1.9-.2-.9-.3-1.9-.6-3-.8-1.2-.3-2.6-.3-4.2-.4,0-.6-3.2-.9-7.2-.9l.2-.8c-4.3.2-3.9.6-6.4,1.1-4.8.2-5.8-.3-7-.7-7.6.7,5.3.4-3.6,1.6-6.3.5-10.6,1.5-17.9,3.2-4.4.5.7-.6-.9-.6l-3.7,1.3c-.9.1-.7-.1-.5-.2-3.2.8-.2.9-5.2,2-1.2,1.2-10.6.4-16.7,2.2-1.6,0,.7-.6.2-.9-4.3.9-6.1,1.2-7.7,1.5-1.6.4-3.1.7-6.6,1.4-2,0-4.1,0-6.1-.2,4.5.5-1.1,1.6-6.1,2.2,1.6.3,3,.6,3.9.7-2.7.3-5.3.3-8,.5-1-.1-.2-.4,1.1-.8-.6,0-1.1.1-1.5.2-2.9-.5-1.4-.9.6-1.3,1,.2,2,.4,2.9.6,2-.5,3.8-1.1,3.3-1.6-.5.1-1.5.2-2.6.2.5-.1.8-.3.6-.4-.3,0-1.1,0-2.4.3l-1.9-1-.4.4c-3.5-.4-7-.7-10.4-1.3-1.9,0-3.7.2-5.5.2-1.8,0-3.7,0-5.8,0-2-.2-4.2-.3-6.6-.7-1.2-.2-2.5-.5-3.8-.7-.7-.1-1.4-.3-2-.4-.7-.2-1.4-.4-2.2-.6,3,.3.8-1,1-1.8,3.1,2,9.1,2.3,15.2,3.6-3.2-.7-2.5-1-1.6-1l-5.5-.7-5.4-1.1c.2-.3-.4-.6-1.3-1-.9-.4-2.3-.9-3.6-1.5,1,1.1-1.1.7-3.9-.3-2.8-1.1-6.4-2.5-8.6-3.4,0-.3.2-.5,1.1-.2.9.3,2.5.9,5.1,2-1.4-.9-2.6-1.4-3.7-1.8-1.1-.4-2-.7-3-.9-1.9-.5-3.9-.9-6.5-3,1.3.7,1.9,1.2,2.5,1.2-3.1-1.1-10-5.9-8.2-5.3.4.3.8.5,1.2.8-4.1-2.6-10.2-6.9-15.3-10.9-5.2-3.9-9.4-7.5-10.2-7.5,0-.2,1.6-.4,2.2-.2-5-2.9-10-6.1-14.9-9.7,1.6.3-1.3-6.5,4.8-.5-1.6-2-3.6-4.4-7.1-8.3,1,1.5,1.9,4.6.3,2.8-1.7-3-2.3-4.1-3.1-5.2-.7-1.2-1.6-2.5-3.6-6.2,1.4,2.3-1.3,1.2-3.6-2.4.5.4.8-1.5,1.8-.3-2.2-2.5-4.3-5.3-6.4-8.1,1.5,2.2,1.1-.4.4-2.9.1.6-.9-1.5-2-4.1-1.1-2.6-2.2-5.7-2.7-7.1.4,1.5.8,3,1.3,4.5-.6-1.4-1-2.7-1.4-3.8-.4-1.1-.8-2.1-1.1-3-.7-1.8-1.3-3.2-1.8-4.6-.3-.7-.5-1.5-.8-2.3-.2-.8-.5-1.6-.7-2.6-.4-1.9-.7-4.4-.5-7.6.1.8.5,1.8,1,1.8.5,0,.8-1,1.2-3.9-.2-1.4-.7-4.8-.2-9.3.5-4.4,1.9-9.9,4.7-14.4l1.4-1.2c1.4-2.2,2.9-4.3,4.5-6.3-1.2,2.3-3.6,6.5-5.5,11.3-2,4.8-3.2,10.3-3.7,14.1.7-2,1-2.1,1.2-2.6.2-.5.5-1.2,1.7-4,.6-.8.4,0,0,1.3-.2.7-.4,1.4-.7,2.1-.2.7-.4,1.4-.5,1.8.7-2.2,1.7-4.3,2.8-6.3,1.1-2,2.3-3.9,3.7-5.6-.2,0,0-.7.4-1.6.5-.8,1.2-2,2-3.1.8-1.1,1.6-2.1,2.2-2.9.6-.8.9-1.4.7-1.5-3.3,3.7-6.2,7.8-8.5,12.5-.5,0,0-2.6,1.8-5.9,1.7-3.3,4.7-7.4,8.3-10.4,2-1.2-.5,2.9-.1,3.1.4-.6,1.9-2.2,3.6-3.6,1.6-1.4,3.4-2.6,3.7-2.7-1,1-2,1.8-2.9,2.8,2.1-1.4,3.7-2.8,5.4-4.3,1.7-1.4,3.7-2.8,6.5-3.6,1.9-.9,5.9-1.1,6.1-1.9-3.4,0-5.1-3.5-3.3-5.4.4,0,3-.9,5.9-1.5,2.9-.6,6-1,7.2-.9,1.7.1.6,1-.6,1.9-1.2.9-2.4,1.9-.9,1.9,0-.4,1.8-1.2,2.5-1.5,2.1-.2-.7,1.1,3.8,0,.6-1.4,9.2-1.3,2-1.3,2.2-.5,3.4-.6,4.7-.6,1.3,0,2.7,0,5.3-.1-.9-.4.3-1,2.2-1.6,2-.5,4.8-.7,7.1-.7-.3.3.8.7,1.2,1,2.3.5,4.4,1,6.3,1.5,1,.2,1.9.6,2.8.9.9.3,1.8.7,2.6,1,.9.3,1.7.6,2.6,1,.9.4,1.7.8,2.6,1.2,1.8.9,3.7,1.6,5.7,2.9.7.7,4.6,3.2,2.8,2.7,1.2.4,2.4.8,4.9,2.5,4.5,4-5.5-3.5-2.2,0,.2-.2,1.9.7,3.9,1.8,2,1.2,4.4,3,6.1,4.1-.4-.8-2.3-2.4-4.6-4.1-2.3-1.6-5.1-3-6.9-4,.2-.7,1.9-.2,4.7,1,.7.3,1.5.6,2.3,1.1.8.5,1.6,1,2.6,1.6.9.6,1.9,1.2,2.8,1.9,1,.7,2,1.5,3,2.3,3.3,2.7,3.8,3.6,3.7,3.8,0,.2-.8-.2-.2.3,1.4,1.5,2.7,2.6,3.7,3.7,1.1,1.1,2,2,2.8,2.8,1.6,1.5,2.8,2.7,4,3.8,2.3,2.2,4.3,4.1,8.2,10.4,2.8,5.3-.7,1.2-.2,2.6-4.3-5.9-6.4-9.5-9.5-13.2l1.8,2.4,1.8,2.5c-1.5-1.7-4.7-5.2-6.3-7.3,1.3,2,6,7.1,10.6,14,1.2,1.7,2.3,3.4,3.5,5.4l.5.7c.2,0,.4,0,.7,0h1.3c.9-.2,1.7-.2,2.5-.3,3.3-.1,6.5-.1,9.2,0,1.9-.2,5.1-.3,3.5-.7h-3.3c-3.1-.7,6.3-.6,2-1,4.5-.2,9.6-.4,15.9.9l1.2,1c-.1-.3-4.1-1.1-5.9-1.1,2.7,0,9.6,2.5,12.6,2.3-1.5-.5-2.9-1-4.4-1.4,4.5.5,10.2,1.2,15.7,3.2-2.5-1.5-1.3-.3-5.2-2.3,1.7,1-1.9,0-5.2-.9-3.3-.8-6.4-1.4-3.7-.3-4.1-1.8-7.1-1.8-12.5-3.4.2.3,1.9.7-2.8,0-.2,0-.7.1-1,.1-.1,0-.2,0-.3,0,0,0,.2,0,.3,0-.2,0-.2,0,0,0,1.1.2,2,.4,2.4.6-2.4.3-9.9-.1-12.4.3-2.8-.1,1.2-.3-.4-.6-1.3.2-2.5.3-3.8.6-.4-.6-7.5-.7-.9-1.4h-3c0,.1-.9.2-.9.2-.1,0-.3.1-.5,0,.1,0-1.7-3.2-3.1-5.2-1.4-2.1-2.9-4.1-4.1-5.5-2-2.9-5.9-6.3-3.7-4.4-2.5-2.9-5.1-5.6-7.7-8.1v-.2c-7.7-8-16.9-14-26.8-20.6-1.5-.6-3.1-1.3-5-2-1.8-.9-3.9-1.5-6.5-2.5l-1-1c-.5-.1-1.1-.3-1.7-.5-.6-.2-1.3-.3-2-.5-1.4-.3-2.8-.7-4.2-1.1-1.4-.4-2.7-.6-3.8-.6-1.1,0-1.9,0-2.4,0-.6-.3-1.3-.5-2.1-.7-.4-.1-.9-.2-1.4-.3-.5,0-1,0-1.6-.1-2.2-.2-4.8,0-7.4.3-5.3.6-10.7,2.1-14.2,3v.9c-4.8,1.3-9.3,3.3-14.8,6.4l.6.6c-2.3,1.5-5.4,3.1-8.7,5.1-3.3,2-7,4.6-10.3,7.9.3-.7,2-2.3,3.4-3.2-2.2,1.4-4.4,3.3-6.3,5.5-2,2.2-3.8,4.8-5.3,7.6-1.6,2.8-3,5.7-4.1,8.8-1.2,3-2.1,6.1-2.9,9.2-.4,3.2-.6,5.5-.9,7.8,0-.3,0-.6,0-.8,0,.3,0,.8,0,1.3-.1,1.4-.2,2.9-.2,4.6,0-1.4.2-2.7.2-3.9,0,2.5.3,6.4,1.1,10-.1.6-.2,1.1-.3,1.7,0,.3.1.5.2.8.6,3.6.9,2.7.9.7.5,1.8,1,3.3,1.5,4.5,0,.8.1,1.7.5,2.8s.7,2.2,1.2,3.2c.5,1.1.9,2.2,1.4,3.3.4,1.1.8,2.1.9,3.2.7.9,2.6,4.7,4.8,8.1,2.2,3.4,4.5,6.5,5.3,6.7,0,.2.4,1-.5-.4,1.9,3.1,3.9,6,6,8.2l.4,1.9c1.8,1.7,3.6,3.3,5.4,4.8,2.7,3.8,3.8,5.5.5,2.7,3.9,3.5,5.4,5,6.8,6.3,1.4,1.3,2.7,2.5,6.2,5l-.6.2c2.3,2.1,6.4,4.7,7.7,6.3,2.5,2.7,9.2,8.1,17.4,13.1,4.1,2.5,8.5,5,12.9,7.1,4.4,2,8.7,3.9,12.6,5.4-1.4-1.3.4-.5,2.6.4,2.2.9,4.9,1.9,5.3,1.3.9.6,3,1.4.5,1.1,8,1.4,12,3,17.6,2.5.9.5-1.7.4-.9.7.6,0,2.6,0,3.4.2.8.3-1.2.2-2.4.3,4.1.4,6.4.1,7.6-.3,1.3-.4,1.6-1,1.9-1.5,4.1.6,6.2.5,9.1-.2,1.4.3,3.9.6-1.2.9.7,0,2.1,0,3.9,0,1.8,0,3.8,0,5.8-.2,4-.2,7.6-.8,7.7-1.2.9.2,3.9-.4,4.7-.6,6.3-.7,6.8-.8,13-1.8h-1.7c2.3-1.3,5.1-.9,10-1.9h-.1c11.4-1.1,4.8-1.1,16.1-2.1l-.7-.5c.9-1.5,10-.9,16.4-1.9h-2.4c3.5-.9,10.1.7,13.6,1.1.8.1-1.2.2-2.3.3,4.6.3,4.9.3,4.9,0,0-.3-.3-.8,3.2-.6,1.3.6-1.6.8,3,1.5.6.2,1.7.2,3.1.5.7.1,1.5.2,2.4.4.8.2,1.7.5,2.7.7,3.7,1.1,7.9,3.2,10.2,6-1-1.3-2.1-2.5.7-.4.3.2.5.4.8.7.2.3.5.6.8.9.5.6,1.1,1.3,1.7,2,.6.7,1,1.6,1.6,2.4.5.8,1.1,1.6,1.5,2.5,1.8,3.5,3.5,7.7,5.2,10.1.3.8.5,1.1.4,1.2,1.3,2.2,3.7,5.7,6.4,8.1,2.7,2.5,5.5,3.7,6.6,4.1.7.9,2.6,2,5,3,1.2.5,2.5,1,3.9,1.3,1.4.4,2.8.7,4.2.9,5.6,1.1,10.7.9,10.7,1.8,4,.2,8,0,11.9-.5l-.3.2c7.6-.9,10.1-2.3,12.6-3.5,1.7-.4.5.1.4.2.7-.2,1.3-.4,1.9-.6.6-.2,1.2-.4,1.7-.6.3-.1.6-.2.9-.3h.2c0,0,.1.1.1.1,0,.1.2.2.3.4.3.3.5.6.8,1,.3.4.7.8,1,1.1.7.7,1.3,1.3,1.9,1.9,2.5,2.2,4.9,4,9.5,6.2l.8,1c1.2.6,5.1,2.8,10.1,4.5,5,1.8,11.2,3.1,16.7,3-.1,0-.3.1-1.2.1,3.1.1,6.5,0,9.9,0,1.7-.1,3.4-.2,5.1-.4,1.7-.3,3.3-.4,4.9-.8,1.6-.4,3.1-.7,4.5-1.1,1.4-.5,2.7-.9,3.8-1.3,2.3-1,4.1-1.9,5-2.9,2.5-1.3,4.9-2.8,7.2-4.5-4.7,2.9-4.4,2.4-3.4,1.6,1-.8,2.6-2,.6-1,3.6-2.2,9.3-6,5.1-2.7l-.7.4c-.3.5.2.3,1.2-.4.5-.3,1.1-.7,1.8-1.2.6-.5,1.4-1.1,2.1-1.7,2.9-2.4,5.6-5.5,5.6-5.2.5-.6,1-1.1,1.4-1.7l.7-.9.6-.8.2-.3h0c0-.1.1-.1.1-.1h.6c0,0,1.9.3,1.9.3,1.3.2,2.6.2,3.8.3h1.9c0,.1,1.9.1,1.9.1,5.1,0,10.1-.4,15-1.3,9.8-1.8,19.3-5.3,27.7-11.4-.7.3-1.4.6-2.1.8,1-.6,2-1.3,2.9-2.1l1.4-1.1,1.4-1.2c1.5-1.2,2.2-1.3-1.8,2.1.6-.3,1.3-.9,2-1.6.7-.7,1.5-1.3,2.1-2.1,1.3-1.5,2.3-2.8,2.3-2.9,1.7-2.1,2.5-2.9,2.6-3,.1,0-.3.6-.9,1.4-.6.8-1.3,1.9-1.8,2.5-.5.6-.7.8-.1.2,1-1.2,1.9-2.4,2.8-3.6l-.7.8c.3-.4.5-.7.7-1,.2-.4.4-.7.5-1,.3-.6.6-1.2,1-1.8.2-.3.4-.6.6-1,.2-.4.4-.9.6-1.4.2-.5.5-1.1.8-1.7.3-.6.6-1.5.9-2.3.2-.6.4-1,.5-1.4.1-.4.2-.7.3-.9.1-.5.2-.7.3-.8.1-.2.1,0,.4-1,0,0,0-.1.2-.6,0-.5.2-1.2.3-2.4.5-4,.3-8.1-.6-12,0,.8.2,1.6.3,2.4v2.4c-.2-2.7-.7-5.4-1.2-6.8-.2-.7-.3-1-.3-.9,0,.2.1.8.4,2.1-.2-.9-.4-2-.9-3.4,0-.4-.2-.7-.4-1.1,0-.2-.1-.4-.2-.6v-.3c-.1,0-.2-.2-.2-.2-.2-.5-.4-1-.6-1.5.3-.2.7-.3,1.1-.4.2,0,.5-.2.7-.3.3-.1.6-.2,1-.4,1.3-.7,2.6-1.2,4-2,.7-.4,1.3-.8,2-1.2.7-.4,1.3-.9,1.9-1.4,1.3-.9,2.5-2,3.7-2.9,4.6-4.1,7.8-8.9,8.6-10.3,1.6-2.8,3-5.7,4.1-9.1,1.1-3.3,2.1-7.1,2.3-11.5-.1,1.1-.3,1.9-.3,1.6,0-.2,0-.7,0-1.6,0-.9,0-2.2,0-4.1.2,1.4.4-2.1-.4-6.7-.4-2.3-1.1-4.8-1.8-7-.7-2.2-1.6-4.2-2.1-5.6.5,1.2.2.7-.5-.7-.1-.2-.1-.2-.2-.4,0-.2,0-.3,0-.5,0-.5-.1-1.1-.2-1.6-.1-1.2-.3-2.4-.5-3.7-.8-5-2.2-9.3-1.2-5.2-.8-3.1-.8-3.1-.7-3.1,0,0,.2.3-.5-2-.6-1.8-1.3-3.5-2.2-5.2-.4-.8-.9-1.7-1.3-2.6-.5-.8-1-1.6-1.5-2.5-2-3.2-4.5-6.2-7.2-8.7-5.5-5.1-12-8.4-18.6-10.9-.2,0,2,.9-.9-.1-2.3-1-4.6-1.9-7-2.7-1.3-.4-1.9-.5-2.8-.7-.9-.2-2-.6-4.5-1.1.7.2,1.7.5,0,0-6.6-1.5-13.3-2.2-20.1-2.1-6.7.1-13.4,1-20.1,2.6-3.3.7-6.6,1.7-9.8,2.8l-1.2.4h-.2c0,.1,0,0-.1-.1l-.3-.8c-.4-1-.9-2.1-1.4-3-1-1.9-2.2-3.7-3.5-5.3-5.3-6.4-11.8-10.4-18.3-13.3,1.8.8,2,1,1.6.8-.5-.2-1.7-.8-3.1-1.3,1.8.7,0,0,.3.2-3.7-1.5-7.4-2.7-11.1-3.5-1-.2-4-.7-7-1-2.9-.2-5.7-.2-6.3,0,1.2,0,2.4,0,3.6,0-2.4,0-.7,0,1.5.2,2.2.2,4.8.6,4.5.6,5.3.6,14,3.1,22.2,7.6,1.8,1-1.6-.8-.6-.3,1,.6,2.2,1.2,3.6,2.2,1.4,1,3.2,2.2,5.2,4.2l-.5-.4c3,2.7,5.3,5.5,7,8.5.9,1.5,1.6,3,2.3,4.6l.3.8c.2,0,.5-.1.6-.2l.9-.3,1.8-.6c5-1.5,10.2-2.9,17.9-3.9h-1.1c3.3-.3,4-.4,5.6-.5,1.9-.2-.4,0-2.8.2-2.4.2-4.8.6-3.1.3,2.2-.2,8-.9,13.8-.8,5.7,0,11.2.8,12.7,1.3,5.1.9-1.5-.4,3.6.6l1.4.4,1.3.2c3.3.9,5,1.5,5.1,1.6-.8-.2-2.3-.6-3.2-.9,4.3,1.1,12.1,4.1,13.6,4.8-1.6-.7-3.2-1.3-4.8-2,6.8,2.6,14.5,5.7,21.1,11.7,3.3,3,6.2,6.6,8.5,10.7,2.3,4.1,4,8.6,5,13,0-.5-.2-.9-.3-1.4.9,3.3,1.3,5.8,1.6,7.7.1,1,.2,1.8.3,2.6,0,.4,0,.8,0,1.1v.6c0,.3,0,.5.2.7.7,1.4,1.2,2.7,2,4.6.7,1.9,1.6,4.4,2.4,8.1v-.5c.2,1.5.5,3.2.7,5.1.2,1.9.1,4,0,6,0-1.9,0-.1-.3,1.5-.2,1.6-.4,3-.2.6,0,.9-.2,1.7-.3,2.5-.1.7-.2,1.4-.3,2-.3,1.1-.5,2-.7,2.8-.4,1.4-.7,2.1-.8,2.6-.2.5-.2,1-.6,1.8-.2.4-.3.9-.6,1.6-.2.7-.6,1.5-1.1,2.5-.4.6-.7,1.1-1.1,1.6-1.5,2.5-1.4,3.1-5.6,7.9,3.3-4-2.8,2.7.9-1.8-4.3,4.5-7.9,7.1-11,9.1-1.5,1-3,1.7-4.3,2.3-.3.2-.7.3-1,.4-.4.1-.8.3-1.2.4-1,.3-1.9.7-2.9,1l.6,1.4c1.1,2,1.3,2.4,1.2,1.9-.1-.4-.6-1.7-1.4-3.2,1-.4,2.1-.8,3.3-1.3.8-.3,1.7-.7,2.3-1,1.3-.7,2.1-1,1.3-.6,1-.4.5,0-.8.7-.6.3-1.4.8-2.3,1.2-.9.4-2.1.9-3.1,1.3.5.9.9,1.8,1.2,2.5.6,1.3.8,2.3,1.2,3.6.3,1.2.6,2.5.7,4.1.1.8.2,1.6.2,2.5,0,.9,0,1.9,0,3,0,1.1-.1,2.2-.2,3.5,0,.6-.2,1.3-.3,1.9,0,.3,0,.7-.2,1,0,.3-.2.7-.3,1,.3-1.1.3-1.2.4-2.4-.8,4.3-2,8.6-4.9,12.6-.3.7-.7,1.4-1.1,2-.5.6-.9,1.2-1.3,1.7-.4.5-.8,1-1.1,1.4-.3.4-.5.7-.6,1l.8-.9.8-1,1.5-1.9c.5-.6.9-1.4,1.4-2.1.4-.7.9-1.4,1.3-2.2-2.7,5.1-5.9,9.9-13,14.7.3-.3.9-.8,1.6-1.4.4-.3.8-.6,1.1-1,.4-.4.7-.7,1.1-1-1,.8-2,1.5-2.9,2.3-.9.8-2,1.5-3.1,2.1,0-.2.7-.7,1.7-1.4.9-.7,2.2-1.6,3.5-2.7,2.7-2.1,5.5-5.3,7.2-7.8-1,1-2.6,3.3-4.1,4.7-.7.8-1.3,1.3-1.6,1.5-.3.2-.3.1.1-.5-2.7,3.5-7.8,6.1-13.5,9.5l.3-.5c-.5.2-1.2.6-2,1.1-.8.4-1.7.8-2.6,1.2,1-.6,2-1.1,3-1.8-4.7,2.6-9.5,3.2-14.3,4.5,2.5-.5,3.9-1,4.7-1.1.8-.2.9-.1.8,0-.1.2-1,.7,1.2.1-3.1,1.1-5.1,1.6-6.6,1.8-1.5.3-2.5.3-3.5.3-1,0-2.1,0-3.8.1-.8,0-1.9,0-3.1.2-1.2,0-2.7.1-4.5.2,1,0,2.8-.1,4,0,1.2,0,1.8,0,.3.3-1.4,0-3,0-4.4,0-1.5,0-2.8-.2-3.6-.3-9.5-.4,1.5.5-2.6.6-.8-.2-1.5-.3-2.2-.3-.7,0-1.3-.1-1.9-.1s-.7,0-1,0h-.3s-.4,0-.4,0c-.3,0-.6,0-.9,0-.1,0-.3,0-.4,0-.1,0-.2.3-.3.4-.2.3-.4.6-.6,1-.4.6-.6.9-1,1.4l-.2-.3c-1.9,2.3-3.1,3.5-3.8,4.3-.7.8-.9,1.1-1.1,1.4-.4.6-.6,1.3-4.8,4.3,1.1-1,2.1-2.2,3.2-3.3l-2.1,1.8-2.1,1.7.7-1.1c-1.1,1-2.1,1.7-3,2.3-.9.6-1.7,1.2-2.5,1.6-.8.4-1.6.9-2.5,1.4-.9.4-2,.9-3.2,1.5,1.2-.3-.4,1.2-5,2.9-1.6.4-1.2.1-1.2,0,0,0-.1,0-.6.1-.5.2-1.4.5-3.1.9,1.5-.6,3-1.5,5.9-2,.3-.3,1.3-.9,1.6-1.1-1.7.5-3.8,1.2-5.8,1.9-2,.5-3.9,1.1-5.1,1.3.9-.1,2-.4,2.6-.5-.8.2-1.6.5-2.4.7l-2.4.6-2.4.6-2.4.4c-1.6,0-.3-.3.8-.6-2,.3-3.3.5-6.2.7.7-.4.5-.8,4.6-1.2-1.5.2-3.1.3-4.6.4-1.6,0-3.1.1-4.7,0-.3-.1-1.5-.3-2.5-.5-1-.2-1.7-.4-1.1-.4-5.1-.8-12.7-1.5-19.2-5-.3,0-1.1-.3-2.4-1-3-1.7-5.7-3.7-8.4-6.1-1.3-1.2-2.6-2.5-3.9-4-.5-.6-.9-1.1-1.4-1.7l-.9-1.1-.5-.5-.6.2c-.7.3-1.5.6-2.2.9-.4.2-.9.4-1.3.6-1.4.2-2.9.4-4.3.6-5.8,1.7,5.9-.5-3.7,2.2-3.4.9-4.1.7-4.2.5-.1-.2.3-.6-.9-.5-3.4.9-9.5,2.2-16,.9,2.1,0,3.8.3,5.8.2v-.2ZM533.1,67.5c.8,0,1.9.5,3,.7,1.1.3,2.1.7,2.6,1.2-.9-.1-1.7-.3-2.5-.6-.9-.3-1.8-.8-3.1-1.3h0ZM419.1,76.6c1.1-.2,2.7,0,4.6.4-1.4,0-2.9-.1-4.6-.4ZM442.3-41.6s0,0-.1-.1c-2.2-3.6-1.4-2.3.1.1ZM445.6-37.6c.6-.1.6-.2.3-.3-.4.1-.4.2-.7.2-.1,0-.3,0-.4,0-.1-.2-.2-.4-.3-.6,0,.2.1.4.3.7,0,.2.2,0,.4.1.2,0,.4,0,.6-.1h0ZM789.7,70.8c0,.6-.3,1.2-.5,1.7.2-1,.4-1.7.4-2.1,0-.5,0-.7.1-.7,0,0,0,.5,0,1.1h0Z"/>
  <path class="st0" d="M432,76.1c.4.1.5.2.6.4.6-.1.6-.2-.6-.4Z"/>
  <path class="st0" d="M642.5,122.4h.2c.1.1.2.1.2.1h-.4Z"/>
  <path class="st0" d="M351.3-80.6c-1.4.2-2.1.3-2.6.3,0,.2.6.2,2.6-.3Z"/>
  <path class="st0" d="M481.9-35.7c-1.5-.2-2.9-.6-4.4-.8,2.1.4,2.9.7,3.9,1,0-.2-.9-.5.5-.2Z"/>
  <path class="st0" d="M518.6-19c.3.1.6.3.9.5.3.1.7.5.8,0h-.2c0,0,0,0,0,0,0,0,0,0-.1,0h-.2c-.1-.2-.3-.2-.4-.3-.3-.1-.5-.3-.8-.4-.5-.2-.9-.4-1.1-.5-.5-.2-.2,0,1.1.7h0Z"/>
  <path class="st0" d="M485.8-32.9c.3.6,3,1.1,6.1,1.9-.2,0-.4,0-.5-.1,1-.4-2.3-1.1-5.5-1.7Z"/>
  <path class="st0" d="M492.6-30.8c.9.3,1.9.6,2.8.9.4-.1-1.1-.4-2.8-.9Z"/>
  <path class="st0" d="M454.2-38.2c1.5.1.9-.7,1.7-.5,1.6-.7-9.7.9-1.7.5Z"/>
  <path class="st0" d="M488.1-30.7l-1-.8h-1.7s2.8.8,2.8.8Z"/>
  <path class="st0" d="M464.2-35.1c1.6.2,3.2.4,4.9.6,0-.1.5-.1,1.3,0-3-.4-6.3-.7-6.2-.5Z"/>
  <path class="st0" d="M470.3-34.6c1.6.2,3,.4,3.9.4-.9-.1-2.7-.4-3.9-.4Z"/>
  <path class="st0" d="M481.5-32.1l-1.4-.4c-1.1-.2-2.3-.5-3.4-.7,1.6.3,3.2.7,4.8,1.1Z"/>
  <path class="st0" d="M419.5-64.5c-1.6-1.3-3.1-2.7-4.7-3.8-.3,0-.1.2.3.6.5.4,1.2,1,2.1,1.8,1.2.8,2.9,2.2,2.3,1.4h0Z"/>
  <path class="st0" d="M431.7-49.2c-1-1.4-1-1.6-1.6-2.6l-.6.5,2.1,2h0Z"/>
  <path class="st0" d="M419.1-62.1c-.6-.2-6.8-5.1-1.1-.2.3,0,1.6,1.1,2.3,1.6.7.6.9.5-1.2-1.4Z"/>
  <path class="st0" d="M343-81.1c.4-.2.9-.3,1.3-.4l-.6-1.6-.7,2.1Z"/>
  <path class="st0" d="M303.7-21.1c-.5-3.8-.6-4.2-.8-4.6-.2-.3-.5-.6-.4-4.1-.2-.9-.2.5-.3,1.9,0,1.4.1,2.9-.1,1.9.8,4.7,1.3,7.1,1.6,4.8h0Z"/>
  <path class="st0" d="M302.1-25.8c0-.4-.1-.8-.2-1.2,0-.4,0-.8-.1-1.2,0,1.4.2,2,.3,2.4h0Z"/>
  <path class="st0" d="M521.6,64l-.3.2c.6.3,1.6.3,3.6.5l-3.3-.7h0Z"/>
  <path class="st0" d="M568,104.2c-.2-.2-.5-.5-.7-.7.3.6.7,1.2,1.1,1.8l-.4-1.1h0Z"/>
  <path class="st0" d="M611.3,111.3c-.9.2-1.9.4-2.8.5-1,.2-1.9.4-2.8.4,2-.2,3.5-.4,4.5-.4,1-.1,1.5-.2,1.1-.5h0Z"/>
  <path class="st2" d="M439.6-87.3c4.7-1.1,18-2.1,34.1,5.7,9.7,4.7,17.2,12.1,20.5,21.1,14.8-5.3,37.5-9.7,62.6-.4,11.1,4.1,24.9,9.5,32.5,26.5,3.5,7.7,4.6,15.4,4.9,20.7,4.6,9,5.3,16.5,5.4,20.4.4,18.6-11.6,36.3-30.1,42.9.9,1.6,10.9,20.9-5.3,39.1-12.9,14.5-37.1,22.1-60.6,18.9-.9,1.4-13.6,20.3-41.1,24.1-21.5,2.9-42.9-4.7-53.5-19.1-18.1,7.7-39.9,6.9-54.8-2-9.7-5.8-12.2-16.6-16.3-23.4-28.1-46-102.4,15.3-175.7-18.2C122.2,50.6,80.6,3.6,83.7-32.8c2.7-32.1,39.9-52.9,69.9-52.2,42.3,1,70.2,44.9,74.3,51.6,8-.8,17.3-.8,27.4.4,19.8,2.5,36.5,9.2,48.9,15.8,4.9-7.8,29.9-45.6,68.3-43,11.1.7,20.7,4.7,28.1,9,2.7-5.8,15.1-30.5,39.1-36.1h0Z"/>
  <path class="st0" d="M412.3-70.1l.4-.5c-1.1,1.2-2.1,2.6-3.1,3.9.9-1.1,1.8-2.3,2.8-3.4Z"/>
  <path class="st0" d="M392-56c1.3.6,3.7,1.7,6.4,3.2.6.3,1.2.7,1.9,1,.1.2.2-.1.2-.2l.2-.5.6-1.2c.8-1.6,1.6-3,2.4-4.3l.5-.8,1.3-2.4c-1,1.5-2,3.2-2.9,4.9-.5.9-1,1.8-1.4,2.7l-.7,1.4-.2.4c0,0-.2-.1-.3-.2-3-1.7-6-3.1-8-4h0Z"/>
  <path class="st0" d="M377.4-60.9c.9.3-3.2-.5,3.5.7-.3,0-.4-.1-.6-.2-.6-.1-1.4-.3-2.9-.6Z"/>
  <path class="st0" d="M380.2-60.3c2.9.6-1.9-.5,0,0Z"/>
  <path class="st0" d="M366.5-61.5h3.9c-.8-.1-4.3-.2-3-.2-1,0-1.7,0-2.1,0-.4,0-.6.1-.6.1,0,0,.2,0,.5,0,.3,0,.8,0,1.4,0h0Z"/>
  <path class="st0" d="M362.9-61.1l2-.3c-.4,0-.9,0-2,.3Z"/>
  <path class="st0" d="M369.2-61.4c-1.4,0-2.9,0-4.3,0,.6,0,.6.1,2,0-.3,0,.5,0,2.3,0Z"/>
  <path class="st0" d="M371.6-61.3c2.2.1,5,.5,1.1.3,3.7.3,5.3.6,5,.5-.3,0-2.4-.6-6.1-.8Z"/>
  <path class="st0" d="M390.6-56.3c.9.4,1.9.8,2.8,1.2.8.3,1.6.7,2.4,1.1-1.2-.6-5.4-2.5-5.2-2.3Z"/>
  <path class="st0" d="M342.9-56.1c-.2.2,1.3-.3,1.6-.3l1.3-.7,1.4-.5c-.4.1-.8.2-1.2.4-.4.2-.9.4-1.3.6-.9.4-1.6.6-1.7.6h0Z"/>
  <path class="st0" d="M344.5-56.5l-4,2c3.6-1.6,4.2-2,4-2Z"/>
  <path class="st0" d="M362.2-60.6c1.2-.2,2.3-.4,3.5-.5h3.5c-1.4,0-2.8,0-4.2,0l-4.2.6h1.3c0-.1,0-.2,0-.2Z"/>
  <path class="st0" d="M328.2-47.3c.7-.6,1.3-1.2,2-1.8-1.2.9-2.4,2.1-3.6,3.1l1.6-1.4Z"/>
  <path class="st0" d="M319.2-39.5c1.3-1.6-2.1,1.6-.7,0-2.4,2.3-4.2,4.6-5.8,6.6,1.8-2.1,3.7-4.3,6.5-6.6h0Z"/>
  <path class="st0" d="M310.1-29.3c.8-1.1,1.7-2.3,2.7-3.5-.9,1.2-1.8,2.3-2.7,3.5Z"/>
  <path class="st0" d="M334-50.7c-.3.1-.9.4-3.1,1.8l1.6-.7c.5-.3,1-.7,1.5-1Z"/>
  <path class="st0" d="M332.5-49.7h0c-1.6,1.1-2.7,1.8-3.2,2.2.4-.3,1.4-1,3.2-2.2h0Z"/>
  <path class="st0" d="M334.3-51c-.1,0-.2.2-.4.3.2,0,.2-.1.4-.3Z"/>
  <path class="st0" d="M351.2-58.6c-2.4,1-7.3,2.9-2.5,1.4,1.7-.8-1.1.1,2.5-1.4Z"/>
  <path class="st0" d="M336.3-51.8l4.1-2.3c0,0-.9.3.2-.4-1.5.8-2.9,1.8-4.4,2.7Z"/>
  <path class="st0" d="M334.4-50.5c.6-.5,1.3-.9,2-1.3l-1.5.9-.4.4Z"/>
  <path class="st0" d="M316.1-35.7c-.7.9-1.5,1.8-2.3,2.7-.8,1-1.6,2-2.5,3,1.9-2.3,4-4.5,5.9-6.6.2-.3,1-1.5-1.1.8Z"/>
  <path class="st0" d="M323.8-43.1c-.1.1-.2.2-.4.3.2-.2.4-.3.4-.3Z"/>
  <path class="st0" d="M293.3-24.9c.1,0,.2.2.4.2,0,0,0,0,.1,0l-.5-.2h0Z"/>
  <path class="st0" d="M317.6-36.9c1.6-1.5,2.5-2.5,3.3-3.4-1.1,1.2-2.4,2.4-3.7,3.7-.1.2-.1.2.4-.3h0Z"/>
  <path class="st0" d="M305.5-23c.7-.9,1.6-1.9,2.5-3-.8.8-2.3,2.6-2.5,3Z"/>
  <path class="st0" d="M322.9-42.3c0,0,.1-.1.2-.2-.6.4-.5.4-.2.2Z"/>
  <path class="st0" d="M322.9-42.3c-.8.8-1.4,1.4-2,2.1,1-.9,1.8-1.7,2.6-2.5-.2.2-.4.3-.6.4h0Z"/>
  <path class="st0" d="M285.7-25.1c.4-.3,5.5,1.2,9.7,3.6,4.3,1.7,1.8-.8-1.8-3.2-.2.1-.2.2-4.6-1.4,1.5.8,9.6,4.7,5.8,3.4-2.9-1.2-4.1-1.7-4.9-2.1-.8-.4-1.2-.7-2.6-1.4,1.2.7-.7.2-2.7-.3-2-.5-4.2-1-3.6-.4,1.7.5,3.4,1,5.1,1.5,0,.1-1.8-.3-.4.3h0Z"/>
  <path class="st0" d="M301.9-20.6c.6.3,1.3.7,1.4.7-.9-.5-1.6-1-2.4-1.4-.9-.6-1.9-1.2-3.3-2-3-1.3-3.7-1.4-3.9-1.3,2.9,1.3,5.9,2.8,8.8,4.3l-.6-.3h0Z"/>
  <path class="st0" d="M307.8-25.7c-.4.8-1.3,2.3-1.9,3.3-.5,1-.8,1.5.3.4,3.7-5.1,2.4-3.8,4.6-6.9-6.1,8,1.7-2.4-2.9,3.2,1.2-1.6,2.3-3.1,3.3-4.3-1.2,1.3-2.3,2.7-3.3,3.9,0,0,.1-.1.2-.2h0c.3-.3.4-.4,0,0,0,0,0,.1-.1.2,0,.1-.1.3-.2.5-1.8,2.3-.3.3.2-.5,0,0,0-.1,0-.1h0c-1,1.4-2,2.8-3,4.2-.4.7-1.1,1.7-1.2,1.8l-.3.5c-.1,0-.3-.1-.4-.2,0,0,.2.1.3.2,0,0,.1,0,.1,0v-.2c.3-.3.5-.6.8-1,.9-1.3,2-2.8,3.4-4.8h0Z"/>
  <path class="st0" d="M344.5-54.9c-.3,0-.2,0-.3,0-.5.3-.7.4.3,0Z"/>
  <path class="st0" d="M341.2-53.5c.6-.3,1-.6,3-1.5,1.7-.7,0,.1.1.2,1.1-.6,4-2.1.3-.5l-.6.3c-3.3,1.3-7.5,3.5-6.9,3.2,1-.3,1.9-.7,4.1-1.6h0Z"/>
  <path class="st0" d="M323.3-41.5c-2,1.8-3.8,3.8-5.7,5.7l3-2.7h-.2c3.3-3.1,2.5-2.5,2.9-3h0Z"/>
  <path class="st0" d="M292.5-25.5h1c-1.4-.4-2.8-.8-4.2-1.2,1.1.4,2.1.8,3.2,1.2h0Z"/>
  <path class="st0" d="M283.2-29.2l.4-.3c-.8-.2-1.7-.4-2.5-.6l2.1.9h0Z"/>
  <path class="st0" d="M348.1,101.7c.5.6,1,1.2,1.6,1.7-.7-.8-1.2-1.3-1.6-1.7Z"/>
  <path class="st0" d="M338.7,84.5l-.4-.3c.6.7.9,1,.4.3Z"/>
  <path class="st0" d="M80.5-25.7c-.2,4.7.3,10.2.7,9.4l.2-1.5c-.3-1.6-.6-3-.7-4.3-.1-1.3-.2-2.5-.2-3.5h0Z"/>
  <path class="st0" d="M216.3,76.8l4.1.3c-.9-.1-2.2-.2-4.1-.3Z"/>
  <path class="st0" d="M426.9,123.6c.8.2,1.6.5,2.4.6-3.6-1.6-2.1-.7-2.4-.6Z"/>
  <path class="st0" d="M195.9-73.2c-2.4-2-4.4-3.5-6.2-4.7,3,2.4,5.2,4.6,6.2,4.7Z"/>
  <path class="st0" d="M341.1,98.5c.9,1.5,1.3,2.1,1.3,2-.9-1.5-1.4-2.4-1.3-2Z"/>
  <path class="st0" d="M182.1-82c.5.3.9.5,1.4.8,1.9,1,3.9,2,6.2,3.4-1.1-.8-2.3-1.6-3.6-2.4-1.3-.7-2.6-1.5-4-1.8h0Z"/>
  <path class="st0" d="M548.5-62.9c-.2,0-.5-.2-.7-.2,0,0,.2,0,.7.2Z"/>
  <path class="st0" d="M465.4-85.2c.9.3,2.3.8,3.6,1.3-.6-.3-1.7-.7-3.6-1.3Z"/>
  <path class="st0" d="M244.9-37.4c2,0,.3,0,0,0Z"/>
  <path class="st0" d="M254.7-34.3c-.4,0-.8,0-.8.2.2-.1.4-.2.8-.2Z"/>
  <path class="st0" d="M161.5-84.2s-.1,0-.2,0c.6.3.5.2.2,0Z"/>
  <path class="st0" d="M247.9-37c-.8-.1-1.6-.3-2.6-.3.4,0,1.2.2,2.6.3Z"/>
  <path class="st0" d="M247.5-37.3c.7,0,1.3.2,1.8.2.3,0,0-.2-1.8-.2Z"/>
  <path class="st0" d="M242-37.5c1.2,0,2.2.1,3.3.2-.4,0-.6-.1-.5-.1-.6,0-1.4,0-2.8-.1Z"/>
  <path class="st0" d="M559.4,91.8c.1,0,.2-.2.4-.3,1.6-1.5.9-.9-.4.3Z"/>
  <path class="st0" d="M381.9,114.9c-1.7-.1-3.3-.4-4.9-.7,5.9-.2,10.2-.3,5.6-.8-.3.7-5.1.8-9.8,0-4.8-.7-9.4-2.3-9.8-1.7-1-.5-2.1-1-3.1-1.6.9.4,1,.4,1.9.7-3-1.6-4.1-1.9-5.5-2.3-.7-.2-1.5-.4-2.4-.9-1-.5-2.2-1.4-3.8-3-2.1-2.4-3.2-4.7-1.9-2.9-1.5-1.9-2.9-4-4.1-6.4-1-2.2-.6-1.8.4.4-.9-1.8-1.8-3.7-2.8-5.7-.5-1-1-2-1.5-3l-.9-1.5-.9-1.3h0c-.6-.6-1.5-1.8-2.5-2.9-1-1-2.1-2-2.8-2.7-1-1.2-.8-.9-.2-.5.5.5,1.1,1.2.9.8-.8-.9-1.6-1.5-2.5-2.2l-1.3-1-.6-.5-.7-.4c-1-.9-.4-.7.9,0,.6.5,1.4,1.1,2.3,1.8.4.4.9.7,1.3,1.1.4.5.8.9,1.2,1.4-.5-.8-.9-1.4-1.2-2-.4-.5-.8-.9-1.2-1.3-.8-.7-1.5-1.3-2.4-1.9-1-.5-2.1-1.2-3.6-2.2-1.6-.7-3.6-2-6.4-3.1.9.3,1.8.5,2.7.9l2.7,1.2c-.8-.7-1.7-1.2-2.6-1.8-1-.5-2-.9-3.1-1.4-1.1-.5-2.3-.8-3.6-1.2-.7-.2-1.3-.4-2-.6-.7-.2-1.4-.3-2.2-.5.4.1,1.3.4,2.4.7,1.1.4,2.4.9,3.4,1.4,1,.4,1.8,1,1.9,1.2.1.3-.4.1-1.9-.2-.9-.3-1.9-.6-3.1-.8-1.2-.3-2.6-.3-4.2-.4,0-.6-3.2-.9-7.2-.9l.2-.8c-4.3.2-3.9.6-6.4,1.1-4.8.2-5.8-.3-7-.7-7.6.7,5.3.4-3.6,1.6-6.3.5-10.6,1.5-17.9,3.2-4.4.5.7-.6-.9-.6l-3.7,1.3c-.9.1-.7-.1-.5-.2-3.2.8-.2.9-5.2,2-1.2,1.2-10.6.4-16.7,2.2-1.6,0,.7-.6.2-.9-4.3.9-6.1,1.2-7.7,1.5-1.6.4-3.1.7-6.6,1.4-2,0-4.1,0-6.1-.2,4.5.5-1.1,1.6-6.1,2.2,1.6.3,3,.6,3.9.7-2.7.3-5.3.3-8,.5-1-.1-.2-.4,1.1-.8-.6,0-1.1.1-1.5.2-2.9-.5-1.4-.9.6-1.3,1,.2,2,.4,2.9.6,2-.5,3.8-1.1,3.3-1.6-.5.1-1.5.2-2.6.2.5-.1.8-.3.6-.4-.3,0-1.1,0-2.4.3l-1.9-1-.4.4c-3.5-.4-7-.7-10.4-1.3-1.9,0-3.7.2-5.5.2-1.8,0-3.7,0-5.8,0-2-.2-4.2-.3-6.6-.7-1.2-.2-2.5-.5-3.8-.7-.7-.1-1.4-.3-2-.4-.7-.2-1.4-.4-2.2-.6,3,.3.8-1,1-1.8,3.1,2,9.1,2.3,15.2,3.6-3.2-.7-2.5-1-1.6-1l-5.5-.7-5.4-1.1c.2-.3-.4-.6-1.3-1-.9-.4-2.3-.9-3.6-1.5,1,1.1-1.1.7-3.9-.3-2.8-1.1-6.4-2.5-8.6-3.4,0-.3.2-.5,1.1-.2.9.3,2.5.9,5.1,2-1.4-.9-2.6-1.4-3.7-1.8-1.1-.4-2-.7-3-.9-1.9-.5-3.9-.9-6.5-3,1.3.7,1.9,1.2,2.5,1.2-3.1-1.1-10-5.9-8.2-5.3.4.3.8.5,1.2.8-4.1-2.6-10.2-6.9-15.3-10.9-5.2-3.9-9.4-7.5-10.2-7.5,0-.2,1.6-.4,2.2-.2-5-2.9-10-6.1-14.9-9.7,1.6.3-1.3-6.5,4.8-.5-1.6-2-3.6-4.4-7.1-8.3,1,1.5,1.9,4.6.3,2.8-1.7-3-2.3-4.1-3.1-5.2-.7-1.2-1.6-2.5-3.6-6.2,1.4,2.3-1.3,1.2-3.6-2.4.5.4.8-1.5,1.8-.3-2.2-2.5-4.3-5.3-6.4-8.1,1.5,2.2,1.1-.4.4-2.9.1.6-.9-1.5-2-4.1-1.1-2.6-2.2-5.7-2.7-7.1.4,1.5.8,3,1.3,4.5-.5-1.4-1-2.7-1.4-3.8-.4-1.1-.8-2.1-1.1-3-.7-1.8-1.3-3.2-1.8-4.6-.3-.7-.5-1.5-.8-2.3-.2-.8-.5-1.6-.7-2.6-.4-1.9-.7-4.4-.5-7.6.1.8.5,1.8,1,1.8.5,0,.8-1,1.2-3.9-.2-1.4-.7-4.8-.2-9.3.4-4.4,1.9-9.9,4.7-14.4l1.4-1.2c1.4-2.2,2.9-4.3,4.5-6.3-1.2,2.3-3.6,6.5-5.5,11.3-2,4.8-3.2,10.3-3.7,14.1.7-2,1-2.1,1.2-2.6.2-.5.5-1.2,1.7-4,.6-.8.4,0,0,1.3-.2.7-.4,1.4-.7,2.1-.2.7-.4,1.4-.5,1.8.7-2.2,1.7-4.3,2.8-6.3,1.1-2,2.3-3.9,3.7-5.6-.2,0,0-.7.4-1.6.5-.8,1.2-2,2-3.1.8-1.1,1.6-2.1,2.2-2.9.6-.8.9-1.4.7-1.5-3.3,3.7-6.2,7.8-8.5,12.5-.5,0,0-2.6,1.8-5.9,1.7-3.3,4.7-7.4,8.3-10.4,2-1.2-.5,2.9-.1,3.1.4-.6,1.9-2.2,3.6-3.6,1.6-1.4,3.4-2.6,3.7-2.7-1,1-2,1.8-2.9,2.8,2.1-1.4,3.7-2.8,5.4-4.3,1.7-1.4,3.7-2.8,6.5-3.6,1.9-.9,5.9-1.1,6.1-1.9-3.4,0-5.1-3.5-3.3-5.4.4,0,3-.9,5.9-1.5,2.9-.6,6-1,7.2-.9,1.7.1.6,1-.6,1.9-1.2.9-2.4,1.9-.9,1.9,0-.4,1.8-1.2,2.5-1.5,2.1-.2-.7,1.1,3.8,0,.6-1.4,9.2-1.3,2-1.3,2.2-.5,3.4-.6,4.7-.6,1.3,0,2.7,0,5.3-.1-.9-.4.3-1,2.2-1.6,2-.5,4.8-.7,7.1-.7-.3.3.8.7,1.2,1,2.3.5,4.4,1,6.3,1.5,1,.2,1.9.6,2.8.9.9.3,1.8.7,2.6,1,.9.3,1.7.6,2.6,1,.9.4,1.7.8,2.6,1.2,1.8.9,3.7,1.6,5.7,2.9.7.7,4.6,3.2,2.8,2.7,1.2.4,2.4.8,4.9,2.5,4.5,4-5.5-3.5-2.2,0,.2-.2,1.9.7,3.9,1.8,2,1.2,4.4,3,6.1,4.1-.4-.8-2.3-2.4-4.6-4.1-2.3-1.6-5.1-3-6.9-4,.2-.7,1.9-.2,4.7,1,.7.3,1.5.6,2.3,1.1.8.5,1.6,1,2.6,1.6.9.6,1.8,1.2,2.8,1.9,1,.7,2,1.5,3,2.3,3.3,2.7,3.8,3.6,3.7,3.8,0,.2-.8-.2-.2.3,1.4,1.5,2.7,2.6,3.7,3.7,1.1,1.1,2,2,2.8,2.8,1.6,1.5,2.8,2.7,4,3.8,2.3,2.2,4.3,4.1,8.2,10.4,2.8,5.3-.7,1.2-.2,2.6-4.3-5.9-6.4-9.5-9.5-13.2l1.8,2.4,1.8,2.5c-1.5-1.7-4.7-5.2-6.3-7.3,1.3,2,6,7.1,10.6,14,1.2,1.7,2.3,3.4,3.5,5.4l.5.7c.2,0,.4,0,.7,0h1.3c.9-.2,1.7-.2,2.5-.3,3.3-.1,6.5-.1,9.2,0,1.9-.2,5.1-.3,3.5-.7h-3.3c-3.1-.7,6.3-.6,2-1,4.5-.2,9.6-.4,15.9.9l1.2,1c-.1-.3-4.1-1.1-5.9-1.1,2.7,0,9.6,2.5,12.6,2.3-1.5-.5-2.9-1-4.4-1.4,4.5.5,10.2,1.2,15.7,3.2-2.5-1.5-1.3-.3-5.2-2.3,1.7,1-1.9,0-5.2-.9-3.3-.8-6.4-1.4-3.7-.3-4.1-1.8-7.1-1.8-12.5-3.4.2.3,1.9.7-2.8,0-.2,0-.7.1-1,.1-.1,0-.2,0-.3,0,0,0,.2,0,.3,0-.2,0-.2,0,0,0,1.1.2,2,.4,2.4.6-2.4.3-9.9-.1-12.4.3-2.8-.1,1.2-.3-.4-.6-1.3.2-2.5.3-3.8.6-.4-.6-7.5-.7-.9-1.4h-3c0,.1-.9.2-.9.2-.1,0-.3.1-.5,0,.1,0-1.7-3.2-3.1-5.2-1.4-2.1-2.9-4.1-4.1-5.5-2-2.9-5.9-6.3-3.7-4.4-2.5-2.9-5.1-5.6-7.7-8.1v-.2c-7.7-8-16.9-14-26.8-20.6-1.5-.6-3.1-1.3-5-2-1.8-.9-3.9-1.5-6.5-2.5l-1-1c-.5-.1-1.1-.3-1.7-.5-.6-.2-1.3-.3-2-.5-1.4-.3-2.8-.7-4.2-1.1-1.4-.4-2.7-.6-3.8-.6-1.1,0-1.9,0-2.4,0-.6-.3-1.3-.5-2.2-.7-.4-.1-.9-.2-1.4-.3-.5,0-1,0-1.6-.1-2.2-.2-4.8,0-7.4.3-5.3.6-10.7,2.1-14.2,3v.9c-4.8,1.3-9.3,3.3-14.8,6.4l.6.6c-2.3,1.5-5.4,3.1-8.7,5.1-3.3,2-7,4.6-10.3,7.9.3-.7,2-2.3,3.4-3.2-2.2,1.4-4.4,3.3-6.3,5.5-2,2.2-3.8,4.8-5.3,7.6-1.6,2.8-3,5.7-4.1,8.8-1.2,3-2.1,6.1-2.9,9.2-.4,3.2-.6,5.5-.8,7.8,0-.3,0-.6,0-.8,0,.3,0,.8,0,1.3-.1,1.4-.2,2.9-.2,4.6,0-1.4.2-2.7.2-3.9,0,2.5.3,6.4,1.1,10-.1.6-.2,1.1-.3,1.7,0,.3.1.5.2.8.6,3.6.9,2.7.9.7.5,1.8,1,3.3,1.5,4.5,0,.8.1,1.7.5,2.8s.7,2.2,1.2,3.2c.5,1.1.9,2.2,1.4,3.3.4,1.1.8,2.1.9,3.2.7.9,2.6,4.7,4.8,8.1,2.2,3.4,4.5,6.5,5.3,6.7,0,.2.4,1-.5-.4,1.9,3.1,3.9,6,6,8.2l.4,1.9c1.8,1.7,3.6,3.3,5.4,4.8,2.7,3.8,3.8,5.5.5,2.7,3.9,3.5,5.4,5,6.8,6.3,1.4,1.3,2.7,2.5,6.2,5l-.6.2c2.3,2.1,6.4,4.7,7.7,6.3,2.5,2.7,9.2,8.1,17.4,13.1,4.1,2.5,8.5,5,12.9,7.1,4.4,2,8.7,3.9,12.6,5.4-1.4-1.3.4-.5,2.6.4,2.2.9,4.9,1.9,5.3,1.3.9.6,3,1.4.5,1.1,8,1.4,12,3,17.6,2.5.9.5-1.7.4-.9.7.6,0,2.6,0,3.4.2.8.3-1.2.2-2.4.3,4.1.4,6.4.1,7.6-.3,1.3-.4,1.6-1,1.9-1.5,4.1.6,6.2.5,9.1-.2,1.4.3,3.9.6-1.2.9.7,0,2.1,0,3.9,0,1.8,0,3.8,0,5.8-.2,4-.2,7.6-.8,7.7-1.2.9.2,3.9-.4,4.7-.6,6.3-.7,6.8-.8,13-1.8h-1.7c2.3-1.3,5.1-.9,10-1.9h-.1c11.4-1.1,4.8-1.1,16.1-2.1l-.7-.5c.9-1.5,10-.9,16.4-1.9h-2.4c3.5-.9,10.1.7,13.6,1.1.8.1-1.2.2-2.3.3,4.6.3,4.9.3,4.9,0,0-.3-.3-.8,3.2-.6,1.3.6-1.6.8,3,1.5.6.2,1.7.2,3.1.5.7.1,1.5.2,2.4.4.8.2,1.7.5,2.7.7,3.7,1.1,7.9,3.2,10.2,6-1-1.3-2.1-2.5.7-.4.3.2.5.4.8.7.2.3.5.6.8.9.5.6,1.1,1.3,1.7,2,.6.7,1,1.6,1.6,2.4.5.8,1.1,1.6,1.5,2.5,1.8,3.5,3.5,7.7,5.2,10.1.4.8.5,1.1.4,1.2,1.3,2.2,3.7,5.7,6.4,8.1,2.7,2.5,5.5,3.7,6.6,4.1.7.9,2.6,2,5,3,1.2.5,2.5,1,3.9,1.3,1.4.4,2.8.7,4.2.9,5.6,1.1,10.7.9,10.7,1.8,4,.2,8,0,11.9-.5l-.3.2c7.6-.9,10.1-2.3,12.6-3.5,1.7-.4.5.1.4.2.7-.2,1.3-.4,1.9-.6.6-.2,1.2-.4,1.7-.6.3-.1.6-.2.9-.3h.2c0,0,.1.1.1.1,0,.1.2.2.3.4.3.3.5.6.8,1,.3.4.7.8,1,1.1.7.7,1.3,1.3,1.9,1.9,2.5,2.2,4.9,4,9.5,6.2l.8,1c1.2.6,5.1,2.8,10.1,4.5,5,1.8,11.2,3.1,16.7,3-.1,0-.3.1-1.2.1,3.1.1,6.5,0,9.9,0,1.7-.1,3.4-.2,5.1-.4,1.7-.3,3.3-.4,4.9-.8,1.6-.4,3.1-.7,4.5-1.1,1.4-.5,2.7-.9,3.8-1.3,2.3-1,4.1-1.9,5-2.9,2.5-1.3,4.9-2.8,7.2-4.5-4.7,2.9-4.4,2.4-3.4,1.6,1-.8,2.6-2,.6-1,3.6-2.2,9.3-6,5.1-2.7l-.7.4c-.3.5.2.3,1.2-.4.5-.3,1.1-.7,1.8-1.2.6-.5,1.4-1.1,2.1-1.7,2.9-2.4,5.6-5.5,5.6-5.2.5-.6,1-1.1,1.4-1.7l.7-.9.6-.8.2-.3h0c0-.1.1-.1.1-.1h.6c0,0,1.9.3,1.9.3,1.3.2,2.6.2,3.8.3h1.9c0,.1,1.9.1,1.9.1,5.1,0,10.1-.4,15-1.3,9.8-1.8,19.3-5.3,27.7-11.4-.7.3-1.4.6-2.1.8,1-.6,2-1.3,2.9-2.1l1.4-1.1,1.4-1.2c1.5-1.2,2.2-1.3-1.8,2.1.6-.3,1.3-.9,2-1.6.7-.7,1.5-1.3,2.1-2.1,1.3-1.5,2.3-2.8,2.3-2.9,1.7-2.1,2.5-2.9,2.6-3,.1,0-.3.6-.9,1.4-.6.8-1.3,1.9-1.8,2.5-.5.6-.7.8-.1.2,1-1.2,1.9-2.4,2.8-3.6l-.7.8c.3-.4.5-.7.7-1,.2-.4.4-.7.5-1,.3-.6.6-1.2,1-1.8.2-.3.4-.6.6-1,.2-.4.4-.9.6-1.4.2-.5.5-1.1.8-1.7.3-.6.6-1.5.9-2.3.2-.6.4-1,.5-1.4.1-.4.2-.7.3-.9.1-.5.2-.7.3-.8.1-.2.1,0,.4-1,0,0,0-.1.2-.6,0-.5.2-1.2.3-2.4.5-4,.3-8.1-.6-12,0,.8.2,1.6.3,2.4v2.4c-.2-2.7-.7-5.4-1.2-6.8-.2-.7-.3-1-.3-.9,0,.2.1.8.4,2.1-.2-.9-.4-2-.9-3.4,0-.4-.2-.7-.4-1.1,0-.2-.1-.4-.2-.6v-.3c-.1,0-.2-.2-.2-.2-.2-.5-.4-1-.6-1.5.3-.2.7-.3,1.1-.4.2,0,.5-.2.7-.3.3-.1.6-.2,1-.4,1.3-.7,2.6-1.2,4-2,.7-.4,1.3-.8,2-1.2.7-.4,1.3-.9,1.9-1.4,1.3-.9,2.5-2,3.7-2.9,4.6-4.1,7.8-8.9,8.6-10.3,1.6-2.8,3-5.7,4.1-9.1,1.1-3.3,2.1-7.1,2.3-11.5-.1,1.1-.3,1.9-.3,1.6,0-.2,0-.7,0-1.6,0-.9,0-2.2,0-4.1.2,1.4.4-2.1-.4-6.7-.4-2.3-1.1-4.8-1.8-7-.7-2.2-1.6-4.2-2.1-5.6.5,1.2.2.7-.5-.7-.1-.2-.1-.2-.2-.4,0-.2,0-.3,0-.5,0-.5-.1-1.1-.2-1.6-.1-1.2-.3-2.4-.5-3.7-.8-5-2.2-9.3-1.2-5.2-.8-3.1-.8-3.1-.7-3.1,0,0,.2.3-.5-2-.6-1.8-1.3-3.5-2.2-5.2-.4-.8-.9-1.7-1.3-2.6-.5-.8-1-1.6-1.5-2.5-2-3.2-4.5-6.2-7.2-8.7-5.5-5.1-12-8.4-18.6-10.9-.2,0,2,.9-.9-.1-2.3-1-4.6-1.9-7-2.7-1.3-.4-1.9-.5-2.8-.7-.9-.2-2-.6-4.5-1.1.7.2,1.7.5,0,0-6.6-1.5-13.3-2.2-20.1-2.1-6.7.1-13.4,1-20.1,2.6-3.3.7-6.6,1.7-9.8,2.8l-1.2.4h-.2c0,.1,0,0-.1-.1l-.3-.8c-.4-1-.9-2.1-1.4-3-1-1.9-2.2-3.7-3.5-5.3-5.3-6.4-11.8-10.4-18.3-13.3,1.8.8,2,1,1.6.8-.5-.2-1.7-.8-3.1-1.3,1.8.7,0,0,.3.2-3.7-1.5-7.4-2.7-11.1-3.5-1-.2-4-.7-7-1-2.9-.2-5.7-.2-6.3,0,1.2,0,2.4,0,3.6,0-2.4,0-.7,0,1.5.2,2.2.2,4.8.6,4.5.6,5.3.6,14,3.1,22.2,7.6,1.8,1-1.6-.8-.6-.3,1,.6,2.2,1.2,3.6,2.2,1.4,1,3.2,2.2,5.2,4.2l-.5-.4c3,2.7,5.3,5.5,7,8.5.9,1.5,1.6,3,2.3,4.6l.3.8c.2,0,.5-.1.6-.2l.9-.3,1.8-.6c5-1.5,10.2-2.9,17.9-3.9h-1.1c3.3-.3,4-.4,5.6-.5,1.9-.2-.4,0-2.8.2-2.4.2-4.8.6-3.1.3,2.2-.2,8-.9,13.8-.8,5.7,0,11.2.8,12.7,1.3,5.1.9-1.5-.4,3.6.6l1.4.4,1.3.2c3.3.9,5,1.5,5.1,1.6-.8-.2-2.3-.6-3.2-.9,4.3,1.1,12.1,4.1,13.6,4.8-1.6-.7-3.2-1.3-4.8-2,6.8,2.6,14.5,5.7,21.1,11.7,3.3,3,6.2,6.6,8.5,10.7,2.3,4.1,4,8.6,5,13,0-.5-.2-.9-.3-1.4.9,3.3,1.3,5.8,1.6,7.7.1,1,.2,1.8.3,2.6,0,.4,0,.8,0,1.1v.6c0,.3,0,.5.2.7.7,1.4,1.2,2.7,2,4.6.7,1.9,1.6,4.4,2.4,8.1v-.5c.2,1.5.5,3.2.7,5.1.2,1.9.1,4,0,6,0-1.9,0-.1-.3,1.5-.2,1.6-.4,3-.2.6,0,.9-.2,1.7-.3,2.5-.1.7-.2,1.4-.3,2-.3,1.1-.5,2-.7,2.8-.4,1.4-.7,2.1-.8,2.6-.2.5-.2,1-.6,1.8-.2.4-.3.9-.6,1.6-.2.7-.6,1.5-1.1,2.5-.4.6-.7,1.1-1.1,1.6-1.5,2.5-1.4,3.1-5.6,7.9,3.3-4-2.8,2.7.9-1.8-4.3,4.5-7.9,7.1-11,9.1-1.5,1-3,1.7-4.3,2.3-.3.2-.7.3-1,.4-.4.1-.8.3-1.2.4-1,.3-1.9.7-2.9,1l.6,1.4c1.1,2,1.3,2.4,1.2,1.9-.1-.4-.6-1.7-1.4-3.2,1-.4,2.1-.8,3.3-1.3.8-.3,1.7-.7,2.3-1,1.3-.7,2.1-1,1.3-.6,1-.4.5,0-.8.7-.6.3-1.4.8-2.3,1.2-.9.4-2.1.9-3.1,1.3.5.9.9,1.8,1.2,2.5.6,1.3.8,2.3,1.2,3.6.3,1.2.6,2.5.7,4.1.1.8.2,1.6.2,2.5,0,.9,0,1.9,0,3,0,1.1-.1,2.2-.2,3.5,0,.6-.2,1.3-.3,1.9,0,.3,0,.7-.2,1,0,.3-.2.7-.3,1,.3-1.1.3-1.2.4-2.4-.8,4.3-2,8.6-4.9,12.6-.3.7-.7,1.4-1.1,2-.5.6-.9,1.2-1.3,1.7-.4.5-.8,1-1.1,1.4-.3.4-.5.7-.6,1l.8-.9.8-1,1.5-1.9c.5-.6.9-1.4,1.4-2.1.4-.7.9-1.4,1.3-2.2-2.7,5.1-5.9,9.9-13,14.7.3-.3.9-.8,1.6-1.4.4-.3.8-.6,1.1-1,.4-.4.7-.7,1.1-1-1,.8-2,1.5-2.9,2.3-.9.8-2,1.5-3.1,2.1,0-.2.7-.7,1.7-1.4.9-.7,2.2-1.6,3.5-2.7,2.7-2.1,5.5-5.3,7.2-7.8-1,1-2.6,3.3-4.1,4.7-.7.8-1.3,1.3-1.6,1.5-.3.2-.3.1.1-.5-2.7,3.5-7.8,6.1-13.5,9.5l.3-.5c-.5.2-1.2.6-2,1.1-.8.4-1.7.8-2.6,1.2,1-.6,2-1.1,3-1.8-4.7,2.6-9.5,3.2-14.3,4.5,2.5-.5,3.9-1,4.7-1.1.8-.2.9-.1.8,0-.1.2-1,.7,1.2.1-3.1,1.1-5.1,1.6-6.6,1.8-1.5.3-2.5.3-3.5.3-1,0-2.1,0-3.8.1-.8,0-1.9,0-3.1.2-1.2,0-2.7.1-4.5.2,1,0,2.8-.1,4,0,1.2,0,1.8,0,.3.3-1.4,0-3,0-4.4,0-1.5,0-2.8-.2-3.6-.3-9.5-.4,1.5.5-2.6.6-.8-.2-1.5-.3-2.2-.3-.7,0-1.3-.1-1.9-.1s-.7,0-1,0h-.3s-.4,0-.4,0c-.3,0-.6,0-.9,0-.1,0-.3,0-.4,0-.1,0-.2.3-.3.4-.2.3-.4.6-.6,1-.4.6-.6.9-1,1.4l-.2-.3c-1.9,2.3-3.1,3.5-3.8,4.3-.7.8-.9,1.1-1.1,1.4-.4.6-.6,1.3-4.8,4.3,1.1-1,2.1-2.2,3.2-3.3l-2.1,1.8-2.1,1.7.7-1.1c-1.1,1-2.1,1.7-3,2.3-.9.6-1.7,1.2-2.5,1.6-.8.4-1.6.9-2.5,1.4-.9.4-2,.9-3.2,1.5,1.2-.3-.4,1.2-5,2.9-1.6.4-1.2.1-1.2,0,0,0,0,0-.6.1-.5.2-1.4.5-3.1.9,1.5-.6,3-1.5,5.9-2,.3-.3,1.3-.9,1.6-1.1-1.7.5-3.8,1.2-5.8,1.9-2,.5-3.9,1.1-5.1,1.3.9-.1,2-.4,2.6-.5-.8.2-1.6.5-2.4.7l-2.4.6-2.4.6-2.4.4c-1.6,0-.3-.3.8-.6-2,.3-3.3.5-6.2.7.7-.4.5-.8,4.6-1.2-1.5.2-3.1.3-4.6.4-1.6,0-3.1.1-4.7,0-.3-.1-1.5-.3-2.5-.5-1-.2-1.7-.4-1.1-.4-5.1-.8-12.7-1.5-19.2-5-.3,0-1.1-.3-2.4-1-3-1.7-5.7-3.7-8.4-6.1-1.3-1.2-2.6-2.5-3.9-4-.5-.6-.9-1.1-1.4-1.7l-.9-1.1-.5-.5-.6.2c-.7.3-1.5.6-2.2.9-.4.2-.9.4-1.3.6-1.4.2-2.9.4-4.3.6-5.8,1.7,5.9-.5-3.7,2.2-3.4.9-4.1.7-4.2.5-.1-.2.3-.6-.9-.5-3.4.9-9.5,2.2-16,.9,2.1,0,3.8.3,5.8.2v-.2ZM317.1,68.5c.8,0,1.9.5,3,.7,1.1.3,2.1.7,2.6,1.2-.9-.1-1.7-.3-2.5-.6-.9-.3-1.8-.8-3.1-1.3h0ZM203.1,77.6c1.1-.2,2.7,0,4.6.4-1.4,0-2.9-.1-4.6-.4ZM226.3-40.6h-.1c-2.2-3.8-1.4-2.5.1,0ZM229.6-36.6c.6-.1.6-.2.3-.3-.4.1-.4.2-.7.2-.1,0-.3,0-.4,0-.1-.2-.2-.4-.3-.6,0,.2.1.4.3.7,0,.2.2,0,.4.1.2,0,.4,0,.6-.1h0ZM573.7,71.8c0,.6-.3,1.2-.5,1.7.2-1,.4-1.7.4-2.1,0-.5,0-.7.1-.7,0,0,0,.5,0,1.1h0Z"/>
  <path class="st0" d="M216,77.1c.4.1.5.2.6.4.6-.1.6-.2-.6-.4Z"/>
  <path class="st0" d="M426.5,123.4h.2c.1.1.2.1.2.1h-.4Z"/>
  <path class="st0" d="M135.3-79.6c-1.4.2-2.1.3-2.6.3,0,.2.6.2,2.6-.3Z"/>
  <path class="st0" d="M265.9-34.7c-1.5-.2-2.9-.6-4.4-.8,2.1.4,2.9.7,3.9,1,0-.2-.9-.5.5-.2Z"/>
  <path class="st0" d="M302.6-18c.3.1.6.3.9.5.3.1.7.5.8,0h-.2c0,0,0,0,0,0,0,0,0,0-.1,0h-.2c-.1-.2-.3-.2-.4-.3-.3-.1-.5-.3-.8-.4-.5-.2-.9-.4-1.1-.5-.5-.2-.2,0,1.1.7h0Z"/>
  <path class="st0" d="M269.8-31.9c.3.6,3,1.1,6.1,1.9-.2,0-.4,0-.5-.1,1-.4-2.3-1.1-5.5-1.7Z"/>
  <path class="st0" d="M276.6-29.8c.9.3,1.9.6,2.8.9.4-.1-1.1-.4-2.8-.9Z"/>
  <path class="st0" d="M238.2-37.2c1.5.1.9-.7,1.7-.5,1.6-.7-9.7.9-1.7.5Z"/>
  <path class="st0" d="M272.1-29.7l-1-.8h-1.7s2.8.8,2.8.8Z"/>
  <path class="st0" d="M248.2-34.1c1.6.2,3.2.4,4.9.6,0-.1.5-.1,1.3,0-3-.4-6.3-.7-6.2-.5Z"/>
  <path class="st0" d="M254.3-33.6c1.6.2,3,.4,3.9.4-.9-.1-2.7-.4-3.9-.4Z"/>
  <path class="st0" d="M265.5-31.1l-1.4-.4c-1.1-.2-2.3-.5-3.4-.7,1.6.3,3.2.7,4.8,1.1Z"/>
  <path class="st0" d="M203.5-63.5c-1.6-1.3-3.1-2.7-4.7-3.8-.3,0-.1.2.3.6.5.4,1.2,1,2.1,1.8,1.2.8,2.9,2.2,2.3,1.4h0Z"/>
  <path class="st0" d="M215.7-48.2c-1-1.4-1-1.6-1.6-2.6l-.6.5,2.1,2h0Z"/>
  <path class="st0" d="M203.1-61.1c-.6-.2-6.8-5.1-1.1-.2.3,0,1.6,1.1,2.3,1.6.7.6.9.5-1.2-1.4Z"/>
  <path class="st0" d="M127-80.1c.4-.2.9-.3,1.3-.4l-.6-1.6-.7,2.1Z"/>
  <path class="st0" d="M87.7-20.1c-.5-3.8-.6-4.2-.8-4.6-.2-.3-.5-.6-.4-4.1-.2-.9-.2.5-.3,1.9,0,1.4.1,2.9-.1,1.9.8,4.7,1.3,7.1,1.6,4.8h0Z"/>
  <path class="st0" d="M86.1-24.8c0-.4-.1-.8-.2-1.2,0-.4,0-.8-.1-1.2,0,1.4.2,2,.3,2.4h0Z"/>
  <path class="st0" d="M305.6,65l-.3.2c.6.3,1.6.3,3.6.5l-3.3-.7h0Z"/>
  <path class="st0" d="M352,105.2c-.2-.2-.5-.5-.7-.7.3.6.7,1.2,1.1,1.8l-.4-1.1h0Z"/>
  <path class="st0" d="M395.3,112.3c-.9.2-1.9.4-2.8.5-1,.2-1.9.4-2.8.4,2-.2,3.5-.4,4.5-.4,1-.1,1.5-.2,1.1-.5h0Z"/>
  <path class="st2" d="M243.6-73.3c4.7-1.1,18-2.1,34.1,5.7,9.7,4.7,17.2,12.1,20.5,21.1,14.8-5.3,37.5-9.7,62.6-.4,11.1,4.1,24.9,9.5,32.5,26.5,3.5,7.7,4.6,15.4,4.9,20.7,4.6,9,5.3,16.5,5.4,20.4.4,18.6-11.6,36.3-30.1,42.8.9,1.6,10.9,20.9-5.3,39.1-12.9,14.5-37.1,22.1-60.6,18.9-.9,1.4-13.6,20.3-41.1,24.1-21.5,2.9-42.9-4.7-53.5-19.1-18.1,7.7-39.9,6.9-54.8-2-9.7-5.8-12.2-16.6-16.3-23.4-28.1-46-102.4,15.3-175.7-18.2C-73.8,64.6-115.4,17.6-112.3-18.8c2.7-32.1,39.9-52.9,69.9-52.2C-.1-70,27.7-26.1,31.8-19.4c8-.8,17.3-.8,27.4.4,19.8,2.5,36.5,9.2,48.9,15.8,4.9-7.8,29.9-45.6,68.3-43,11.1.7,20.7,4.7,28.1,9,2.7-5.8,15.1-30.5,39.1-36.1h0Z"/>
  <path class="st0" d="M242.2-73.3c1.7-.5,1.1-.4,1.4-.5-2.9.8-1.3.5-1.4.5Z"/>
  <path class="st0" d="M216.3-56.1l.4-.5c-1.1,1.2-2.1,2.6-3.1,3.9.9-1.1,1.8-2.3,2.8-3.4Z"/>
  <path class="st0" d="M196-42c1.3.6,3.7,1.7,6.4,3.2.6.3,1.2.7,1.9,1,.1.2.2-.1.2-.2l.2-.5.6-1.2c.8-1.6,1.6-3,2.4-4.3l.5-.8,1.3-2.4c-1,1.5-2,3.2-2.9,4.9-.5.9-1,1.8-1.4,2.7l-.7,1.4-.2.4c0,0-.2-.1-.3-.2-3-1.7-6-3.1-8-4h0Z"/>
  <path class="st0" d="M181.4-46.9c.9.3-3.2-.5,3.5.7-.3,0-.4-.1-.6-.2-.6-.1-1.4-.3-2.9-.6Z"/>
  <path class="st0" d="M184.2-46.3c2.9.6-1.9-.5,0,0Z"/>
  <path class="st0" d="M170.5-47.5h3.9c-.8-.1-4.3-.2-3-.2-1,0-1.7,0-2.1,0-.4,0-.6.1-.6.1,0,0,.2,0,.5,0,.3,0,.8,0,1.4,0h0Z"/>
  <path class="st0" d="M166.9-47.1l2-.3c-.4,0-.9,0-2,.3Z"/>
  <path class="st0" d="M173.2-47.4c-1.4,0-2.9,0-4.3,0,.6,0,.6.1,2,0-.3,0,.5,0,2.3,0Z"/>
  <path class="st0" d="M175.6-47.3c2.2.1,5,.5,1.1.3,3.7.3,5.3.6,5,.5-.3,0-2.4-.6-6.1-.8Z"/>
  <path class="st0" d="M194.6-42.3c.9.4,1.9.8,2.8,1.2.8.3,1.6.7,2.4,1.1-1.2-.6-5.4-2.5-5.2-2.3Z"/>
  <path class="st0" d="M146.9-42.1c-.2.2,1.3-.3,1.6-.3l1.3-.7,1.4-.5c-.4.1-.8.2-1.2.4-.4.2-.9.4-1.3.6-.9.4-1.6.6-1.7.6h0Z"/>
  <path class="st0" d="M148.5-42.5l-4,2c3.6-1.6,4.2-2,4-2Z"/>
  <path class="st0" d="M166.2-46.6c1.2-.2,2.3-.4,3.5-.5h3.5c-1.4,0-2.8,0-4.2,0l-4.2.6h1.3c0-.1,0-.2,0-.2Z"/>
  <path class="st0" d="M132.2-33.3c.7-.6,1.3-1.2,2-1.8-1.2.9-2.4,2.1-3.6,3.1l1.6-1.4Z"/>
  <path class="st0" d="M123.2-25.5c1.3-1.6-2.1,1.6-.7,0-2.4,2.3-4.2,4.6-5.8,6.6,1.8-2.1,3.7-4.3,6.5-6.6h0Z"/>
  <path class="st0" d="M114.1-15.3c.8-1.1,1.7-2.3,2.7-3.5-.9,1.2-1.8,2.3-2.7,3.5Z"/>
  <path class="st0" d="M137.9-36.7c-.3.1-.9.4-3.1,1.8l1.6-.7c.5-.3,1-.7,1.5-1Z"/>
  <path class="st0" d="M136.5-35.7h0c-1.6,1.1-2.7,1.8-3.2,2.2.4-.3,1.4-1,3.2-2.2h0Z"/>
  <path class="st0" d="M138.3-37c-.1,0-.2.2-.4.3.2,0,.2-.1.4-.3Z"/>
  <path class="st0" d="M155.2-44.6c-2.4,1-7.3,2.9-2.5,1.4,1.7-.8-1.1.1,2.5-1.4Z"/>
  <path class="st0" d="M140.3-37.8l4.1-2.3c-.1,0-.9.3.2-.4-1.5.8-2.9,1.8-4.4,2.7Z"/>
  <path class="st0" d="M138.4-36.5c.6-.5,1.3-.9,2-1.3l-1.5.9-.4.4Z"/>
  <path class="st0" d="M120.1-21.7c-.7.9-1.5,1.8-2.3,2.7-.8,1-1.6,2-2.5,3,1.9-2.3,4-4.5,5.9-6.6.2-.3,1-1.5-1.1.8Z"/>
  <path class="st0" d="M127.8-29.1c-.1.1-.2.2-.4.3.2-.2.4-.3.4-.3Z"/>
  <path class="st0" d="M97.3-10.9c.1,0,.2.2.4.2,0,0,0,0,.1,0l-.5-.2h0Z"/>
  <path class="st0" d="M121.6-22.9c1.6-1.5,2.5-2.5,3.3-3.4-1.1,1.2-2.4,2.4-3.7,3.7-.1.2-.1.2.4-.3h0Z"/>
  <path class="st0" d="M109.4-9c.7-.9,1.6-1.9,2.5-3-.8.8-2.3,2.6-2.5,3Z"/>
  <path class="st0" d="M126.9-28.3c0,0,.1-.1.2-.2-.6.4-.5.4-.2.2Z"/>
  <path class="st0" d="M126.9-28.3c-.8.8-1.4,1.4-2,2.1,1-.9,1.8-1.7,2.6-2.5-.2.2-.4.3-.6.4h0Z"/>
  <path class="st0" d="M89.7-11.1c.4-.3,5.5,1.2,9.7,3.6,4.3,1.7,1.8-.8-1.8-3.2-.2.1-.2.2-4.6-1.4,1.5.8,9.6,4.7,5.8,3.4-2.9-1.2-4.1-1.7-4.9-2.1-.8-.4-1.2-.7-2.6-1.4,1.2.7-.7.2-2.7-.3-2-.5-4.2-1-3.6-.4,1.7.5,3.4,1,5.1,1.5,0,.1-1.8-.3-.4.3h0Z"/>
  <path class="st0" d="M105.9-6.6c.6.3,1.3.7,1.4.7-.9-.5-1.6-1-2.4-1.4-.9-.6-1.9-1.2-3.3-2-3-1.3-3.7-1.4-3.9-1.3,2.9,1.3,5.9,2.8,8.8,4.3l-.6-.3h0Z"/>
  <path class="st0" d="M111.8-11.7c-.4.8-1.3,2.3-1.9,3.3-.5,1-.8,1.5.3.4,3.7-5.1,2.4-3.8,4.6-6.9-6.1,8,1.7-2.4-2.9,3.2,1.2-1.6,2.3-3.1,3.3-4.3-1.2,1.3-2.3,2.7-3.3,3.9,0,0,.1-.1.2-.2h0c.3-.3.4-.4,0,0,0,0,0,.1-.1.2,0,.1-.1.3-.2.5-1.8,2.3-.3.3.2-.5,0,0,0-.1,0-.1h0c-1,1.4-2,2.8-3,4.2-.4.7-1.1,1.6-1.2,1.8l-.3.5c-.1,0-.3-.1-.4-.2,0,0,.2.1.3.2,0,0,.1,0,.1,0v-.2c.3-.3.5-.6.8-1,.9-1.3,2-2.8,3.4-4.8h0Z"/>
  <path class="st0" d="M148.5-40.9c-.3,0-.2,0-.3,0-.5.3-.7.4.3,0Z"/>
  <path class="st0" d="M145.2-39.5c.6-.3,1-.6,3-1.5,1.7-.7,0,.1.1.2,1.1-.6,4-2.1.3-.5l-.6.3c-3.3,1.3-7.5,3.5-6.9,3.2,1-.3,1.9-.7,4.1-1.6h0Z"/>
  <path class="st0" d="M127.3-27.5c-2,1.8-3.8,3.8-5.7,5.7l3-2.7h-.2c3.3-3.1,2.5-2.5,2.9-3h0Z"/>
  <path class="st0" d="M96.5-11.5h1c-1.4-.4-2.8-.8-4.2-1.2,1.1.4,2.1.8,3.2,1.2h0Z"/>
  <path class="st0" d="M87.2-15.2l.4-.3c-.8-.2-1.7-.4-2.5-.6l2.1.9h0Z"/>
  <path class="st0" d="M152.1,115.7c.5.6,1,1.2,1.6,1.7-.7-.8-1.2-1.3-1.6-1.7Z"/>
  <path class="st0" d="M142.7,98.5l-.4-.3c.6.7.9,1,.4.3Z"/>
  <path class="st0" d="M18.2,93.2c-.3,0-.6-.1-.9-.2-.7.2-1.4.4-2.1.6.9-.1,1.9-.2,3-.4Z"/>
  <path class="st0" d="M20.3,90.8l4.1.3c-.9-.1-2.2-.2-4.1-.3Z"/>
  <path class="st0" d="M230.9,137.6c.8.2,1.6.5,2.4.6-3.6-1.6-2.1-.7-2.4-.6Z"/>
  <path class="st0" d="M145.1,112.5c.9,1.5,1.3,2.1,1.3,2-.9-1.5-1.4-2.4-1.3-2Z"/>
  <path class="st0" d="M352.5-48.9c-.2,0-.5-.2-.7-.2,0,0,.2,0,.7.2Z"/>
  <path class="st0" d="M269.4-71.2c.9.3,2.3.8,3.6,1.3-.6-.3-1.7-.7-3.6-1.3Z"/>
  <path class="st0" d="M48.9-23.4c2,0,.3,0,0,0Z"/>
  <path class="st0" d="M58.7-20.3c-.4,0-.8,0-.8.2.2-.1.4-.2.8-.2Z"/>
  <path class="st0" d="M51.9-23c-.8-.1-1.6-.3-2.6-.3.4,0,1.2.2,2.6.3Z"/>
  <path class="st0" d="M51.5-23.3c.7,0,1.3.2,1.8.2.3,0,0-.2-1.8-.2Z"/>
  <path class="st0" d="M46-23.5c1.2,0,2.2.1,3.3.2-.4,0-.6-.1-.5-.1-.6,0-1.4,0-2.8-.1Z"/>
  <path class="st0" d="M363.4,105.8c.1,0,.2-.2.4-.3,1.6-1.5.9-.9-.4.3Z"/>
  <path class="st0" d="M185.9,128.9c-1.7-.1-3.3-.4-4.9-.7,5.9-.2,10.2-.3,5.6-.8-.3.7-5.1.8-9.8,0-4.8-.7-9.4-2.3-9.8-1.7-1-.5-2.1-1-3.1-1.6.9.4,1,.4,1.9.7-3-1.6-4.1-1.9-5.5-2.3-.7-.2-1.5-.4-2.4-.9-1-.5-2.2-1.4-3.8-3-2.1-2.4-3.2-4.7-1.9-2.9-1.5-1.9-2.9-4-4.1-6.4-1-2.2-.6-1.8.4.4-.9-1.8-1.8-3.7-2.8-5.7-.5-1-1-2-1.5-3l-.9-1.5-.9-1.3h0c-.6-.6-1.5-1.8-2.5-2.9-1-1-2.1-2-2.8-2.7-1-1.2-.8-.9-.2-.5.5.5,1.1,1.2.9.8-.8-.9-1.6-1.5-2.5-2.2l-1.3-1-.6-.5-.7-.4c-1-.9-.4-.7.9,0,.6.5,1.4,1.1,2.3,1.8.4.4.9.7,1.3,1.1.4.5.8.9,1.2,1.4-.5-.8-.9-1.4-1.2-2-.4-.5-.8-.9-1.2-1.3-.8-.7-1.5-1.3-2.4-1.9-1-.5-2.1-1.2-3.7-2.2-1.6-.7-3.6-2-6.4-3.1.9.3,1.8.5,2.7.9l2.7,1.2c-.8-.7-1.7-1.2-2.6-1.8-1-.5-2-.9-3.1-1.4-1.1-.5-2.3-.8-3.6-1.2-.7-.2-1.3-.4-2-.6-.7-.2-1.4-.3-2.2-.5.4.1,1.3.4,2.4.7,1.1.4,2.4.9,3.4,1.4,1,.4,1.8,1,1.9,1.2.1.3-.4.1-1.9-.2-.9-.3-1.9-.6-3.1-.8-1.2-.3-2.6-.3-4.2-.4,0-.6-3.2-.9-7.2-.9l.2-.8c-4.3.2-3.9.6-6.4,1.1-4.8.2-5.8-.3-7-.7-7.6.7,5.3.4-3.6,1.6-6.3.5-10.6,1.5-17.9,3.2-4.4.5.7-.6-.9-.6l-3.7,1.3c-.9.1-.7-.1-.5-.2-3.2.8-.2.9-5.2,2-1.2,1.2-10.6.4-16.7,2.2-1.6,0,.7-.6.2-.9-4.3.9-6.1,1.2-7.7,1.5-1.6.4-3.1.7-6.6,1.4-2,0-4.1,0-6.1-.2,4.5.5-1.1,1.6-6.1,2.2,1.6.3,3,.6,3.9.7-2.7.3-5.3.3-8,.5-1-.1-.2-.4,1.1-.8-.6,0-1.1.1-1.5.2-2.9-.5-1.4-.9.6-1.3,1,.2,2,.4,2.9.6,2-.5,3.8-1.1,3.3-1.6-.5.1-1.5.2-2.6.2.5-.1.8-.3.6-.4-.3,0-1.1,0-2.4.3l-1.9-1-.4.4c-3.5-.4-7-.7-10.4-1.3-1.9,0-3.7.2-5.5.2-1.8,0-3.7,0-5.8,0-2-.2-4.2-.3-6.6-.7-1.2-.2-2.5-.5-3.8-.7-.7-.1-1.4-.3-2-.4-.7-.2-1.4-.4-2.2-.6,3,.3.8-1,1-1.8,3.1,2,9.1,2.3,15.2,3.6-3.2-.7-2.5-1-1.6-1l-5.5-.7-5.4-1.1c.2-.3-.4-.6-1.3-1-.9-.4-2.3-.9-3.6-1.5,1,1.1-1.1.7-3.9-.3-2.8-1.1-6.4-2.5-8.6-3.4,0-.3.2-.5,1.1-.2.9.3,2.5.9,5.1,2-1.4-.9-2.6-1.4-3.7-1.8-1.1-.4-2-.7-3-.9-1.9-.5-3.9-.9-6.5-3,1.3.7,1.9,1.2,2.5,1.2-3.1-1.1-10-5.9-8.2-5.3.4.3.8.5,1.2.8-4.1-2.6-10.2-6.9-15.3-10.9-5.2-3.9-9.4-7.5-10.2-7.5,0-.2,1.6-.4,2.2-.2-5-2.9-10-6.1-14.9-9.7,1.6.3-1.3-6.5,4.8-.5-1.6-2-3.6-4.4-7.1-8.3,1,1.5,1.9,4.6.3,2.8-1.7-3-2.3-4.1-3.1-5.2-.7-1.2-1.6-2.5-3.6-6.2,1.4,2.3-1.3,1.2-3.6-2.4.5.4.8-1.5,1.8-.3-2.2-2.5-4.3-5.3-6.4-8.1,1.5,2.2,1.1-.4.4-2.9.1.6-.9-1.5-2-4.1-1.1-2.6-2.2-5.7-2.7-7.1.4,1.5.8,3,1.3,4.5-.5-1.4-1-2.7-1.4-3.8-.4-1.1-.8-2.1-1.1-3-.7-1.8-1.3-3.2-1.8-4.6-.3-.7-.5-1.5-.8-2.3-.2-.8-.5-1.6-.7-2.6-.4-1.9-.7-4.4-.5-7.6.1.8.5,1.8,1,1.8.5,0,.8-1,1.2-3.9-.2-1.4-.7-4.8-.2-9.3.5-4.4,1.9-9.9,4.7-14.4l1.4-1.2c1.4-2.2,2.9-4.3,4.5-6.3-1.2,2.3-3.6,6.5-5.5,11.3-2,4.8-3.2,10.3-3.7,14.1.7-2,1-2.1,1.2-2.6.2-.5.5-1.2,1.7-4,.6-.8.4,0,0,1.3-.2.7-.4,1.4-.7,2.1-.2.7-.4,1.4-.5,1.8.7-2.2,1.7-4.3,2.8-6.3,1.1-2,2.3-3.9,3.7-5.6-.2,0,0-.7.4-1.6.5-.8,1.2-2,2-3.1.8-1.1,1.6-2.1,2.2-2.9.6-.8.9-1.4.7-1.5-3.3,3.7-6.2,7.8-8.5,12.5-.5,0,0-2.6,1.8-5.9,1.7-3.3,4.7-7.4,8.3-10.4,2-1.2-.5,2.9-.1,3.1.4-.6,1.9-2.2,3.6-3.6,1.6-1.4,3.4-2.6,3.7-2.7-1,1-2,1.8-2.9,2.8,2.1-1.4,3.7-2.8,5.4-4.3,1.7-1.4,3.7-2.8,6.5-3.6,1.9-.9,5.9-1.1,6.1-1.9-3.4,0-5.1-3.5-3.3-5.4.4,0,3-.9,5.9-1.5,2.9-.6,6-1,7.2-.9,1.7.1.6,1-.6,1.9-1.2.9-2.4,1.9-.9,1.9,0-.4,1.8-1.2,2.5-1.5,2.1-.2-.7,1.1,3.8,0,.6-1.4,9.2-1.3,2-1.3,2.2-.5,3.4-.6,4.7-.6,1.3,0,2.7,0,5.3-.1-.9-.4.3-1,2.2-1.6,2-.5,4.8-.7,7.1-.7-.3.3.8.7,1.2,1,2.3.5,4.4,1,6.3,1.5,1,.2,1.9.6,2.8.9.9.3,1.8.7,2.6,1,.9.3,1.7.6,2.6,1,.9.4,1.7.8,2.6,1.2,1.8.9,3.7,1.6,5.7,2.9.7.7,4.6,3.2,2.8,2.7,1.2.4,2.4.8,4.9,2.5,4.5,4-5.5-3.5-2.2,0,.2-.2,1.9.7,3.9,1.8,2,1.2,4.4,3,6.1,4.1-.4-.8-2.3-2.4-4.6-4.1-2.3-1.6-5.1-3-6.9-4,.2-.7,1.9-.2,4.7,1,.7.3,1.5.6,2.3,1.1.8.5,1.6,1,2.6,1.6.9.6,1.8,1.2,2.8,1.9,1,.7,2,1.5,3,2.3,3.3,2.7,3.8,3.6,3.7,3.8,0,.2-.8-.2-.2.3,1.4,1.5,2.7,2.6,3.7,3.7,1.1,1.1,2,2,2.8,2.8,1.6,1.5,2.8,2.7,4,3.8,2.3,2.2,4.3,4.1,8.2,10.4,2.8,5.3-.7,1.2-.2,2.6-4.3-5.9-6.4-9.5-9.5-13.2l1.8,2.4,1.8,2.5c-1.5-1.7-4.7-5.2-6.3-7.3,1.3,2,6,7.1,10.6,14,1.2,1.7,2.3,3.4,3.5,5.4l.5.7c.2,0,.4,0,.7,0h1.3c.9-.2,1.7-.2,2.5-.3,3.3-.1,6.5-.1,9.2,0,1.9-.2,5.1-.3,3.5-.7h-3.3c-3.1-.7,6.3-.6,2-1,4.5-.2,9.6-.4,15.9.9l1.2,1c-.1-.3-4.1-1.1-5.9-1.1,2.7,0,9.6,2.5,12.6,2.3-1.5-.5-2.9-1-4.4-1.4,4.5.5,10.2,1.2,15.7,3.2-2.5-1.5-1.3-.3-5.2-2.3,1.7,1-1.9,0-5.2-.9-3.3-.8-6.4-1.4-3.7-.3-4.1-1.8-7.1-1.8-12.5-3.4.2.3,1.9.7-2.8,0-.2,0-.7.1-1,.1-.1,0-.2,0-.3,0,0,0,.2,0,.3,0-.2,0-.2,0,0,0,1.1.2,2,.4,2.4.6-2.4.3-9.9-.1-12.4.3-2.8-.1,1.2-.3-.4-.6-1.3.2-2.5.3-3.8.6-.4-.6-7.5-.7-.9-1.4h-3c0,.1-.9.2-.9.2-.1,0-.3.1-.5,0,.1,0-1.7-3.2-3.1-5.2-1.4-2.1-2.9-4.1-4.1-5.5-2-2.9-5.9-6.3-3.7-4.4-2.5-2.9-5.1-5.6-7.7-8.1v-.2c-7.7-8-16.9-14-26.8-20.6-1.5-.6-3.1-1.3-5-2-1.8-.9-3.9-1.5-6.5-2.5l-1-1c-.5-.1-1.1-.3-1.7-.5-.6-.2-1.3-.3-2-.5-1.4-.3-2.8-.7-4.2-1.1-1.4-.4-2.7-.6-3.8-.6-1.1,0-1.9,0-2.4,0-.6-.3-1.3-.5-2.2-.7-.4-.1-.9-.2-1.4-.3-.5,0-1,0-1.6-.1-2.2-.2-4.8,0-7.4.3-5.3.6-10.7,2.1-14.2,3v.9c-4.8,1.3-9.3,3.3-14.8,6.4l.6.6c-2.3,1.5-5.4,3.1-8.7,5.1-3.3,2-7,4.6-10.3,7.9.3-.7,2-2.3,3.4-3.2-2.2,1.4-4.4,3.3-6.3,5.5-2,2.2-3.8,4.8-5.3,7.6-1.6,2.8-3,5.7-4.1,8.8-1.2,3-2.1,6.1-2.9,9.2-.4,3.2-.6,5.5-.8,7.8,0-.3,0-.6,0-.8,0,.3,0,.8,0,1.3-.1,1.4-.2,2.9-.2,4.6,0-1.4.2-2.7.2-3.9,0,2.5.3,6.4,1.1,10-.1.6-.2,1.1-.3,1.7,0,.3.1.5.2.8.6,3.6.9,2.7.9.7.5,1.8,1,3.3,1.5,4.5,0,.8.1,1.7.5,2.8.3,1,.7,2.2,1.2,3.2.5,1.1.9,2.2,1.4,3.3.4,1.1.8,2.1.9,3.2.7.9,2.6,4.7,4.8,8.1,2.2,3.4,4.5,6.5,5.3,6.7,0,.2.4,1-.5-.4,1.9,3.1,3.9,6,6,8.2l.4,1.9c1.8,1.7,3.6,3.3,5.4,4.8,2.7,3.8,3.8,5.5.5,2.7,3.9,3.6,5.4,5,6.8,6.3,1.4,1.3,2.7,2.5,6.2,5l-.6.2c2.3,2.1,6.4,4.7,7.7,6.3,2.5,2.7,9.2,8.1,17.4,13.1,4.1,2.5,8.5,5,12.9,7.1,4.4,2,8.7,3.9,12.6,5.4-1.4-1.3.4-.5,2.6.4,2.2.9,4.9,1.9,5.3,1.3.9.6,3,1.4.5,1.1,8,1.4,12,3,17.6,2.5.9.5-1.7.4-.9.7.6,0,2.6,0,3.4.2.8.3-1.2.2-2.4.3,4.1.4,6.4.1,7.6-.3,1.3-.4,1.6-1,1.9-1.5,4.1.6,6.2.5,9.1-.2,1.4.3,3.9.6-1.2.9.7,0,2.1,0,3.9,0,1.8,0,3.8,0,5.8-.2,4-.2,7.6-.8,7.7-1.2.9.2,3.9-.4,4.7-.6,6.3-.7,6.8-.8,13-1.8h-1.7c2.3-1.3,5.1-.9,10-1.9h-.1c11.4-1.1,4.8-1.1,16.1-2.1l-.7-.5c.9-1.5,10-.9,16.4-1.9h-2.4c3.5-.9,10.1.7,13.6,1.1.8.1-1.2.2-2.3.3,4.6.3,4.9.3,4.9,0,0-.3-.3-.8,3.2-.6,1.3.6-1.6.8,3,1.5.6.2,1.7.2,3.1.5.7.1,1.5.2,2.4.4.8.2,1.7.5,2.7.7,3.7,1.1,7.9,3.2,10.2,6-1-1.3-2.1-2.5.7-.4.3.2.5.4.8.7.2.3.5.6.8.9.5.6,1.1,1.3,1.7,2,.6.7,1,1.6,1.6,2.4.5.8,1.1,1.6,1.5,2.5,1.8,3.5,3.5,7.7,5.2,10.1.4.8.5,1.1.4,1.2,1.3,2.2,3.7,5.7,6.4,8.1,2.7,2.5,5.5,3.7,6.6,4.1.7.9,2.6,2,5,3,1.2.5,2.5,1,3.9,1.3,1.4.4,2.8.7,4.2.9,5.6,1.1,10.7.9,10.7,1.8,4,.2,8,0,11.9-.5l-.3.2c7.6-.9,10.1-2.3,12.6-3.5,1.7-.4.5.1.4.2.7-.2,1.3-.4,1.9-.6.6-.2,1.2-.4,1.7-.6.3-.1.6-.2.9-.3h.2c0,0,.1.1.1.1,0,.1.2.2.3.4.3.3.5.6.8,1,.3.4.7.8,1,1.1.7.7,1.3,1.3,1.9,1.9,2.5,2.2,4.9,4,9.5,6.2l.8,1c1.2.6,5.1,2.8,10.1,4.5,5,1.8,11.2,3.1,16.7,3-.1,0-.3.1-1.2.1,3.1.1,6.5,0,9.9,0,1.7-.1,3.4-.2,5.1-.4,1.7-.3,3.3-.4,4.9-.8,1.6-.4,3.1-.7,4.5-1.1,1.4-.5,2.7-.9,3.8-1.3,2.3-1,4.1-1.9,5-2.9,2.5-1.3,4.9-2.8,7.2-4.5-4.7,2.9-4.4,2.4-3.4,1.6,1-.8,2.6-2,.6-1,3.6-2.2,9.3-6,5.1-2.7l-.7.4c-.3.5.2.3,1.2-.4.5-.3,1.1-.7,1.8-1.2.6-.5,1.4-1.1,2.1-1.7,2.9-2.4,5.6-5.5,5.6-5.2.5-.6,1-1.1,1.4-1.7l.7-.9.6-.8.2-.3h0c0-.1.1-.1.1-.1h.6c0,0,1.9.3,1.9.3,1.3.2,2.6.2,3.8.3h1.9c0,.1,1.9.1,1.9.1,5.1,0,10.1-.4,15-1.3,9.8-1.8,19.3-5.3,27.7-11.4-.7.3-1.4.6-2.1.8,1-.6,2-1.3,2.9-2.1l1.4-1.1,1.4-1.2c1.5-1.2,2.2-1.3-1.8,2.1.6-.3,1.3-.9,2-1.6.7-.7,1.5-1.3,2.1-2.1,1.3-1.5,2.3-2.8,2.3-2.9,1.7-2.1,2.5-2.9,2.6-3,.1,0-.3.6-.9,1.4-.6.8-1.3,1.9-1.8,2.5-.5.6-.7.8-.1.2,1-1.2,1.9-2.4,2.8-3.6l-.7.8c.3-.4.5-.7.7-1,.2-.4.4-.7.5-1,.3-.6.6-1.2,1-1.8.2-.3.4-.6.6-1,.2-.4.4-.9.6-1.4.2-.5.5-1.1.8-1.7.3-.6.6-1.5.9-2.3.2-.6.4-1,.5-1.4.1-.4.2-.7.3-.9.1-.5.2-.7.3-.8.1-.2.1,0,.4-1,0,0,0-.1.2-.6,0-.5.2-1.2.3-2.4.5-4,.3-8.1-.6-12,0,.8.2,1.6.3,2.4v2.4c-.2-2.7-.7-5.4-1.2-6.8-.2-.7-.3-1-.3-.9,0,.2.1.8.4,2.1-.2-.9-.4-2-.9-3.4,0-.4-.2-.7-.4-1.1,0-.2-.1-.4-.2-.6v-.3c-.1,0-.2-.2-.2-.2-.2-.5-.4-1-.6-1.5.3-.2.7-.3,1.1-.4.2,0,.5-.2.7-.3.3-.1.6-.2,1-.4,1.3-.7,2.6-1.2,4-2,.7-.4,1.3-.8,2-1.2.7-.4,1.3-.9,1.9-1.4,1.3-.9,2.5-2,3.7-2.9,4.6-4.1,7.8-8.9,8.6-10.3,1.6-2.8,3-5.7,4.1-9.1,1.1-3.3,2.1-7.1,2.3-11.5-.1,1.1-.3,1.9-.3,1.6,0-.2,0-.7,0-1.6,0-.9,0-2.2,0-4.1.2,1.4.4-2.1-.4-6.7-.4-2.3-1.1-4.8-1.8-7-.7-2.2-1.6-4.2-2.1-5.6.5,1.2.2.7-.5-.7-.1-.2-.1-.2-.2-.4,0-.2,0-.3,0-.5,0-.5-.1-1.1-.2-1.6-.1-1.2-.3-2.4-.5-3.7-.8-5-2.2-9.3-1.2-5.2-.8-3.1-.8-3.1-.7-3.1,0,0,.2.3-.5-2-.6-1.8-1.3-3.5-2.2-5.2-.4-.8-.9-1.7-1.3-2.6-.5-.8-1-1.6-1.5-2.5-2-3.2-4.5-6.2-7.2-8.7-5.5-5.1-12-8.4-18.6-10.9-.2,0,2,.9-.9-.1-2.3-1-4.6-1.9-7-2.7-1.3-.4-1.9-.5-2.8-.7-.9-.2-2-.6-4.5-1.1.7.2,1.7.5,0,0-6.6-1.5-13.3-2.2-20.1-2.1-6.7.1-13.4,1-20.1,2.6-3.3.7-6.6,1.7-9.8,2.8l-1.2.4h-.2c0,.1,0,0-.1-.1l-.3-.8c-.4-1-.9-2.1-1.4-3-1-1.9-2.2-3.7-3.5-5.3-5.3-6.4-11.8-10.4-18.3-13.3,1.8.8,2,1,1.6.8-.5-.2-1.7-.8-3.1-1.3,1.8.7,0,0,.3.2-3.7-1.5-7.4-2.7-11.1-3.5-1-.2-4-.7-7-1-2.9-.2-5.7-.2-6.3,0,1.2,0,2.4,0,3.6,0-2.4,0-.7,0,1.5.2,2.2.2,4.8.6,4.5.6,5.3.6,14,3.1,22.2,7.6,1.8,1-1.6-.8-.6-.3,1,.6,2.2,1.2,3.6,2.2,1.4,1,3.2,2.2,5.2,4.2l-.5-.4c3,2.7,5.3,5.5,7,8.5.9,1.5,1.6,3,2.3,4.6l.3.8c.2,0,.5-.1.6-.2l.9-.3,1.8-.6c5-1.5,10.2-2.9,17.9-3.9h-1.1c3.3-.3,4-.4,5.6-.5,1.9-.2-.4,0-2.8.2-2.4.2-4.8.6-3.1.3,2.2-.2,8-.9,13.8-.8,5.7,0,11.2.8,12.7,1.3,5.1.9-1.5-.4,3.6.6l1.4.4,1.3.2c3.3.9,5,1.5,5.1,1.6-.8-.2-2.3-.6-3.2-.9,4.3,1.1,12.1,4.1,13.6,4.8-1.6-.7-3.2-1.3-4.8-2,6.8,2.6,14.5,5.7,21.1,11.7,3.3,3,6.2,6.6,8.5,10.7,2.3,4.1,4,8.6,5,13,0-.5-.2-.9-.3-1.4.9,3.3,1.3,5.8,1.6,7.7.1,1,.2,1.8.3,2.6,0,.4,0,.8,0,1.1V.1c0,.3,0,.5.2.7.7,1.4,1.2,2.7,2,4.6.7,1.9,1.6,4.4,2.4,8.1v-.5c.2,1.5.5,3.2.7,5.1.2,1.9.1,4,0,6,0-1.9,0-.1-.3,1.5-.2,1.6-.4,3-.2.6,0,.9-.2,1.7-.3,2.5-.1.7-.2,1.4-.3,2-.3,1.1-.5,2-.7,2.8-.4,1.4-.7,2.1-.8,2.6-.2.5-.2,1-.6,1.8-.2.4-.3.9-.6,1.6-.2.7-.6,1.5-1.1,2.5-.4.6-.7,1.1-1.1,1.6-1.5,2.5-1.4,3.1-5.6,7.9,3.3-4-2.8,2.7.9-1.8-4.3,4.5-7.9,7.1-11,9.1-1.5,1-3,1.7-4.3,2.3-.3.2-.7.3-1,.4-.4.1-.8.3-1.2.4-1,.3-1.9.7-2.9,1l.6,1.4c1.1,2,1.3,2.4,1.2,1.9-.1-.4-.6-1.7-1.4-3.2,1-.4,2.1-.8,3.3-1.3.8-.3,1.7-.7,2.3-1,1.3-.7,2.1-1,1.3-.6,1-.4.5,0-.8.7-.6.3-1.4.8-2.3,1.2-.9.4-2.1.9-3.1,1.3.5.9.9,1.8,1.2,2.5.6,1.3.8,2.3,1.2,3.6.3,1.2.6,2.5.7,4.1.1.8.2,1.6.2,2.5,0,.9,0,1.9,0,3,0,1.1-.1,2.2-.2,3.5,0,.6-.2,1.3-.3,1.9,0,.3,0,.7-.2,1,0,.3-.2.7-.3,1,.3-1.1.3-1.2.4-2.4-.8,4.3-2,8.6-4.9,12.6-.3.7-.7,1.4-1.1,2-.5.6-.9,1.2-1.3,1.7-.4.5-.8,1-1.1,1.4-.3.4-.5.7-.6,1l.8-.9.8-1,1.5-1.9c.5-.6.9-1.4,1.4-2.1.4-.7.9-1.4,1.3-2.2-2.7,5.1-5.9,9.9-13,14.7.3-.3.9-.8,1.6-1.4.4-.3.8-.6,1.2-1,.4-.4.7-.7,1.1-1-1,.8-2,1.5-2.9,2.3-.9.8-2,1.5-3.1,2.1,0-.2.7-.7,1.7-1.4.9-.7,2.2-1.6,3.5-2.7,2.7-2.1,5.5-5.3,7.2-7.8-1,1-2.6,3.3-4.1,4.7-.7.8-1.3,1.3-1.6,1.5-.3.2-.3.1.1-.5-2.7,3.5-7.8,6.1-13.5,9.5l.3-.5c-.5.2-1.2.6-2,1.1-.8.4-1.7.8-2.6,1.2,1-.6,2-1.1,3-1.8-4.7,2.6-9.5,3.2-14.3,4.5,2.5-.5,3.9-1,4.7-1.1.8-.2.9-.1.8,0-.1.2-1,.7,1.2.1-3.1,1.1-5.1,1.6-6.6,1.8-1.5.3-2.5.3-3.5.3-1,0-2.1,0-3.8.1-.8,0-1.9,0-3.1.2-1.2,0-2.7.1-4.5.2,1,0,2.8-.1,4,0,1.2,0,1.8,0,.3.3-1.4,0-3,0-4.4,0-1.5,0-2.8-.2-3.6-.3-9.5-.4,1.5.5-2.6.6-.8-.2-1.5-.3-2.2-.3-.7,0-1.3-.1-1.9-.1s-.7,0-1,0h-.3s-.4,0-.4,0c-.3,0-.6,0-.9,0-.1,0-.3,0-.4,0-.1,0-.2.3-.3.4-.2.3-.4.6-.6,1-.4.6-.6.9-1,1.4l-.2-.3c-1.9,2.3-3.1,3.5-3.8,4.3-.7.8-.9,1.1-1.1,1.4-.4.6-.6,1.3-4.8,4.3,1.1-1,2.1-2.2,3.2-3.3l-2.1,1.8-2.1,1.7.7-1.1c-1.1,1-2.1,1.7-3,2.3-.9.6-1.7,1.2-2.5,1.6-.8.4-1.6.9-2.5,1.4-.9.4-2,.9-3.2,1.5,1.2-.3-.4,1.2-5,2.9-1.6.4-1.2.1-1.2,0,0,0,0,0-.6.1-.5.2-1.4.5-3.1.9,1.5-.6,3-1.5,5.9-2,.3-.3,1.3-.9,1.6-1.1-1.7.5-3.8,1.2-5.8,1.9-2,.5-3.9,1.1-5.1,1.3.9-.1,2-.4,2.6-.5-.8.2-1.6.5-2.4.7l-2.4.6-2.4.6-2.4.4c-1.6,0-.3-.3.8-.6-2,.3-3.3.5-6.2.7.7-.4.5-.8,4.6-1.2-1.5.2-3.1.3-4.6.4-1.6,0-3.1.1-4.7,0-.3-.1-1.5-.3-2.5-.5-1-.2-1.7-.4-1.1-.4-5.1-.8-12.7-1.5-19.2-5-.4,0-1.1-.3-2.4-1-3-1.7-5.7-3.7-8.4-6.1-1.3-1.2-2.6-2.5-3.9-4-.5-.6-.9-1.1-1.4-1.7l-.9-1.1-.5-.5-.6.2c-.7.3-1.5.6-2.2.9-.4.2-.9.4-1.3.6-1.4.2-2.9.4-4.3.6-5.8,1.7,5.9-.5-3.7,2.2-3.4.9-4.1.7-4.2.5-.1-.2.3-.6-.9-.5-3.4.9-9.5,2.2-16,.9,2.1,0,3.8.3,5.8.2v-.2ZM121.1,82.5c.8,0,1.9.5,3,.7,1.1.3,2.1.7,2.6,1.2-.9-.1-1.7-.3-2.5-.6-.9-.3-1.8-.8-3.1-1.3h0ZM7.1,91.6c1.1-.2,2.7,0,4.6.4-1.4,0-2.9-.1-4.6-.4ZM30.3-26.6s0,0-.1-.1c-2.2-3.6-1.4-2.3.1.1ZM33.6-22.6c.6-.1.6-.2.3-.3-.4.1-.4.2-.7.2-.1,0-.3,0-.4,0-.1-.2-.2-.4-.3-.6,0,.2.1.4.3.7,0,.2.2,0,.4.1.2,0,.4,0,.6-.1h0ZM377.7,85.8c0,.6-.3,1.2-.4,1.7.2-1,.4-1.7.4-2.1,0-.5,0-.7.1-.7,0,0,0,.5,0,1.1h0Z"/>
  <path class="st0" d="M20,91.1c.4.1.5.2.6.4.6-.1.6-.2-.6-.4Z"/>
  <path class="st0" d="M230.5,137.4h.2c.1.1.2.1.2.1h-.4Z"/>
  <path class="st0" d="M69.9-20.7c-1.5-.2-2.9-.6-4.4-.8,2.1.4,2.9.7,3.9,1,0-.2-.9-.5.5-.2Z"/>
  <path class="st0" d="M106.6-4c.3.1.6.3.9.5.3.1.7.5.8,0h-.2c0,0,0,0,0,0,0,0,0,0-.1,0h-.2c-.1-.2-.3-.2-.4-.3-.3-.1-.5-.3-.8-.4-.5-.2-.9-.4-1.1-.5-.5-.2-.2,0,1.1.7h0Z"/>
  <path class="st0" d="M73.8-17.9c.3.6,3,1.1,6.1,1.9-.2,0-.4,0-.5-.1,1-.4-2.3-1.1-5.5-1.7Z"/>
  <path class="st0" d="M80.6-15.8c.9.3,1.9.6,2.8.9.4-.1-1.1-.4-2.8-.9Z"/>
  <path class="st0" d="M42.2-23.2c1.5.1.9-.7,1.7-.5,1.6-.7-9.7.9-1.7.5Z"/>
  <path class="st0" d="M76.1-15.7l-1-.8h-1.7s2.8.8,2.8.8Z"/>
  <path class="st0" d="M52.2-20.1c1.6.2,3.2.4,4.9.6,0-.1.5-.1,1.3,0-3-.4-6.3-.7-6.2-.5Z"/>
  <path class="st0" d="M58.3-19.6c1.6.2,3,.4,3.9.4-.8-.1-2.7-.4-3.9-.4Z"/>
  <path class="st0" d="M69.5-17.1l-1.4-.4c-1.1-.2-2.3-.5-3.4-.7,1.6.3,3.2.7,4.8,1.1Z"/>
  <path class="st0" d="M7.5-49.5c-1.6-1.3-3.1-2.7-4.7-3.8-.3,0-.1.2.3.6.5.4,1.2,1,2.1,1.8,1.2.8,2.9,2.2,2.3,1.4h0Z"/>
  <path class="st0" d="M19.7-34.2c-1-1.4-1-1.6-1.6-2.6l-.6.5,2.1,2h0Z"/>
  <path class="st0" d="M7.1-47.1c-.6-.2-6.8-5.1-1.1-.2.3,0,1.6,1.1,2.3,1.6.7.6.9.5-1.2-1.4Z"/>
  <path class="st0" d="M254.7-74.3c-1.3-.1-2.7-.2-4.1-.2.9,0,1.7,0,2.6,0,.5,0,1,0,1.4,0h0Z"/>
  <path class="st0" d="M246.9-74.1h-1c-.8.1-1.6.3-2.4.5.9-.2,2.6-.5,3.3-.5Z"/>
  <path class="st0" d="M109.6,79l-.3.2c.6.3,1.6.3,3.6.5l-3.3-.7h0Z"/>
  <path class="st0" d="M156,119.2c-.2-.2-.5-.5-.7-.7.3.6.7,1.2,1.1,1.8l-.4-1.1h0Z"/>
  <path class="st0" d="M199.3,126.3c-.9.2-1.9.4-2.8.5-1,.2-1.9.4-2.8.4,2-.2,3.5-.4,4.5-.4,1-.1,1.5-.2,1.1-.5h0Z"/>
  <path class="st2" d="M904.2-75.3c-4.7-1.1-18-2.1-34.1,5.7-9.7,4.7-17.1,12.1-20.5,21.1-14.8-5.3-37.5-9.7-62.6-.4-11.1,4.1-24.9,9.5-32.5,26.5-3.5,7.7-4.6,15.4-4.9,20.7-4.6,9-5.3,16.5-5.4,20.4-.4,18.6,11.6,36.3,30.1,42.8-.9,1.6-10.9,20.9,5.3,39.1,12.9,14.5,37.1,22.1,60.6,18.9.9,1.4,13.6,20.3,41.1,24.1,21.5,2.9,42.9-4.7,53.5-19.1,18.1,7.7,39.9,6.9,54.8-2,9.7-5.8,12.2-16.6,16.3-23.4,28.1-46,102.4,15.3,175.8-18.2,39.8-18.2,81.4-65.3,78.3-101.7-2.7-32.1-39.9-52.9-69.9-52.2-42.3,1-70.2,44.9-74.3,51.6-8-.8-17.2-.8-27.4.4-19.8,2.5-36.5,9.2-48.9,15.8-4.9-7.8-29.9-45.6-68.3-43-11.1.7-20.7,4.7-28.1,9-2.7-5.8-15.1-30.5-39.1-36.1h0Z"/>
  <path class="st0" d="M905.7-75.3c-1.7-.5-1.1-.4-1.4-.5,2.9.8,1.3.5,1.4.5Z"/>
  <path class="st0" d="M931.5-58.1l-.4-.5c1.1,1.2,2.1,2.6,3.1,3.9-.9-1.1-1.8-2.3-2.8-3.4Z"/>
  <path class="st0" d="M951.8-44c-1.3.6-3.7,1.7-6.4,3.2-.6.3-1.2.7-1.9,1-.1.2-.2-.1-.2-.2l-.2-.5-.6-1.2c-.8-1.6-1.6-3-2.4-4.3l-.5-.8-1.3-2.4c1,1.5,2,3.2,2.9,4.9.5.9,1,1.8,1.4,2.7l.7,1.4.2.4c0,0,.2-.1.3-.2,3-1.7,6-3.1,8-4h0Z"/>
  <path class="st0" d="M966.5-48.9c-.9.3,3.2-.5-3.5.7.3,0,.4-.1.6-.2.6-.1,1.4-.3,2.9-.6Z"/>
  <path class="st0" d="M963.6-48.3c-2.9.6,1.9-.5,0,0Z"/>
  <path class="st0" d="M977.3-49.5h-3.9c.8-.1,4.3-.2,3-.2,1,0,1.7,0,2.1,0,.4,0,.6.1.6.1,0,0-.2,0-.5,0-.3,0-.8,0-1.4,0h0Z"/>
  <path class="st0" d="M980.9-49.1l-2-.3c.4,0,.9,0,2,.3Z"/>
  <path class="st0" d="M974.7-49.4c1.4,0,2.9,0,4.3,0-.6,0-.6.1-2,0,.3,0-.5,0-2.3,0Z"/>
  <path class="st0" d="M972.2-49.3c-2.2.1-5,.5-1.1.3-3.7.3-5.3.6-5,.5.3,0,2.4-.6,6.1-.8Z"/>
  <path class="st0" d="M953.2-44.3c-.9.4-1.9.8-2.8,1.2-.8.3-1.6.7-2.4,1.1,1.2-.6,5.4-2.5,5.2-2.3Z"/>
  <path class="st0" d="M1000.9-44.1c.2.2-1.3-.3-1.6-.3l-1.3-.7-1.4-.5c.4.1.8.2,1.2.4.4.2.9.4,1.3.6.9.4,1.6.6,1.7.6h0Z"/>
  <path class="st0" d="M999.3-44.5l4,2c-3.6-1.6-4.2-2-4-2Z"/>
  <path class="st0" d="M981.6-48.6c-1.2-.2-2.3-.4-3.5-.5h-3.5c1.4,0,2.8,0,4.2,0l4.2.6h-1.3c0-.1,0-.2,0-.2Z"/>
  <path class="st0" d="M1015.6-35.3c-.7-.6-1.3-1.2-2-1.8,1.2.9,2.4,2.1,3.6,3.1l-1.6-1.4Z"/>
  <path class="st0" d="M1024.6-27.5c-1.3-1.6,2.2,1.6.7,0,2.4,2.3,4.2,4.6,5.8,6.6-1.8-2.1-3.8-4.3-6.5-6.6h0Z"/>
  <path class="st0" d="M1033.8-17.3c-.8-1.1-1.7-2.3-2.7-3.5.9,1.2,1.8,2.3,2.7,3.5Z"/>
  <path class="st0" d="M1009.9-38.7c.3.1.9.4,3.1,1.8l-1.6-.7c-.5-.3-1-.7-1.5-1Z"/>
  <path class="st0" d="M1011.3-37.7h0c1.6,1.1,2.7,1.8,3.2,2.2-.4-.3-1.4-1-3.2-2.2h0Z"/>
  <path class="st0" d="M1009.5-39c.1,0,.2.2.4.3-.1,0-.2-.1-.4-.3Z"/>
  <path class="st0" d="M992.6-46.6c2.4,1,7.3,2.9,2.5,1.4-1.7-.8,1.1.1-2.5-1.4Z"/>
  <path class="st0" d="M1007.5-39.8l-4.1-2.3c0,0,.9.3-.2-.4,1.5.8,2.9,1.8,4.4,2.7Z"/>
  <path class="st0" d="M1009.5-38.5c-.6-.5-1.3-.9-2-1.3l1.5.9.4.4Z"/>
  <path class="st0" d="M1027.8-23.7c.7.9,1.5,1.8,2.3,2.7.8,1,1.6,2,2.5,3-1.9-2.3-4-4.5-5.9-6.6-.2-.3-1-1.5,1.1.8Z"/>
  <path class="st0" d="M1020-31.1c.1.1.2.2.3.3-.2-.2-.4-.3-.3-.3Z"/>
  <path class="st0" d="M1050.6-12.9c-.1,0-.2.2-.4.2,0,0,0,0,0,0l.5-.2h0Z"/>
  <path class="st0" d="M1026.2-24.9c-1.6-1.5-2.5-2.5-3.3-3.4,1.2,1.2,2.3,2.4,3.7,3.7.1.2.1.2-.4-.3h0Z"/>
  <path class="st0" d="M1038.4-11c-.7-.9-1.6-1.9-2.4-3,.8.8,2.3,2.6,2.4,3Z"/>
  <path class="st0" d="M1020.9-30.3c0,0-.1-.1-.2-.2.5.4.5.4.2.2Z"/>
  <path class="st0" d="M1020.9-30.3c.8.8,1.4,1.4,2,2.1-.9-.9-1.8-1.7-2.6-2.5.2.2.4.3.6.4h0Z"/>
  <path class="st0" d="M1058.1-13.1c-.4-.3-5.5,1.2-9.7,3.6-4.2,1.7-1.8-.8,1.8-3.2.2.1.2.2,4.6-1.4-1.5.8-9.6,4.7-5.8,3.4,2.9-1.2,4.1-1.7,4.9-2.1.8-.4,1.2-.7,2.6-1.4-1.2.7.7.2,2.7-.3,2-.5,4.2-1,3.6-.4-1.7.5-3.4,1-5.1,1.5,0,.1,1.8-.3.4.3h0Z"/>
  <path class="st0" d="M1041.9-8.6c-.6.3-1.3.7-1.4.7.9-.5,1.6-1,2.4-1.4.9-.6,2-1.2,3.3-2,3-1.3,3.7-1.4,3.9-1.3-2.9,1.3-5.9,2.8-8.8,4.3l.6-.3h0Z"/>
  <path class="st0" d="M1036-13.7c.4.8,1.3,2.3,1.9,3.3.6,1,.8,1.5-.3.4-3.7-5.1-2.4-3.8-4.6-6.9,6.2,8-1.7-2.4,2.9,3.2-1.2-1.6-2.3-3.1-3.3-4.3,1.2,1.3,2.3,2.7,3.3,3.9,0,0-.1-.1-.2-.2h0c-.3-.3-.4-.4,0,0,0,0,0,.1.1.2,0,.1.1.3.2.5,1.8,2.3.3.3-.2-.5,0,0,0-.1,0-.1h0c1,1.4,2,2.8,3,4.2.4.7,1.1,1.6,1.2,1.8l.3.5c.1,0,.3-.1.4-.2-.1,0-.2.1-.3.2,0,0-.1,0-.1,0v-.2c-.3-.3-.5-.6-.8-1-.9-1.3-2-2.8-3.4-4.8h0Z"/>
  <path class="st0" d="M999.3-42.9c.3,0,.2,0,.3,0,.5.3.7.4-.3,0Z"/>
  <path class="st0" d="M1002.7-41.5c-.6-.3-1-.6-2.9-1.5-1.7-.7,0,.1-.1.2-1.1-.6-4-2.1-.3-.5l.6.3c3.3,1.3,7.5,3.5,6.9,3.2-1-.3-1.9-.7-4.1-1.6h0Z"/>
  <path class="st0" d="M1020.5-29.5c2,1.8,3.8,3.8,5.7,5.7l-3-2.7h.2c-3.3-3.1-2.5-2.5-2.9-3h0Z"/>
  <path class="st0" d="M1051.3-13.5h-1c1.4-.4,2.8-.8,4.2-1.2-1.1.4-2.1.8-3.2,1.2h0Z"/>
  <path class="st0" d="M1060.7-17.2l-.4-.3c.8-.2,1.7-.4,2.5-.6l-2.1.9h0Z"/>
  <path class="st0" d="M995.8,113.7c-.5.6-1,1.2-1.6,1.7.7-.8,1.2-1.3,1.6-1.7Z"/>
  <path class="st0" d="M1005.1,96.5l.4-.3c-.6.7-.9,1-.4.3Z"/>
  <path class="st0" d="M1263.3-13.7c.2,4.7-.3,10.2-.8,9.4l-.2-1.5c.3-1.6.6-3,.7-4.3.1-1.3.2-2.5.2-3.5h0Z"/>
  <path class="st0" d="M1129.6,91.2c.3,0,.6-.1.9-.2.7.2,1.4.4,2.1.6-.9-.1-1.9-.2-3-.4Z"/>
  <path class="st0" d="M1127.5,88.8l-4.1.3c.9-.1,2.2-.2,4.1-.3Z"/>
  <path class="st0" d="M916.9,135.6c-.8.2-1.6.5-2.4.6,3.6-1.6,2.1-.7,2.4-.6Z"/>
  <path class="st0" d="M1147.9-61.2c2.4-2,4.5-3.5,6.2-4.7-3,2.4-5.2,4.6-6.2,4.7Z"/>
  <path class="st0" d="M1002.7,110.5c-.9,1.5-1.3,2.1-1.3,2,.9-1.5,1.4-2.4,1.3-2Z"/>
  <path class="st0" d="M1161.8-70c-.5.3-.9.5-1.4.8-1.9,1-3.9,2-6.2,3.4,1.1-.8,2.3-1.6,3.6-2.4,1.3-.7,2.6-1.5,4-1.8h0Z"/>
  <path class="st0" d="M795.3-50.9c.2,0,.5-.2.7-.2,0,0-.2,0-.7.2Z"/>
  <path class="st0" d="M878.4-73.2c-.9.3-2.3.8-3.6,1.3.6-.3,1.7-.7,3.6-1.3Z"/>
  <path class="st0" d="M1098.9-25.4c-2,0-.3,0,0,0Z"/>
  <path class="st0" d="M1089.1-22.3c.4,0,.8,0,.8.2-.2-.1-.4-.2-.8-.2Z"/>
  <path class="st0" d="M1182.3-72.2s0,0,.2,0c-.6.3-.5.2-.2,0Z"/>
  <path class="st0" d="M1095.9-25c.8-.1,1.6-.3,2.6-.3-.4,0-1.2.2-2.6.3Z"/>
  <path class="st0" d="M1096.3-25.3c-.7,0-1.2.2-1.8.2-.3,0,0-.2,1.8-.2Z"/>
  <path class="st0" d="M1101.8-25.5c-1.2,0-2.2.1-3.3.2.4,0,.6-.1.5-.1.6,0,1.4,0,2.8-.1Z"/>
  <path class="st0" d="M784.4,103.8c-.1,0-.2-.2-.4-.3-1.6-1.5-.9-.9.4.3Z"/>
  <path class="st0" d="M1228.8,42.2c0,0,.1-.1.2-.2,0,0-.2.2-.2.3h0c0,0,0-.1,0-.1Z"/>
  <path class="st0" d="M1222.8,47.8c2.8-1.8,4.2-3.4,6-5.5l-1,3.6c-1.7.7-3.3,1.3-5,1.9Z"/>
  <path class="st0" d="M962,126.9c1.7-.1,3.3-.4,4.9-.7-5.9-.2-10.2-.3-5.6-.8.3.7,5.1.8,9.8,0,4.8-.7,9.4-2.3,9.8-1.7,1-.5,2.1-1,3.1-1.6-.9.4-1,.4-1.9.7,3-1.6,4.1-1.9,5.5-2.3.7-.2,1.5-.4,2.4-.9,1-.5,2.2-1.4,3.8-3,2.1-2.4,3.2-4.7,1.9-2.9,1.5-1.9,2.9-4,4.1-6.4,1-2.2.6-1.8-.4.4.9-1.8,1.8-3.7,2.8-5.7.5-1,1-2,1.5-3l.9-1.5.9-1.3h0c.6-.6,1.5-1.8,2.5-2.9,1-1,2.1-2,2.8-2.7,1-1.2.8-.9.2-.5-.5.5-1.1,1.2-.9.8.8-.9,1.7-1.5,2.5-2.2l1.3-1,.6-.5.7-.4c1-.9.4-.7-.9,0-.6.5-1.4,1.1-2.3,1.8-.4.4-.9.7-1.3,1.1-.4.5-.8.9-1.2,1.4.5-.8.8-1.4,1.2-2,.4-.5.8-.9,1.2-1.3.8-.7,1.5-1.3,2.4-1.9,1-.5,2.1-1.2,3.7-2.2,1.6-.7,3.6-2,6.4-3.1-.9.3-1.8.5-2.7.9l-2.7,1.2c.8-.7,1.7-1.2,2.6-1.8,1-.5,2-.9,3.1-1.4,1.1-.5,2.3-.8,3.7-1.2.7-.2,1.3-.4,2-.6.7-.2,1.4-.3,2.2-.5-.4.1-1.3.4-2.4.7-1.1.4-2.4.9-3.4,1.4-1,.4-1.8,1-1.9,1.2-.1.3.4.1,1.9-.2.8-.3,1.8-.6,3.1-.8,1.2-.3,2.6-.3,4.2-.4,0-.6,3.2-.9,7.2-.9l-.2-.8c4.3.2,3.9.6,6.4,1.1,4.8.2,5.8-.3,7-.7,7.6.7-5.3.4,3.6,1.6,6.3.5,10.6,1.5,17.9,3.2,4.4.5-.7-.6.9-.6l3.7,1.3c1,.1.7-.1.5-.2,3.2.8.2.9,5.2,2,1.2,1.2,10.6.4,16.7,2.2,1.6,0-.7-.6-.2-.9,4.3.9,6.1,1.2,7.7,1.5,1.6.4,3.1.7,6.6,1.4,2,0,4.1,0,6.1-.2-4.5.5,1.1,1.6,6.1,2.2-1.6.3-3,.6-3.9.7,2.7.3,5.3.3,8,.5,1-.1.2-.4-1.1-.8.6,0,1.1.1,1.5.2,2.9-.5,1.4-.9-.6-1.3-1,.2-2,.4-2.9.6-2-.5-3.8-1.1-3.3-1.6.5.1,1.5.2,2.6.2-.5-.1-.8-.3-.6-.4.3,0,1.1,0,2.4.3l1.8-1,.4.4c3.5-.4,7-.7,10.4-1.3,1.9,0,3.7.2,5.5.2,1.9,0,3.7,0,5.8,0,2-.2,4.2-.3,6.6-.7,1.2-.2,2.5-.5,3.8-.7.7-.1,1.3-.3,2-.4.7-.2,1.4-.4,2.2-.6-3,.3-.8-1-1-1.8-3.1,2-9.1,2.3-15.2,3.6,3.2-.7,2.5-1,1.6-1l5.4-.7,5.5-1.1c-.2-.3.4-.6,1.3-1,.9-.4,2.2-.9,3.6-1.5-1,1.1,1.1.7,3.9-.3,2.8-1.1,6.4-2.5,8.6-3.4,0-.3-.2-.5-1.1-.2-.9.3-2.5.9-5.1,2,1.4-.9,2.6-1.4,3.7-1.8,1.1-.4,2-.7,3-.9,1.9-.5,3.9-.9,6.5-3-1.3.7-1.9,1.2-2.5,1.2,3.1-1.1,10-5.9,8.2-5.3-.4.3-.8.5-1.2.8,4.1-2.6,10.2-6.9,15.3-10.9,5.2-3.9,9.4-7.5,10.2-7.5,0-.2-1.6-.4-2.2-.2,5-2.9,10-6.1,14.9-9.7-1.6.3,1.3-6.5-4.8-.5,1.6-2,3.5-4.4,7.1-8.3-1,1.5-1.9,4.6-.3,2.8,1.7-3,2.3-4.1,3.1-5.2.7-1.2,1.6-2.5,3.6-6.2-1.4,2.3,1.3,1.2,3.6-2.4-.5.4-.8-1.5-1.8-.3,2.2-2.5,4.3-5.3,6.4-8.1-1.5,2.2-1.1-.4-.4-2.9-.1.6.9-1.5,2-4.1,1.1-2.6,2.2-5.7,2.7-7.1-.4,1.5-.8,3-1.2,4.5.6-1.4,1-2.7,1.4-3.8.4-1.1.8-2.1,1.1-3,.7-1.8,1.3-3.2,1.8-4.6.3-.7.5-1.5.8-2.3.2-.8.5-1.6.7-2.6.4-1.9.7-4.4.6-7.6-.1.8-.5,1.8-1,1.8-.5,0-.8-1-1.2-3.9.2-1.4.7-4.8.2-9.3-.4-4.4-1.9-9.9-4.7-14.4l-1.4-1.2c-1.4-2.2-2.9-4.3-4.5-6.3,1.2,2.3,3.6,6.5,5.5,11.3,2,4.8,3.2,10.3,3.7,14.1-.7-2-1-2.1-1.2-2.6-.2-.5-.5-1.2-1.7-4-.7-.8-.4,0,0,1.3.2.7.4,1.4.7,2.1.2.7.4,1.4.5,1.8-.7-2.2-1.7-4.3-2.8-6.3-1.1-2-2.3-3.9-3.7-5.6.2,0,0-.7-.4-1.6-.5-.8-1.2-2-2-3.1-.8-1.1-1.6-2.1-2.2-2.9-.6-.8-.9-1.4-.7-1.5,3.3,3.7,6.2,7.8,8.5,12.5.5,0,0-2.6-1.8-5.9-1.7-3.3-4.7-7.4-8.3-10.4-2-1.2.5,2.9.1,3.1-.4-.6-1.9-2.2-3.6-3.6-1.6-1.4-3.4-2.6-3.8-2.7,1,1,2,1.8,2.9,2.8-2.1-1.4-3.7-2.8-5.4-4.3-1.8-1.4-3.7-2.8-6.5-3.6-1.9-.9-6-1.1-6.1-1.9,3.4,0,5.1-3.5,3.3-5.4-.4,0-3-.9-5.9-1.5-2.9-.6-6-1-7.2-.9-1.7.1-.6,1,.6,1.9,1.2.9,2.4,1.9.9,1.9,0-.4-1.8-1.2-2.5-1.5-2.1-.2.7,1.1-3.8,0-.6-1.4-9.2-1.3-2-1.3-2.2-.5-3.4-.6-4.7-.6-1.3,0-2.7,0-5.3-.1.9-.4-.3-1-2.2-1.6-2-.5-4.8-.7-7.1-.7.3.3-.8.7-1.2,1-2.3.5-4.4,1-6.3,1.5-1,.2-1.9.6-2.8.9-.9.3-1.8.7-2.6,1-.9.3-1.7.6-2.6,1-.8.4-1.7.8-2.6,1.2-1.8.9-3.7,1.6-5.7,2.9-.7.7-4.6,3.2-2.8,2.7-1.2.4-2.4.8-4.9,2.5-4.5,4,5.5-3.5,2.2,0-.2-.2-1.9.7-3.9,1.8-2,1.2-4.4,3-6.1,4.1.3-.8,2.3-2.4,4.6-4.1,2.3-1.6,5.1-3,6.9-4-.2-.7-1.9-.2-4.7,1-.7.3-1.5.6-2.3,1.1-.8.5-1.7,1-2.6,1.6-.9.6-1.9,1.2-2.8,1.9-1,.7-2,1.5-3,2.3-3.3,2.7-3.8,3.6-3.7,3.8,0,.2.8-.2.2.3-1.4,1.5-2.7,2.6-3.7,3.7-1.1,1.1-2,2-2.8,2.8-1.6,1.5-2.8,2.7-4,3.8-2.2,2.2-4.3,4.1-8.2,10.4-2.8,5.3.7,1.2.2,2.6,4.3-5.9,6.4-9.5,9.6-13.2l-1.9,2.4-1.8,2.5c1.5-1.7,4.7-5.2,6.3-7.3-1.3,2-5.9,7.1-10.6,14-1.2,1.7-2.3,3.4-3.6,5.4l-.4.7c-.2,0-.4,0-.7,0h-1.3c-.9-.2-1.7-.2-2.5-.3-3.3-.1-6.5-.1-9.2,0-1.8-.2-5.1-.3-3.5-.7h3.3c3.1-.7-6.3-.6-2-1-4.5-.2-9.6-.4-15.9.9l-1.2,1c.1-.3,4.1-1.1,5.9-1.1-2.7,0-9.7,2.5-12.6,2.3,1.5-.5,2.9-1,4.4-1.4-4.5.5-10.2,1.2-15.7,3.2,2.5-1.5,1.3-.3,5.2-2.3-1.7,1,1.9,0,5.2-.9,3.3-.8,6.4-1.4,3.7-.3,4-1.8,7.1-1.8,12.5-3.4-.2.3-1.9.7,2.8,0,.2,0,.7.1,1,.1.2,0,.2,0,.3,0,0,0-.2,0-.3,0,.2,0,.2,0,0,0-1.1.2-2,.4-2.4.6,2.3.3,9.9-.1,12.4.3,2.8-.1-1.2-.3.4-.6,1.3.2,2.5.3,3.8.6.4-.6,7.5-.7.9-1.4h3c0,.1.9.2.9.2.1,0,.3.1.5,0-.1,0,1.7-3.2,3.1-5.2,1.4-2.1,2.9-4.1,4.1-5.5,2-2.9,5.9-6.3,3.7-4.4,2.5-2.9,5.1-5.6,7.7-8.1v-.2c7.7-8,16.9-14,26.8-20.6,1.6-.6,3.1-1.3,5-2,1.8-.9,3.9-1.5,6.5-2.5l1-1c.5-.1,1.1-.3,1.7-.5.6-.2,1.3-.3,2-.5,1.4-.3,2.8-.7,4.2-1.1,1.4-.4,2.7-.6,3.8-.6,1.1,0,1.9,0,2.4,0,.5-.3,1.3-.5,2.1-.7.4-.1.9-.2,1.4-.3.5,0,1,0,1.6-.1,2.2-.2,4.8,0,7.4.3,5.3.6,10.8,2.1,14.2,3v.9c4.8,1.3,9.3,3.3,14.8,6.4l-.6.6c2.3,1.5,5.4,3.1,8.7,5.1,3.3,2,7,4.6,10.3,7.9-.3-.7-2.1-2.3-3.4-3.2,2.2,1.4,4.4,3.3,6.3,5.5,2,2.2,3.8,4.8,5.3,7.6,1.6,2.8,3,5.7,4.1,8.8,1.2,3,2.1,6.1,2.9,9.2.4,3.2.6,5.5.8,7.8,0-.3,0-.6,0-.8,0,.3,0,.8,0,1.3.1,1.4.2,2.9.2,4.6,0-1.4-.2-2.7-.2-3.9,0,2.5-.3,6.4-1.1,10,.1.6.2,1.1.3,1.7,0,.3-.1.5-.2.8-.6,3.6-.9,2.7-.9.7-.5,1.8-1.1,3.3-1.5,4.5,0,.8-.1,1.7-.5,2.8-.3,1-.7,2.2-1.2,3.2-.5,1.1-.9,2.2-1.3,3.3-.4,1.1-.8,2.1-1,3.2-.7.9-2.6,4.7-4.8,8.1-2.2,3.4-4.5,6.5-5.3,6.7,0,.2-.4,1,.5-.4-1.9,3.1-3.9,6-6,8.2l-.4,1.9c-1.8,1.7-3.6,3.3-5.4,4.8-2.7,3.8-3.8,5.5-.5,2.7-3.9,3.6-5.4,5-6.8,6.3-1.4,1.3-2.7,2.5-6.2,5l.6.2c-2.3,2.1-6.4,4.7-7.7,6.3-2.5,2.7-9.2,8.1-17.4,13.1-4.1,2.5-8.5,5-12.9,7.1-4.4,2-8.7,3.9-12.6,5.4,1.4-1.3-.4-.5-2.6.4-2.2.9-4.9,1.9-5.3,1.3-.9.6-3,1.4-.5,1.1-8,1.4-12,3-17.6,2.5-.9.5,1.7.4.9.7-.6,0-2.5,0-3.4.2-.8.3,1.2.2,2.5.3-4.1.4-6.3.1-7.6-.3-1.3-.4-1.6-1-1.9-1.5-4.1.6-6.2.5-9.1-.2-1.4.3-3.8.6,1.2.9-.7,0-2.2,0-3.9,0-1.8,0-3.8,0-5.8-.2-4-.2-7.6-.8-7.8-1.2-.9.2-3.9-.4-4.7-.6-6.3-.7-6.8-.8-13-1.8h1.7c-2.3-1.3-5.1-.9-10-1.9h.1c-11.4-1.1-4.8-1.1-16.1-2.1l.7-.5c-.9-1.5-10-.9-16.4-1.9h2.4c-3.5-.9-10.1.7-13.6,1.1-.8.1,1.2.2,2.3.3-4.6.3-4.9.3-4.9,0s.3-.8-3.2-.6c-1.3.6,1.6.8-2.9,1.5-.6.2-1.7.2-3.1.5-.7.1-1.5.2-2.4.4-.9.2-1.8.5-2.7.7-3.7,1.1-7.9,3.2-10.2,6,1-1.3,2.1-2.5-.7-.4-.3.2-.5.4-.8.7-.2.3-.5.6-.8.9-.5.6-1.1,1.3-1.7,2-.6.7-1,1.6-1.6,2.4-.5.8-1.1,1.6-1.5,2.5-1.8,3.5-3.5,7.7-5.2,10.1-.3.8-.5,1.1-.4,1.2-1.3,2.2-3.7,5.7-6.4,8.1-2.7,2.5-5.5,3.7-6.6,4.1-.7.9-2.6,2-5,3-1.2.5-2.5,1-3.9,1.3-1.4.4-2.8.7-4.2.9-5.6,1.1-10.7.9-10.7,1.8-4,.2-8,0-11.9-.5l.3.2c-7.6-.9-10.1-2.3-12.6-3.5-1.7-.4-.5.1-.4.2-.7-.2-1.3-.4-1.9-.6-.6-.2-1.2-.4-1.7-.6-.3-.1-.6-.2-.9-.3h-.2c0,0-.1.1-.1.1,0,.1-.2.2-.3.4-.3.3-.5.6-.8,1-.3.4-.7.8-1,1.1-.7.7-1.3,1.3-1.9,1.9-2.5,2.2-4.9,4-9.5,6.2l-.8,1c-1.2.6-5.1,2.8-10.1,4.5-5,1.8-11.2,3.1-16.7,3,.1,0,.3.1,1.2.1-3.1.1-6.5,0-9.9,0-1.7-.1-3.4-.2-5.1-.4-1.7-.3-3.3-.4-4.9-.8-1.6-.4-3.1-.7-4.5-1.1-1.4-.5-2.7-.9-3.8-1.3-2.3-1-4.1-1.9-5-2.9-2.5-1.3-4.9-2.8-7.2-4.5,4.7,2.9,4.4,2.4,3.4,1.6-1-.8-2.6-2-.6-1-3.6-2.2-9.3-6-5.1-2.7l.7.4c.3.5-.2.3-1.2-.4-.5-.3-1.1-.7-1.8-1.2-.6-.5-1.4-1.1-2.1-1.7-2.9-2.4-5.6-5.5-5.6-5.2-.5-.6-1-1.1-1.4-1.7l-.7-.9-.6-.8-.2-.3h0c0-.1-.1-.1-.1-.1h-.6c0,0-1.9.3-1.9.3-1.3.2-2.6.2-3.8.3h-1.9c0,.1-1.9.1-1.9.1-5.1,0-10.1-.4-15-1.3-9.8-1.8-19.3-5.3-27.7-11.4.7.3,1.4.6,2.1.8-1-.6-2-1.3-2.9-2.1l-1.4-1.1-1.4-1.2c-1.5-1.2-2.2-1.3,1.8,2.1-.6-.3-1.3-.9-2-1.6-.7-.7-1.5-1.3-2.1-2.1-1.3-1.5-2.3-2.8-2.3-2.9-1.7-2.1-2.5-2.9-2.6-3-.1,0,.3.6.9,1.4.6.8,1.3,1.9,1.8,2.5.5.6.7.8.1.2-1-1.2-1.9-2.4-2.8-3.6l.7.8c-.3-.4-.5-.7-.7-1-.2-.4-.4-.7-.5-1-.3-.6-.6-1.2-1-1.8-.2-.3-.4-.6-.6-1-.2-.4-.4-.9-.6-1.4-.2-.5-.5-1.1-.8-1.7-.3-.6-.6-1.5-.9-2.3-.2-.6-.4-1-.5-1.4-.1-.4-.2-.7-.3-.9-.1-.5-.2-.7-.3-.8-.1-.2-.1,0-.4-1,0,0,0-.1-.2-.6,0-.5-.2-1.2-.3-2.4-.5-4-.3-8.1.6-12,0,.8-.2,1.6-.3,2.4v2.4c.2-2.7.7-5.4,1.2-6.8.2-.7.3-1,.3-.9,0,.2-.1.8-.4,2.1.2-.9.4-2,.9-3.4,0-.4.2-.7.4-1.1,0-.2.1-.4.2-.6v-.3c.1,0,.2-.2.2-.2.2-.5.4-1,.6-1.5-.3-.2-.7-.3-1.1-.4-.2,0-.5-.2-.7-.3-.3-.1-.6-.2-1-.4-1.3-.7-2.6-1.2-4-2-.7-.4-1.3-.8-2-1.2-.7-.4-1.3-.9-1.9-1.4-1.3-.9-2.5-2-3.7-2.9-4.6-4.1-7.8-8.9-8.6-10.3-1.6-2.8-3-5.7-4.1-9.1-1.1-3.3-2.1-7.1-2.3-11.5.1,1.1.3,1.9.3,1.6,0-.2,0-.7,0-1.6,0-.9,0-2.2,0-4.1-.2,1.4-.4-2.1.4-6.7.4-2.3,1.1-4.8,1.8-7,.7-2.2,1.6-4.2,2.1-5.6-.5,1.2-.2.7.5-.7.1-.2.1-.2.2-.4,0-.2,0-.3,0-.5,0-.5.1-1.1.2-1.6.1-1.2.3-2.4.5-3.7.8-5,2.2-9.3,1.2-5.2.8-3.1.8-3.1.7-3.1,0,0-.2.3.5-2,.6-1.8,1.3-3.5,2.2-5.2.4-.8.9-1.7,1.3-2.6.5-.8,1-1.6,1.5-2.5,2-3.2,4.5-6.2,7.2-8.7,5.5-5.1,12-8.4,18.6-10.9.2,0-2,.9.9-.1,2.3-1,4.7-1.9,7-2.7,1.3-.4,1.9-.5,2.8-.7.9-.2,2-.6,4.5-1.1-.7.2-1.7.5,0,0,6.6-1.5,13.3-2.2,20-2.1,6.7.1,13.4,1,20.1,2.6,3.3.7,6.6,1.7,9.8,2.8l1.2.4h.2c0,.1,0,0,.1-.1l.3-.8c.4-1,.9-2.1,1.4-3,1-1.9,2.2-3.7,3.5-5.3,5.3-6.4,11.8-10.4,18.3-13.3-1.8.8-2,1-1.6.8.5-.2,1.7-.8,3.1-1.3-1.8.7,0,0-.3.2,3.7-1.5,7.4-2.7,11.1-3.5,1-.2,4-.7,7-1,2.9-.2,5.7-.2,6.3,0-1.2,0-2.4,0-3.6,0,2.4,0,.7,0-1.5.2-2.2.2-4.8.6-4.5.6-5.3.6-14,3.1-22.2,7.6-1.8,1,1.6-.8.6-.3-1,.6-2.2,1.2-3.6,2.2-1.4,1-3.2,2.2-5.2,4.2l.5-.4c-3,2.7-5.3,5.5-7,8.5-.9,1.5-1.6,3-2.3,4.6l-.3.8c-.2,0-.5-.1-.6-.2l-.9-.3-1.8-.6c-5-1.5-10.2-2.9-17.9-3.9h1.1c-3.3-.3-4-.4-5.6-.5-1.9-.2.4,0,2.8.2,2.4.2,4.8.6,3.1.3-2.2-.2-8-.9-13.8-.8-5.7,0-11.2.8-12.7,1.3-5.1.9,1.5-.4-3.6.6l-1.4.4-1.3.2c-3.3.9-5,1.5-5.1,1.6.8-.2,2.3-.6,3.2-.9-4.3,1.1-12.1,4.1-13.6,4.8,1.6-.7,3.2-1.3,4.8-2-6.8,2.6-14.5,5.7-21.1,11.7-3.3,3-6.2,6.6-8.5,10.7-2.3,4.1-4,8.6-5,13,0-.5.2-.9.3-1.4-.9,3.3-1.3,5.8-1.6,7.7-.1,1-.2,1.8-.3,2.6,0,.4,0,.8,0,1.1v.6c0,.3,0,.5-.2.7-.7,1.4-1.2,2.7-2,4.6-.7,1.9-1.6,4.4-2.4,8.1v-.5c-.2,1.5-.5,3.2-.7,5.1-.2,1.9-.1,4,0,6,0-1.9,0-.1.3,1.5.2,1.6.4,3,.2.6,0,.9.2,1.7.3,2.5.1.7.2,1.4.3,2,.3,1.1.5,2,.7,2.8.4,1.4.7,2.1.8,2.6.2.5.2,1,.6,1.8.2.4.3.9.6,1.6.2.7.6,1.5,1.1,2.5.4.6.7,1.1,1.1,1.6,1.5,2.5,1.4,3.1,5.6,7.9-3.3-4,2.8,2.7-.9-1.8,4.3,4.5,7.9,7.1,11,9.1,1.5,1,3,1.7,4.3,2.3.3.2.7.3,1,.4.4.1.8.3,1.2.4,1,.3,1.9.7,2.9,1l-.6,1.4c-1.1,2-1.3,2.4-1.2,1.9.1-.4.6-1.7,1.4-3.2-1-.4-2.1-.8-3.3-1.3-.8-.3-1.7-.7-2.3-1-1.3-.7-2.1-1-1.3-.6-1-.4-.5,0,.8.7.6.3,1.4.8,2.3,1.2.9.4,2.1.9,3.1,1.3-.5.9-.9,1.8-1.2,2.5-.6,1.3-.8,2.3-1.2,3.6-.3,1.2-.6,2.5-.7,4.1-.1.8-.2,1.6-.2,2.5,0,.9,0,1.9,0,3,0,1.1.1,2.2.2,3.5,0,.6.2,1.3.3,1.9,0,.3,0,.7.2,1,0,.3.2.7.3,1-.3-1.1-.3-1.2-.4-2.4.8,4.3,2,8.6,4.9,12.6.3.7.7,1.4,1.1,2,.5.6.9,1.2,1.3,1.7.4.5.8,1,1.1,1.4.3.4.5.7.6,1l-.8-.9-.8-1-1.5-1.9c-.5-.6-.9-1.4-1.4-2.1-.4-.7-.9-1.4-1.3-2.2,2.7,5.1,5.9,9.9,13,14.7-.3-.3-.9-.8-1.6-1.4-.4-.3-.8-.6-1.1-1-.4-.4-.7-.7-1.1-1,1,.8,2,1.5,2.9,2.3.9.8,2,1.5,3.1,2.1,0-.2-.7-.7-1.7-1.4-.9-.7-2.2-1.6-3.5-2.7-2.7-2.1-5.5-5.3-7.2-7.8,1,1,2.6,3.3,4.1,4.7.7.8,1.3,1.3,1.6,1.5.3.2.3.1-.1-.5,2.7,3.5,7.8,6.1,13.5,9.5l-.3-.5c.5.2,1.2.6,2,1.1.8.4,1.7.8,2.6,1.2-1-.6-2-1.1-3-1.8,4.7,2.6,9.5,3.2,14.3,4.5-2.5-.5-3.9-1-4.7-1.1-.8-.2-.9-.1-.8,0,.1.2,1,.7-1.2.1,3.1,1.1,5.1,1.6,6.6,1.8,1.5.3,2.5.3,3.5.3,1,0,2.1,0,3.8.1.8,0,1.9,0,3.1.2,1.2,0,2.7.1,4.5.2-1,0-2.8-.1-4,0-1.2,0-1.8,0-.3.3,1.4,0,3,0,4.4,0,1.5,0,2.8-.2,3.6-.3,9.5-.4-1.5.5,2.6.6.8-.2,1.5-.3,2.2-.3.7,0,1.3-.1,1.9-.1s.7,0,1,0h.3s.4,0,.4,0c.3,0,.6,0,.9,0,.1,0,.3,0,.4,0,.1,0,.2.3.3.4.2.3.4.6.6,1,.4.6.6.9,1,1.4l.2-.3c1.9,2.3,3.1,3.5,3.8,4.3.7.8.9,1.1,1.1,1.4.4.6.6,1.3,4.8,4.3-1.1-1-2.1-2.2-3.2-3.3l2.1,1.8,2.1,1.7-.7-1.1c1.1,1,2.1,1.7,3,2.3.9.6,1.7,1.2,2.5,1.6.8.4,1.6.9,2.5,1.4.9.4,2,.9,3.2,1.5-1.2-.3.4,1.2,5,2.9,1.6.4,1.2.1,1.2,0,0,0,0,0,.6.1.5.2,1.4.5,3.1.9-1.5-.6-3-1.5-5.9-2-.3-.3-1.3-.9-1.6-1.1,1.7.5,3.8,1.2,5.8,1.9,2,.5,3.9,1.1,5.1,1.3-.9-.1-2-.4-2.6-.5.8.2,1.6.5,2.4.7l2.4.6,2.4.6,2.4.4c1.6,0,.3-.3-.8-.6,2,.3,3.3.5,6.2.7-.7-.4-.5-.8-4.6-1.2,1.5.2,3.1.3,4.6.4,1.6,0,3.1.1,4.7,0,.3-.1,1.5-.3,2.5-.5,1-.2,1.7-.4,1.1-.4,5.1-.8,12.7-1.5,19.2-5,.4,0,1.1-.3,2.4-1,3-1.7,5.7-3.7,8.4-6.1,1.3-1.2,2.6-2.5,3.9-4,.5-.6.9-1.1,1.4-1.7l.9-1.1.5-.5.6.2c.7.3,1.5.6,2.2.9.4.2.9.4,1.3.6,1.4.2,2.9.4,4.3.6,5.8,1.7-5.9-.5,3.7,2.2,3.4.9,4.1.7,4.2.5.1-.2-.3-.6.9-.5,3.4.9,9.5,2.2,16,.9-2.1,0-3.8.3-5.8.2v-.2ZM1026.7,80.5c-.8,0-1.9.5-3,.7-1.1.3-2.1.7-2.6,1.2.9-.1,1.7-.3,2.5-.6.9-.3,1.8-.8,3.1-1.3h0ZM1140.7,89.6c-1.1-.2-2.8,0-4.6.4,1.4,0,2.9-.1,4.6-.4ZM1117.5-28.6s0,0,.1-.1c2.2-3.6,1.4-2.3-.1.1ZM1114.2-24.6c-.6-.1-.6-.2-.3-.3.3.1.4.2.7.2.1,0,.3,0,.4,0,0-.2.2-.4.3-.6,0,.2-.1.4-.3.7,0,.2-.2,0-.4.1-.2,0-.4,0-.6-.1h0ZM770.1,83.8c0,.6.3,1.2.5,1.7-.2-1-.4-1.7-.4-2.1,0-.5,0-.7-.1-.7,0,0,0,.5,0,1.1h0Z"/>
  <path class="st0" d="M1127.8,89.1c-.4.1-.5.2-.6.4-.6-.1-.6-.2.6-.4Z"/>
  <path class="st0" d="M917.3,135.4h-.2c-.1.1-.2.1-.2.1h.5Z"/>
  <path class="st0" d="M1208.5-67.6c1.3.2,2.1.3,2.6.3,0,.2-.6.2-2.6-.3Z"/>
  <path class="st0" d="M1077.9-22.7c1.5-.2,2.9-.6,4.4-.8-2.1.4-2.9.7-4,1,0-.2.9-.5-.5-.2Z"/>
  <path class="st0" d="M1041.2-6c-.3.1-.6.3-.9.5-.3.1-.7.5-.8,0h.2c0,0,0,0,0,0,0,0,0,0,.1,0h.2c.1-.2.3-.2.4-.3.3-.1.5-.3.8-.4.5-.2.9-.4,1.1-.5.4-.2.2,0-1.1.7h0Z"/>
  <path class="st0" d="M1074-19.9c-.3.6-3,1.1-6.1,1.9.2,0,.3,0,.5-.1-1-.4,2.3-1.1,5.5-1.7Z"/>
  <path class="st0" d="M1067.2-17.8c-.9.3-1.9.6-2.8.9-.4-.1,1.1-.4,2.8-.9Z"/>
  <path class="st0" d="M1105.6-25.2c-1.5.1-.9-.7-1.7-.5-1.6-.7,9.7.9,1.7.5Z"/>
  <path class="st0" d="M1071.7-17.7l1-.8h1.7s-2.8.8-2.8.8Z"/>
  <path class="st0" d="M1095.7-22.1c-1.6.2-3.2.4-4.9.6,0-.1-.6-.1-1.3,0,3-.4,6.3-.7,6.2-.5Z"/>
  <path class="st0" d="M1089.5-21.6c-1.6.2-3,.4-3.9.4.8-.1,2.7-.4,3.9-.4Z"/>
  <path class="st0" d="M1078.3-19.1l1.4-.4c1.2-.2,2.3-.5,3.4-.7-1.6.3-3.2.7-4.8,1.1Z"/>
  <path class="st0" d="M1140.3-51.5c1.6-1.3,3.1-2.7,4.7-3.8.3,0,.1.2-.3.6-.5.4-1.2,1-2.1,1.8-1.2.8-2.9,2.2-2.3,1.4h0Z"/>
  <path class="st0" d="M1128.1-36.2c1-1.4,1-1.6,1.6-2.6l.6.5-2.1,2h0Z"/>
  <path class="st0" d="M1140.7-49.1c.6-.2,6.8-5.1,1.1-.2-.3,0-1.6,1.1-2.3,1.6-.7.6-.9.5,1.2-1.4Z"/>
  <path class="st0" d="M1216.8-68.1c-.4-.2-.9-.3-1.3-.4l.6-1.6.7,2.1Z"/>
  <path class="st0" d="M1256.1-8.1c.5-3.8.6-4.2.8-4.6.2-.3.5-.6.4-4.1.2-.9.2.5.2,1.9,0,1.4,0,2.9.1,1.9-.8,4.7-1.2,7.1-1.6,4.8h0Z"/>
  <path class="st0" d="M1257.7-12.8c0-.4.1-.8.2-1.2,0-.4,0-.8.1-1.2,0,1.4-.2,2-.3,2.4h0Z"/>
  <path class="st0" d="M893.2-76.3c1.3-.1,2.7-.2,4.1-.2-.9,0-1.7,0-2.6,0-.5,0-1,0-1.4,0h0Z"/>
  <path class="st0" d="M900.9-76.1h1c.8.1,1.6.3,2.4.5-.9-.2-2.6-.5-3.3-.5Z"/>
  <path class="st0" d="M1038.2,77l.3.2c-.7.3-1.6.3-3.6.5l3.3-.7h0Z"/>
  <path class="st0" d="M991.8,117.2c.2-.2.5-.5.7-.7-.3.6-.7,1.2-1.1,1.8l.4-1.1h0Z"/>
  <path class="st0" d="M948.5,124.3c.9.2,1.9.4,2.8.5,1,.2,1.9.4,2.8.4-2-.2-3.5-.4-4.5-.4-1-.1-1.5-.2-1.1-.5h0Z"/>
  <path class="st2" d="M1193.2-59.3c-4.7-1.1-18-2.1-34.1,5.7-9.7,4.7-17.2,12.1-20.5,21.1-14.8-5.3-37.5-9.7-62.6-.4-11,4.1-24.9,9.5-32.5,26.5-3.5,7.7-4.6,15.4-4.9,20.7-4.6,9-5.3,16.5-5.4,20.4-.4,18.6,11.6,36.3,30.1,42.8-.9,1.6-10.9,20.9,5.3,39.1,12.9,14.5,37.1,22.1,60.6,18.9.9,1.4,13.6,20.3,41.1,24.1,21.5,2.9,42.9-4.7,53.5-19.1,18.1,7.7,39.9,6.9,54.8-2,9.7-5.8,12.2-16.6,16.3-23.4,28.1-46,102.4,15.3,175.8-18.2,39.8-18.2,81.4-65.3,78.3-101.7-2.7-32.1-39.9-52.9-69.9-52.2-42.3,1-70.2,44.9-74.3,51.6-8-.8-17.2-.8-27.4.4-19.8,2.5-36.5,9.2-48.9,15.8-4.9-7.8-29.9-45.6-68.3-43-11.1.7-20.7,4.7-28.1,9-2.7-5.8-15.1-30.5-39.1-36.1h0Z"/>
  <path class="st0" d="M1194.7-59.3c-1.7-.5-1.1-.4-1.4-.5,2.9.8,1.3.5,1.4.5Z"/>
  <path class="st0" d="M1220.5-42.1l-.4-.5c1.1,1.2,2.1,2.6,3.1,3.9-.9-1.1-1.8-2.3-2.8-3.4Z"/>
  <path class="st0" d="M1240.8-28c-1.3.6-3.7,1.7-6.4,3.2-.6.3-1.2.7-1.9,1-.1.2-.2-.1-.2-.2l-.2-.5-.6-1.2c-.8-1.6-1.6-3-2.4-4.3l-.5-.8-1.3-2.4c1,1.5,2,3.2,2.9,4.9.5.9,1,1.8,1.4,2.7l.7,1.4.2.4c0,0,.2-.1.3-.2,3-1.7,6-3.1,8-4h0Z"/>
  <path class="st0" d="M1255.5-32.9c-.9.3,3.2-.5-3.5.7.3,0,.4-.1.6-.2.6-.1,1.4-.3,2.8-.6Z"/>
  <path class="st0" d="M1252.6-32.3c-2.9.6,1.9-.5,0,0Z"/>
  <path class="st0" d="M1266.3-33.5h-3.9c.8-.1,4.3-.2,3-.2,1,0,1.7,0,2.2,0,.4,0,.6.1.6.1s-.2,0-.5,0c-.3,0-.8,0-1.4,0h0Z"/>
  <path class="st0" d="M1269.9-33.1l-2-.3c.3,0,.9,0,2,.3Z"/>
  <path class="st0" d="M1263.7-33.4c1.4,0,2.9,0,4.3,0-.6,0-.6.1-2,0,.3,0-.5,0-2.3,0Z"/>
  <path class="st0" d="M1261.2-33.3c-2.2.1-5,.5-1.1.3-3.7.3-5.3.6-5,.5.3,0,2.4-.6,6.1-.8Z"/>
  <path class="st0" d="M1242.2-28.3c-.9.4-1.9.8-2.8,1.2-.8.3-1.6.7-2.4,1.1,1.2-.6,5.4-2.5,5.2-2.3Z"/>
  <path class="st0" d="M1289.9-28.1c.2.2-1.3-.3-1.6-.3l-1.3-.7-1.4-.5c.3.1.8.2,1.2.4.4.2.9.4,1.3.6.9.4,1.6.6,1.7.6h0Z"/>
  <path class="st0" d="M1288.3-28.5l4,2c-3.6-1.6-4.2-2-4-2Z"/>
  <path class="st0" d="M1270.6-32.6c-1.2-.2-2.3-.4-3.5-.5h-3.5c1.4,0,2.8,0,4.2,0l4.2.6h-1.4v-.2Z"/>
  <path class="st0" d="M1304.6-19.3c-.7-.6-1.3-1.2-2-1.8,1.2.9,2.4,2.1,3.6,3.1l-1.6-1.4Z"/>
  <path class="st0" d="M1313.6-11.5c-1.3-1.6,2.2,1.6.7,0,2.4,2.3,4.2,4.6,5.8,6.6-1.8-2.1-3.8-4.3-6.5-6.6h0Z"/>
  <path class="st0" d="M1322.8-1.3c-.8-1.1-1.7-2.3-2.7-3.5.9,1.2,1.8,2.3,2.7,3.5Z"/>
  <path class="st0" d="M1298.9-22.7c.3.1.9.4,3.1,1.8l-1.6-.7c-.5-.3-1-.7-1.5-1Z"/>
  <path class="st0" d="M1300.3-21.7h0c1.6,1.1,2.7,1.8,3.2,2.2-.4-.3-1.4-1-3.2-2.2h0Z"/>
  <path class="st0" d="M1298.5-23c.1,0,.2.2.4.3-.2,0-.2-.1-.4-.3Z"/>
  <path class="st0" d="M1281.6-30.6c2.4,1,7.3,2.9,2.5,1.4-1.7-.8,1.1.1-2.5-1.4Z"/>
  <path class="st0" d="M1296.5-23.8l-4.1-2.3c0,0,.9.3-.2-.4,1.5.8,2.9,1.8,4.4,2.7Z"/>
  <path class="st0" d="M1298.5-22.5c-.6-.5-1.3-.9-1.9-1.3l1.5.9.4.4Z"/>
  <path class="st0" d="M1316.8-7.7c.7.9,1.5,1.8,2.3,2.7.8,1,1.6,2,2.5,3-1.9-2.3-4-4.5-5.9-6.6-.2-.3-1-1.5,1.1.8Z"/>
  <path class="st0" d="M1309-15.1c.1.1.2.2.3.3-.2-.2-.4-.3-.3-.3Z"/>
  <path class="st0" d="M1339.6,3.1c-.1,0-.2.2-.4.2,0,0,0,0,0,0l.5-.2h0Z"/>
  <path class="st0" d="M1315.2-8.9c-1.6-1.5-2.4-2.5-3.3-3.4,1.2,1.2,2.3,2.4,3.7,3.7.1.2.1.2-.4-.3h0Z"/>
  <path class="st0" d="M1327.4,5c-.7-.9-1.6-1.9-2.4-3,.8.8,2.3,2.6,2.4,3Z"/>
  <path class="st0" d="M1309.9-14.3c0,0-.1-.1-.2-.2.6.4.5.4.2.2Z"/>
  <path class="st0" d="M1309.9-14.3c.8.8,1.4,1.4,2,2.1-.9-.9-1.8-1.7-2.6-2.5.2.2.4.3.6.4h0Z"/>
  <path class="st0" d="M1347.1,2.9c-.4-.3-5.5,1.2-9.7,3.6-4.2,1.7-1.8-.8,1.8-3.2.2.1.2.2,4.6-1.4-1.5.8-9.6,4.7-5.8,3.4,2.9-1.2,4.1-1.7,4.9-2.1.8-.4,1.2-.7,2.6-1.4-1.2.7.7.2,2.7-.3,2-.5,4.2-1,3.6-.4-1.7.5-3.4,1-5.1,1.5,0,.1,1.8-.3.4.3h0Z"/>
  <path class="st0" d="M1330.9,7.4c-.6.3-1.3.7-1.4.7.9-.5,1.6-1,2.4-1.4.9-.6,2-1.2,3.3-2,3-1.3,3.7-1.4,3.9-1.3-2.9,1.3-5.9,2.8-8.8,4.3l.6-.3h0Z"/>
  <path class="st0" d="M1325,2.3c.4.8,1.3,2.3,1.9,3.3.6,1,.8,1.5-.3.4-3.7-5.1-2.4-3.8-4.6-6.9,6.2,8-1.7-2.4,2.9,3.2-1.2-1.6-2.3-3.1-3.3-4.3,1.2,1.3,2.3,2.7,3.3,3.9,0,0-.1-.1-.2-.2h0c-.3-.3-.4-.4,0,0,0,0,0,.1.1.2,0,.1.1.3.2.5,1.8,2.3.3.3-.2-.5,0,0,0-.1,0-.1h0c1,1.4,2,2.8,3,4.2.4.7,1.1,1.6,1.2,1.8l.3.5c.1,0,.3-.1.4-.2-.1,0-.2.1-.3.2,0,0-.1,0-.1,0v-.2c-.3-.3-.5-.6-.8-1-.9-1.3-2-2.8-3.4-4.8h0Z"/>
  <path class="st0" d="M1288.3-26.9c.3,0,.2,0,.3,0,.5.3.7.4-.3,0Z"/>
  <path class="st0" d="M1291.7-25.5c-.6-.3-1-.6-3-1.5-1.7-.7,0,.1-.1.2-1.1-.6-4-2.1-.3-.5l.6.3c3.3,1.3,7.4,3.5,6.9,3.2-1-.3-1.9-.7-4.1-1.6h0Z"/>
  <path class="st0" d="M1309.5-13.5c2,1.8,3.8,3.8,5.7,5.7l-3-2.7h.2c-3.3-3.1-2.5-2.5-2.9-3h0Z"/>
  <path class="st0" d="M1340.3,2.5h-1c1.4-.4,2.8-.8,4.2-1.2-1.1.4-2.1.8-3.2,1.2h0Z"/>
  <path class="st0" d="M1349.7-1.2l-.4-.3c.8-.2,1.7-.4,2.5-.6l-2.1.9h0Z"/>
  <path class="st0" d="M1284.8,129.7c-.5.6-1,1.2-1.6,1.7.8-.8,1.2-1.3,1.6-1.7Z"/>
  <path class="st0" d="M1294.1,112.5l.4-.3c-.6.7-.9,1-.4.3Z"/>
  <path class="st0" d="M1418.6,107.2c.3,0,.6-.1.9-.2.7.2,1.4.4,2.1.6-.9-.1-1.9-.2-3-.4Z"/>
  <path class="st0" d="M1416.5,104.8l-4.1.3c.9-.1,2.2-.2,4.1-.3Z"/>
  <path class="st0" d="M1205.9,151.6c-.8.2-1.6.5-2.4.6,3.6-1.6,2.1-.7,2.4-.6Z"/>
  <path class="st0" d="M1436.9-45.2c2.4-2,4.5-3.5,6.2-4.7-3,2.4-5.2,4.6-6.2,4.7Z"/>
  <path class="st0" d="M1291.7,126.5c-.9,1.5-1.3,2.1-1.3,2,.9-1.5,1.4-2.4,1.3-2Z"/>
  <path class="st0" d="M1450.8-54c-.5.3-.9.5-1.4.8-1.9,1-3.9,2-6.2,3.4,1.1-.8,2.3-1.6,3.6-2.4,1.3-.7,2.6-1.5,4-1.8h0Z"/>
  <path class="st0" d="M1084.3-34.9c.2,0,.5-.2.7-.2,0,0-.2,0-.7.2Z"/>
  <path class="st0" d="M1167.4-57.2c-.9.3-2.3.8-3.6,1.3.6-.3,1.7-.7,3.6-1.3Z"/>
  <path class="st0" d="M1387.9-9.4c-2,0-.3,0,0,0Z"/>
  <path class="st0" d="M1378.1-6.3c.4,0,.8,0,.8.2-.2-.1-.4-.2-.8-.2Z"/>
  <path class="st0" d="M1471.3-56.2s0,0,.2,0c-.6.3-.5.2-.2,0Z"/>
  <path class="st0" d="M1384.9-9c.8-.1,1.6-.3,2.6-.3-.4,0-1.2.2-2.6.3Z"/>
  <path class="st0" d="M1385.3-9.3c-.7,0-1.2.2-1.8.2-.3,0,0-.2,1.8-.2Z"/>
  <path class="st0" d="M1390.8-9.5c-1.2,0-2.2.1-3.3.2.4,0,.6-.1.5-.1.6,0,1.4,0,2.8-.1Z"/>
  <path class="st0" d="M1073.4,119.8c-.1,0-.2-.2-.4-.3-1.6-1.5-.9-.9.4.3Z"/>
  <path class="st0" d="M1511.8,63.8c2.8-1.8,4.2-3.4,6-5.5l-1,3.6c-1.7.7-3.3,1.3-5,1.9Z"/>
  <path class="st0" d="M1251,142.9c1.7-.1,3.3-.4,4.9-.7-5.9-.2-10.2-.3-5.6-.8.3.7,5.1.8,9.8,0,4.8-.7,9.4-2.3,9.8-1.7,1-.5,2.1-1,3.1-1.6-.9.4-1,.4-1.9.7,3-1.6,4.1-1.9,5.5-2.3.7-.2,1.5-.4,2.4-.9,1-.5,2.2-1.4,3.8-3,2.1-2.4,3.2-4.7,1.8-2.9,1.5-1.9,2.9-4,4.1-6.4,1-2.2.6-1.8-.4.4.9-1.8,1.8-3.7,2.8-5.7.5-1,1-2,1.5-3l.9-1.5.9-1.3h0c.6-.6,1.5-1.8,2.5-2.9,1-1,2.1-2,2.8-2.7,1-1.2.8-.9.2-.5-.5.5-1.1,1.2-.9.8.8-.9,1.7-1.5,2.5-2.2l1.3-1,.6-.5.7-.4c1-.9.4-.7-.9,0-.6.5-1.4,1.1-2.3,1.8-.4.4-.9.7-1.3,1.1-.4.5-.8.9-1.2,1.4.4-.8.8-1.4,1.2-2,.4-.5.8-.9,1.2-1.3.8-.7,1.5-1.3,2.4-1.9,1-.5,2.1-1.2,3.7-2.2,1.6-.7,3.6-2,6.4-3.1-.9.3-1.8.5-2.7.9l-2.7,1.2c.8-.7,1.7-1.2,2.6-1.8,1-.5,2-.9,3.1-1.4,1.1-.5,2.3-.8,3.7-1.2.7-.2,1.3-.4,2-.6.7-.2,1.4-.3,2.2-.5-.4.1-1.3.4-2.4.7-1.1.4-2.4.9-3.4,1.4-1,.4-1.8,1-1.9,1.2-.1.3.4.1,1.9-.2.8-.3,1.8-.6,3.1-.8,1.2-.3,2.6-.3,4.2-.4,0-.6,3.2-.9,7.2-.9l-.2-.8c4.3.2,3.9.6,6.4,1.1,4.8.2,5.8-.3,7-.7,7.6.7-5.3.4,3.6,1.6,6.3.5,10.6,1.5,17.9,3.2,4.4.5-.7-.6.9-.6l3.7,1.3c1,.1.7-.1.5-.2,3.2.8.2.9,5.2,2,1.2,1.2,10.6.4,16.7,2.2,1.6,0-.7-.6-.2-.9,4.3.9,6.1,1.2,7.7,1.5,1.6.4,3.1.7,6.6,1.4,2,0,4.1,0,6.1-.2-4.5.5,1.1,1.6,6.1,2.2-1.6.3-3,.6-3.9.7,2.7.3,5.3.3,8,.5,1-.1.2-.4-1.1-.8.6,0,1.1.1,1.5.2,2.9-.5,1.4-.9-.6-1.3-1,.2-2,.4-2.9.6-2-.5-3.8-1.1-3.3-1.6.5.1,1.5.2,2.6.2-.5-.1-.8-.3-.6-.4.3,0,1.1,0,2.4.3l1.8-1,.4.4c3.5-.4,7-.7,10.4-1.3,1.9,0,3.7.2,5.5.2,1.9,0,3.7,0,5.8,0,2-.2,4.2-.3,6.6-.7,1.2-.2,2.5-.5,3.8-.7.7-.1,1.3-.3,2-.4.7-.2,1.4-.4,2.2-.6-3,.3-.8-1-1-1.8-3.1,2-9.1,2.3-15.2,3.6,3.2-.7,2.5-1,1.6-1l5.4-.7,5.5-1.1c-.2-.3.4-.6,1.3-1,.9-.4,2.2-.9,3.6-1.5-1,1.1,1.1.7,3.9-.3,2.8-1.1,6.4-2.5,8.6-3.4,0-.3-.2-.5-1.1-.2-.9.3-2.5.9-5.1,2,1.4-.9,2.6-1.4,3.7-1.8,1.1-.4,2-.7,3-.9,1.9-.5,3.9-.9,6.5-3-1.3.7-1.9,1.2-2.5,1.2,3.1-1.1,10-5.9,8.2-5.3-.4.3-.8.5-1.2.8,4.1-2.6,10.2-6.9,15.3-10.9,5.2-3.9,9.4-7.5,10.2-7.5,0-.2-1.6-.4-2.2-.2,5-2.9,10-6.1,14.9-9.7-1.6.3,1.3-6.5-4.8-.5,1.6-2,3.5-4.4,7.1-8.3-1,1.5-1.9,4.6-.3,2.8,1.7-3,2.3-4.1,3.1-5.2.7-1.2,1.6-2.5,3.6-6.2-1.4,2.3,1.3,1.2,3.6-2.4-.5.4-.8-1.5-1.8-.3,2.2-2.5,4.3-5.3,6.4-8.1-1.5,2.2-1.1-.4-.4-2.9-.1.6.9-1.5,2-4.1,1.1-2.6,2.2-5.7,2.7-7.1-.4,1.5-.8,3-1.2,4.5.6-1.4,1-2.7,1.4-3.8.4-1.1.8-2.1,1.1-3,.7-1.8,1.3-3.2,1.8-4.6.3-.7.5-1.5.8-2.3.2-.8.5-1.6.7-2.6.4-1.9.7-4.4.6-7.6-.1.8-.5,1.8-1,1.8-.5,0-.8-1-1.2-3.9.2-1.4.7-4.8.2-9.3-.4-4.4-1.9-9.9-4.7-14.4l-1.4-1.2c-1.4-2.2-2.9-4.3-4.5-6.3,1.2,2.3,3.6,6.5,5.5,11.3,2,4.8,3.2,10.3,3.7,14.1-.7-2-1-2.1-1.2-2.6-.2-.5-.5-1.2-1.7-4-.7-.8-.4,0,0,1.3.2.7.4,1.4.7,2.1.2.7.4,1.4.5,1.8-.7-2.2-1.7-4.3-2.8-6.3-1.1-2-2.3-3.9-3.7-5.6.2,0,0-.7-.4-1.6-.5-.8-1.2-2-2-3.1-.8-1.1-1.6-2.1-2.2-2.9-.6-.8-.9-1.4-.7-1.5,3.3,3.7,6.2,7.8,8.5,12.5.5,0,0-2.6-1.8-5.9-1.7-3.3-4.7-7.4-8.3-10.4-2-1.2.5,2.9.1,3.1-.4-.6-1.9-2.2-3.6-3.6-1.6-1.4-3.4-2.6-3.8-2.7,1,1,2,1.8,2.9,2.8-2.1-1.4-3.7-2.8-5.4-4.3-1.8-1.4-3.7-2.8-6.5-3.6-1.9-.9-6-1.1-6.1-1.9,3.4,0,5.1-3.5,3.3-5.4-.4,0-3-.9-5.9-1.5-2.9-.6-6-1-7.2-.9-1.7.1-.6,1,.6,1.9,1.2.9,2.4,1.9.9,1.9,0-.4-1.8-1.2-2.5-1.5-2.1-.2.7,1.1-3.8,0-.6-1.4-9.2-1.3-2-1.3-2.2-.5-3.4-.6-4.7-.6-1.3,0-2.7,0-5.3-.1.9-.4-.3-1-2.2-1.6-2-.5-4.8-.7-7.1-.7.3.3-.8.7-1.2,1-2.3.5-4.4,1-6.3,1.5-1,.2-1.9.6-2.8.9-.9.3-1.8.7-2.6,1-.9.3-1.7.6-2.6,1-.8.4-1.7.8-2.6,1.2-1.8.9-3.7,1.6-5.7,2.9-.7.7-4.6,3.2-2.8,2.7-1.2.4-2.4.8-4.9,2.5-4.5,4,5.5-3.5,2.2,0-.2-.2-1.9.7-3.9,1.8-2,1.2-4.4,3-6.1,4.1.3-.8,2.3-2.4,4.6-4.1,2.3-1.6,5.1-3,6.9-4-.2-.7-1.9-.2-4.7,1-.7.3-1.5.6-2.3,1.1-.8.5-1.7,1-2.6,1.6-.9.6-1.9,1.2-2.8,1.9-1,.7-2,1.5-3,2.3-3.3,2.7-3.8,3.6-3.7,3.8,0,.2.8-.2.2.3-1.4,1.5-2.7,2.6-3.7,3.7-1.1,1.1-2,2-2.8,2.8-1.6,1.5-2.8,2.7-4,3.8-2.2,2.2-4.3,4.1-8.2,10.4-2.8,5.3.7,1.2.2,2.6,4.3-5.9,6.4-9.5,9.6-13.2l-1.9,2.4-1.8,2.5c1.5-1.7,4.7-5.2,6.3-7.3-1.3,2-5.9,7.1-10.6,14-1.2,1.7-2.3,3.4-3.6,5.4l-.4.7c-.2,0-.4,0-.7,0h-1.3c-.9-.2-1.7-.2-2.5-.3-3.3-.1-6.5-.1-9.2,0-1.8-.2-5.1-.3-3.5-.7h3.3c3.1-.7-6.3-.6-2-1-4.5-.2-9.6-.4-15.9.9l-1.2,1c.1-.3,4.1-1.1,5.9-1.1-2.7,0-9.7,2.5-12.6,2.3,1.5-.5,2.9-1,4.4-1.4-4.5.5-10.2,1.2-15.7,3.2,2.5-1.5,1.3-.3,5.2-2.3-1.7,1,1.9,0,5.2-.9,3.3-.8,6.4-1.4,3.7-.3,4-1.8,7.1-1.8,12.5-3.4-.2.3-1.9.7,2.8,0,.2,0,.7.1,1,.1.2,0,.2,0,.3,0,0,0-.2,0-.3,0,.2,0,.2,0,0,0-1.1.2-2,.4-2.4.6,2.3.3,9.9-.1,12.4.3,2.8-.1-1.2-.3.4-.6,1.3.2,2.5.3,3.8.6.4-.6,7.5-.7.9-1.4h3c0,.1.9.2.9.2.1,0,.3.1.5,0-.1,0,1.7-3.2,3.1-5.2,1.4-2.1,2.9-4.1,4.1-5.5,2-2.9,5.9-6.3,3.7-4.4,2.5-2.9,5.1-5.6,7.7-8.1v-.2c7.7-8,16.9-14,26.8-20.6,1.6-.6,3.1-1.3,5-2,1.8-.9,3.9-1.5,6.5-2.5l1-1c.5-.1,1.1-.3,1.7-.5.6-.2,1.3-.3,2-.5,1.4-.3,2.8-.7,4.2-1.1,1.4-.4,2.7-.6,3.8-.6,1.1,0,1.9,0,2.4,0,.5-.3,1.3-.5,2.1-.7.4-.1.9-.2,1.4-.3.5,0,1,0,1.6-.1,2.2-.2,4.8,0,7.4.3,5.3.6,10.8,2.1,14.2,3v.9c4.8,1.3,9.3,3.3,14.8,6.4l-.6.6c2.3,1.5,5.4,3.1,8.7,5.1,3.3,2,7,4.6,10.3,7.9-.3-.7-2.1-2.3-3.4-3.2,2.2,1.4,4.4,3.3,6.3,5.5,2,2.2,3.8,4.8,5.3,7.6,1.6,2.8,3,5.7,4.1,8.8,1.2,3,2.1,6.1,2.9,9.2.4,3.2.6,5.5.8,7.8,0-.3,0-.6,0-.8,0,.3,0,.8,0,1.3.1,1.4.2,2.9.2,4.6,0-1.4-.2-2.7-.2-3.9,0,2.5-.3,6.4-1.1,10,.1.6.2,1.1.3,1.7,0,.3-.1.5-.2.8-.6,3.6-.9,2.7-.9.7-.5,1.8-1.1,3.3-1.5,4.5,0,.8-.1,1.7-.5,2.8-.3,1-.7,2.2-1.2,3.2-.5,1.1-.9,2.2-1.3,3.3-.4,1.1-.8,2.1-1,3.2-.7.9-2.6,4.7-4.8,8.1-2.2,3.4-4.5,6.5-5.3,6.7,0,.2-.4,1,.5-.4-1.9,3.1-3.9,6-6,8.2l-.4,1.9c-1.8,1.7-3.6,3.3-5.4,4.8-2.7,3.8-3.8,5.5-.5,2.7-3.9,3.6-5.4,5-6.8,6.3-1.4,1.3-2.7,2.5-6.2,5l.6.2c-2.3,2.1-6.4,4.7-7.7,6.3-2.5,2.7-9.2,8.1-17.4,13.1-4.1,2.5-8.5,5-12.9,7.1-4.4,2-8.7,3.9-12.6,5.4,1.4-1.3-.4-.5-2.6.4-2.2.9-4.9,1.9-5.3,1.3-.9.6-3,1.4-.5,1.1-8,1.4-12,3-17.6,2.5-.9.5,1.7.4.9.7-.6,0-2.5,0-3.4.2-.8.3,1.2.2,2.5.3-4.1.4-6.3.1-7.6-.3-1.3-.4-1.6-1-1.9-1.5-4.1.6-6.2.5-9.1-.2-1.4.3-3.8.6,1.2.9-.7,0-2.2,0-3.9,0-1.8,0-3.8,0-5.8-.2-4-.2-7.6-.8-7.8-1.2-.9.2-3.9-.4-4.7-.6-6.3-.7-6.8-.8-13-1.8h1.7c-2.3-1.3-5.1-.9-10-1.9h.1c-11.4-1.1-4.8-1.1-16.1-2.1l.7-.5c-.9-1.5-10-.9-16.4-1.9h2.4c-3.5-.9-10.1.7-13.6,1.1-.8.1,1.2.2,2.3.3-4.6.3-4.9.3-4.9,0s.3-.8-3.2-.6c-1.3.6,1.6.8-2.9,1.5-.6.2-1.7.2-3.1.5-.7.1-1.5.2-2.4.4-.9.2-1.8.5-2.7.7-3.7,1.1-7.9,3.2-10.2,6,1-1.3,2.1-2.5-.7-.4-.3.2-.5.4-.8.7-.2.3-.5.6-.8.9-.5.6-1.1,1.3-1.7,2-.6.7-1,1.6-1.6,2.4-.5.8-1.1,1.6-1.5,2.5-1.8,3.5-3.5,7.7-5.2,10.1-.3.8-.5,1.1-.4,1.2-1.3,2.2-3.7,5.7-6.4,8.1-2.7,2.5-5.5,3.7-6.6,4.1-.7.9-2.6,2-5,3-1.2.5-2.5,1-3.9,1.3-1.4.4-2.8.7-4.2.9-5.6,1.1-10.7.9-10.7,1.8-4,.2-8,0-11.9-.5l.3.2c-7.6-.9-10.1-2.3-12.6-3.5-1.7-.4-.5.1-.4.2-.7-.2-1.3-.4-1.9-.6-.6-.2-1.2-.4-1.7-.6-.3-.1-.6-.2-.9-.3h-.2c0,0-.1.1-.1.1,0,.1-.2.2-.3.4-.3.3-.5.6-.8,1-.3.4-.7.8-1,1.1-.7.7-1.3,1.3-1.9,1.9-2.5,2.2-5,4-9.5,6.2l-.8,1c-1.2.6-5.1,2.8-10.1,4.5-5,1.8-11.2,3.1-16.7,3,.1,0,.3.1,1.2.1-3.1.1-6.5,0-9.9,0-1.7-.1-3.4-.2-5.1-.4-1.7-.3-3.3-.4-4.9-.8-1.6-.4-3.1-.7-4.5-1.1-1.4-.5-2.7-.9-3.8-1.3-2.3-1-4.1-1.9-5-2.9-2.5-1.3-4.9-2.8-7.2-4.5,4.7,2.9,4.4,2.4,3.4,1.6-1-.8-2.6-2-.6-1-3.6-2.2-9.3-6-5.1-2.7l.7.4c.3.5-.2.3-1.2-.4-.5-.3-1.1-.7-1.8-1.2-.6-.5-1.3-1.1-2.1-1.7-2.9-2.4-5.6-5.5-5.6-5.2-.5-.6-.9-1.1-1.4-1.7l-.7-.9-.6-.8-.2-.3h0c0-.1-.1-.1-.1-.1h-.6c0,0-1.9.3-1.9.3-1.3.2-2.6.2-3.8.3h-1.9c0,.1-1.9.1-1.9.1-5.1,0-10.1-.4-15-1.3-9.8-1.8-19.3-5.3-27.7-11.4.7.3,1.4.6,2.2.8-1-.6-2-1.3-2.9-2.1l-1.4-1.1-1.4-1.2c-1.5-1.2-2.2-1.3,1.8,2.1-.6-.3-1.3-.9-2-1.6-.7-.7-1.5-1.3-2.1-2.1-1.3-1.5-2.3-2.8-2.3-2.9-1.7-2.1-2.5-2.9-2.6-3-.1,0,.3.6.9,1.4.6.8,1.3,1.9,1.8,2.5.5.6.7.8.1.2-1-1.2-1.9-2.4-2.8-3.6l.7.8c-.3-.4-.5-.7-.7-1-.2-.4-.4-.7-.5-1-.3-.6-.6-1.2-1-1.8-.2-.3-.4-.6-.6-1-.2-.4-.4-.9-.6-1.4-.2-.5-.5-1.1-.8-1.7-.3-.6-.6-1.5-.9-2.3-.2-.6-.4-1-.5-1.4-.1-.4-.2-.7-.3-.9-.2-.5-.2-.7-.3-.8-.1-.2-.1,0-.4-1,0,0,0-.1-.2-.6,0-.5-.2-1.2-.3-2.4-.5-4-.2-8.1.6-12,0,.8-.2,1.6-.3,2.4v2.4c.2-2.7.7-5.4,1.2-6.8.2-.7.3-1,.3-.9,0,.2-.2.8-.4,2.1.2-.9.4-2,.9-3.4,0-.4.2-.7.4-1.1,0-.2.1-.4.2-.6v-.3c.1,0,.2-.2.2-.2.2-.5.4-1,.6-1.5-.3-.2-.7-.3-1.1-.4-.2,0-.5-.2-.8-.3-.3-.1-.6-.2-1-.4-1.3-.7-2.6-1.2-3.9-2-.7-.4-1.3-.8-2-1.2-.7-.4-1.3-.9-1.9-1.4-1.3-.9-2.5-2-3.7-2.9-4.6-4.1-7.8-8.9-8.6-10.3-1.6-2.8-3-5.7-4.1-9.1-1.1-3.3-2.1-7.1-2.3-11.5.1,1.1.3,1.9.3,1.6,0-.2,0-.7,0-1.6,0-.9,0-2.2,0-4.1-.2,1.4-.4-2.1.4-6.7.4-2.3,1.1-4.8,1.8-7,.7-2.2,1.6-4.2,2.2-5.6-.5,1.2-.2.7.5-.7.1-.2.1-.2.2-.4,0-.2,0-.3,0-.5,0-.5.1-1.1.2-1.6.1-1.2.3-2.4.5-3.7.8-5,2.2-9.3,1.2-5.2.8-3.1.8-3.1.7-3.1,0,0-.2.3.5-2,.6-1.8,1.3-3.5,2.2-5.2.4-.8.9-1.7,1.3-2.6.5-.8.9-1.6,1.4-2.5,2-3.2,4.5-6.2,7.2-8.7,5.5-5.1,12-8.4,18.6-10.9.2,0-2,.9.9-.1,2.3-1,4.7-1.9,7-2.7,1.3-.4,1.9-.5,2.8-.7.9-.2,2-.6,4.5-1.1-.7.2-1.7.5,0,0,6.6-1.5,13.3-2.2,20.1-2.1,6.7.1,13.4,1,20.1,2.6,3.3.7,6.6,1.7,9.8,2.8l1.2.4h.2c0,.1,0,0,.1-.1l.3-.8c.4-1,.9-2.1,1.4-3,1-1.9,2.2-3.7,3.5-5.3,5.3-6.4,11.8-10.4,18.3-13.3-1.8.8-2,1-1.6.8.5-.2,1.8-.8,3.1-1.3-1.8.7,0,0-.3.2,3.7-1.5,7.4-2.7,11.1-3.5,1-.2,4.1-.7,7-1,2.9-.2,5.7-.2,6.3,0-1.2,0-2.4,0-3.6,0,2.4,0,.7,0-1.4.2-2.2.2-4.8.6-4.5.6-5.3.6-14,3.1-22.2,7.6-1.8,1,1.6-.8.6-.3-1,.6-2.2,1.2-3.6,2.2-1.4,1-3.2,2.2-5.2,4.2l.5-.4c-3,2.7-5.3,5.5-7,8.5-.9,1.5-1.7,3-2.2,4.6l-.3.8c-.2,0-.5-.1-.6-.2l-.9-.3-1.8-.6c-5-1.5-10.2-2.9-17.9-3.9h1.2c-3.3-.3-4-.4-5.6-.5-1.9-.2.4,0,2.8.2,2.4.2,4.8.6,3,.3-2.2-.2-8-.9-13.8-.8-5.7,0-11.2.8-12.7,1.3-5.1.9,1.5-.4-3.6.6l-1.3.4-1.3.2c-3.3.9-5,1.5-5.1,1.6.8-.2,2.3-.6,3.2-.9-4.3,1.1-12.1,4.1-13.6,4.8,1.6-.7,3.2-1.3,4.8-2-6.8,2.6-14.5,5.7-21.1,11.7-3.3,3-6.2,6.6-8.5,10.7-2.3,4.1-4,8.6-5,13,0-.5.2-.9.3-1.4-.9,3.3-1.3,5.8-1.5,7.7-.1,1-.2,1.8-.3,2.6,0,.4,0,.8,0,1.1v.6c0,.3,0,.5-.2.7-.7,1.4-1.2,2.7-2,4.6-.7,1.9-1.6,4.4-2.4,8.1v-.5c-.2,1.5-.5,3.2-.7,5.1-.2,1.9-.1,4,0,6,0-1.9,0-.1.3,1.5.2,1.6.4,3,.2.6,0,.9.2,1.7.3,2.5.1.7.2,1.4.3,2,.3,1.1.5,2,.7,2.8.4,1.4.7,2.1.8,2.6.2.5.2,1,.6,1.8.2.4.3.9.6,1.6.2.7.6,1.5,1.1,2.5.4.6.7,1.1,1.1,1.6,1.5,2.5,1.4,3.1,5.6,7.9-3.3-4,2.8,2.7-.9-1.8,4.3,4.5,7.9,7.1,11,9.1,1.5,1,3,1.7,4.3,2.3.3.2.7.3,1,.4.4.1.8.3,1.2.4,1,.3,2,.7,2.9,1l-.6,1.4c-1.1,2-1.3,2.4-1.2,1.9.1-.4.7-1.7,1.4-3.2-1-.4-2.1-.8-3.3-1.3-.8-.3-1.7-.7-2.3-1-1.3-.7-2.1-1-1.3-.6-1-.4-.5,0,.8.7.6.3,1.4.8,2.3,1.2.9.4,2.1.9,3.1,1.3-.5.9-.9,1.8-1.2,2.5-.6,1.3-.8,2.3-1.2,3.6-.3,1.2-.6,2.5-.7,4.1-.1.8-.2,1.6-.2,2.5,0,.9,0,1.9,0,3,0,1.1.1,2.2.2,3.5,0,.6.2,1.3.3,1.9,0,.3,0,.7.2,1,0,.3.2.7.3,1-.3-1.1-.3-1.2-.4-2.4.8,4.3,2,8.6,4.9,12.6.3.7.7,1.4,1.1,2,.5.6.9,1.2,1.3,1.7.4.5.8,1,1.1,1.4.3.4.5.7.6,1l-.8-.9-.8-1-1.5-1.9c-.5-.6-.9-1.4-1.4-2.1-.4-.7-.9-1.4-1.3-2.2,2.7,5.1,5.9,9.9,13,14.7-.2-.3-.9-.8-1.6-1.4-.4-.3-.8-.6-1.1-1-.4-.4-.7-.7-1.1-1,1,.8,2,1.5,2.9,2.3.9.8,2,1.5,3.1,2.1,0-.2-.7-.7-1.7-1.4-.9-.7-2.2-1.6-3.5-2.7-2.7-2.1-5.5-5.3-7.2-7.8,1,1,2.6,3.3,4.1,4.7.7.8,1.3,1.3,1.6,1.5.3.2.3.1-.1-.5,2.7,3.5,7.8,6.1,13.5,9.5l-.3-.5c.5.2,1.2.6,2,1.1.8.4,1.7.8,2.6,1.2-1-.6-2-1.1-3-1.8,4.7,2.6,9.5,3.2,14.3,4.5-2.5-.5-3.9-1-4.7-1.1-.8-.2-.9-.1-.8,0,.1.2,1,.7-1.2.1,3.1,1.1,5.1,1.6,6.6,1.8,1.5.3,2.5.3,3.5.3,1,0,2.1,0,3.8.1.9,0,1.9,0,3.1.2,1.2,0,2.7.1,4.5.2-1,0-2.8-.1-4,0-1.2,0-1.8,0-.3.3,1.4,0,2.9,0,4.4,0,1.4,0,2.8-.2,3.6-.3,9.5-.4-1.5.5,2.6.6.8-.2,1.5-.3,2.2-.3.6,0,1.3-.1,1.9-.1s.7,0,1,0h.3s.4,0,.4,0c.3,0,.6,0,.8,0,.2,0,.3,0,.4,0,.1,0,.2.3.3.4.2.3.4.6.6,1,.4.6.6.9,1,1.4l.2-.3c1.9,2.3,3.2,3.5,3.8,4.3.7.8.9,1.1,1.1,1.4.4.6.6,1.3,4.8,4.3-1.1-1-2.1-2.2-3.2-3.3l2.1,1.8,2.1,1.7-.7-1.1c1.1,1,2.1,1.7,3,2.3.9.6,1.7,1.2,2.5,1.6.8.4,1.6.9,2.5,1.4.9.4,2,.9,3.2,1.5-1.2-.3.4,1.2,5,2.9,1.6.4,1.2.1,1.2,0,0,0,0,0,.6.1.5.2,1.4.5,3.1.9-1.5-.6-3-1.5-5.9-2-.2-.3-1.3-.9-1.6-1.1,1.7.5,3.8,1.2,5.8,1.9,2,.5,3.9,1.1,5.1,1.3-.9-.1-2-.4-2.6-.5.8.2,1.6.5,2.3.7l2.4.6,2.4.6,2.4.4c1.6,0,.4-.3-.8-.6,2,.3,3.3.5,6.2.7-.7-.4-.5-.8-4.6-1.2,1.5.2,3.1.3,4.6.4,1.6,0,3.1.1,4.7,0,.3-.1,1.5-.3,2.5-.5,1-.2,1.7-.4,1.1-.4,5.1-.8,12.7-1.5,19.2-5,.4,0,1.1-.3,2.4-1,3-1.7,5.7-3.7,8.3-6.1,1.3-1.2,2.6-2.5,3.9-4,.5-.6.9-1.1,1.4-1.7l.9-1.1.5-.5.6.2c.7.3,1.5.6,2.2.9.4.2.9.4,1.3.6,1.4.2,2.9.4,4.3.6,5.8,1.7-5.9-.5,3.7,2.2,3.4.9,4.1.7,4.2.5.1-.2-.3-.6.9-.5,3.4.9,9.5,2.2,16,.9-2.1,0-3.8.3-5.8.2v-.2ZM1315.7,96.5c-.8,0-1.9.5-3,.7-1.1.3-2.1.7-2.6,1.2.9-.1,1.7-.3,2.5-.6.9-.3,1.8-.8,3.1-1.3h0ZM1429.7,105.6c-1.1-.2-2.8,0-4.6.4,1.4,0,2.9-.1,4.6-.4ZM1406.5-12.6s0,0,.1-.1c2.2-3.6,1.4-2.3-.1.1ZM1403.2-8.6c-.6-.1-.6-.2-.3-.3.3.1.4.2.7.2.1,0,.3,0,.4,0,0-.2.2-.4.3-.6,0,.2-.1.4-.3.7,0,.2-.2,0-.4.1-.2,0-.4,0-.6-.1h0ZM1059.1,99.8c0,.6.3,1.2.5,1.7-.2-1-.4-1.7-.4-2.1,0-.5,0-.7-.1-.7,0,0,0,.5,0,1.1h0Z"/>
  <path class="st0" d="M1416.8,105.1c-.4.1-.5.2-.6.4-.6-.1-.6-.2.6-.4Z"/>
  <path class="st0" d="M1206.3,151.4h-.2c-.1.1-.2.1-.2.1h.4Z"/>
  <path class="st0" d="M1497.5-51.6c1.3.2,2.1.3,2.6.3,0,.2-.6.2-2.6-.3Z"/>
  <path class="st0" d="M1366.9-6.7c1.5-.2,2.9-.6,4.4-.8-2.1.4-2.9.7-4,1,0-.2.9-.5-.5-.2Z"/>
  <path class="st0" d="M1330.2,10c-.3.1-.6.3-.9.5-.3.1-.7.5-.8,0h.2c0,0,0,0,0,0,0,0,0,0,.1,0h.2c.1-.2.3-.2.4-.3.3-.1.5-.3.8-.4.5-.2.9-.4,1.1-.5.4-.2.2,0-1.1.7h0Z"/>
  <path class="st0" d="M1363-3.9c-.3.6-3,1.1-6.1,1.9.2,0,.3,0,.5-.1-1-.4,2.3-1.1,5.5-1.7Z"/>
  <path class="st0" d="M1356.2-1.8c-.9.3-1.9.6-2.8.9-.4-.1,1.1-.4,2.8-.9Z"/>
  <path class="st0" d="M1394.6-9.2c-1.5.1-.9-.7-1.7-.5-1.6-.7,9.7.9,1.7.5Z"/>
  <path class="st0" d="M1360.7-1.7l1-.8h1.7s-2.8.8-2.8.8Z"/>
  <path class="st0" d="M1384.7-6.1c-1.6.2-3.2.4-4.9.6,0-.1-.6-.1-1.3,0,3-.4,6.3-.7,6.2-.5Z"/>
  <path class="st0" d="M1378.5-5.6c-1.6.2-3,.4-3.9.4.8-.1,2.7-.4,3.9-.4Z"/>
  <path class="st0" d="M1367.3-3.1l1.4-.4c1.2-.2,2.3-.5,3.4-.7-1.6.3-3.2.7-4.8,1.1Z"/>
  <path class="st0" d="M1429.3-35.5c1.6-1.3,3.1-2.7,4.7-3.8.3,0,.1.2-.3.6-.5.4-1.2,1-2.1,1.8-1.2.8-2.9,2.2-2.3,1.4h0Z"/>
  <path class="st0" d="M1417.1-20.2c1-1.4,1-1.6,1.6-2.6l.6.5-2.1,2h0Z"/>
  <path class="st0" d="M1429.7-33.1c.6-.2,6.8-5.1,1.1-.2-.3,0-1.6,1.1-2.3,1.6-.7.6-.9.5,1.2-1.4Z"/>
  <path class="st0" d="M1505.8-52.1c-.4-.2-.9-.3-1.3-.4l.6-1.6.7,2.1Z"/>
  <path class="st0" d="M1182.2-60.3c1.3-.1,2.7-.2,4.1-.2-.9,0-1.7,0-2.6,0-.5,0-1,0-1.4,0h0Z"/>
  <path class="st0" d="M1189.9-60.1h1c.8.1,1.6.3,2.4.5-.9-.2-2.7-.5-3.3-.5Z"/>
  <path class="st0" d="M1327.2,93l.3.2c-.7.3-1.6.3-3.6.5l3.3-.7h0Z"/>
  <path class="st0" d="M1280.8,133.2c.2-.2.5-.5.7-.7-.3.6-.7,1.2-1.1,1.8l.4-1.1h0Z"/>
  <path class="st0" d="M1237.5,140.3c.9.2,1.9.4,2.8.5,1,.2,2,.4,2.8.4-1.9-.2-3.5-.4-4.5-.4-1-.1-1.5-.2-1.1-.5h0Z"/>
  <path class="st1" d="M1420.7-22.6c-1.2,0-.8,0-1,0,2,0,.9,0,1,0Z"/>
  <path class="st1" d="M1362,11.3c.2,0,.3,0,.4,0,0,0-.1,0-.4,0Z"/>
  <path class="st1" d="M1403-18.3c-.3.1-.6.3-1,.5-.4.2-.8.5-1.2.7.4-.2,1-.6,2.2-1.2Z"/>
  <path class="st1" d="M1307.9,89.7c0,0,0-.2.1-.3.9-1.1.5-.6-.1.3Z"/>
  <path class="st1" d="M1412.4-21.7l2.7-.5-1.7.3h-.9Z"/>
  <path class="st1" d="M1417.5-22.3h.6c0-.1,1.6-.2,1.6-.2-.6,0-1.8.1-2.2.2Z"/>
  <path class="st1" d="M65.7-25.6c-1.2,0-.8,0-1,0,2,0,.9,0,1,0Z"/>
  <path class="st1" d="M84.8-20.5l-.3-.2c.9.5,1.7,1,2.5,1.5-.7-.4-1.5-.9-2.2-1.3Z"/>
  <path class="st1" d="M99-8.1c-.6-.7-1.7-2.1-3-3.5-1.3-1.4-2.8-2.9-4.1-4-.1-.1-.3-.2-.4-.3l-1.1-1c1.6,1.3,3.4,2.8,4.9,4.5.8.8,1.5,1.6,2.1,2.4.6.8,1.2,1.4,1.6,2h0Z"/>
  <path class="st1" d="M99.5-7.1c-.4-.5-.8-1.1-1.2-1.6-.3-.5-.7-.9-1-1.4.3.3.9,1.1,1.4,1.7.5.7.9,1.3.9,1.2Z"/>
  <path class="st1" d="M10.9,209.7l-1.4-.3c.6.1,1.1.2,1.4.3Z"/>
  <path class="st1" d="M21,209.8h.3c-.5,0-.7,0-.3,0Z"/>
  <path class="st1" d="M14.8,211.7c-.9,0-1.3-.2-1.2-.2.9.1,1.4.2,1.2.2Z"/>
  <path class="st1" d="M7,8.3c.1,0,.3,0,.5,0,0,0-.2,0-.5,0Z"/>
  <path class="st1" d="M48-21.3c-.3.1-.6.3-1,.5-.4.2-.8.5-1.2.7.4-.2,1-.6,2.2-1.2Z"/>
  <path class="st1" d="M184.6,98s0,0,0,.1c-.2-.4-.2-.3,0-.1Z"/>
  <path class="st1" d="M57.4-24.7l2.7-.5-1.7.3h-.9Z"/>
  <path class="st1" d="M62.5-25.3h.6c0-.1,1.6-.2,1.6-.2-.6,0-1.8.1-2.2.2Z"/>
  <path class="st1" d="M40.4,216.3v.2c-.2-.2-.7-.7-1.6-1.6.5.5,1,1,1.6,1.4h0Z"/>
  <path class="st1" d="M7.7,208.9c.2,0,.4.1.6.1-.4,0-.8,0-1.2,0h.6Z"/>
</svg>