<?xml version="1.0" encoding="UTF-8"?>
<svg id="Layer_1" data-name="Layer 1" xmlns="http://www.w3.org/2000/svg" viewBox="0 0 1512 168.27">
  <defs>
    <style>
      .cls-1 {
        fill: #866344;
      }

      .cls-2 {
        fill: #725941;
      }

      .cls-3 {
        fill: #e1f9ff;
      }
    </style>
  </defs>
  <path class="cls-3" d="M655.61-88.33c4.73-1.09,17.97-2.12,34.07,5.75,9.71,4.74,17.15,12.06,20.47,21.07,14.79-5.26,37.46-9.75,62.58-.4,11.05,4.1,24.86,9.52,32.49,26.47,3.49,7.74,4.57,15.45,4.92,20.73,4.57,9,5.28,16.48,5.38,20.4.41,18.57-11.56,36.32-30.12,42.85.87,1.58,10.9,20.93-5.34,39.06-12.94,14.45-37.15,22.1-60.56,18.92-.91,1.41-13.64,20.34-41.13,24.07-21.46,2.9-42.92-4.68-53.54-19.13-18.14,7.72-39.94,6.89-54.82-2-9.71-5.81-12.18-16.62-16.3-23.35-28.11-45.95-102.39,15.31-175.75-18.25-39.79-18.21-81.37-65.28-78.3-101.7,2.72-32.15,39.94-52.89,69.89-52.17,42.31,1.04,70.16,44.95,74.27,51.61,8.03-.75,17.26-.83,27.43.43,19.81,2.46,36.46,9.18,48.94,15.76,4.94-7.82,29.9-45.58,68.27-43,11.12.75,20.67,4.7,28.09,8.99,2.72-5.77,15.1-30.53,39.08-36.09h-.02Z"/>
  <path class="cls-1" d="M564.05,100.74c.51.58,1,1.21,1.55,1.72-.75-.77-1.2-1.34-1.55-1.72Z"/>
  <path class="cls-1" d="M554.7,83.47l-.42-.27c.61.7.88.98.42.27Z"/>
  <path class="cls-1" d="M430.23,78.24c-.3-.05-.61-.12-.92-.19-.74.21-1.44.4-2.07.57.9-.11,1.92-.25,2.98-.38Z"/>
  <path class="cls-1" d="M432.28,75.76l4.08.26c-.92-.11-2.23-.19-4.08-.26Z"/>
  <path class="cls-1" d="M642.91,122.56c.81.2,1.59.48,2.41.62-3.63-1.62-2.07-.72-2.41-.62Z"/>
  <path class="cls-1" d="M557.12,97.46c.86,1.51,1.29,2.12,1.33,2.01-.91-1.54-1.43-2.4-1.33-2.01Z"/>
  <path class="cls-1" d="M775.39,90.84c.11-.08.24-.17.36-.27,1.57-1.53.87-.89-.36.27Z"/>
  <path class="cls-1" d="M330.96,29.18c-.08-.07-.12-.1-.2-.16.07.09.17.2.22.28v-.1s-.02-.01-.02-.01Z"/>
  <path class="cls-1" d="M336.96,34.79c-2.85-1.81-4.22-3.36-5.98-5.51l1.03,3.61c1.66.66,3.29,1.31,4.95,1.9Z"/>
  <path class="cls-1" d="M597.85,113.89c-1.65-.13-3.3-.42-4.94-.69,5.93-.23,10.17-.32,5.56-.83-.3.75-5.08.81-9.83.02-4.76-.71-9.39-2.28-9.84-1.68-1.03-.53-2.08-.97-3.08-1.56.87.44,1.05.38,1.92.73-2.97-1.58-4.09-1.89-5.48-2.3-.69-.21-1.47-.38-2.44-.91-1.01-.48-2.24-1.39-3.82-3.04-2.14-2.43-3.23-4.67-1.86-2.89-1.51-1.86-2.86-4.04-4.14-6.41-1.03-2.18-.61-1.75.41.36-.94-1.82-1.82-3.75-2.78-5.73-.48-.98-.99-1.98-1.54-2.99l-.87-1.49-.94-1.34.08.04c-.6-.67-1.52-1.88-2.52-2.96-1.04-.99-2.1-2.02-2.79-2.68-1.03-1.19-.77-.9-.25-.52.47.48,1.14,1.2.92.8-.77-.87-1.65-1.5-2.5-2.18l-1.28-1-.63-.5-.67-.4c-1-.9-.39-.74.94.02.63.47,1.44,1.1,2.3,1.81.43.37.89.71,1.31,1.15.41.46.82.91,1.22,1.37-.46-.77-.85-1.43-1.25-1.95-.41-.49-.81-.9-1.19-1.26-.77-.72-1.48-1.31-2.41-1.93-.95-.53-2.09-1.17-3.65-2.17-1.61-.72-3.62-2.01-6.45-3.13.89.29,1.79.55,2.68.87l2.66,1.21c-.8-.65-1.67-1.24-2.62-1.81-.96-.48-1.99-.91-3.12-1.36-1.12-.52-2.33-.79-3.65-1.19-.65-.2-1.34-.4-2.04-.61-.71-.16-1.43-.33-2.2-.52.36.11,1.3.4,2.41.75,1.11.43,2.39.94,3.42,1.38,1.03.41,1.8.98,1.94,1.18.14.25-.36.12-1.9-.17-.85-.28-1.85-.56-3.05-.83-1.2-.29-2.6-.33-4.25-.44-.02-.63-3.25-.86-7.23-.9l.24-.79c-4.32.18-3.94.64-6.43,1.12-4.77.16-5.78-.27-6.96-.73-7.58.72,5.31.4-3.6,1.57-6.29.45-10.62,1.49-17.94,3.22-4.36.45.69-.64-.9-.61l-3.74,1.31c-.94.15-.67-.11-.52-.25-3.2.8-.15.88-5.19,1.96-1.25,1.18-10.59.35-16.74,2.21-1.58-.05.69-.62.18-.89-4.27.89-6.1,1.22-7.75,1.52-1.64.35-3.09.65-6.61,1.39-2.04-.04-4.08-.09-6.11-.25,4.5.46-1.12,1.57-6.13,2.22,1.61.35,2.99.59,3.92.68-2.67.28-5.34.34-8.03.52-.98-.15-.18-.45,1.13-.82-.55.07-1.07.14-1.47.2-2.89-.48-1.4-.89.63-1.33.98.18,1.96.38,2.91.57,1.96-.52,3.77-1.13,3.33-1.65-.51.12-1.51.19-2.61.24.51-.14.83-.27.58-.36-.28-.09-1.1.1-2.4.31l-1.85-1.01-.42.39c-3.49-.37-6.97-.69-10.43-1.32-1.86.08-3.67.18-5.52.16-1.85-.02-3.74.09-5.78-.08-2.03-.17-4.22-.28-6.62-.7-1.2-.24-2.47-.48-3.79-.74-.67-.15-1.35-.29-2.05-.44-.7-.21-1.42-.42-2.16-.64,3,.25.78-1.01,1.05-1.84,3.08,2.01,9.1,2.26,15.19,3.61-3.18-.74-2.45-1.05-1.63-1.01l-5.46-.73-5.44-1.07c.16-.33-.39-.63-1.34-.98-.94-.42-2.26-.9-3.63-1.54.96,1.05-1.08.68-3.89-.28-2.8-1.08-6.4-2.52-8.56-3.41-.08-.31.16-.45,1.07-.2.9.29,2.48.88,5.1,2.02-1.4-.89-2.59-1.4-3.66-1.77-1.06-.42-2.04-.66-3.01-.87-1.92-.5-3.88-.95-6.53-3.01,1.26.69,1.91,1.17,2.47,1.18-3.07-1.12-10.03-5.88-8.25-5.26.4.27.82.53,1.23.77-4.07-2.63-10.18-6.86-15.33-10.86-5.17-3.93-9.39-7.53-10.23-7.48,0-.21,1.62-.42,2.17-.23-5.02-2.86-10.02-6.08-14.93-9.74,1.62.33-1.3-6.52,4.78-.5-1.6-1.97-3.55-4.4-7.07-8.25.97,1.48,1.92,4.58.34,2.85-1.74-3.02-2.33-4.06-3.06-5.22-.68-1.21-1.6-2.45-3.57-6.21,1.38,2.32-1.34,1.24-3.58-2.45.51.38.83-1.45,1.77-.28-2.23-2.52-4.32-5.25-6.38-8.09,1.49,2.18,1.11-.45.42-2.86.15.59-.92-1.46-1.99-4.06-1.12-2.58-2.19-5.74-2.68-7.08.37,1.5.76,3.01,1.26,4.47-.55-1.43-1-2.68-1.39-3.81-.43-1.11-.79-2.09-1.11-2.97-.71-1.78-1.27-3.2-1.83-4.63-.3-.72-.5-1.47-.77-2.25-.24-.79-.52-1.65-.69-2.63-.38-1.94-.72-4.38-.54-7.56.11.81.52,1.8.95,1.79.46,0,.85-.97,1.19-3.89-.22-1.43-.7-4.78-.24-9.26.45-4.43,1.95-9.87,4.66-14.36l1.43-1.18c1.41-2.21,2.93-4.31,4.54-6.26-1.25,2.26-3.64,6.48-5.54,11.35-1.98,4.81-3.2,10.29-3.65,14.05.66-1.99.96-2.13,1.18-2.61.24-.48.48-1.23,1.71-4.03.64-.8.37.04-.06,1.31-.2.65-.45,1.4-.71,2.07-.21.7-.4,1.36-.53,1.79.71-2.24,1.72-4.31,2.75-6.34,1.13-1.97,2.29-3.89,3.67-5.63-.24-.09-.04-.71.42-1.59.5-.84,1.19-2.01,1.99-3.06.77-1.08,1.59-2.13,2.18-2.89.57-.79.9-1.36.71-1.46-3.26,3.72-6.21,7.85-8.45,12.48-.48-.08.04-2.61,1.78-5.92,1.71-3.33,4.67-7.39,8.33-10.4,2.02-1.18-.49,2.92-.13,3.15.35-.59,1.92-2.22,3.57-3.64,1.64-1.44,3.36-2.62,3.75-2.74-.97.95-1.97,1.84-2.9,2.84,2.1-1.37,3.66-2.85,5.39-4.31,1.75-1.42,3.68-2.8,6.51-3.61,1.86-.91,5.94-1.12,6.09-1.88-3.38-.03-5.14-3.52-3.28-5.43.36-.09,3.01-.88,5.87-1.48,2.88-.57,5.98-.97,7.18-.91,1.73.1.6,1-.57,1.89-1.17.94-2.37,1.88-.92,1.93.05-.36,1.76-1.22,2.49-1.49,2.11-.22-.7,1.09,3.77,0,.57-1.38,9.24-1.31,2-1.34,2.2-.55,3.4-.59,4.69-.64,1.3-.02,2.69-.03,5.33-.12-.86-.36.28-1.01,2.24-1.58,1.95-.47,4.76-.7,7.07-.67-.27.28.75.71,1.24.97,2.33.54,4.39,1.03,6.31,1.48.97.18,1.86.61,2.76.91.88.32,1.76.65,2.61.98.86.33,1.72.64,2.58.97.86.41,1.71.82,2.6,1.25,1.77.88,3.68,1.6,5.71,2.86.7.68,4.58,3.18,2.77,2.66,1.24.44,2.38.84,4.86,2.46,4.47,4-5.52-3.53-2.21-.09.24-.17,1.88.67,3.93,1.84,2.02,1.22,4.36,2.96,6.14,4.1-.35-.81-2.31-2.39-4.62-4.05-2.35-1.56-5.09-3.02-6.9-3.98.18-.67,1.88-.25,4.67.98.69.31,1.46.65,2.27,1.08.8.47,1.65,1,2.55,1.57.9.59,1.85,1.21,2.84,1.86.97.72,1.97,1.51,3,2.34,3.26,2.66,3.79,3.62,3.75,3.8-.06.21-.76-.19-.19.27,1.41,1.45,2.69,2.62,3.74,3.71,1.06,1.09,1.97,2,2.79,2.78,1.64,1.55,2.81,2.73,3.96,3.76,2.25,2.17,4.28,4.14,8.16,10.36,2.78,5.26-.65,1.2-.24,2.61-4.34-5.9-6.37-9.49-9.55-13.21l1.84,2.43,1.78,2.52c-1.53-1.67-4.7-5.18-6.32-7.28,1.34,1.98,5.95,7.14,10.61,13.95,1.2,1.71,2.32,3.41,3.54,5.37l.45.72c.2.06.44-.01.65-.02l1.33-.1c.86-.06,1.7-.09,2.54-.15,3.34-.15,6.51-.11,9.15.07,1.86-.23,5.08-.33,3.55-.67h-3.34c-3.09-.68,6.27-.6,2.02-1.01,4.48-.23,9.56-.43,15.9.95l1.16.96c-.13-.27-4.12-1.12-5.91-1.12,2.67-.03,9.65,2.5,12.58,2.26-1.46-.53-2.93-.96-4.4-1.44,4.53.48,10.19,1.16,15.73,3.18-2.46-1.46-1.29-.35-5.18-2.31,1.67.99-1.9-.09-5.23-.87-3.33-.82-6.41-1.38-3.66-.27-4.05-1.85-7.09-1.81-12.48-3.35.16.3,1.92.68-2.85.06-.21.06-.72.11-1.04.14-.15-.02-.2-.03-.32-.05.1.02.16.03.26.06-.2.02-.23.02.1.02,1.14.22,2.05.44,2.42.62-2.35.28-9.89-.12-12.4.29-2.81-.13,1.16-.32-.39-.61-1.26.16-2.51.34-3.77.56-.42-.62-7.53-.7-.94-1.37l-2.99.13-.92.06c-.15-.02-.33.1-.45-.04.14-.06-1.73-3.19-3.06-5.17-1.44-2.14-2.89-4.12-4.09-5.48-2.04-2.94-5.86-6.29-3.68-4.37-2.5-2.88-5.1-5.57-7.74-8.15v-.2c-7.74-8-16.9-14.03-26.85-20.59-1.55-.62-3.12-1.28-4.96-2.02-1.81-.86-3.93-1.51-6.54-2.49l-.95-.97c-.51-.15-1.08-.32-1.68-.53-.62-.15-1.28-.32-1.96-.48-1.37-.34-2.83-.72-4.21-1.06-1.39-.41-2.72-.55-3.79-.62-1.09-.09-1.93-.08-2.38.03-.55-.28-1.29-.5-2.15-.71-.44-.1-.91-.21-1.4-.29-.5-.05-1.03-.08-1.57-.14-2.2-.17-4.77-.02-7.42.25-5.28.62-10.75,2.1-14.24,2.98l-.09.93c-4.76,1.33-9.18,3.27-14.67,6.41l.57.56c-2.29,1.52-5.38,3.06-8.74,5.09-3.35,2.03-6.98,4.56-10.26,7.89.3-.7,2.05-2.26,3.37-3.15-2.24,1.4-4.37,3.27-6.34,5.53-1.98,2.21-3.76,4.81-5.34,7.58-1.61,2.75-2.96,5.74-4.13,8.77-1.18,3.01-2.13,6.11-2.93,9.16-.42,3.21-.61,5.55-.85,7.83.02-.3.01-.58.01-.82-.01.33-.04.84-.07,1.34-.13,1.43-.17,2.94-.19,4.57.07-1.39.15-2.72.18-3.85.06,2.53.27,6.41,1.1,10.01-.11.56-.23,1.14-.32,1.72.07.29.13.52.2.83.59,3.64.9,2.74.91.74.46,1.77,1.05,3.31,1.52,4.46-.04.79.13,1.74.46,2.75s.7,2.16,1.19,3.24c.48,1.1.94,2.24,1.35,3.33.43,1.07.78,2.14.95,3.17.68.9,2.62,4.66,4.76,8.09,2.16,3.41,4.49,6.49,5.33,6.73-.03.2.44,1.04-.52-.38,1.88,3.06,3.86,6.04,5.95,8.22l.43,1.87c1.77,1.7,3.59,3.26,5.39,4.81,2.69,3.82,3.81,5.47.48,2.72,3.87,3.55,5.42,4.99,6.85,6.29,1.41,1.3,2.71,2.45,6.16,4.98l-.56.22c2.33,2.14,6.43,4.7,7.71,6.28,2.47,2.71,9.2,8.08,17.37,13.1,4.08,2.53,8.52,4.97,12.92,7.08,4.41,2.04,8.73,3.94,12.59,5.41-1.39-1.34.38-.54,2.6.45,2.24.85,4.94,1.85,5.3,1.3.87.64,3.03,1.44.47,1.1,8.01,1.44,12.02,3.02,17.58,2.49.91.47-1.72.41-.91.73.64-.03,2.55-.1,3.39.2.82.3-1.18.22-2.45.27,4.11.39,6.35.12,7.65-.28,1.3-.38,1.62-.95,1.91-1.5,4.13.64,6.19.53,9.11-.25,1.44.3,3.85.6-1.17.9.7,0,2.15-.02,3.9-.05,1.76-.02,3.84-.08,5.84-.24,4-.23,7.64-.79,7.74-1.21.9.16,3.93-.36,4.65-.57,6.29-.74,6.84-.78,12.96-1.82l-1.72.13c2.28-1.4,5.07-1.03,9.98-2l-.12.13c11.4-1.22,4.83-1.22,16.07-2.25l-.68-.51c.86-1.49,9.97-.85,16.4-1.94l-2.38-.12c3.52-.8,10.08.85,13.59,1.17.78.1-1.21.18-2.28.27,4.64.34,4.91.26,4.91-.08,0-.32-.31-.77,3.15-.63,1.26.55-1.61.84,2.95,1.54.56.16,1.69.24,3.11.53.72.11,1.52.24,2.38.37.85.19,1.75.47,2.68.7,3.7,1.1,7.86,3.18,10.22,6.02-1.03-1.26-2.11-2.55.69-.4.25.22.54.43.8.72.25.29.51.6.79.92.53.65,1.09,1.3,1.68,2.01.57.71,1.04,1.61,1.59,2.42.5.85,1.11,1.64,1.54,2.52,1.81,3.51,3.46,7.7,5.21,10.08.35.8.46,1.14.43,1.21,1.31,2.18,3.65,5.71,6.37,8.09,2.68,2.46,5.49,3.75,6.64,4.1.74.94,2.62,2.05,5.02,3.03,1.2.48,2.52.97,3.9,1.31,1.38.41,2.8.69,4.2.95,5.6,1.07,10.7.9,10.68,1.79,4,.15,7.98-.03,11.92-.54l-.3.2c7.58-.94,10.11-2.32,12.6-3.48,1.72-.44.51.11.39.24.67-.2,1.31-.39,1.91-.56.6-.21,1.16-.42,1.69-.61.32-.12.61-.21.89-.31l.19-.07.14.19c.1.12.18.25.28.35.27.34.52.65.76.96.32.43.66.76.99,1.1.65.68,1.27,1.32,1.87,1.91,2.52,2.19,4.95,4.02,9.46,6.24l.81.98c1.23.59,5.08,2.76,10.1,4.54,5.02,1.81,11.21,3.05,16.68,3.02-.1.04-.33.13-1.2.12,3.08.11,6.47.06,9.86-.08,1.7-.14,3.4-.22,5.08-.44,1.66-.26,3.32-.43,4.89-.76,1.57-.36,3.07-.69,4.48-1.08,1.39-.46,2.69-.9,3.85-1.33,2.28-1.04,4.06-1.92,4.96-2.88,2.46-1.34,4.87-2.82,7.18-4.53-4.66,2.85-4.4,2.36-3.43,1.61.97-.8,2.61-1.99.65-1,3.64-2.16,9.31-6.02,5.08-2.66l-.71.42c-.33.47.23.26,1.22-.41.5-.33,1.1-.75,1.77-1.23.65-.53,1.35-1.11,2.08-1.7,2.86-2.4,5.58-5.53,5.62-5.19.49-.55.95-1.13,1.43-1.7l.68-.89.56-.76.18-.27.1-.13.14.02.55.06,1.93.2c1.28.17,2.56.2,3.83.27l1.92.1h1.91c5.08,0,10.1-.37,15.01-1.29,9.8-1.84,19.3-5.32,27.69-11.38-.69.34-1.43.57-2.15.82,1-.62,1.96-1.32,2.92-2.07l1.44-1.08,1.38-1.21c1.49-1.19,2.16-1.29-1.85,2.08.59-.31,1.26-.92,1.97-1.56.71-.67,1.49-1.32,2.11-2.1,1.29-1.47,2.3-2.77,2.3-2.92,1.71-2.08,2.46-2.87,2.57-2.99.14-.08-.28.61-.88,1.44-.61.83-1.35,1.86-1.82,2.51-.5.6-.7.84-.15.25.97-1.17,1.9-2.4,2.84-3.6l-.67.75c.28-.38.52-.72.73-1.04.19-.35.37-.67.54-.97.34-.6.64-1.17,1-1.81.17-.32.38-.64.58-1.04.19-.4.4-.86.64-1.37.24-.51.51-1.07.82-1.72.31-.63.55-1.46.89-2.33.21-.55.38-1.01.53-1.37.12-.38.21-.69.28-.93.15-.47.22-.67.28-.78.11-.23.12-.1.36-1.04,0,0,.06-.14.17-.58.07-.46.17-1.24.33-2.44.48-3.95.25-8.1-.58-12.03.1.81.23,1.61.3,2.4l.14,2.4c-.32-2.65-.89-5.38-1.31-6.75-.18-.7-.33-1.05-.31-.9.03.16.14.8.4,2.13-.15-.87-.42-2.04-.86-3.45-.1-.36-.23-.71-.37-1.08-.07-.18-.14-.37-.2-.56l-.1-.29-.07-.18c-.18-.48-.4-.99-.64-1.47.32-.17.72-.29,1.1-.43.24-.09.5-.18.75-.28.31-.13.64-.23.97-.4,1.27-.67,2.64-1.21,3.95-2.04.66-.4,1.33-.81,1.99-1.19.66-.42,1.29-.92,1.93-1.37,1.31-.87,2.49-1.98,3.66-2.95,4.62-4.13,7.75-8.94,8.62-10.33,1.56-2.78,2.99-5.7,4.1-9.08,1.11-3.35,2.08-7.12,2.35-11.52-.13,1.08-.29,1.91-.31,1.57-.02-.18,0-.65.07-1.56.05-.91.05-2.24.07-4.13.24,1.43.42-2.13-.41-6.71-.41-2.29-1.07-4.79-1.82-7.01-.74-2.24-1.58-4.2-2.15-5.6.52,1.23.24.66-.48-.73-.11-.22-.12-.22-.17-.37-.02-.17-.04-.35-.06-.54-.05-.51-.11-1.07-.17-1.65-.12-1.17-.3-2.44-.5-3.68-.81-4.98-2.24-9.32-1.23-5.16-.77-3.06-.82-3.13-.73-3.08.06.08.23.31-.48-1.97-.62-1.75-1.32-3.5-2.16-5.21-.43-.84-.86-1.7-1.29-2.55-.48-.82-.96-1.63-1.46-2.47-2.04-3.24-4.47-6.21-7.21-8.74-5.48-5.1-12.02-8.39-18.62-10.9-.21-.03,1.99.89-.86-.13-2.31-.99-4.65-1.85-6.98-2.69-1.32-.45-1.95-.48-2.83-.71-.89-.17-2.04-.59-4.48-1.14.69.18,1.71.46-.08.07-6.59-1.52-13.33-2.2-20.05-2.12-6.72.15-13.44.98-20.05,2.55-3.31.74-6.58,1.74-9.82,2.82l-1.22.41-.2.07c-.07.04-.07-.13-.11-.17l-.3-.75c-.42-1.04-.91-2.06-1.43-3.02-1.04-1.94-2.24-3.72-3.54-5.33-5.27-6.44-11.78-10.43-18.29-13.26,1.76.82,2.04.97,1.56.75-.49-.23-1.75-.8-3.1-1.33,1.77.73-.04.04.29.22-3.66-1.52-7.37-2.69-11.11-3.5-1.03-.21-4.04-.71-6.96-.96-2.92-.25-5.71-.16-6.3-.06,1.18-.06,2.37-.08,3.57-.05-2.36.05-.71.07,1.46.25,2.17.17,4.83.62,4.49.63,5.29.57,13.97,3.05,22.2,7.58,1.81,1.05-1.56-.84-.6-.25,1.04.56,2.19,1.21,3.63,2.17,1.42.97,3.16,2.21,5.24,4.16l-.48-.42c2.96,2.68,5.26,5.51,7.04,8.49.87,1.51,1.65,3.01,2.25,4.62l.31.77c.17.03.48-.13.59-.16l.93-.31,1.84-.61c4.96-1.5,10.16-2.94,17.86-3.87l-1.15.05c3.31-.39,4.01-.43,5.56-.51,1.9-.2-.43-.07-2.8.17-2.37.25-4.77.61-3.05.28,2.2-.23,8.03-.9,13.75-.78,5.7.07,11.24.82,12.74,1.26,5.13.9-1.49-.43,3.63.56l1.35.38,1.29.2c3.34.87,5.01,1.5,5.13,1.57-.81-.23-2.3-.64-3.17-.89,4.33,1.1,12.11,4.09,13.56,4.76-1.59-.69-3.2-1.32-4.82-1.95,6.85,2.56,14.54,5.73,21.14,11.68,3.27,2.98,6.2,6.63,8.49,10.74,2.3,4.1,3.97,8.59,5.04,13-.1-.46-.17-.92-.28-1.36.91,3.34,1.29,5.77,1.55,7.69.12.97.21,1.81.28,2.61.04.4.06.78.08,1.14l.04.6c.03.26.02.53.16.73.68,1.43,1.25,2.65,2,4.59.72,1.91,1.6,4.42,2.36,8.12l-.13-.54c.35,1.46.65,3.23.84,5.13.21,1.91.13,3.97.08,6.03-.02-1.92-.02-.11-.3,1.46-.22,1.61-.43,3.03-.22.59-.06.92-.2,1.72-.34,2.45-.13.73-.24,1.39-.34,1.99-.29,1.15-.52,2.04-.7,2.76-.39,1.41-.66,2.07-.81,2.64-.17.53-.25.99-.57,1.78-.15.4-.34.9-.6,1.56-.24.69-.6,1.48-1.11,2.48-.37.56-.72,1.13-1.1,1.65-1.52,2.54-1.41,3.1-5.59,7.9,3.35-4.03-2.82,2.74.89-1.79-4.25,4.53-7.89,7.14-10.96,9.08-1.51,1.01-2.96,1.69-4.27,2.35-.32.17-.66.3-.99.42-.39.14-.77.28-1.16.42-.99.34-1.95.65-2.91.99l.64,1.43c1.07,1.97,1.27,2.35,1.16,1.95-.12-.42-.65-1.68-1.41-3.17.97-.37,2.12-.82,3.27-1.26.84-.29,1.65-.69,2.31-1.02,1.34-.66,2.12-1.02,1.27-.57,1.03-.41.46-.01-.81.7-.63.33-1.42.85-2.32,1.19-.87.39-2.14.87-3.07,1.3.47.89.88,1.76,1.2,2.54.56,1.31.85,2.31,1.17,3.56.28,1.22.55,2.51.74,4.06.13.77.17,1.6.24,2.51.09.91.06,1.88.08,2.96.04,1.08-.13,2.21-.18,3.5-.09.63-.2,1.27-.31,1.95-.05.34-.1.69-.16,1.05-.09.34-.17.69-.27,1.04.31-1.13.26-1.24.43-2.43-.82,4.34-2.04,8.57-4.93,12.57-.33.65-.66,1.38-1.12,1.97-.46.58-.91,1.16-1.33,1.69-.42.53-.79,1.02-1.09,1.41-.31.38-.53.71-.59.96l.83-.87.76-.96,1.53-1.93c.53-.62.92-1.41,1.38-2.1.43-.73.94-1.38,1.3-2.19-2.71,5.13-5.87,9.88-12.99,14.72.25-.26.88-.81,1.6-1.45.37-.3.76-.65,1.15-.97.38-.36.74-.71,1.06-1.03-1,.79-1.95,1.54-2.93,2.29-.95.8-1.97,1.47-3.09,2.09.1-.24.72-.74,1.67-1.42.92-.75,2.17-1.64,3.49-2.75,2.68-2.13,5.49-5.29,7.18-7.8-.96,1-2.62,3.31-4.06,4.71-.67.77-1.28,1.32-1.6,1.53-.3.23-.31.13.15-.46-2.66,3.54-7.77,6.13-13.47,9.52l.28-.55c-.46.25-1.16.64-1.96,1.09-.81.4-1.74.81-2.61,1.17,1.02-.61,2.04-1.13,3.03-1.8-4.7,2.57-9.51,3.24-14.3,4.52,2.54-.51,3.92-.96,4.68-1.1.76-.16.87-.12.81-.02-.13.18-.98.65,1.17.15-3.07,1.07-5.08,1.58-6.59,1.8-1.5.27-2.47.32-3.5.31-1.03,0-2.09.08-3.8.13-.85.04-1.86.09-3.1.21-1.24.06-2.72.13-4.51.23.97-.07,2.78-.11,3.99-.08,1.2,0,1.79.05.29.29-1.37.02-2.96.07-4.4.04-1.45-.08-2.79-.18-3.62-.29-9.5-.4,1.47.51-2.56.57-.82-.17-1.51-.26-2.17-.29-.65-.08-1.27-.1-1.92-.1-.33,0-.65,0-.99,0h-.27s-.41-.01-.41-.01c-.28,0-.56-.03-.85-.03-.15,0-.29,0-.44-.02-.11.1-.2.29-.29.43-.2.3-.4.62-.6.96-.37.57-.62.91-.99,1.44l-.25-.29c-1.93,2.32-3.15,3.48-3.82,4.26-.68.79-.91,1.1-1.08,1.41-.39.57-.57,1.28-4.76,4.33,1.11-1.03,2.14-2.19,3.18-3.3l-2.06,1.82-2.12,1.69.7-1.11c-1.12.98-2.08,1.72-2.96,2.33-.87.64-1.65,1.17-2.47,1.61-.8.45-1.6.93-2.53,1.4-.93.43-1.97.91-3.22,1.49,1.25-.28-.4,1.18-4.97,2.85-1.6.38-1.18.12-1.18.06,0-.03-.1-.02-.61.13-.51.17-1.42.48-3.07.88,1.46-.6,2.96-1.51,5.89-2.03.25-.26,1.34-.86,1.6-1.12-1.68.54-3.78,1.23-5.76,1.87-2,.52-3.87,1.09-5.06,1.33.93-.15,2.02-.44,2.6-.5-.79.25-1.56.51-2.35.73l-2.39.57-2.4.57-2.42.4c-1.56-.02-.34-.28.84-.55-1.96.29-3.32.54-6.24.7.73-.43.54-.77,4.62-1.2-1.53.21-3.08.29-4.63.45-1.55.03-3.11.14-4.65.08-.31-.1-1.52-.33-2.48-.51-.97-.18-1.7-.44-1.1-.42-5.1-.82-12.73-1.46-19.22-5.01-.35-.1-1.06-.29-2.44-1.03-3.03-1.65-5.72-3.72-8.36-6.1-1.34-1.18-2.61-2.53-3.91-3.96-.46-.55-.92-1.12-1.39-1.67l-.9-1.06-.46-.54-.56.22c-.73.31-1.48.62-2.22.93-.43.19-.87.41-1.31.6-1.43.25-2.87.43-4.3.6-5.75,1.67,5.89-.5-3.74,2.22-3.44.86-4.13.71-4.25.51-.12-.21.33-.55-.9-.49-3.37.87-9.46,2.22-15.96.86,2.14.04,3.82.3,5.83.24l-.02-.2ZM533.12,67.46c.76.09,1.89.45,2.98.74,1.09.3,2.11.68,2.62,1.16-.9-.14-1.67-.28-2.53-.62-.86-.29-1.8-.85-3.07-1.3v.02ZM419.12,76.61c1.07-.18,2.75.03,4.64.37-1.37,0-2.93-.11-4.64-.37ZM442.3-41.61s-.08-.09-.12-.14c-2.21-3.64-1.43-2.34.12.14ZM445.6-37.56c.58-.13.6-.23.29-.3-.35.1-.41.16-.73.21-.13.01-.31.08-.45,0-.1-.19-.22-.38-.34-.58.02.18.1.41.25.69.06.23.23.09.4.11.17-.02.37-.06.6-.11v-.02ZM789.71,70.85c-.09.61-.3,1.16-.45,1.75.24-.99.37-1.67.41-2.14.06-.46.09-.66.11-.7.03-.09-.02.5-.07,1.11v-.02Z"/>
  <path class="cls-1" d="M432.01,76.05c.41.12.53.23.64.35.57-.14.57-.24-.64-.35Z"/>
  <path class="cls-1" d="M642.47,122.44l.22.11c.12.02.2.03.23,0l-.45-.12Z"/>
  <path class="cls-1" d="M521.57,64.01l-.31.17c.65.27,1.62.33,3.59.53l-3.27-.7h-.01Z"/>
  <path class="cls-1" d="M568.04,104.16c-.24-.21-.47-.45-.7-.68.34.62.72,1.19,1.12,1.75l-.42-1.09v.02Z"/>
  <path class="cls-1" d="M611.27,111.31c-.89.19-1.86.36-2.82.53-.97.17-1.94.37-2.85.41,1.95-.24,3.52-.37,4.54-.39,1.01-.1,1.45-.18,1.15-.54h-.01Z"/>
  <path class="cls-3" d="M439.61-87.33c4.73-1.09,17.97-2.12,34.07,5.75,9.71,4.74,17.15,12.06,20.47,21.07,14.79-5.26,37.46-9.75,62.58-.4,11.05,4.1,24.86,9.52,32.49,26.47,3.49,7.74,4.57,15.45,4.92,20.73,4.57,9,5.28,16.48,5.38,20.4.41,18.57-11.56,36.32-30.12,42.85.87,1.58,10.9,20.93-5.34,39.06-12.94,14.45-37.15,22.1-60.56,18.92-.91,1.41-13.64,20.34-41.13,24.07-21.46,2.9-42.92-4.68-53.54-19.13-18.14,7.72-39.94,6.89-54.82-2-9.71-5.81-12.18-16.62-16.3-23.35-28.11-45.95-102.39,15.31-175.75-18.25C122.17,50.64,80.59,3.57,83.67-32.85c2.72-32.15,39.94-52.89,69.89-52.17,42.31,1.04,70.16,44.95,74.27,51.61,8.03-.75,17.26-.83,27.43.43,19.81,2.46,36.46,9.18,48.94,15.76,4.94-7.82,29.89-45.58,68.27-43,11.12.75,20.67,4.7,28.09,8.99,2.72-5.77,15.1-30.53,39.08-36.09h-.02Z"/>
  <path class="cls-1" d="M348.05,101.74c.51.58,1,1.21,1.55,1.72-.75-.77-1.2-1.34-1.55-1.72Z"/>
  <path class="cls-1" d="M338.7,84.47l-.42-.27c.61.7.88.98.42.27Z"/>
  <path class="cls-1" d="M216.28,76.76l4.08.26c-.92-.11-2.23-.19-4.08-.26Z"/>
  <path class="cls-1" d="M426.91,123.56c.81.2,1.59.48,2.41.62-3.63-1.62-2.07-.72-2.41-.62Z"/>
  <path class="cls-1" d="M341.12,98.46c.86,1.51,1.29,2.12,1.33,2.01-.91-1.54-1.43-2.4-1.33-2.01Z"/>
  <path class="cls-1" d="M559.39,91.84c.11-.08.24-.17.36-.27,1.57-1.53.87-.89-.36.27Z"/>
  <path class="cls-1" d="M381.85,114.89c-1.65-.13-3.3-.42-4.94-.69,5.93-.23,10.17-.32,5.56-.83-.3.75-5.08.81-9.83.02-4.76-.71-9.39-2.28-9.84-1.68-1.03-.53-2.08-.97-3.08-1.56.87.44,1.05.38,1.92.73-2.97-1.58-4.1-1.89-5.49-2.3-.69-.21-1.47-.38-2.44-.91-1.01-.48-2.24-1.39-3.83-3.04-2.13-2.43-3.23-4.67-1.85-2.89-1.51-1.86-2.86-4.04-4.14-6.41-1.03-2.18-.61-1.75.41.36-.94-1.82-1.82-3.75-2.78-5.73-.48-.98-.99-1.98-1.54-2.99l-.87-1.49-.94-1.34.08.04c-.6-.67-1.52-1.88-2.52-2.96-1.04-.99-2.1-2.02-2.79-2.68-1.04-1.19-.77-.9-.25-.52.48.48,1.14,1.2.92.8-.77-.87-1.65-1.5-2.5-2.18l-1.28-1-.64-.5-.67-.4c-1-.9-.39-.74.94.02.63.47,1.44,1.1,2.3,1.81.43.37.89.71,1.31,1.15.41.46.82.91,1.22,1.37-.46-.77-.85-1.43-1.25-1.95-.42-.49-.81-.9-1.19-1.26-.77-.72-1.48-1.31-2.41-1.93-.95-.53-2.09-1.17-3.65-2.17-1.61-.72-3.62-2.01-6.45-3.13.89.29,1.79.55,2.68.87l2.66,1.21c-.8-.65-1.67-1.24-2.62-1.81-.96-.48-1.99-.91-3.12-1.36-1.12-.52-2.33-.79-3.64-1.19-.65-.2-1.34-.4-2.04-.61-.71-.16-1.43-.33-2.2-.52.36.11,1.3.4,2.41.75,1.11.43,2.39.94,3.42,1.38,1.03.41,1.8.98,1.95,1.18.14.25-.36.12-1.9-.17-.86-.28-1.86-.56-3.05-.83-1.2-.29-2.6-.33-4.25-.44-.02-.63-3.25-.86-7.23-.9l.24-.79c-4.32.18-3.94.64-6.43,1.12-4.77.16-5.78-.27-6.96-.73-7.58.72,5.31.4-3.6,1.57-6.29.45-10.62,1.49-17.94,3.22-4.36.45.69-.64-.9-.61l-3.74,1.31c-.94.15-.67-.11-.52-.25-3.2.8-.15.88-5.19,1.96-1.25,1.18-10.59.35-16.74,2.21-1.58-.05.69-.62.18-.89-4.27.89-6.1,1.22-7.75,1.52-1.64.35-3.09.65-6.61,1.39-2.04-.04-4.08-.09-6.11-.25,4.51.46-1.12,1.57-6.13,2.22,1.62.35,2.99.59,3.92.68-2.67.28-5.34.34-8.03.52-.97-.15-.18-.45,1.13-.82-.55.07-1.07.14-1.47.2-2.89-.48-1.4-.89.63-1.33.98.18,1.96.38,2.91.57,1.96-.52,3.77-1.13,3.33-1.65-.51.12-1.51.19-2.61.24.51-.14.83-.27.58-.36-.28-.09-1.09.1-2.4.31l-1.85-1.01-.42.39c-3.49-.37-6.97-.69-10.43-1.32-1.86.08-3.67.18-5.52.16-1.85-.02-3.74.09-5.78-.08-2.03-.17-4.22-.28-6.62-.7-1.2-.24-2.47-.48-3.79-.74-.67-.15-1.35-.29-2.05-.44-.7-.21-1.42-.42-2.16-.64,3,.25.78-1.01,1.05-1.84,3.08,2.01,9.1,2.26,15.19,3.61-3.18-.74-2.45-1.05-1.63-1.01l-5.46-.73-5.44-1.07c.16-.33-.39-.63-1.34-.98-.94-.42-2.26-.9-3.63-1.54.96,1.05-1.08.68-3.89-.28-2.8-1.08-6.4-2.52-8.56-3.41-.08-.31.16-.45,1.07-.2.9.29,2.48.88,5.1,2.02-1.4-.89-2.59-1.4-3.66-1.77-1.06-.42-2.04-.66-3.01-.87-1.92-.5-3.88-.95-6.53-3.01,1.26.69,1.91,1.17,2.47,1.18-3.07-1.12-10.03-5.88-8.25-5.26.4.27.82.53,1.23.77-4.07-2.63-10.19-6.86-15.33-10.86-5.17-3.93-9.39-7.53-10.22-7.48-.01-.21,1.62-.42,2.17-.23-5.02-2.86-10.02-6.08-14.93-9.74,1.62.33-1.3-6.52,4.78-.5-1.6-1.97-3.55-4.4-7.07-8.25.97,1.48,1.92,4.58.34,2.85-1.74-3.02-2.33-4.06-3.06-5.22-.69-1.21-1.6-2.45-3.57-6.21,1.38,2.32-1.34,1.24-3.58-2.45.51.38.83-1.45,1.77-.28-2.23-2.52-4.32-5.25-6.38-8.09,1.49,2.18,1.11-.45.42-2.86.15.59-.92-1.46-1.99-4.06-1.12-2.58-2.19-5.74-2.68-7.08.37,1.5.76,3.01,1.25,4.47-.55-1.43-1-2.68-1.39-3.81-.43-1.11-.79-2.09-1.11-2.97-.71-1.78-1.27-3.2-1.83-4.63-.31-.72-.5-1.47-.77-2.25-.24-.79-.52-1.65-.69-2.63-.38-1.94-.72-4.38-.54-7.56.11.81.51,1.8.95,1.79.46,0,.85-.97,1.19-3.89-.22-1.43-.7-4.78-.23-9.26.45-4.43,1.95-9.87,4.66-14.36l1.43-1.18c1.41-2.21,2.93-4.31,4.53-6.26-1.25,2.26-3.64,6.48-5.54,11.35-1.98,4.81-3.21,10.29-3.65,14.05.66-1.99.96-2.13,1.17-2.61.24-.48.48-1.23,1.71-4.03.65-.8.37.04-.06,1.31-.2.65-.45,1.4-.71,2.07-.21.7-.41,1.36-.53,1.79.71-2.24,1.73-4.31,2.75-6.34,1.13-1.97,2.29-3.89,3.66-5.63-.24-.09-.04-.71.42-1.59.5-.84,1.19-2.01,1.99-3.06.77-1.08,1.59-2.13,2.18-2.89.57-.79.9-1.36.71-1.46-3.26,3.72-6.22,7.85-8.45,12.48-.48-.08.04-2.61,1.78-5.92,1.71-3.33,4.67-7.39,8.33-10.4,2.01-1.18-.49,2.92-.13,3.15.35-.59,1.92-2.22,3.57-3.64,1.64-1.44,3.36-2.62,3.75-2.74-.97.95-1.97,1.84-2.9,2.84,2.1-1.37,3.66-2.85,5.39-4.31,1.75-1.42,3.68-2.8,6.51-3.61,1.86-.91,5.94-1.12,6.09-1.88-3.38-.03-5.14-3.52-3.28-5.43.36-.09,3.01-.88,5.87-1.48,2.88-.57,5.98-.97,7.18-.91,1.74.1.6,1-.57,1.89-1.17.94-2.37,1.88-.92,1.93.05-.36,1.76-1.22,2.49-1.49,2.11-.22-.7,1.09,3.76,0,.57-1.38,9.24-1.31,2-1.34,2.2-.55,3.4-.59,4.69-.64,1.3-.02,2.69-.03,5.33-.12-.86-.36.28-1.01,2.24-1.58,1.96-.47,4.76-.7,7.07-.67-.27.28.75.71,1.24.97,2.33.54,4.39,1.03,6.31,1.48.97.18,1.86.61,2.75.91.88.32,1.76.65,2.62.98.86.33,1.72.64,2.58.97.86.41,1.71.82,2.6,1.25,1.77.88,3.68,1.6,5.71,2.86.7.68,4.58,3.18,2.77,2.66,1.24.44,2.38.84,4.86,2.46,4.47,4-5.52-3.53-2.21-.09.24-.17,1.88.67,3.93,1.84,2.02,1.22,4.36,2.96,6.15,4.1-.35-.81-2.31-2.39-4.62-4.05-2.35-1.56-5.09-3.02-6.9-3.98.18-.67,1.88-.25,4.67.98.69.31,1.46.65,2.27,1.08.8.47,1.65,1,2.56,1.57.9.59,1.85,1.21,2.84,1.86.97.72,1.97,1.51,3,2.34,3.26,2.66,3.79,3.62,3.75,3.8-.06.21-.76-.19-.19.27,1.41,1.45,2.69,2.62,3.74,3.71,1.06,1.09,1.97,2,2.79,2.78,1.64,1.55,2.81,2.73,3.96,3.76,2.25,2.17,4.28,4.14,8.16,10.36,2.78,5.26-.65,1.2-.24,2.61-4.34-5.9-6.37-9.49-9.55-13.21l1.84,2.43,1.78,2.52c-1.53-1.67-4.7-5.18-6.32-7.28,1.34,1.98,5.95,7.14,10.61,13.95,1.2,1.71,2.32,3.41,3.54,5.37l.45.72c.2.06.44-.01.65-.02l1.32-.1c.86-.06,1.7-.09,2.54-.15,3.34-.15,6.51-.11,9.15.07,1.86-.23,5.08-.33,3.55-.67h-3.34c-3.09-.68,6.26-.6,2.02-1.01,4.48-.23,9.56-.43,15.9.95l1.16.96c-.13-.27-4.12-1.12-5.91-1.12,2.67-.03,9.65,2.5,12.59,2.26-1.46-.53-2.93-.96-4.4-1.44,4.53.48,10.19,1.16,15.73,3.18-2.46-1.46-1.29-.35-5.18-2.31,1.67.99-1.9-.09-5.23-.87-3.33-.82-6.41-1.38-3.66-.27-4.05-1.85-7.09-1.81-12.48-3.35.16.3,1.92.68-2.85.06-.21.06-.72.11-1.04.14-.15-.02-.2-.03-.32-.05.1.02.16.03.26.06-.2.02-.23.02.1.02,1.14.22,2.05.44,2.42.62-2.35.28-9.89-.12-12.4.29-2.81-.13,1.16-.32-.39-.61-1.26.16-2.51.34-3.77.56-.42-.62-7.53-.7-.94-1.37l-2.99.13-.92.06c-.15-.02-.33.1-.45-.04.14-.06-1.73-3.19-3.06-5.17-1.44-2.14-2.89-4.12-4.09-5.48-2.04-2.94-5.86-6.29-3.69-4.37-2.5-2.88-5.1-5.57-7.74-8.15v-.2c-7.74-8-16.9-14.03-26.85-20.59-1.55-.62-3.12-1.28-4.96-2.02-1.81-.86-3.93-1.51-6.54-2.49l-.95-.97c-.51-.15-1.08-.32-1.68-.53-.62-.15-1.28-.32-1.96-.48-1.37-.34-2.83-.72-4.21-1.06-1.39-.41-2.72-.55-3.79-.62-1.09-.09-1.93-.08-2.38.03-.55-.28-1.29-.5-2.15-.71-.44-.1-.91-.21-1.4-.29-.5-.05-1.03-.08-1.57-.14-2.2-.17-4.78-.02-7.42.25-5.28.62-10.75,2.1-14.24,2.98l-.09.93c-4.75,1.33-9.18,3.27-14.67,6.41l.57.56c-2.3,1.52-5.38,3.06-8.74,5.09-3.35,2.03-6.98,4.56-10.26,7.89.3-.7,2.05-2.26,3.36-3.15-2.24,1.4-4.37,3.27-6.34,5.53-1.98,2.21-3.76,4.81-5.34,7.58-1.61,2.75-2.96,5.74-4.13,8.77-1.18,3.01-2.13,6.11-2.93,9.16-.42,3.21-.61,5.55-.85,7.83.02-.3.01-.58.01-.82-.01.33-.03.84-.07,1.34-.13,1.43-.17,2.94-.19,4.57.07-1.39.15-2.72.18-3.85.06,2.53.27,6.41,1.1,10.01-.11.56-.23,1.14-.32,1.72.07.29.13.52.2.83.59,3.64.9,2.74.91.74.46,1.77,1.05,3.31,1.52,4.46-.04.79.13,1.74.46,2.75s.7,2.16,1.19,3.24c.48,1.1.94,2.24,1.35,3.33.43,1.07.78,2.14.95,3.17.68.9,2.62,4.66,4.76,8.09,2.16,3.41,4.49,6.49,5.33,6.73-.03.2.44,1.04-.53-.38,1.88,3.06,3.86,6.04,5.95,8.22l.43,1.87c1.77,1.7,3.59,3.26,5.39,4.81,2.69,3.82,3.81,5.47.48,2.72,3.87,3.55,5.42,4.99,6.85,6.29,1.41,1.3,2.71,2.45,6.16,4.98l-.56.23c2.34,2.14,6.43,4.7,7.71,6.28,2.47,2.71,9.2,8.08,17.37,13.1,4.08,2.53,8.52,4.97,12.92,7.08,4.41,2.04,8.73,3.94,12.58,5.41-1.39-1.34.38-.54,2.6.45,2.24.85,4.94,1.85,5.3,1.3.87.64,3.03,1.44.47,1.1,8.01,1.44,12.02,3.02,17.58,2.49.91.47-1.72.41-.91.73.64-.03,2.55-.1,3.38.2.82.3-1.18.22-2.45.27,4.11.39,6.35.12,7.65-.28,1.3-.38,1.62-.95,1.91-1.5,4.13.64,6.19.53,9.11-.25,1.44.3,3.85.6-1.17.9.7,0,2.15-.02,3.9-.05,1.76-.02,3.84-.08,5.84-.24,3.99-.23,7.64-.79,7.74-1.21.9.16,3.93-.36,4.65-.57,6.29-.74,6.84-.78,12.96-1.82l-1.72.13c2.28-1.4,5.07-1.03,9.98-2l-.12.13c11.4-1.22,4.83-1.22,16.07-2.25l-.68-.51c.86-1.49,9.97-.85,16.4-1.94l-2.38-.12c3.52-.8,10.08.85,13.59,1.17.78.1-1.21.18-2.28.27,4.64.34,4.91.26,4.91-.08,0-.32-.31-.77,3.15-.63,1.26.55-1.61.84,2.95,1.54.56.16,1.69.24,3.11.53.72.11,1.52.24,2.38.37.85.19,1.75.47,2.68.7,3.7,1.1,7.86,3.18,10.22,6.02-1.03-1.26-2.11-2.55.69-.4.25.22.54.43.8.72.25.29.51.6.79.92.53.65,1.1,1.3,1.68,2.01.57.71,1.04,1.61,1.59,2.42.5.85,1.11,1.64,1.54,2.52,1.81,3.51,3.46,7.7,5.21,10.08.35.8.46,1.14.43,1.21,1.31,2.18,3.65,5.71,6.37,8.09,2.68,2.46,5.49,3.75,6.64,4.1.74.94,2.62,2.05,5.01,3.03,1.2.48,2.52.97,3.9,1.31,1.38.41,2.8.69,4.2.95,5.6,1.07,10.7.9,10.68,1.79,4,.15,7.98-.03,11.92-.54l-.3.2c7.58-.94,10.11-2.32,12.6-3.48,1.72-.44.51.11.39.24.67-.2,1.31-.39,1.91-.56.6-.21,1.16-.42,1.69-.61.32-.12.61-.21.89-.31l.19-.07.14.19c.1.12.18.25.28.35.27.34.52.65.75.96.32.43.66.76.99,1.1.65.68,1.27,1.32,1.87,1.91,2.52,2.19,4.95,4.02,9.46,6.24l.81.98c1.23.59,5.08,2.76,10.1,4.54,5.02,1.81,11.21,3.05,16.68,3.02-.1.04-.33.13-1.2.12,3.08.11,6.47.06,9.86-.08,1.7-.14,3.4-.22,5.08-.44,1.66-.26,3.32-.43,4.89-.76,1.57-.36,3.07-.69,4.48-1.08,1.39-.46,2.69-.9,3.85-1.33,2.28-1.04,4.06-1.92,4.96-2.88,2.46-1.34,4.87-2.82,7.18-4.53-4.66,2.85-4.4,2.36-3.43,1.61.97-.8,2.61-1.99.65-1,3.64-2.16,9.31-6.02,5.08-2.66l-.71.42c-.33.47.23.26,1.22-.41.5-.33,1.1-.75,1.77-1.23.65-.53,1.35-1.11,2.08-1.7,2.86-2.4,5.58-5.53,5.62-5.19.49-.55.95-1.13,1.43-1.7l.68-.89.56-.76.18-.27.1-.13.13.02.55.06,1.93.2c1.28.17,2.56.2,3.83.27l1.92.1h1.91c5.08,0,10.1-.37,15.01-1.29,9.8-1.84,19.3-5.32,27.69-11.38-.69.34-1.43.57-2.15.82,1-.62,1.96-1.32,2.92-2.07l1.44-1.08,1.38-1.21c1.49-1.19,2.16-1.29-1.85,2.08.59-.31,1.26-.92,1.97-1.56.71-.67,1.49-1.32,2.11-2.1,1.29-1.47,2.3-2.77,2.3-2.92,1.71-2.08,2.46-2.87,2.57-2.99.14-.08-.28.61-.88,1.44-.61.83-1.35,1.86-1.82,2.51-.5.6-.7.84-.15.25.97-1.17,1.9-2.4,2.84-3.6l-.67.75c.28-.38.52-.72.73-1.04.19-.35.37-.67.54-.97.34-.6.64-1.17,1-1.81.17-.32.38-.64.58-1.04.19-.4.4-.86.64-1.37.24-.51.51-1.07.82-1.72.31-.63.55-1.46.89-2.33.21-.55.38-1.01.53-1.37.12-.38.21-.69.28-.93.15-.47.22-.67.28-.78.11-.23.12-.1.36-1.04,0,0,.06-.14.17-.58.07-.46.17-1.24.33-2.44.48-3.95.25-8.1-.58-12.03.1.81.23,1.61.3,2.4l.14,2.4c-.32-2.65-.89-5.38-1.31-6.75-.18-.7-.33-1.05-.31-.9.03.16.14.8.4,2.13-.15-.87-.42-2.04-.86-3.45-.1-.36-.23-.71-.37-1.08-.07-.18-.14-.37-.2-.56l-.1-.29-.07-.18c-.18-.48-.4-.99-.64-1.47.32-.17.72-.29,1.1-.43.24-.09.5-.18.75-.28.31-.13.64-.23.97-.4,1.27-.67,2.64-1.21,3.95-2.04.66-.4,1.33-.81,1.99-1.19.66-.42,1.29-.92,1.93-1.37,1.31-.87,2.49-1.98,3.66-2.95,4.62-4.13,7.75-8.94,8.62-10.33,1.56-2.78,2.99-5.7,4.1-9.08,1.11-3.35,2.08-7.12,2.35-11.52-.13,1.08-.29,1.91-.31,1.57-.02-.18,0-.65.07-1.56.05-.91.05-2.24.07-4.13.25,1.43.42-2.13-.41-6.71-.41-2.29-1.07-4.79-1.82-7.01-.74-2.24-1.58-4.2-2.15-5.6.52,1.23.24.66-.48-.73-.11-.22-.12-.22-.17-.37-.02-.17-.04-.35-.06-.54-.05-.51-.11-1.07-.17-1.65-.12-1.17-.3-2.44-.5-3.68-.81-4.98-2.24-9.32-1.23-5.16-.77-3.06-.82-3.13-.73-3.08.06.08.23.31-.48-1.97-.62-1.75-1.32-3.5-2.16-5.21-.43-.84-.86-1.7-1.29-2.55-.48-.82-.96-1.63-1.46-2.47-2.04-3.24-4.47-6.21-7.21-8.74-5.48-5.1-12.02-8.39-18.62-10.9-.21-.03,1.99.89-.86-.13-2.31-.99-4.65-1.85-6.98-2.69-1.32-.45-1.95-.48-2.83-.71-.89-.17-2.04-.59-4.48-1.14.69.18,1.71.46-.08.07-6.59-1.52-13.33-2.2-20.05-2.12-6.72.15-13.44.98-20.05,2.55-3.31.74-6.58,1.74-9.82,2.82l-1.22.41-.2.07c-.07.04-.07-.13-.11-.17l-.3-.75c-.42-1.04-.91-2.06-1.43-3.02-1.04-1.94-2.24-3.72-3.54-5.33-5.27-6.44-11.78-10.43-18.29-13.26,1.76.82,2.04.97,1.56.75-.49-.23-1.75-.8-3.1-1.33,1.77.73-.04.04.29.22-3.65-1.52-7.37-2.69-11.11-3.5-1.03-.21-4.05-.71-6.96-.96-2.92-.25-5.71-.16-6.3-.06,1.18-.06,2.37-.08,3.57-.05-2.36.05-.71.07,1.46.25,2.17.17,4.83.62,4.49.63,5.29.57,13.97,3.05,22.2,7.58,1.81,1.05-1.56-.84-.6-.25,1.04.56,2.19,1.21,3.63,2.17,1.42.97,3.16,2.21,5.24,4.16l-.48-.42c2.96,2.68,5.26,5.51,7.04,8.49.87,1.51,1.65,3.01,2.25,4.62l.31.77c.17.03.48-.13.59-.16l.93-.31,1.84-.61c4.96-1.5,10.16-2.94,17.86-3.87l-1.15.05c3.31-.39,4.01-.43,5.56-.51,1.9-.2-.43-.07-2.8.17-2.37.25-4.77.61-3.05.28,2.2-.23,8.03-.9,13.75-.78,5.7.07,11.24.82,12.74,1.26,5.13.9-1.49-.43,3.63.56l1.35.38,1.29.2c3.34.87,5.01,1.5,5.13,1.57-.81-.23-2.3-.64-3.17-.89,4.33,1.1,12.11,4.09,13.56,4.76-1.59-.69-3.2-1.32-4.82-1.95,6.85,2.56,14.54,5.73,21.14,11.68,3.27,2.98,6.2,6.63,8.49,10.74,2.3,4.1,3.97,8.59,5.04,13-.1-.46-.17-.92-.28-1.36.91,3.34,1.29,5.77,1.55,7.69.12.97.21,1.81.28,2.61.04.4.06.78.08,1.14l.04.6c.03.26.02.53.16.73.68,1.43,1.25,2.65,2,4.59.72,1.91,1.6,4.42,2.36,8.12l-.13-.54c.35,1.46.65,3.23.84,5.13.21,1.91.13,3.97.08,6.03-.02-1.92-.03-.11-.3,1.46-.22,1.61-.43,3.03-.22.59-.06.92-.2,1.72-.34,2.45-.13.73-.24,1.39-.34,1.99-.29,1.15-.52,2.04-.7,2.76-.39,1.41-.66,2.07-.81,2.64-.17.53-.25.99-.57,1.78-.15.4-.34.9-.6,1.56-.24.69-.6,1.48-1.11,2.48-.37.56-.72,1.13-1.1,1.65-1.52,2.54-1.41,3.1-5.59,7.9,3.35-4.03-2.82,2.74.89-1.79-4.25,4.53-7.89,7.14-10.96,9.08-1.51,1.01-2.96,1.69-4.27,2.35-.32.17-.66.3-.99.42-.39.14-.77.28-1.16.42-.98.34-1.95.65-2.91.99l.64,1.43c1.07,1.97,1.27,2.35,1.16,1.95-.12-.42-.65-1.68-1.41-3.17.97-.37,2.12-.82,3.27-1.26.84-.29,1.65-.69,2.31-1.02,1.34-.66,2.12-1.02,1.27-.57,1.03-.41.46-.01-.81.7-.63.33-1.42.85-2.32,1.19-.87.39-2.14.87-3.07,1.3.47.89.88,1.76,1.2,2.54.56,1.31.85,2.31,1.17,3.56.28,1.22.55,2.51.74,4.06.13.77.17,1.6.24,2.51.09.91.06,1.88.08,2.96.04,1.08-.13,2.21-.18,3.5-.09.63-.2,1.27-.31,1.95-.05.34-.1.69-.16,1.05-.09.34-.17.69-.27,1.04.31-1.13.26-1.24.43-2.43-.82,4.34-2.04,8.57-4.93,12.57-.33.65-.66,1.38-1.12,1.97-.46.58-.91,1.16-1.33,1.69-.42.53-.79,1.02-1.09,1.41-.31.38-.53.71-.59.96l.83-.87.76-.96,1.53-1.93c.53-.62.92-1.41,1.38-2.1.43-.73.94-1.38,1.3-2.19-2.71,5.13-5.87,9.88-12.99,14.72.25-.26.88-.81,1.6-1.45.37-.3.76-.65,1.15-.97.38-.36.74-.71,1.06-1.03-1,.79-1.95,1.54-2.93,2.29-.95.8-1.97,1.47-3.09,2.09.1-.24.72-.74,1.67-1.42.92-.75,2.17-1.64,3.49-2.75,2.68-2.13,5.49-5.29,7.18-7.8-.96,1-2.62,3.31-4.06,4.71-.67.77-1.28,1.32-1.6,1.53-.3.23-.31.13.15-.46-2.66,3.54-7.77,6.13-13.47,9.52l.28-.55c-.46.25-1.16.64-1.96,1.09-.81.4-1.74.81-2.61,1.17,1.02-.61,2.04-1.13,3.03-1.8-4.7,2.57-9.51,3.24-14.3,4.52,2.54-.51,3.92-.96,4.68-1.1.76-.16.87-.12.81-.02-.13.18-.98.65,1.17.15-3.07,1.07-5.08,1.58-6.59,1.8-1.5.27-2.47.32-3.5.31-1.03,0-2.09.08-3.8.13-.85.04-1.86.09-3.1.21-1.24.06-2.72.13-4.51.23.97-.07,2.78-.11,3.99-.08,1.2,0,1.79.05.29.29-1.37.02-2.96.07-4.4.04-1.45-.08-2.79-.18-3.62-.29-9.5-.4,1.47.51-2.56.57-.82-.17-1.51-.26-2.17-.29-.65-.08-1.27-.1-1.92-.1-.33,0-.65,0-1,0h-.27s-.41-.01-.41-.01c-.28,0-.56-.03-.85-.03-.15,0-.29,0-.44-.02-.11.1-.2.29-.29.43-.2.3-.4.62-.6.96-.37.57-.62.91-.99,1.44l-.25-.29c-1.93,2.32-3.15,3.48-3.82,4.26-.68.79-.91,1.1-1.08,1.41-.39.57-.57,1.28-4.76,4.33,1.11-1.03,2.14-2.19,3.18-3.3l-2.06,1.82-2.12,1.69.7-1.11c-1.12.98-2.08,1.72-2.96,2.33-.87.64-1.65,1.17-2.47,1.61-.8.45-1.6.93-2.53,1.4-.93.43-1.97.91-3.22,1.49,1.25-.28-.4,1.18-4.97,2.85-1.6.38-1.18.12-1.18.06,0-.03-.1-.02-.61.13-.51.17-1.42.48-3.07.88,1.46-.6,2.96-1.51,5.89-2.03.25-.26,1.34-.86,1.6-1.12-1.68.54-3.78,1.23-5.76,1.87-2,.52-3.87,1.09-5.06,1.33.93-.15,2.02-.44,2.6-.5-.79.25-1.56.51-2.35.73l-2.39.57-2.39.57-2.42.4c-1.56-.02-.35-.28.84-.55-1.96.29-3.32.54-6.24.7.73-.43.54-.77,4.62-1.2-1.53.21-3.08.29-4.63.45-1.55.03-3.11.14-4.65.08-.31-.1-1.51-.33-2.48-.51-.97-.18-1.7-.44-1.1-.42-5.1-.82-12.73-1.46-19.22-5.01-.35-.1-1.06-.29-2.44-1.03-3.02-1.65-5.72-3.72-8.36-6.1-1.34-1.18-2.61-2.53-3.91-3.96-.46-.55-.92-1.12-1.39-1.67l-.9-1.06-.46-.54-.56.22c-.73.31-1.48.62-2.22.93-.43.19-.87.41-1.31.6-1.43.25-2.87.43-4.3.6-5.75,1.67,5.89-.5-3.74,2.22-3.44.86-4.13.71-4.25.51-.12-.21.33-.55-.9-.49-3.37.87-9.46,2.22-15.96.86,2.14.04,3.82.3,5.83.24l-.02-.2ZM317.12,68.46c.76.09,1.89.45,2.98.74,1.09.3,2.11.68,2.62,1.16-.9-.14-1.67-.28-2.53-.62-.86-.29-1.8-.85-3.07-1.3v.02ZM203.12,77.61c1.07-.18,2.75.03,4.64.37-1.37,0-2.93-.11-4.64-.37ZM226.3-40.61l-.12-.14c-2.21-3.64-1.43-2.34.12.14ZM229.6-36.56c.58-.13.6-.23.28-.3-.35.1-.41.16-.73.21-.13.01-.31.08-.45,0-.1-.19-.22-.38-.34-.58.02.18.1.41.25.69.06.23.23.09.4.11.17-.02.37-.06.6-.11v-.02ZM573.71,71.85c-.09.61-.3,1.16-.45,1.75.24-.99.37-1.67.41-2.14.06-.46.09-.66.11-.7.03-.09-.02.5-.07,1.11v-.02Z"/>
  <path class="cls-1" d="M216.01,77.05c.41.12.53.23.64.35.57-.14.57-.24-.64-.35Z"/>
  <path class="cls-1" d="M426.47,123.44l.22.11c.12.02.2.03.23,0l-.45-.12Z"/>
  <path class="cls-1" d="M305.57,65.01l-.31.17c.65.27,1.62.33,3.59.53l-3.27-.7h-.01Z"/>
  <path class="cls-1" d="M352.04,105.16c-.24-.21-.47-.45-.7-.68.34.62.72,1.19,1.12,1.75l-.42-1.09v.02Z"/>
  <path class="cls-1" d="M395.27,112.31c-.89.19-1.86.36-2.82.53-.97.17-1.94.37-2.85.41,1.95-.24,3.52-.37,4.54-.39,1.01-.1,1.45-.18,1.15-.54h-.01Z"/>
  <path class="cls-3" d="M243.61-73.33c4.73-1.09,17.97-2.12,34.06,5.75,9.71,4.74,17.15,12.06,20.47,21.07,14.79-5.26,37.46-9.75,62.58-.4,11.05,4.1,24.86,9.52,32.49,26.47,3.49,7.74,4.57,15.45,4.92,20.73,4.57,9,5.28,16.48,5.38,20.4.41,18.57-11.56,36.32-30.12,42.85.87,1.58,10.89,20.93-5.34,39.06-12.94,14.45-37.14,22.1-60.56,18.92-.91,1.41-13.64,20.34-41.13,24.07-21.46,2.9-42.92-4.68-53.54-19.13-18.14,7.72-39.94,6.89-54.82-2-9.71-5.81-12.18-16.62-16.3-23.35-28.1-45.95-102.39,15.31-175.75-18.25C-73.83,64.64-115.4,17.57-112.33-18.85c2.72-32.15,39.94-52.89,69.89-52.17C-.13-69.98,27.72-26.07,31.83-19.41c8.03-.75,17.26-.83,27.43.43,19.81,2.46,36.46,9.18,48.94,15.76,4.94-7.82,29.89-45.58,68.27-43,11.12.75,20.67,4.7,28.09,8.99,2.72-5.77,15.1-30.53,39.08-36.09h-.02Z"/>
  <path class="cls-1" d="M152.05,115.74c.51.58,1,1.21,1.55,1.72-.75-.77-1.2-1.34-1.55-1.72Z"/>
  <path class="cls-1" d="M142.7,98.47l-.42-.27c.61.7.88.98.42.27Z"/>
  <path class="cls-1" d="M18.23,93.24c-.3-.05-.61-.12-.92-.19-.74.21-1.44.4-2.07.57.9-.11,1.92-.25,2.98-.38Z"/>
  <path class="cls-1" d="M20.28,90.76l4.08.26c-.92-.11-2.23-.19-4.08-.26Z"/>
  <path class="cls-1" d="M230.91,137.56c.81.2,1.59.48,2.41.62-3.63-1.62-2.07-.72-2.41-.62Z"/>
  <path class="cls-1" d="M145.12,112.46c.86,1.51,1.29,2.12,1.33,2.01-.91-1.54-1.43-2.4-1.33-2.01Z"/>
  <path class="cls-1" d="M363.39,105.84c.11-.08.24-.17.36-.27,1.57-1.53.87-.89-.36.27Z"/>
  <path class="cls-1" d="M185.85,128.89c-1.65-.13-3.3-.42-4.94-.69,5.93-.23,10.17-.32,5.56-.83-.3.75-5.08.81-9.83.02-4.76-.71-9.39-2.28-9.84-1.68-1.03-.53-2.08-.97-3.08-1.56.87.44,1.05.38,1.92.73-2.97-1.58-4.1-1.89-5.49-2.3-.69-.21-1.47-.38-2.44-.91-1.01-.48-2.24-1.39-3.82-3.04-2.14-2.43-3.23-4.67-1.86-2.89-1.5-1.86-2.86-4.04-4.14-6.41-1.03-2.18-.61-1.75.41.36-.94-1.82-1.82-3.75-2.78-5.73-.48-.98-1-1.98-1.54-2.99l-.87-1.49-.94-1.34.08.04c-.6-.67-1.52-1.88-2.52-2.96-1.04-.99-2.1-2.02-2.79-2.68-1.04-1.19-.77-.9-.25-.52.48.48,1.15,1.2.92.8-.77-.87-1.65-1.5-2.5-2.18l-1.28-1-.63-.5-.67-.4c-1-.9-.39-.74.94.02.63.47,1.44,1.1,2.3,1.81.43.37.89.71,1.31,1.15.41.46.82.91,1.22,1.37-.46-.77-.85-1.43-1.25-1.95-.42-.49-.81-.9-1.19-1.26-.77-.72-1.48-1.31-2.41-1.93-.95-.53-2.09-1.17-3.65-2.17-1.6-.72-3.62-2.01-6.45-3.13.89.29,1.79.55,2.68.87l2.66,1.21c-.8-.65-1.67-1.24-2.62-1.81-.96-.48-1.99-.91-3.12-1.36-1.12-.52-2.33-.79-3.64-1.19-.65-.2-1.34-.4-2.04-.61-.71-.16-1.43-.33-2.2-.52.36.11,1.3.4,2.41.75,1.11.43,2.39.94,3.42,1.38,1.03.41,1.8.98,1.94,1.18.13.25-.36.12-1.9-.17-.86-.28-1.86-.56-3.05-.83-1.2-.29-2.6-.33-4.25-.44-.02-.63-3.25-.86-7.23-.9l.24-.79c-4.32.18-3.94.64-6.43,1.12-4.77.16-5.78-.27-6.96-.73-7.58.72,5.31.4-3.6,1.57-6.29.45-10.62,1.49-17.94,3.22-4.36.45.69-.64-.9-.61l-3.74,1.31c-.94.15-.67-.11-.52-.25-3.2.8-.15.88-5.19,1.96-1.25,1.18-10.59.35-16.74,2.21-1.58-.05.69-.62.18-.89-4.27.89-6.1,1.22-7.75,1.52-1.64.35-3.09.65-6.61,1.39-2.04-.04-4.08-.09-6.11-.25,4.51.47-1.12,1.57-6.13,2.22,1.61.35,2.99.59,3.92.68-2.67.28-5.34.34-8.03.52-.97-.15-.18-.45,1.13-.82-.55.07-1.07.14-1.47.2-2.89-.48-1.4-.89.63-1.33.98.18,1.96.38,2.91.57,1.96-.52,3.77-1.13,3.33-1.65-.51.12-1.51.19-2.61.24.51-.14.83-.27.58-.36-.28-.09-1.09.1-2.4.31l-1.85-1.01-.42.39c-3.49-.37-6.97-.69-10.43-1.32-1.86.08-3.67.18-5.52.16-1.85-.02-3.74.09-5.78-.08-2.03-.17-4.22-.28-6.62-.7-1.2-.24-2.47-.48-3.79-.74-.67-.15-1.35-.29-2.05-.44-.7-.21-1.42-.42-2.16-.64,3,.25.78-1.01,1.05-1.84,3.08,2.01,9.1,2.26,15.19,3.61-3.19-.74-2.45-1.05-1.64-1.01l-5.46-.73-5.44-1.07c.16-.33-.39-.63-1.34-.98-.94-.42-2.26-.9-3.63-1.54.96,1.05-1.08.68-3.89-.28-2.8-1.08-6.39-2.52-8.56-3.41-.08-.31.16-.45,1.07-.2.9.29,2.48.88,5.1,2.02-1.4-.89-2.59-1.4-3.66-1.77-1.06-.42-2.04-.66-3.01-.87-1.92-.5-3.88-.95-6.53-3.01,1.26.69,1.91,1.17,2.47,1.18-3.07-1.12-10.03-5.88-8.25-5.26.4.27.82.53,1.23.77-4.07-2.63-10.19-6.86-15.33-10.86-5.17-3.93-9.39-7.53-10.22-7.48-.01-.21,1.62-.42,2.17-.23-5.02-2.86-10.02-6.08-14.93-9.74,1.63.33-1.3-6.52,4.78-.5-1.6-1.97-3.55-4.4-7.08-8.25.97,1.48,1.92,4.58.34,2.85-1.73-3.02-2.33-4.06-3.06-5.22-.68-1.21-1.6-2.45-3.57-6.21,1.38,2.32-1.34,1.24-3.58-2.44.51.38.83-1.45,1.77-.28-2.23-2.52-4.32-5.25-6.38-8.09,1.49,2.18,1.11-.45.42-2.86.15.59-.92-1.46-1.99-4.06-1.12-2.58-2.19-5.74-2.68-7.08.37,1.5.76,3.01,1.25,4.47-.55-1.43-1-2.68-1.39-3.81-.43-1.11-.79-2.09-1.11-2.97-.71-1.78-1.27-3.2-1.83-4.63-.31-.72-.5-1.46-.77-2.25-.24-.79-.52-1.65-.69-2.63-.38-1.94-.72-4.38-.54-7.56.11.81.51,1.8.95,1.79.46,0,.85-.97,1.19-3.89-.22-1.43-.7-4.78-.24-9.26.45-4.43,1.95-9.87,4.66-14.36l1.43-1.18c1.41-2.21,2.93-4.31,4.53-6.26-1.25,2.26-3.64,6.48-5.54,11.35-1.98,4.81-3.21,10.29-3.65,14.05.66-1.99.96-2.13,1.18-2.61.24-.48.48-1.23,1.71-4.03.64-.8.37.04-.06,1.31-.2.65-.45,1.4-.71,2.07-.21.7-.4,1.36-.53,1.79.71-2.24,1.73-4.31,2.75-6.34,1.13-1.97,2.29-3.89,3.66-5.63-.24-.09-.04-.71.42-1.59.5-.84,1.19-2.01,1.99-3.06.77-1.08,1.59-2.13,2.18-2.89.57-.79.9-1.36.71-1.46-3.26,3.72-6.21,7.85-8.45,12.48-.48-.08.04-2.61,1.78-5.92,1.71-3.33,4.67-7.39,8.33-10.4,2.01-1.18-.49,2.92-.13,3.15.35-.59,1.92-2.22,3.57-3.64,1.64-1.44,3.36-2.62,3.75-2.74-.97.95-1.97,1.84-2.9,2.84,2.1-1.37,3.66-2.85,5.39-4.31,1.75-1.42,3.68-2.8,6.51-3.61,1.86-.91,5.94-1.12,6.09-1.88-3.38-.03-5.14-3.52-3.28-5.43.36-.09,3.01-.88,5.87-1.48,2.88-.57,5.98-.97,7.18-.91,1.74.1.6,1-.57,1.89-1.17.94-2.37,1.88-.92,1.93.05-.36,1.76-1.22,2.49-1.49,2.11-.22-.7,1.09,3.77,0,.57-1.38,9.24-1.31,2-1.34,2.2-.55,3.4-.59,4.69-.64,1.3-.02,2.69-.03,5.33-.12-.86-.36.28-1.01,2.24-1.58,1.95-.47,4.76-.7,7.07-.67-.27.28.75.71,1.24.97,2.33.54,4.39,1.03,6.31,1.48.97.18,1.86.61,2.75.91.88.32,1.76.65,2.62.98.86.33,1.72.64,2.58.97.86.41,1.71.82,2.59,1.25,1.77.88,3.68,1.6,5.71,2.86.7.68,4.58,3.18,2.77,2.66,1.24.44,2.38.84,4.86,2.46,4.47,4-5.52-3.53-2.21-.09.24-.17,1.88.67,3.93,1.84,2.02,1.22,4.36,2.96,6.15,4.1-.35-.81-2.31-2.39-4.62-4.05-2.35-1.56-5.09-3.02-6.9-3.99.19-.67,1.88-.25,4.67.98.69.31,1.46.65,2.27,1.08.8.47,1.65,1,2.56,1.57.9.59,1.85,1.21,2.84,1.86.97.72,1.97,1.51,3,2.34,3.26,2.66,3.79,3.62,3.75,3.8-.06.21-.76-.19-.19.27,1.41,1.45,2.69,2.62,3.74,3.71,1.06,1.09,1.97,2,2.79,2.78,1.64,1.55,2.81,2.73,3.96,3.76,2.25,2.17,4.28,4.14,8.16,10.36,2.78,5.26-.65,1.2-.24,2.61-4.34-5.9-6.37-9.49-9.55-13.21l1.84,2.43,1.78,2.52c-1.53-1.67-4.7-5.18-6.32-7.28,1.34,1.98,5.95,7.14,10.61,13.95,1.2,1.71,2.32,3.41,3.55,5.37l.45.72c.2.06.44-.01.65-.02l1.32-.1c.86-.06,1.7-.09,2.53-.15,3.34-.15,6.51-.11,9.15.07,1.86-.23,5.08-.33,3.55-.67h-3.34c-3.09-.68,6.26-.6,2.02-1.01,4.48-.23,9.56-.43,15.9.95l1.16.96c-.13-.27-4.12-1.12-5.91-1.12,2.67-.03,9.65,2.5,12.58,2.26-1.46-.53-2.93-.96-4.4-1.44,4.53.48,10.19,1.16,15.73,3.18-2.46-1.46-1.29-.35-5.18-2.31,1.67.99-1.9-.09-5.23-.87-3.33-.82-6.41-1.38-3.66-.27-4.05-1.85-7.09-1.81-12.48-3.35.16.3,1.92.68-2.85.06-.21.06-.72.11-1.04.14-.15-.02-.2-.03-.32-.05.1.02.16.03.26.06-.2.02-.23.02.1.02,1.14.22,2.05.44,2.42.62-2.35.28-9.89-.12-12.41.29-2.81-.13,1.16-.32-.39-.61-1.26.16-2.51.34-3.77.56-.42-.62-7.53-.7-.94-1.37l-2.99.13-.92.06c-.15-.02-.33.1-.45-.04.14-.06-1.73-3.19-3.06-5.17-1.44-2.14-2.89-4.12-4.09-5.48-2.04-2.94-5.86-6.29-3.68-4.37-2.5-2.88-5.1-5.57-7.74-8.15v-.2c-7.74-8-16.9-14.03-26.85-20.59-1.55-.62-3.12-1.28-4.96-2.02-1.81-.86-3.93-1.51-6.54-2.49l-.95-.97c-.51-.15-1.08-.32-1.68-.53-.62-.15-1.28-.32-1.96-.48-1.37-.34-2.83-.72-4.22-1.06-1.39-.41-2.72-.55-3.79-.62-1.09-.09-1.93-.08-2.38.03-.55-.28-1.29-.5-2.15-.71-.44-.1-.91-.21-1.4-.29-.5-.05-1.03-.08-1.57-.14-2.2-.17-4.77-.02-7.42.25-5.28.62-10.75,2.1-14.24,2.98l-.09.93c-4.76,1.33-9.18,3.27-14.67,6.41l.57.56c-2.29,1.52-5.38,3.06-8.74,5.09-3.35,2.03-6.98,4.56-10.25,7.89.3-.7,2.05-2.26,3.36-3.15-2.23,1.4-4.37,3.27-6.34,5.53-1.98,2.21-3.76,4.81-5.34,7.58-1.61,2.75-2.96,5.74-4.13,8.77-1.18,3.01-2.13,6.11-2.93,9.16-.42,3.21-.61,5.55-.85,7.83.02-.3.01-.58.01-.82-.01.33-.04.84-.07,1.34-.13,1.43-.17,2.94-.19,4.57.07-1.39.15-2.72.18-3.85.06,2.53.27,6.41,1.1,10.01-.11.56-.23,1.14-.32,1.72.07.29.13.52.2.83.58,3.64.9,2.74.91.74.46,1.77,1.05,3.31,1.52,4.46-.04.79.13,1.74.46,2.75.32,1.02.7,2.16,1.19,3.24.48,1.1.94,2.24,1.35,3.33.43,1.07.78,2.14.95,3.17.68.9,2.62,4.66,4.76,8.09,2.16,3.41,4.49,6.49,5.33,6.73-.03.2.44,1.04-.53-.38,1.88,3.06,3.86,6.04,5.95,8.22l.43,1.87c1.77,1.7,3.59,3.26,5.39,4.81,2.69,3.82,3.81,5.47.48,2.72,3.87,3.55,5.42,4.99,6.85,6.29,1.41,1.3,2.71,2.45,6.16,4.98l-.56.23c2.34,2.14,6.43,4.7,7.71,6.28,2.47,2.71,9.2,8.08,17.37,13.1,4.08,2.53,8.52,4.97,12.92,7.08,4.41,2.04,8.73,3.94,12.58,5.41-1.39-1.34.38-.54,2.6.45,2.24.85,4.94,1.85,5.3,1.3.87.64,3.03,1.44.47,1.1,8.01,1.44,12.02,3.02,17.58,2.49.91.47-1.72.41-.91.73.64-.03,2.55-.1,3.38.2.82.3-1.18.22-2.45.27,4.11.39,6.35.12,7.65-.28,1.3-.38,1.63-.95,1.91-1.5,4.13.64,6.19.53,9.11-.25,1.44.3,3.85.6-1.17.9.7,0,2.15-.02,3.9-.05,1.76-.02,3.84-.08,5.84-.24,4-.23,7.64-.79,7.74-1.21.9.16,3.93-.36,4.65-.57,6.29-.74,6.84-.78,12.96-1.82l-1.72.13c2.28-1.4,5.07-1.03,9.98-2l-.12.13c11.4-1.22,4.83-1.22,16.07-2.25l-.68-.51c.87-1.49,9.97-.85,16.4-1.94l-2.38-.12c3.52-.8,10.08.85,13.59,1.17.78.1-1.21.18-2.28.27,4.64.34,4.91.26,4.91-.08,0-.32-.31-.77,3.15-.63,1.26.55-1.61.84,2.95,1.54.56.16,1.69.24,3.11.53.72.11,1.52.24,2.38.37.85.19,1.75.47,2.68.7,3.7,1.1,7.86,3.18,10.22,6.02-1.03-1.26-2.11-2.55.69-.4.25.22.54.43.8.72.25.29.51.6.79.92.53.65,1.1,1.3,1.68,2.01.57.71,1.04,1.61,1.59,2.42.5.85,1.11,1.64,1.54,2.52,1.81,3.51,3.46,7.7,5.21,10.08.35.8.46,1.14.43,1.21,1.31,2.18,3.65,5.71,6.37,8.09,2.68,2.46,5.49,3.75,6.64,4.1.74.94,2.62,2.05,5.01,3.03,1.2.48,2.52.97,3.9,1.31,1.38.41,2.8.69,4.2.95,5.6,1.07,10.69.9,10.68,1.79,4,.15,7.98-.03,11.92-.54l-.3.2c7.58-.94,10.11-2.32,12.6-3.48,1.71-.44.51.11.39.24.67-.2,1.31-.39,1.91-.56.6-.21,1.16-.42,1.69-.61.32-.12.61-.21.89-.31l.19-.07.14.19c.1.12.18.25.28.35.27.34.52.65.76.96.32.43.66.76.99,1.1.65.68,1.27,1.32,1.87,1.91,2.52,2.19,4.95,4.02,9.46,6.24l.81.98c1.23.59,5.08,2.76,10.1,4.54,5.02,1.81,11.21,3.05,16.68,3.02-.1.04-.33.13-1.2.12,3.08.11,6.47.06,9.86-.08,1.7-.14,3.4-.22,5.08-.44,1.66-.26,3.32-.43,4.89-.76,1.57-.36,3.07-.69,4.48-1.08,1.39-.46,2.69-.9,3.85-1.33,2.28-1.04,4.06-1.92,4.96-2.88,2.46-1.34,4.87-2.82,7.18-4.53-4.66,2.85-4.4,2.36-3.43,1.61.97-.8,2.61-1.99.65-1,3.64-2.16,9.31-6.02,5.08-2.66l-.71.42c-.33.47.23.26,1.22-.41.5-.33,1.1-.75,1.77-1.23.65-.53,1.35-1.11,2.08-1.7,2.86-2.4,5.58-5.53,5.62-5.19.49-.55.95-1.13,1.43-1.7l.68-.89.56-.76.18-.27.1-.13.13.02.55.06,1.93.2c1.28.17,2.56.2,3.83.27l1.92.1h1.91c5.08,0,10.1-.37,15.01-1.29,9.8-1.84,19.3-5.32,27.69-11.38-.69.34-1.43.57-2.15.82,1-.62,1.96-1.32,2.92-2.07l1.44-1.08,1.38-1.21c1.49-1.19,2.16-1.29-1.85,2.08.59-.31,1.27-.92,1.98-1.56.71-.67,1.49-1.32,2.11-2.1,1.29-1.47,2.3-2.77,2.29-2.92,1.72-2.08,2.46-2.87,2.57-2.99.14-.08-.28.61-.88,1.44-.6.83-1.35,1.86-1.81,2.51-.5.6-.7.84-.15.25.97-1.17,1.9-2.4,2.84-3.6l-.67.75c.28-.38.52-.72.73-1.04.19-.35.37-.67.54-.97.34-.6.64-1.17,1-1.81.17-.32.38-.64.58-1.04.19-.4.4-.86.63-1.37.24-.51.51-1.07.82-1.72.31-.63.55-1.46.89-2.33.21-.55.38-1.01.53-1.37.12-.38.21-.69.28-.93.15-.47.22-.67.28-.78.11-.23.12-.1.37-1.04,0,0,.06-.14.17-.58.07-.46.18-1.24.33-2.44.48-3.95.25-8.1-.58-12.03.1.81.23,1.61.3,2.4l.14,2.4c-.32-2.65-.89-5.38-1.31-6.75-.18-.7-.33-1.05-.31-.9.03.16.14.8.4,2.13-.15-.87-.42-2.04-.86-3.45-.1-.36-.23-.71-.37-1.08-.07-.18-.14-.37-.2-.56l-.1-.29-.07-.18c-.18-.48-.39-.99-.64-1.47.32-.17.72-.29,1.1-.43.24-.09.5-.18.75-.28.31-.13.64-.23.97-.4,1.27-.67,2.64-1.21,3.95-2.04.66-.4,1.33-.81,1.99-1.19.66-.42,1.29-.92,1.93-1.37,1.31-.87,2.49-1.98,3.66-2.95,4.62-4.13,7.75-8.94,8.62-10.33,1.56-2.78,2.99-5.7,4.1-9.08,1.11-3.35,2.08-7.12,2.35-11.52-.13,1.08-.29,1.91-.31,1.57-.02-.18,0-.65.07-1.56.05-.9.05-2.24.07-4.12.25,1.43.42-2.13-.41-6.71-.41-2.29-1.07-4.79-1.82-7.01-.74-2.24-1.58-4.2-2.15-5.6.52,1.23.24.66-.48-.73-.11-.22-.12-.22-.17-.37-.02-.17-.04-.35-.06-.54-.05-.51-.11-1.07-.17-1.65-.12-1.17-.3-2.44-.5-3.68-.81-4.98-2.25-9.32-1.23-5.16-.77-3.06-.82-3.13-.73-3.08.06.08.23.31-.48-1.97-.62-1.75-1.32-3.5-2.16-5.21-.43-.84-.86-1.7-1.29-2.55-.49-.82-.96-1.63-1.46-2.47-2.04-3.24-4.47-6.21-7.21-8.74-5.49-5.1-12.02-8.39-18.62-10.9-.21-.03,1.99.89-.86-.13-2.31-.99-4.65-1.85-6.98-2.69-1.32-.45-1.95-.48-2.83-.71-.89-.17-2.04-.59-4.48-1.14.69.18,1.71.46-.08.07-6.59-1.52-13.33-2.2-20.05-2.12-6.72.15-13.44.98-20.05,2.55-3.31.74-6.58,1.74-9.82,2.82l-1.22.41-.2.07c-.07.04-.07-.13-.11-.17l-.3-.75c-.42-1.04-.91-2.06-1.43-3.02-1.04-1.94-2.24-3.72-3.54-5.33-5.27-6.44-11.78-10.43-18.29-13.26,1.76.82,2.04.97,1.56.76-.49-.23-1.75-.8-3.1-1.33,1.77.73-.04.04.29.22-3.65-1.52-7.37-2.69-11.11-3.5-1.03-.21-4.05-.71-6.96-.96-2.92-.25-5.71-.16-6.3-.06,1.18-.06,2.37-.08,3.57-.05-2.36.05-.71.07,1.46.25,2.17.17,4.83.62,4.49.63,5.29.57,13.97,3.05,22.2,7.58,1.81,1.05-1.56-.84-.6-.25,1.04.56,2.19,1.21,3.63,2.17,1.42.97,3.16,2.21,5.24,4.16l-.48-.42c2.96,2.68,5.26,5.51,7.04,8.49.87,1.51,1.65,3.01,2.25,4.62l.31.77c.17.03.48-.13.59-.16l.93-.31,1.84-.61c4.96-1.5,10.16-2.94,17.86-3.87l-1.15.05c3.31-.39,4.01-.43,5.56-.51,1.9-.2-.43-.07-2.8.17-2.37.25-4.77.61-3.05.28,2.2-.23,8.03-.9,13.75-.78,5.7.07,11.24.82,12.74,1.26,5.13.9-1.49-.43,3.63.56l1.35.38,1.3.2c3.35.87,5.01,1.5,5.13,1.57-.81-.23-2.3-.64-3.17-.89,4.33,1.1,12.11,4.09,13.56,4.76-1.59-.69-3.2-1.32-4.82-1.95,6.85,2.56,14.54,5.73,21.14,11.68,3.27,2.98,6.2,6.63,8.49,10.74,2.3,4.1,3.96,8.59,5.04,13-.1-.46-.17-.92-.27-1.36.91,3.34,1.29,5.77,1.55,7.69.12.97.21,1.81.28,2.61.04.4.06.78.08,1.14l.04.6c.03.26.02.53.16.73.68,1.43,1.25,2.65,2,4.59.72,1.91,1.6,4.42,2.36,8.12l-.13-.54c.35,1.46.65,3.23.84,5.13.21,1.91.13,3.97.08,6.03-.02-1.92-.02-.11-.3,1.46-.22,1.61-.43,3.03-.22.59-.06.92-.2,1.72-.34,2.45-.13.73-.24,1.39-.34,1.99-.29,1.15-.52,2.04-.7,2.76-.39,1.41-.66,2.07-.81,2.64-.18.53-.25.99-.57,1.78-.15.4-.34.9-.6,1.56-.24.69-.6,1.48-1.11,2.48-.37.56-.72,1.13-1.1,1.65-1.52,2.54-1.41,3.1-5.59,7.9,3.35-4.03-2.82,2.75.89-1.79-4.25,4.53-7.89,7.14-10.96,9.08-1.51,1.01-2.96,1.69-4.27,2.35-.32.17-.66.3-.99.42-.39.14-.77.28-1.16.42-.99.34-1.95.65-2.91.99l.64,1.43c1.07,1.97,1.26,2.35,1.16,1.95-.12-.42-.65-1.68-1.41-3.17.97-.37,2.12-.82,3.27-1.26.84-.29,1.65-.69,2.31-1.02,1.34-.66,2.12-1.02,1.26-.57,1.03-.41.46-.01-.81.7-.63.33-1.42.85-2.32,1.19-.87.39-2.14.87-3.07,1.3.47.89.88,1.76,1.2,2.54.56,1.31.85,2.31,1.17,3.56.28,1.22.55,2.51.74,4.06.13.77.17,1.6.24,2.51.09.91.06,1.88.08,2.96.04,1.08-.13,2.21-.18,3.5-.09.63-.2,1.27-.31,1.95-.05.34-.1.69-.16,1.05-.08.34-.17.69-.27,1.04.31-1.13.26-1.24.43-2.43-.82,4.34-2.04,8.57-4.93,12.57-.33.65-.66,1.38-1.12,1.97-.46.58-.91,1.16-1.33,1.69-.42.53-.79,1.02-1.09,1.41-.31.38-.53.71-.59.96l.83-.87.76-.96,1.52-1.93c.53-.62.92-1.41,1.39-2.1.43-.73.94-1.38,1.3-2.19-2.71,5.13-5.87,9.88-12.99,14.72.25-.26.88-.81,1.6-1.45.37-.3.76-.65,1.15-.97.38-.36.74-.71,1.06-1.03-1,.79-1.95,1.54-2.93,2.29-.95.8-1.97,1.47-3.09,2.09.1-.24.72-.74,1.67-1.42.92-.75,2.17-1.64,3.49-2.75,2.68-2.13,5.49-5.29,7.18-7.8-.96,1-2.62,3.31-4.06,4.71-.67.77-1.28,1.32-1.6,1.53-.3.23-.31.13.15-.46-2.65,3.54-7.77,6.13-13.47,9.52l.28-.55c-.46.25-1.16.64-1.96,1.09-.81.4-1.74.81-2.61,1.17,1.02-.61,2.04-1.13,3.03-1.8-4.7,2.57-9.51,3.24-14.3,4.52,2.55-.51,3.92-.96,4.68-1.1.76-.16.87-.12.81-.02-.13.18-.98.65,1.17.15-3.07,1.07-5.08,1.58-6.59,1.8-1.5.27-2.47.32-3.5.31-1.03,0-2.09.08-3.8.13-.85.04-1.86.09-3.1.21-1.24.06-2.72.13-4.51.23.97-.07,2.78-.11,3.99-.08,1.2,0,1.79.05.29.29-1.37.02-2.96.07-4.4.04-1.45-.08-2.79-.18-3.62-.29-9.5-.4,1.47.51-2.56.57-.82-.17-1.51-.26-2.17-.29-.65-.08-1.27-.1-1.92-.1-.33,0-.65,0-1,0h-.27s-.41-.01-.41-.01c-.28,0-.56-.03-.85-.03-.15,0-.29,0-.44-.02-.11.1-.2.29-.29.43-.2.3-.4.62-.6.96-.37.57-.62.91-.99,1.44l-.25-.29c-1.93,2.32-3.15,3.48-3.82,4.26-.68.79-.91,1.1-1.08,1.41-.39.57-.57,1.28-4.76,4.33,1.11-1.03,2.14-2.19,3.18-3.3l-2.06,1.82-2.12,1.69.7-1.11c-1.12.98-2.08,1.72-2.96,2.33-.87.64-1.65,1.17-2.47,1.61-.8.45-1.6.93-2.53,1.4-.93.43-1.97.91-3.22,1.49,1.25-.28-.4,1.18-4.97,2.85-1.6.38-1.18.12-1.18.06,0-.03-.1-.02-.61.13-.51.17-1.42.48-3.07.88,1.46-.6,2.96-1.51,5.89-2.03.25-.26,1.34-.86,1.6-1.12-1.68.54-3.78,1.23-5.76,1.87-2,.52-3.87,1.09-5.06,1.33.93-.15,2.02-.44,2.6-.5-.79.25-1.56.51-2.35.73l-2.39.57-2.39.57-2.42.4c-1.56-.02-.35-.28.84-.55-1.96.29-3.32.54-6.24.7.73-.43.54-.77,4.62-1.2-1.53.21-3.08.29-4.63.45-1.55.03-3.11.14-4.65.08-.31-.1-1.51-.33-2.48-.51-.97-.18-1.7-.44-1.1-.42-5.1-.82-12.73-1.46-19.22-5.01-.35-.1-1.06-.29-2.44-1.03-3.03-1.65-5.72-3.72-8.36-6.1-1.34-1.18-2.61-2.53-3.91-3.96-.46-.55-.92-1.12-1.39-1.67l-.9-1.06-.46-.54-.56.22c-.73.31-1.48.62-2.22.93-.43.19-.87.41-1.31.6-1.43.25-2.87.43-4.3.6-5.75,1.67,5.89-.5-3.74,2.22-3.44.86-4.13.71-4.25.51-.12-.21.33-.55-.9-.49-3.37.87-9.46,2.22-15.96.86,2.14.04,3.82.3,5.83.24l-.02-.2ZM121.12,82.46c.76.09,1.89.45,2.98.74,1.09.3,2.11.68,2.62,1.16-.9-.14-1.67-.28-2.53-.62-.86-.29-1.8-.85-3.07-1.3v.02ZM7.12,91.61c1.07-.18,2.75.03,4.64.37-1.37,0-2.93-.11-4.64-.37ZM30.3-26.61s-.08-.09-.12-.14c-2.21-3.64-1.43-2.34.12.14ZM33.6-22.56c.58-.13.6-.23.28-.3-.35.1-.41.16-.73.21-.13.01-.31.08-.45,0-.1-.19-.22-.38-.34-.58.02.18.1.41.25.69.06.23.23.09.4.11.17-.02.37-.06.6-.11v-.02ZM377.71,85.85c-.1.61-.3,1.16-.45,1.75.24-.99.37-1.67.41-2.14.06-.46.09-.66.11-.7.03-.09-.02.5-.07,1.11v-.02Z"/>
  <path class="cls-1" d="M20.01,91.05c.41.12.53.23.64.35.57-.14.57-.24-.64-.35Z"/>
  <path class="cls-1" d="M230.47,137.44l.22.11c.12.02.2.03.23,0l-.45-.12Z"/>
  <path class="cls-1" d="M109.57,79.01l-.31.17c.65.27,1.62.33,3.59.53l-3.27-.7h-.01Z"/>
  <path class="cls-1" d="M156.04,119.16c-.24-.21-.47-.45-.7-.68.34.62.72,1.19,1.12,1.75l-.42-1.09v.02Z"/>
  <path class="cls-1" d="M199.27,126.31c-.89.19-1.86.36-2.82.53-.97.17-1.94.37-2.85.41,1.95-.24,3.52-.37,4.54-.39,1.01-.1,1.45-.18,1.15-.54h-.01Z"/>
  <path class="cls-3" d="M904.21-75.33c-4.73-1.09-17.97-2.12-34.06,5.75-9.71,4.74-17.15,12.06-20.47,21.07-14.79-5.26-37.46-9.75-62.58-.4-11.05,4.1-24.86,9.52-32.49,26.47-3.49,7.74-4.57,15.45-4.92,20.73-4.57,9-5.28,16.48-5.38,20.4-.41,18.57,11.56,36.32,30.12,42.85-.87,1.58-10.9,20.93,5.34,39.06,12.94,14.45,37.14,22.1,60.56,18.92.91,1.41,13.64,20.34,41.13,24.07,21.46,2.9,42.92-4.68,53.54-19.13,18.14,7.72,39.94,6.89,54.82-2,9.71-5.81,12.18-16.62,16.29-23.35,28.11-45.95,102.39,15.31,175.75-18.25,39.79-18.21,81.37-65.28,78.29-101.7-2.71-32.15-39.94-52.89-69.89-52.17-42.3,1.04-70.16,44.95-74.27,51.61-8.03-.75-17.25-.83-27.42.43-19.81,2.46-36.47,9.18-48.94,15.76-4.94-7.82-29.9-45.58-68.27-43-11.12.75-20.67,4.7-28.09,8.99-2.71-5.77-15.1-30.53-39.08-36.09h.02Z"/>
  <path class="cls-1" d="M995.76,113.74c-.51.58-1,1.21-1.55,1.72.75-.77,1.2-1.34,1.55-1.72Z"/>
  <path class="cls-1" d="M1005.11,96.47l.42-.27c-.61.7-.88.98-.42.27Z"/>
  <path class="cls-1" d="M1129.58,91.24c.3-.05.61-.12.92-.19.74.21,1.44.4,2.06.57-.89-.11-1.91-.25-2.98-.38Z"/>
  <path class="cls-1" d="M1127.53,88.76l-4.08.26c.92-.11,2.23-.19,4.08-.26Z"/>
  <path class="cls-1" d="M916.9,135.56c-.81.2-1.59.48-2.41.62,3.63-1.62,2.07-.72,2.41-.62Z"/>
  <path class="cls-1" d="M1002.7,110.46c-.86,1.51-1.29,2.12-1.33,2.01.91-1.54,1.43-2.4,1.33-2.01Z"/>
  <path class="cls-1" d="M784.42,103.84c-.11-.08-.24-.17-.36-.27-1.57-1.53-.87-.89.36.27Z"/>
  <path class="cls-1" d="M1228.85,42.18c.09-.07.12-.1.2-.16-.07.09-.16.2-.22.28v-.1s.02-.01.02-.01Z"/>
  <path class="cls-1" d="M1222.85,47.79c2.85-1.81,4.23-3.36,5.98-5.51l-1.03,3.61c-1.66.66-3.29,1.31-4.95,1.9Z"/>
  <path class="cls-1" d="M961.96,126.89c1.65-.13,3.3-.42,4.94-.69-5.93-.23-10.17-.32-5.56-.83.3.75,5.08.81,9.83.02,4.76-.71,9.39-2.28,9.84-1.68,1.03-.53,2.08-.97,3.08-1.56-.87.44-1.05.38-1.92.73,2.97-1.58,4.09-1.89,5.48-2.3.69-.21,1.47-.38,2.44-.91,1.01-.48,2.24-1.39,3.83-3.04,2.13-2.43,3.23-4.67,1.85-2.89,1.51-1.86,2.86-4.04,4.14-6.41,1.03-2.18.61-1.75-.41.36.94-1.82,1.82-3.75,2.78-5.73.48-.98,1-1.98,1.54-2.99l.87-1.49.94-1.34-.08.04c.61-.67,1.52-1.88,2.52-2.96,1.04-.99,2.1-2.02,2.79-2.68,1.04-1.19.78-.9.25-.52-.47.48-1.14,1.2-.92.8.77-.87,1.65-1.5,2.5-2.18l1.28-1,.63-.5.68-.4c1-.9.39-.74-.94.02-.63.47-1.44,1.1-2.3,1.81-.43.37-.89.71-1.31,1.15-.41.46-.83.91-1.22,1.37.45-.77.85-1.43,1.24-1.95.42-.49.81-.9,1.19-1.26.77-.72,1.48-1.31,2.41-1.93.96-.53,2.09-1.17,3.65-2.17,1.61-.72,3.62-2.01,6.45-3.13-.89.29-1.8.55-2.68.87l-2.66,1.21c.79-.65,1.67-1.24,2.61-1.81.97-.48,1.99-.91,3.12-1.36,1.12-.52,2.33-.79,3.65-1.19.65-.2,1.34-.4,2.04-.61.71-.16,1.43-.33,2.2-.52-.36.11-1.3.4-2.41.75-1.11.43-2.39.94-3.42,1.38-1.03.41-1.8.98-1.94,1.18-.14.25.36.12,1.9-.17.85-.28,1.85-.56,3.05-.83,1.19-.29,2.59-.33,4.24-.44.02-.63,3.25-.86,7.24-.9l-.25-.79c4.32.18,3.94.64,6.43,1.12,4.77.16,5.78-.27,6.96-.73,7.58.72-5.31.4,3.6,1.57,6.29.45,10.62,1.49,17.94,3.22,4.37.45-.68-.64.91-.61l3.73,1.31c.95.15.67-.11.53-.25,3.19.8.15.88,5.18,1.96,1.25,1.18,10.59.35,16.74,2.21,1.58-.05-.69-.62-.17-.89,4.26.89,6.1,1.22,7.74,1.52,1.64.35,3.09.65,6.61,1.39,2.04-.04,4.08-.09,6.11-.25-4.51.47,1.12,1.57,6.13,2.22-1.61.35-2.99.59-3.92.68,2.67.28,5.35.34,8.04.52.97-.15.18-.45-1.13-.82.55.07,1.06.14,1.47.2,2.89-.48,1.4-.89-.63-1.33-.98.18-1.96.38-2.91.57-1.96-.52-3.77-1.13-3.33-1.65.51.12,1.51.19,2.61.24-.5-.14-.83-.27-.58-.36.28-.09,1.1.1,2.4.31l1.85-1.01.42.39c3.49-.37,6.97-.69,10.44-1.32,1.86.08,3.67.18,5.52.16,1.85-.02,3.74.09,5.78-.08,2.03-.17,4.21-.28,6.61-.7,1.21-.24,2.47-.48,3.8-.74.67-.15,1.35-.29,2.04-.44.71-.21,1.42-.42,2.16-.64-3,.25-.78-1.01-1.05-1.84-3.07,2.01-9.1,2.26-15.19,3.61,3.19-.74,2.46-1.05,1.64-1.01l5.45-.73,5.45-1.07c-.16-.33.39-.63,1.34-.98.94-.42,2.25-.9,3.63-1.54-.96,1.05,1.08.68,3.89-.28,2.8-1.08,6.4-2.52,8.56-3.41.09-.31-.16-.45-1.07-.2-.9.29-2.48.88-5.1,2.02,1.4-.89,2.58-1.4,3.66-1.77,1.06-.42,2.03-.66,3-.87,1.92-.5,3.88-.95,6.53-3.01-1.26.69-1.91,1.17-2.47,1.18,3.07-1.12,10.04-5.88,8.25-5.26-.4.27-.82.53-1.23.77,4.07-2.63,10.18-6.86,15.32-10.86,5.17-3.93,9.39-7.53,10.23-7.48,0-.21-1.62-.42-2.18-.23,5.02-2.86,10.02-6.08,14.93-9.74-1.62.33,1.3-6.52-4.78-.5,1.6-1.97,3.55-4.4,7.08-8.25-.97,1.48-1.93,4.58-.35,2.85,1.74-3.02,2.33-4.06,3.06-5.22.68-1.21,1.6-2.45,3.57-6.21-1.38,2.32,1.34,1.24,3.58-2.44-.51.38-.83-1.45-1.77-.28,2.23-2.52,4.33-5.25,6.38-8.09-1.49,2.18-1.11-.45-.42-2.86-.14.59.92-1.46,1.99-4.06,1.12-2.58,2.19-5.74,2.68-7.08-.37,1.5-.76,3.01-1.25,4.47.55-1.43.99-2.68,1.39-3.81.43-1.11.79-2.09,1.11-2.97.7-1.78,1.27-3.2,1.83-4.63.3-.72.5-1.46.77-2.25.24-.79.52-1.65.68-2.63.39-1.94.72-4.38.55-7.56-.11.81-.52,1.8-.96,1.79-.46,0-.84-.97-1.18-3.89.22-1.43.7-4.78.23-9.26-.45-4.43-1.95-9.87-4.66-14.36l-1.43-1.18c-1.41-2.21-2.93-4.31-4.54-6.26,1.25,2.26,3.64,6.48,5.54,11.35,1.98,4.81,3.2,10.29,3.65,14.05-.66-1.99-.96-2.13-1.17-2.61-.25-.48-.48-1.23-1.71-4.03-.65-.8-.37.04.06,1.31.2.65.45,1.4.71,2.07.2.7.4,1.36.53,1.79-.72-2.24-1.73-4.31-2.76-6.34-1.13-1.97-2.29-3.89-3.66-5.63.24-.09.04-.71-.42-1.59-.5-.84-1.19-2.01-1.99-3.06-.77-1.08-1.59-2.13-2.17-2.89-.58-.79-.91-1.36-.72-1.46,3.26,3.72,6.22,7.85,8.46,12.48.48-.08-.05-2.61-1.78-5.92-1.7-3.33-4.67-7.39-8.33-10.4-2.01-1.18.49,2.92.14,3.15-.36-.59-1.92-2.22-3.57-3.64-1.64-1.44-3.36-2.62-3.75-2.74.97.95,1.97,1.84,2.9,2.84-2.1-1.37-3.66-2.85-5.39-4.31-1.75-1.42-3.68-2.8-6.51-3.61-1.86-.91-5.95-1.12-6.1-1.88,3.38-.03,5.14-3.52,3.29-5.43-.36-.09-3.01-.88-5.87-1.48-2.88-.57-5.99-.97-7.18-.91-1.74.1-.6,1,.57,1.89,1.16.94,2.36,1.88.91,1.93-.05-.36-1.75-1.22-2.49-1.49-2.11-.22.7,1.09-3.76,0-.58-1.38-9.24-1.31-2-1.34-2.2-.55-3.4-.59-4.7-.64-1.29-.02-2.69-.03-5.33-.12.87-.36-.28-1.01-2.24-1.58-1.95-.47-4.76-.7-7.07-.67.28.28-.75.71-1.24.97-2.33.54-4.39,1.03-6.31,1.48-.97.18-1.86.61-2.76.91-.88.32-1.75.65-2.61.98-.86.33-1.72.64-2.58.97-.85.41-1.71.82-2.59,1.25-1.77.88-3.68,1.6-5.72,2.86-.7.68-4.58,3.18-2.76,2.66-1.24.44-2.38.84-4.86,2.46-4.47,4,5.51-3.53,2.21-.09-.24-.17-1.88.67-3.94,1.84-2.02,1.22-4.36,2.96-6.14,4.1.35-.81,2.31-2.39,4.62-4.05,2.35-1.56,5.09-3.02,6.9-3.99-.18-.67-1.88-.25-4.67.98-.69.31-1.46.65-2.27,1.08-.8.47-1.65,1-2.56,1.57-.9.59-1.85,1.21-2.84,1.86-.97.72-1.96,1.51-3,2.34-3.26,2.66-3.79,3.62-3.74,3.8.06.21.76-.19.19.27-1.42,1.45-2.69,2.62-3.74,3.71-1.06,1.09-1.97,2-2.79,2.78-1.64,1.55-2.81,2.73-3.96,3.76-2.25,2.17-4.28,4.14-8.16,10.36-2.78,5.26.65,1.2.24,2.61,4.34-5.9,6.37-9.49,9.55-13.21l-1.85,2.43-1.78,2.52c1.54-1.67,4.71-5.18,6.32-7.28-1.33,1.98-5.95,7.14-10.6,13.95-1.2,1.71-2.33,3.41-3.55,5.37l-.45.72c-.2.06-.44-.01-.65-.02l-1.33-.1c-.86-.06-1.7-.09-2.53-.15-3.34-.15-6.51-.11-9.16.07-1.85-.23-5.07-.33-3.54-.67h3.34c3.09-.68-6.27-.6-2.02-1.01-4.49-.23-9.57-.43-15.9.95l-1.16.96c.13-.27,4.12-1.12,5.91-1.12-2.67-.03-9.65,2.5-12.59,2.26,1.47-.53,2.93-.96,4.41-1.44-4.54.48-10.19,1.16-15.73,3.18,2.46-1.46,1.28-.35,5.18-2.31-1.67.99,1.9-.09,5.23-.87,3.32-.82,6.41-1.38,3.66-.27,4.05-1.85,7.08-1.81,12.48-3.35-.17.3-1.92.68,2.84.06.22.06.72.11,1.04.14.15-.02.2-.03.33-.05-.1.02-.17.03-.27.06.21.02.23.02-.09.02-1.14.22-2.05.44-2.42.62,2.35.28,9.88-.12,12.4.29,2.81-.13-1.16-.32.39-.61,1.26.16,2.52.34,3.77.56.42-.62,7.53-.7.94-1.37l2.99.13.92.06c.14-.02.33.1.45-.04-.14-.06,1.73-3.19,3.06-5.17,1.44-2.14,2.9-4.12,4.09-5.48,2.05-2.94,5.87-6.29,3.69-4.37,2.49-2.88,5.09-5.57,7.74-8.15v-.2c7.74-8,16.9-14.03,26.85-20.59,1.55-.62,3.12-1.28,4.96-2.02,1.81-.86,3.93-1.51,6.54-2.49l.95-.97c.51-.15,1.07-.32,1.68-.53.62-.15,1.28-.32,1.96-.48,1.37-.34,2.83-.72,4.21-1.06,1.39-.41,2.72-.55,3.79-.62,1.09-.09,1.93-.08,2.38.03.55-.28,1.29-.5,2.15-.71.44-.1.91-.21,1.4-.29.51-.05,1.03-.08,1.57-.14,2.21-.17,4.78-.02,7.42.25,5.28.62,10.75,2.1,14.24,2.98l.08.93c4.76,1.33,9.18,3.27,14.67,6.41l-.56.56c2.29,1.52,5.37,3.06,8.73,5.09,3.35,2.03,6.98,4.56,10.26,7.89-.31-.7-2.05-2.26-3.37-3.15,2.24,1.4,4.37,3.27,6.34,5.53,1.98,2.21,3.76,4.81,5.34,7.58,1.61,2.75,2.96,5.74,4.13,8.77,1.18,3.01,2.13,6.11,2.93,9.16.42,3.21.62,5.55.85,7.83-.01-.3-.01-.58-.01-.82.02.33.04.84.07,1.34.13,1.43.17,2.94.19,4.57-.07-1.39-.15-2.72-.18-3.85-.06,2.53-.27,6.41-1.1,10.01.11.56.23,1.14.32,1.72-.07.29-.13.52-.2.83-.58,3.64-.9,2.74-.91.74-.47,1.77-1.05,3.31-1.52,4.46.04.79-.13,1.74-.46,2.75-.32,1.02-.7,2.16-1.19,3.24-.47,1.1-.93,2.24-1.35,3.33-.43,1.07-.78,2.14-.95,3.17-.67.9-2.62,4.66-4.76,8.09-2.17,3.41-4.49,6.49-5.33,6.73.03.2-.44,1.04.53-.38-1.89,3.06-3.86,6.04-5.96,8.22l-.42,1.87c-1.77,1.7-3.6,3.26-5.4,4.81-2.69,3.82-3.81,5.47-.47,2.72-3.87,3.55-5.43,4.99-6.85,6.29-1.41,1.3-2.71,2.45-6.17,4.98l.56.23c-2.33,2.14-6.42,4.7-7.71,6.28-2.46,2.71-9.19,8.08-17.36,13.1-4.08,2.53-8.52,4.97-12.92,7.08-4.41,2.04-8.73,3.94-12.58,5.41,1.39-1.34-.39-.54-2.6.45-2.24.85-4.94,1.85-5.3,1.3-.87.64-3.02,1.44-.46,1.1-8.01,1.44-12.02,3.02-17.58,2.49-.91.47,1.72.41.91.73-.64-.03-2.55-.1-3.39.2-.82.3,1.18.22,2.45.27-4.11.39-6.35.12-7.64-.28-1.3-.38-1.63-.95-1.91-1.5-4.14.64-6.19.53-9.11-.25-1.44.3-3.85.6,1.17.9-.7,0-2.15-.02-3.9-.05-1.76-.02-3.84-.08-5.84-.24-4-.23-7.64-.79-7.75-1.21-.9.16-3.93-.36-4.65-.57-6.29-.74-6.84-.78-12.96-1.82l1.72.13c-2.28-1.4-5.07-1.03-9.98-2l.12.13c-11.4-1.22-4.83-1.22-16.07-2.25l.68-.51c-.87-1.49-9.97-.85-16.4-1.94l2.38-.12c-3.52-.8-10.08.85-13.59,1.17-.77.1,1.21.18,2.28.27-4.64.34-4.91.26-4.91-.08s.31-.77-3.15-.63c-1.26.55,1.61.84-2.95,1.54-.57.16-1.69.24-3.12.53-.72.11-1.52.24-2.38.37-.85.19-1.75.47-2.69.7-3.69,1.1-7.86,3.18-10.22,6.02,1.03-1.26,2.11-2.55-.68-.4-.26.22-.54.43-.81.72-.24.29-.51.6-.78.92-.53.65-1.1,1.3-1.68,2.01-.57.71-1.04,1.61-1.59,2.42-.5.85-1.1,1.64-1.54,2.52-1.81,3.51-3.46,7.7-5.21,10.08-.35.8-.46,1.14-.43,1.21-1.31,2.18-3.65,5.71-6.36,8.09-2.68,2.46-5.49,3.75-6.64,4.1-.74.94-2.62,2.05-5.01,3.03-1.2.48-2.52.97-3.9,1.31-1.38.41-2.8.69-4.2.95-5.6,1.07-10.7.9-10.68,1.79-4,.15-7.98-.03-11.92-.54l.29.2c-7.58-.94-10.1-2.32-12.6-3.48-1.71-.44-.51.11-.39.24-.67-.2-1.31-.39-1.91-.56-.6-.21-1.16-.42-1.68-.61-.32-.12-.61-.21-.89-.31l-.19-.07-.14.19c-.1.12-.18.25-.28.35-.27.34-.52.65-.76.96-.32.43-.66.76-.99,1.1-.65.68-1.27,1.32-1.87,1.91-2.52,2.19-4.95,4.02-9.47,6.24l-.81.98c-1.23.59-5.08,2.76-10.1,4.54-5.02,1.81-11.21,3.05-16.68,3.02.11.04.33.13,1.2.12-3.08.11-6.47.06-9.87-.08-1.7-.14-3.4-.22-5.08-.44-1.66-.26-3.32-.43-4.89-.76-1.57-.36-3.07-.69-4.48-1.08-1.39-.46-2.69-.9-3.84-1.33-2.28-1.04-4.06-1.92-4.96-2.88-2.46-1.34-4.87-2.82-7.18-4.53,4.66,2.85,4.41,2.36,3.43,1.61-.97-.8-2.61-1.99-.65-1-3.64-2.16-9.31-6.02-5.08-2.66l.71.42c.33.47-.23.26-1.22-.41-.5-.33-1.1-.75-1.77-1.23-.65-.53-1.35-1.11-2.08-1.7-2.86-2.4-5.58-5.53-5.62-5.19-.49-.55-.95-1.13-1.43-1.7l-.68-.89-.57-.76-.18-.27-.1-.13-.14.02-.55.06-1.93.2c-1.28.17-2.56.2-3.83.27l-1.92.1h-1.91c-5.08,0-10.1-.37-15.01-1.29-9.8-1.84-19.3-5.32-27.69-11.38.69.34,1.43.57,2.15.82-1-.62-1.96-1.32-2.92-2.07l-1.44-1.08-1.38-1.21c-1.49-1.19-2.16-1.29,1.85,2.08-.59-.31-1.27-.92-1.98-1.56-.71-.67-1.49-1.32-2.11-2.1-1.29-1.47-2.3-2.77-2.29-2.92-1.72-2.08-2.46-2.87-2.57-2.99-.14-.08.28.61.88,1.44.61.83,1.35,1.86,1.82,2.51.5.6.7.84.14.25-.97-1.17-1.9-2.4-2.84-3.6l.67.75c-.28-.38-.52-.72-.73-1.04-.19-.35-.37-.67-.54-.97-.34-.6-.64-1.17-1-1.81-.17-.32-.38-.64-.58-1.04-.19-.4-.4-.86-.64-1.37-.24-.51-.51-1.07-.82-1.72-.31-.63-.55-1.46-.89-2.33-.21-.55-.38-1.01-.52-1.37-.12-.38-.21-.69-.28-.93-.15-.47-.22-.67-.28-.78-.11-.23-.12-.1-.37-1.04,0,0-.06-.14-.17-.58-.07-.46-.18-1.24-.33-2.44-.48-3.95-.25-8.1.58-12.03-.1.81-.23,1.61-.3,2.4l-.14,2.4c.33-2.65.89-5.38,1.31-6.75.18-.7.33-1.05.31-.9-.03.16-.15.8-.4,2.13.15-.87.42-2.04.86-3.45.1-.36.23-.71.37-1.08.07-.18.14-.37.2-.56l.1-.29.07-.18c.18-.48.39-.99.64-1.47-.32-.17-.72-.29-1.1-.43-.25-.09-.5-.18-.75-.28-.31-.13-.64-.23-.97-.4-1.27-.67-2.64-1.21-3.95-2.04-.66-.4-1.33-.81-1.99-1.19-.66-.42-1.29-.92-1.93-1.37-1.31-.87-2.49-1.98-3.67-2.95-4.62-4.13-7.75-8.94-8.62-10.33-1.56-2.78-2.99-5.7-4.1-9.08-1.11-3.35-2.08-7.12-2.35-11.52.13,1.08.29,1.91.31,1.57.02-.18,0-.65-.07-1.56-.05-.9-.05-2.24-.07-4.12-.24,1.43-.42-2.13.41-6.71.41-2.29,1.07-4.79,1.82-7.01.74-2.24,1.58-4.2,2.15-5.6-.52,1.23-.24.66.48-.73.11-.22.12-.22.17-.37.02-.17.04-.35.06-.54.05-.51.11-1.07.17-1.65.12-1.17.3-2.44.5-3.68.81-4.98,2.24-9.32,1.23-5.16.77-3.06.82-3.13.73-3.08-.06.08-.23.31.48-1.97.62-1.75,1.32-3.5,2.16-5.21.43-.84.86-1.7,1.28-2.55.49-.82.96-1.63,1.46-2.47,2.04-3.24,4.47-6.21,7.21-8.74,5.48-5.1,12.02-8.39,18.62-10.9.21-.03-1.99.89.86-.13,2.31-.99,4.65-1.85,6.98-2.69,1.32-.45,1.94-.48,2.83-.71.89-.17,2.04-.59,4.48-1.14-.69.18-1.71.46.08.07,6.59-1.52,13.33-2.2,20.05-2.12,6.72.15,13.44.98,20.05,2.55,3.31.74,6.58,1.74,9.82,2.82l1.22.41.2.07c.07.04.07-.13.11-.17l.3-.75c.42-1.04.91-2.06,1.43-3.02,1.04-1.94,2.24-3.72,3.54-5.33,5.27-6.44,11.78-10.43,18.29-13.26-1.76.82-2.04.97-1.56.76.49-.23,1.75-.8,3.1-1.33-1.76.73.04.04-.29.22,3.66-1.52,7.37-2.69,11.11-3.5,1.03-.21,4.05-.71,6.96-.96,2.92-.25,5.71-.16,6.3-.06-1.18-.06-2.37-.08-3.57-.05,2.36.05.71.07-1.46.25-2.17.17-4.82.62-4.49.63-5.29.57-13.97,3.05-22.2,7.58-1.81,1.05,1.56-.84.6-.25-1.04.56-2.19,1.21-3.63,2.17-1.42.97-3.16,2.21-5.24,4.16l.48-.42c-2.96,2.68-5.26,5.51-7.04,8.49-.87,1.51-1.65,3.01-2.25,4.62l-.31.77c-.17.03-.48-.13-.59-.16l-.93-.31-1.84-.61c-4.96-1.5-10.16-2.94-17.86-3.87l1.15.05c-3.31-.39-4.01-.43-5.56-.51-1.9-.2.43-.07,2.8.17,2.37.25,4.77.61,3.06.28-2.2-.23-8.03-.9-13.75-.78-5.7.07-11.25.82-12.74,1.26-5.13.9,1.49-.43-3.63.56l-1.35.38-1.3.2c-3.34.87-5.01,1.5-5.13,1.57.81-.23,2.3-.64,3.17-.89-4.33,1.1-12.11,4.09-13.56,4.76,1.59-.69,3.2-1.32,4.82-1.95-6.85,2.56-14.54,5.73-21.14,11.68-3.27,2.98-6.2,6.63-8.49,10.74-2.3,4.1-3.97,8.59-5.04,13,.1-.46.17-.92.27-1.36-.91,3.34-1.29,5.77-1.55,7.69-.12.97-.21,1.81-.28,2.61-.04.4-.06.78-.08,1.14l-.04.6c-.03.26-.02.53-.16.73-.68,1.43-1.25,2.65-2,4.59-.72,1.91-1.6,4.42-2.36,8.12l.13-.54c-.35,1.46-.65,3.23-.84,5.13-.21,1.91-.13,3.97-.08,6.03.02-1.92.02-.11.3,1.46.22,1.61.43,3.03.22.59.06.92.2,1.72.34,2.45.13.73.24,1.39.34,1.99.29,1.15.52,2.04.7,2.76.39,1.41.66,2.07.81,2.64.17.53.25.99.57,1.78.15.4.34.9.6,1.56.24.69.6,1.48,1.11,2.48.37.56.72,1.13,1.1,1.65,1.52,2.54,1.42,3.1,5.59,7.9-3.35-4.03,2.82,2.75-.89-1.79,4.25,4.53,7.89,7.14,10.96,9.08,1.51,1.01,2.96,1.69,4.27,2.35.32.17.66.3.99.42.39.14.77.28,1.16.42.98.34,1.95.65,2.91.99l-.64,1.43c-1.07,1.97-1.26,2.35-1.16,1.95.12-.42.65-1.68,1.41-3.17-.97-.37-2.12-.82-3.27-1.26-.84-.29-1.65-.69-2.31-1.02-1.34-.66-2.12-1.02-1.27-.57-1.03-.41-.46-.01.81.7.63.33,1.42.85,2.32,1.19.87.39,2.14.87,3.07,1.3-.47.89-.88,1.76-1.2,2.54-.56,1.31-.85,2.31-1.17,3.56-.29,1.22-.55,2.51-.74,4.06-.13.77-.17,1.6-.24,2.51-.1.91-.06,1.88-.08,2.96-.04,1.08.13,2.21.18,3.5.09.63.2,1.27.31,1.95.05.34.1.69.16,1.05.09.34.17.69.27,1.04-.31-1.13-.26-1.24-.43-2.43.83,4.34,2.04,8.57,4.93,12.57.33.65.66,1.38,1.12,1.97.46.58.91,1.16,1.33,1.69.42.53.79,1.02,1.09,1.41.31.38.53.71.59.96l-.83-.87-.76-.96-1.52-1.93c-.53-.62-.92-1.41-1.39-2.1-.43-.73-.94-1.38-1.3-2.19,2.71,5.13,5.87,9.88,12.99,14.72-.25-.26-.88-.81-1.6-1.45-.37-.3-.76-.65-1.15-.97-.38-.36-.74-.71-1.06-1.03,1,.79,1.95,1.54,2.93,2.29.95.8,1.97,1.47,3.09,2.09-.1-.24-.72-.74-1.67-1.42-.92-.75-2.17-1.64-3.49-2.75-2.68-2.13-5.48-5.29-7.18-7.8.96,1,2.62,3.31,4.07,4.71.67.77,1.28,1.32,1.6,1.53.3.23.31.13-.15-.46,2.66,3.54,7.77,6.13,13.47,9.52l-.28-.55c.46.25,1.16.64,1.96,1.09.81.4,1.74.81,2.61,1.17-1.02-.61-2.04-1.13-3.03-1.8,4.7,2.57,9.51,3.24,14.3,4.52-2.55-.51-3.92-.96-4.68-1.1-.76-.16-.87-.12-.81-.02.13.18.98.65-1.17.15,3.07,1.07,5.08,1.58,6.59,1.8,1.5.27,2.47.32,3.5.31,1.03,0,2.09.08,3.8.13.85.04,1.86.09,3.1.21,1.24.06,2.72.13,4.51.23-.96-.07-2.78-.11-3.99-.08-1.2,0-1.79.05-.28.29,1.37.02,2.96.07,4.4.04,1.45-.08,2.79-.18,3.62-.29,9.5-.4-1.47.51,2.56.57.82-.17,1.51-.26,2.17-.29.65-.08,1.27-.1,1.92-.1.33,0,.66,0,1,0h.27s.41-.01.41-.01c.28,0,.56-.03.85-.03.15,0,.29,0,.44-.02.11.1.2.29.3.43.2.3.4.62.6.96.36.57.62.91.99,1.44l.25-.29c1.93,2.32,3.15,3.48,3.82,4.26.68.79.91,1.1,1.08,1.41.39.57.57,1.28,4.76,4.33-1.11-1.03-2.14-2.19-3.18-3.3l2.06,1.82,2.12,1.69-.7-1.11c1.12.98,2.08,1.72,2.96,2.33.87.64,1.65,1.17,2.47,1.61.8.45,1.6.93,2.53,1.4.93.43,1.97.91,3.22,1.49-1.25-.28.4,1.18,4.97,2.85,1.6.38,1.18.12,1.18.06,0-.03.1-.02.61.13.5.17,1.42.48,3.07.88-1.45-.6-2.96-1.51-5.88-2.03-.25-.26-1.34-.86-1.6-1.12,1.68.54,3.78,1.23,5.76,1.87,2,.52,3.87,1.09,5.06,1.33-.93-.15-2.02-.44-2.59-.5.79.25,1.56.51,2.35.73l2.39.57,2.39.57,2.42.4c1.56-.02.34-.28-.84-.55,1.96.29,3.32.54,6.24.7-.73-.43-.54-.77-4.62-1.2,1.53.21,3.08.29,4.63.45,1.55.03,3.11.14,4.65.08.31-.1,1.52-.33,2.48-.51.97-.18,1.7-.44,1.1-.42,5.1-.82,12.73-1.46,19.22-5.01.35-.1,1.06-.29,2.44-1.03,3.03-1.65,5.72-3.72,8.36-6.1,1.34-1.18,2.61-2.53,3.91-3.96.46-.55.92-1.12,1.39-1.67l.9-1.06.46-.54.56.22c.73.31,1.48.62,2.22.93.43.19.87.41,1.31.6,1.43.25,2.87.43,4.3.6,5.75,1.67-5.89-.5,3.74,2.22,3.45.86,4.13.71,4.25.51.12-.21-.33-.55.9-.49,3.37.87,9.46,2.22,15.96.86-2.14.04-3.82.3-5.83.24l.02-.2ZM1026.69,80.46c-.76.09-1.89.45-2.98.74-1.09.3-2.11.68-2.62,1.16.9-.14,1.67-.28,2.53-.62.86-.29,1.8-.85,3.07-1.3v.02ZM1140.69,89.61c-1.07-.18-2.75.03-4.64.37,1.37,0,2.93-.11,4.64-.37ZM1117.51-28.61s.08-.09.12-.14c2.22-3.64,1.44-2.34-.12.14ZM1114.21-24.56c-.58-.13-.59-.23-.28-.3.35.1.41.16.73.21.13.01.31.08.45,0,.1-.19.22-.38.34-.58-.02.18-.11.41-.26.69-.06.23-.22.09-.4.11-.16-.02-.37-.06-.59-.11v-.02ZM770.11,83.85c.09.61.3,1.16.45,1.75-.24-.99-.37-1.67-.41-2.14-.06-.46-.09-.66-.11-.7-.03-.09.02.5.07,1.11v-.02Z"/>
  <path class="cls-1" d="M1127.8,89.05c-.41.12-.53.23-.64.35-.57-.14-.57-.24.64-.35Z"/>
  <path class="cls-1" d="M917.34,135.44l-.22.11c-.12.02-.2.03-.23,0l.45-.12Z"/>
  <path class="cls-1" d="M1038.25,77.01l.31.17c-.65.27-1.63.33-3.59.53l3.26-.7h.02Z"/>
  <path class="cls-1" d="M991.78,117.16c.24-.21.47-.45.7-.68-.34.62-.72,1.19-1.12,1.75l.42-1.09v.02Z"/>
  <path class="cls-1" d="M948.54,124.31c.89.19,1.86.36,2.82.53.97.17,1.94.37,2.85.41-1.95-.24-3.52-.37-4.54-.39-1.01-.1-1.45-.18-1.15-.54h.01Z"/>
  <path class="cls-3" d="M1193.21-59.33c-4.73-1.09-17.97-2.12-34.07,5.75-9.71,4.74-17.15,12.06-20.46,21.07-14.8-5.26-37.46-9.75-62.59-.4-11.05,4.1-24.86,9.52-32.49,26.47-3.49,7.74-4.57,15.45-4.92,20.73-4.57,9-5.29,16.48-5.38,20.4-.41,18.57,11.56,36.32,30.12,42.85-.87,1.58-10.9,20.93,5.34,39.06,12.93,14.45,37.14,22.1,60.56,18.92.91,1.41,13.63,20.34,41.13,24.07,21.46,2.9,42.91-4.68,53.54-19.13,18.14,7.72,39.94,6.89,54.81-2,9.72-5.81,12.19-16.62,16.3-23.35,28.11-45.95,102.39,15.31,175.75-18.25,39.79-18.21,81.37-65.28,78.29-101.7-2.71-32.15-39.94-52.89-69.89-52.17-42.3,1.04-70.16,44.95-74.27,51.61-8.03-.75-17.25-.83-27.42.43-19.81,2.46-36.47,9.18-48.94,15.76-4.94-7.82-29.9-45.58-68.27-43-11.12.75-20.67,4.7-28.09,8.99-2.71-5.77-15.1-30.53-39.08-36.09h.03Z"/>
  <path class="cls-1" d="M1339.56,3.08c-.12.09-.24.16-.37.25-.03,0-.05-.02-.1-.03l.46-.2v-.02Z"/>
  <path class="cls-1" d="M1327.36,4.98c-.74-.91-1.58-1.95-2.45-3.04.75.85,2.27,2.62,2.45,3.04Z"/>
  <path class="cls-1" d="M1347.07,2.92c-.4-.29-5.47,1.23-9.67,3.6-4.25,1.66-1.77-.82,1.81-3.2.16.13.18.2,4.61-1.39-1.53.78-9.58,4.74-5.84,3.41,2.89-1.18,4.07-1.69,4.87-2.11.79-.42,1.21-.74,2.61-1.4-1.16.73.71.16,2.74-.35,2.02-.52,4.2-.96,3.62-.36-1.72.45-3.43.98-5.14,1.52-.07.14,1.8-.35.4.27h-.01Z"/>
  <path class="cls-1" d="M1330.94,7.35c-.57.27-1.32.66-1.4.67.86-.51,1.6-.95,2.4-1.42.94-.57,1.95-1.18,3.26-2,3.02-1.25,3.66-1.37,3.89-1.33-2.95,1.34-5.88,2.79-8.77,4.32l.62-.27v.02Z"/>
  <path class="cls-1" d="M1324.98,2.34c.4.83,1.34,2.29,1.9,3.3.55,1.02.75,1.55-.26.37-3.66-5.13-2.45-3.77-4.63-6.85,6.15,8.03-1.67-2.44,2.93,3.16-1.19-1.61-2.26-3.07-3.34-4.33,1.2,1.33,2.27,2.72,3.34,3.95-.06-.07-.11-.11-.15-.17l-.03-.04c-.3-.3-.4-.39-.09,0,.02.04.1.13.13.18.01.1.11.28.21.47,1.78,2.34.33.3-.21-.47-.01-.03-.05-.12-.05-.14h.03c.99,1.42,2,2.8,2.96,4.25.43.66,1.11,1.65,1.15,1.75l.27.46c.12-.02.27-.12.41-.17-.1.06-.19.11-.29.17-.05.01-.11.09-.14.07l-.11-.16c-.2-.29-.41-.61-.65-.97-.87-1.31-1.96-2.84-3.39-4.79v-.03Z"/>
  <path class="cls-1" d="M1340.33,2.51l-1.01-.02c1.4-.42,2.81-.79,4.22-1.16-1.07.39-2.14.76-3.2,1.17v.02Z"/>
  <path class="cls-1" d="M1284.76,129.74c-.51.58-1,1.21-1.55,1.72.75-.77,1.2-1.34,1.55-1.72Z"/>
  <path class="cls-1" d="M1294.11,112.47l.42-.27c-.61.7-.88.98-.42.27Z"/>
  <path class="cls-1" d="M1418.58,107.24c.3-.05.61-.12.92-.19.74.21,1.44.4,2.06.57-.89-.11-1.91-.25-2.98-.38Z"/>
  <path class="cls-1" d="M1416.53,104.76l-4.08.26c.92-.11,2.23-.19,4.08-.26Z"/>
  <path class="cls-1" d="M1205.9,151.56c-.81.2-1.59.48-2.4.62,3.63-1.62,2.06-.72,2.4-.62Z"/>
  <path class="cls-1" d="M1291.7,126.46c-.86,1.51-1.29,2.12-1.33,2.01.91-1.54,1.43-2.4,1.33-2.01Z"/>
  <path class="cls-1" d="M1073.42,119.84c-.11-.08-.23-.17-.36-.27-1.56-1.53-.86-.89.36.27Z"/>
  <path class="cls-1" d="M1511.85,63.79c2.85-1.81,4.23-3.36,5.98-5.51l-1.03,3.61c-1.66.66-3.29,1.31-4.95,1.9Z"/>
  <path class="cls-1" d="M1250.96,142.89c1.65-.13,3.3-.42,4.94-.69-5.93-.23-10.17-.32-5.56-.83.3.75,5.08.81,9.83.02,4.76-.71,9.4-2.28,9.84-1.68,1.03-.53,2.08-.97,3.08-1.56-.87.44-1.05.38-1.92.73,2.97-1.58,4.09-1.89,5.48-2.3.69-.21,1.48-.38,2.44-.91,1.01-.48,2.25-1.39,3.83-3.04,2.13-2.43,3.23-4.67,1.85-2.89,1.51-1.86,2.86-4.04,4.14-6.41,1.03-2.18.61-1.75-.41.36.94-1.82,1.82-3.75,2.78-5.73.48-.98,1-1.98,1.54-2.99l.87-1.49.94-1.34-.08.04c.61-.67,1.52-1.88,2.52-2.96,1.04-.99,2.1-2.02,2.79-2.68,1.04-1.19.78-.9.25-.52-.47.48-1.14,1.2-.92.8.77-.87,1.65-1.5,2.5-2.18l1.28-1,.63-.5.68-.4c1-.9.39-.74-.94.02-.63.47-1.44,1.1-2.3,1.81-.43.37-.89.71-1.31,1.15-.41.46-.83.91-1.22,1.37.45-.77.85-1.43,1.24-1.95.42-.49.81-.9,1.19-1.26.77-.72,1.48-1.31,2.41-1.93.96-.53,2.09-1.17,3.65-2.17,1.61-.72,3.62-2.01,6.45-3.13-.89.29-1.8.55-2.68.87l-2.66,1.21c.79-.65,1.67-1.24,2.61-1.81.97-.48,1.99-.91,3.12-1.36,1.12-.52,2.33-.79,3.65-1.19.65-.2,1.34-.4,2.04-.61.71-.16,1.43-.33,2.2-.52-.36.11-1.3.4-2.41.75-1.11.43-2.39.94-3.42,1.38-1.03.41-1.8.98-1.94,1.18-.14.25.36.12,1.9-.17.85-.28,1.85-.56,3.05-.83,1.19-.29,2.59-.33,4.24-.44.02-.63,3.25-.86,7.24-.9l-.25-.79c4.32.18,3.94.64,6.43,1.12,4.77.16,5.78-.27,6.96-.73,7.58.72-5.31.4,3.6,1.57,6.29.45,10.62,1.49,17.94,3.22,4.37.45-.68-.64.91-.61l3.73,1.31c.95.15.67-.11.53-.25,3.19.8.15.88,5.18,1.96,1.25,1.18,10.59.35,16.74,2.21,1.58-.05-.69-.62-.17-.89,4.26.89,6.1,1.22,7.74,1.52,1.64.35,3.09.65,6.61,1.39,2.04-.04,4.08-.09,6.11-.25-4.51.47,1.12,1.57,6.13,2.22-1.61.35-2.99.59-3.92.68,2.67.28,5.35.34,8.04.52.97-.15.18-.45-1.13-.82.55.07,1.06.14,1.47.2,2.89-.48,1.4-.89-.63-1.33-.98.18-1.96.38-2.91.57-1.96-.52-3.77-1.13-3.33-1.65.51.12,1.51.19,2.61.24-.5-.14-.83-.27-.58-.36.28-.09,1.1.1,2.4.31l1.85-1.01.42.39c3.49-.37,6.97-.69,10.44-1.32,1.86.08,3.67.18,5.52.16,1.85-.02,3.74.09,5.78-.08,2.03-.17,4.21-.28,6.61-.7,1.21-.24,2.47-.48,3.8-.74.67-.15,1.35-.29,2.04-.44.71-.21,1.42-.42,2.16-.64-3,.25-.78-1.01-1.05-1.84-3.07,2.01-9.1,2.26-15.19,3.61,3.19-.74,2.46-1.05,1.64-1.01l5.45-.73,5.45-1.07c-.16-.33.39-.63,1.34-.98.94-.42,2.25-.9,3.63-1.54-.96,1.05,1.08.68,3.89-.28,2.8-1.08,6.4-2.52,8.56-3.41.09-.31-.16-.45-1.07-.2-.9.29-2.48.88-5.1,2.02,1.4-.89,2.58-1.4,3.66-1.77,1.06-.42,2.03-.66,3-.87,1.92-.5,3.88-.95,6.53-3.01-1.26.69-1.91,1.17-2.47,1.18,3.07-1.12,10.04-5.88,8.25-5.26-.4.27-.82.53-1.23.77,4.07-2.63,10.18-6.86,15.32-10.86,5.17-3.93,9.39-7.53,10.23-7.48,0-.21-1.62-.42-2.18-.23,5.02-2.86,10.02-6.08,14.93-9.74-1.62.33,1.3-6.52-4.78-.5,1.6-1.97,3.55-4.4,7.08-8.25-.97,1.48-1.93,4.59-.35,2.85,1.74-3.02,2.33-4.06,3.06-5.22.68-1.21,1.6-2.45,3.57-6.22-1.38,2.32,1.34,1.24,3.58-2.44-.51.38-.83-1.45-1.77-.28,2.23-2.52,4.33-5.25,6.38-8.09-1.49,2.18-1.11-.45-.42-2.86-.14.58.92-1.46,1.99-4.06,1.12-2.58,2.19-5.74,2.68-7.07-.37,1.5-.76,3.01-1.25,4.47.55-1.43.99-2.68,1.39-3.81.43-1.11.79-2.09,1.11-2.97.7-1.78,1.27-3.2,1.83-4.63.3-.72.5-1.46.77-2.25.24-.79.52-1.65.68-2.63.39-1.94.72-4.38.55-7.56-.11.81-.52,1.8-.96,1.79-.46,0-.84-.97-1.18-3.89.22-1.43.7-4.78.23-9.26-.45-4.43-1.95-9.87-4.66-14.36l-1.43-1.18c-1.41-2.21-2.93-4.31-4.54-6.26,1.25,2.26,3.64,6.48,5.54,11.35,1.98,4.81,3.2,10.29,3.65,14.05-.66-1.99-.96-2.13-1.17-2.61-.25-.48-.48-1.23-1.71-4.03-.65-.8-.37.04.06,1.31.2.65.45,1.4.71,2.07.2.71.4,1.36.53,1.79-.72-2.24-1.73-4.31-2.76-6.34-1.13-1.97-2.29-3.89-3.66-5.63.24-.09.04-.71-.42-1.59-.5-.84-1.19-2.01-1.99-3.06-.77-1.08-1.59-2.13-2.17-2.89-.58-.79-.91-1.36-.72-1.46,3.26,3.72,6.22,7.85,8.46,12.48.48-.08-.05-2.61-1.78-5.92-1.7-3.33-4.67-7.39-8.33-10.4-2.01-1.18.49,2.92.14,3.15-.36-.59-1.92-2.22-3.57-3.64-1.64-1.44-3.36-2.62-3.75-2.74.97.95,1.97,1.84,2.9,2.84-2.1-1.37-3.66-2.85-5.39-4.31-1.75-1.42-3.68-2.8-6.51-3.61-1.86-.91-5.95-1.12-6.1-1.88,3.38-.03,5.14-3.52,3.29-5.43-.36-.09-3.01-.88-5.87-1.48-2.88-.57-5.99-.97-7.18-.91-1.74.1-.6,1,.57,1.89,1.16.94,2.36,1.88.91,1.93-.05-.36-1.75-1.22-2.49-1.49-2.11-.22.7,1.09-3.76,0-.58-1.38-9.24-1.31-2-1.34-2.2-.55-3.4-.59-4.7-.64-1.29-.02-2.69-.03-5.33-.12.87-.36-.28-1.01-2.24-1.58-1.95-.47-4.76-.7-7.07-.67.28.28-.75.71-1.24.97-2.33.54-4.39,1.03-6.31,1.48-.97.18-1.86.61-2.76.91-.88.32-1.75.65-2.61.98-.86.33-1.72.64-2.58.97-.85.41-1.71.82-2.59,1.25-1.77.88-3.68,1.6-5.72,2.86-.7.68-4.58,3.18-2.76,2.66-1.24.44-2.38.84-4.86,2.46-4.47,4,5.51-3.53,2.21-.09-.24-.17-1.88.67-3.94,1.84-2.02,1.22-4.36,2.96-6.14,4.1.35-.81,2.31-2.39,4.62-4.05,2.35-1.56,5.09-3.02,6.9-3.98-.18-.67-1.88-.25-4.67.98-.69.31-1.46.65-2.27,1.08-.8.47-1.65,1-2.56,1.57-.9.59-1.85,1.21-2.84,1.86-.97.72-1.96,1.51-3,2.34-3.26,2.66-3.79,3.62-3.74,3.8.06.21.76-.19.19.27-1.42,1.45-2.69,2.62-3.74,3.71-1.06,1.09-1.97,2-2.79,2.78-1.64,1.55-2.81,2.73-3.96,3.76-2.25,2.17-4.28,4.14-8.16,10.36-2.78,5.26.65,1.2.24,2.61,4.34-5.9,6.37-9.49,9.55-13.21l-1.85,2.43-1.78,2.52c1.54-1.67,4.71-5.18,6.32-7.28-1.33,1.98-5.95,7.14-10.6,13.95-1.2,1.71-2.33,3.41-3.55,5.37l-.45.72c-.2.06-.44-.01-.65-.02l-1.33-.1c-.86-.06-1.7-.09-2.53-.15-3.34-.15-6.51-.11-9.16.07-1.85-.23-5.07-.33-3.54-.67h3.34c3.09-.68-6.27-.6-2.02-1.01-4.49-.23-9.57-.43-15.9.95l-1.16.96c.13-.27,4.12-1.12,5.91-1.12-2.67-.03-9.65,2.5-12.59,2.26,1.47-.53,2.93-.96,4.41-1.44-4.54.48-10.19,1.16-15.73,3.18,2.46-1.46,1.28-.35,5.18-2.31-1.67.99,1.9-.09,5.23-.87,3.32-.82,6.41-1.38,3.66-.27,4.05-1.85,7.08-1.81,12.48-3.35-.17.3-1.92.68,2.84.06.22.06.72.11,1.04.14.15-.02.2-.03.33-.05-.1.02-.17.03-.27.06.21.02.23.02-.09.02-1.14.21-2.05.44-2.42.62,2.35.28,9.88-.12,12.4.29,2.81-.13-1.16-.32.39-.61,1.26.16,2.52.34,3.77.56.42-.62,7.53-.7.94-1.37l2.99.13.92.06c.14-.02.33.1.45-.04-.14-.06,1.73-3.19,3.06-5.17,1.44-2.14,2.9-4.12,4.09-5.48,2.05-2.94,5.87-6.29,3.69-4.37,2.49-2.88,5.09-5.57,7.74-8.15v-.2c7.74-8,16.9-14.03,26.85-20.59,1.55-.62,3.12-1.28,4.96-2.02,1.81-.86,3.93-1.51,6.54-2.49l.95-.97c.51-.15,1.07-.32,1.68-.53.62-.15,1.28-.32,1.96-.48,1.37-.34,2.83-.72,4.21-1.06,1.39-.41,2.72-.55,3.79-.62,1.09-.09,1.93-.08,2.38.03.55-.28,1.29-.5,2.15-.71.44-.1.91-.21,1.4-.29.51-.05,1.03-.08,1.57-.14,2.21-.17,4.78-.02,7.42.25,5.28.62,10.75,2.1,14.24,2.98l.08.93c4.76,1.33,9.18,3.27,14.67,6.41l-.56.56c2.29,1.52,5.37,3.06,8.73,5.09,3.35,2.03,6.98,4.56,10.26,7.89-.31-.7-2.05-2.26-3.37-3.15,2.24,1.4,4.37,3.27,6.34,5.53,1.98,2.21,3.76,4.81,5.34,7.58,1.61,2.75,2.96,5.74,4.13,8.77,1.18,3.01,2.13,6.11,2.93,9.16.42,3.21.62,5.55.85,7.83-.01-.3-.01-.58-.01-.82.02.33.04.84.07,1.34.13,1.43.17,2.94.19,4.57-.07-1.39-.15-2.72-.18-3.85-.06,2.53-.27,6.41-1.1,10.01.11.56.23,1.14.32,1.72-.07.29-.13.52-.2.83-.58,3.64-.9,2.74-.91.74-.47,1.77-1.05,3.31-1.52,4.46.04.79-.13,1.74-.46,2.75-.32,1.02-.7,2.16-1.19,3.24-.47,1.1-.93,2.24-1.35,3.33-.43,1.07-.78,2.14-.95,3.17-.67.9-2.62,4.66-4.76,8.09-2.17,3.41-4.49,6.49-5.33,6.73.03.2-.44,1.04.53-.38-1.89,3.06-3.86,6.04-5.96,8.22l-.42,1.87c-1.77,1.7-3.6,3.26-5.4,4.81-2.69,3.82-3.81,5.47-.47,2.72-3.87,3.55-5.43,4.99-6.85,6.29-1.41,1.3-2.71,2.45-6.17,4.98l.56.23c-2.33,2.14-6.42,4.7-7.71,6.28-2.46,2.71-9.19,8.08-17.36,13.1-4.08,2.53-8.52,4.97-12.92,7.08-4.41,2.04-8.73,3.94-12.58,5.41,1.39-1.34-.39-.54-2.6.45-2.24.85-4.94,1.85-5.3,1.3-.87.64-3.02,1.44-.46,1.1-8.01,1.44-12.02,3.02-17.58,2.49-.91.47,1.72.41.91.73-.64-.03-2.55-.1-3.39.2-.82.3,1.18.22,2.45.27-4.11.39-6.35.12-7.64-.28-1.3-.38-1.63-.95-1.91-1.5-4.14.64-6.19.53-9.11-.25-1.44.3-3.85.6,1.17.9-.7,0-2.15-.02-3.9-.05-1.76-.02-3.84-.08-5.84-.24-4-.23-7.64-.79-7.75-1.21-.9.16-3.93-.36-4.65-.57-6.29-.74-6.84-.78-12.96-1.82l1.72.13c-2.28-1.4-5.07-1.03-9.98-2l.12.13c-11.4-1.22-4.83-1.22-16.07-2.25l.68-.51c-.87-1.49-9.97-.85-16.4-1.94l2.38-.12c-3.52-.8-10.08.85-13.59,1.17-.77.1,1.21.18,2.28.27-4.64.34-4.91.26-4.91-.08s.31-.77-3.15-.63c-1.26.55,1.61.84-2.95,1.54-.57.16-1.69.24-3.12.53-.72.11-1.52.24-2.38.37-.85.19-1.75.47-2.69.7-3.69,1.1-7.86,3.18-10.22,6.02,1.03-1.26,2.11-2.55-.68-.4-.26.22-.54.43-.81.72-.24.29-.51.6-.78.92-.53.65-1.1,1.3-1.68,2.01-.57.71-1.04,1.61-1.59,2.42-.5.85-1.1,1.64-1.54,2.52-1.81,3.51-3.46,7.7-5.21,10.08-.35.8-.46,1.14-.43,1.21-1.31,2.18-3.65,5.71-6.37,8.09-2.68,2.46-5.49,3.75-6.64,4.1-.74.94-2.62,2.05-5.01,3.03-1.21.48-2.52.97-3.9,1.31-1.38.41-2.81.69-4.21.95-5.6,1.07-10.69.9-10.68,1.79-3.99.15-7.97-.03-11.91-.54l.29.2c-7.58-.94-10.1-2.32-12.59-3.48-1.72-.44-.51.11-.39.24-.67-.2-1.31-.39-1.91-.56-.6-.21-1.16-.42-1.69-.61-.31-.12-.61-.21-.89-.31l-.19-.07-.14.19c-.09.12-.18.25-.28.35-.26.34-.51.65-.75.96-.32.43-.66.76-.99,1.1-.65.68-1.27,1.32-1.87,1.91-2.53,2.19-4.95,4.02-9.47,6.24l-.8.98c-1.23.59-5.09,2.76-10.11,4.54-5.02,1.81-11.21,3.05-16.68,3.02.11.04.33.13,1.2.12-3.08.11-6.46.06-9.86-.08-1.7-.14-3.4-.22-5.08-.44-1.66-.26-3.32-.43-4.89-.76-1.56-.36-3.07-.69-4.48-1.08-1.38-.46-2.68-.9-3.84-1.33-2.29-1.04-4.06-1.92-4.96-2.88-2.46-1.34-4.87-2.82-7.18-4.53,4.66,2.85,4.41,2.36,3.43,1.61-.97-.8-2.61-1.99-.65-1-3.64-2.16-9.31-6.02-5.08-2.66l.71.42c.33.47-.23.26-1.22-.41-.5-.33-1.1-.75-1.77-1.23-.65-.53-1.35-1.11-2.08-1.7-2.86-2.4-5.58-5.53-5.62-5.19-.48-.55-.95-1.13-1.42-1.7l-.69-.89-.56-.76-.18-.27-.1-.13-.13.02-.55.06-1.93.2c-1.28.17-2.56.2-3.83.27l-1.92.1h-1.9c-5.08,0-10.11-.37-15.01-1.29-9.81-1.84-19.3-5.32-27.7-11.38.7.34,1.44.57,2.15.82-1-.62-1.96-1.32-2.92-2.07l-1.44-1.08-1.38-1.21c-1.49-1.19-2.16-1.29,1.85,2.08-.59-.31-1.26-.92-1.97-1.56-.71-.67-1.49-1.32-2.12-2.1-1.29-1.47-2.3-2.77-2.29-2.92-1.72-2.08-2.46-2.87-2.57-2.99-.14-.08.28.61.88,1.44.61.83,1.35,1.86,1.82,2.51.49.6.7.84.14.25-.97-1.17-1.9-2.4-2.84-3.6l.67.75c-.27-.38-.52-.72-.73-1.04-.19-.35-.36-.67-.54-.97-.34-.6-.64-1.17-1-1.81-.17-.32-.38-.64-.59-1.04-.18-.4-.39-.86-.63-1.37-.24-.51-.51-1.07-.82-1.72-.31-.63-.55-1.46-.88-2.33-.21-.55-.39-1.01-.53-1.37-.12-.38-.21-.69-.28-.93-.15-.47-.22-.67-.28-.78-.11-.23-.13-.1-.37-1.04,0,0-.06-.14-.17-.58-.07-.46-.17-1.24-.33-2.44-.47-3.95-.25-8.1.58-12.03-.09.81-.22,1.61-.29,2.4l-.14,2.4c.32-2.65.88-5.38,1.3-6.75.19-.7.33-1.05.32-.9-.03.16-.15.8-.41,2.13.15-.87.42-2.04.86-3.45.1-.36.23-.71.37-1.08.06-.18.13-.37.2-.56l.1-.29.07-.18c.18-.48.4-.99.64-1.47-.32-.17-.72-.29-1.1-.43-.24-.09-.5-.18-.75-.28-.31-.13-.64-.23-.96-.4-1.27-.67-2.65-1.21-3.95-2.04-.67-.4-1.33-.81-1.99-1.19-.66-.42-1.29-.92-1.94-1.37-1.3-.87-2.49-1.98-3.66-2.95-4.62-4.13-7.76-8.94-8.62-10.33-1.56-2.78-2.99-5.7-4.09-9.08-1.11-3.35-2.08-7.12-2.35-11.52.13,1.08.28,1.91.31,1.57.02-.18-.01-.65-.07-1.56-.05-.9-.05-2.24-.07-4.12-.25,1.43-.42-2.13.41-6.71.4-2.29,1.07-4.79,1.82-7.01.74-2.24,1.58-4.21,2.15-5.6-.52,1.23-.24.66.47-.73.11-.22.12-.22.18-.37.01-.17.03-.35.05-.54.06-.51.11-1.07.17-1.65.13-1.17.31-2.44.51-3.68.81-4.98,2.24-9.32,1.23-5.16.76-3.06.82-3.13.73-3.08-.06.08-.23.31.48-1.97.62-1.75,1.33-3.5,2.16-5.21.43-.84.86-1.7,1.29-2.55.48-.82.95-1.63,1.45-2.47,2.04-3.24,4.47-6.21,7.21-8.74,5.49-5.1,12.02-8.39,18.63-10.9.2-.03-1.99.89.86-.13,2.31-.99,4.65-1.85,6.98-2.69,1.32-.45,1.95-.48,2.83-.71.89-.17,2.04-.59,4.48-1.14-.69.18-1.71.46.08.07,6.59-1.52,13.33-2.2,20.05-2.12,6.72.15,13.44.98,20.05,2.55,3.31.74,6.58,1.74,9.82,2.82l1.22.41.2.07c.07.04.07-.13.11-.17l.3-.75c.43-1.04.91-2.06,1.43-3.02,1.04-1.94,2.25-3.72,3.54-5.33,5.28-6.44,11.79-10.43,18.3-13.26-1.76.82-2.04.97-1.56.75.48-.23,1.75-.8,3.1-1.33-1.76.73.04.04-.29.22,3.66-1.52,7.37-2.69,11.11-3.5,1.03-.21,4.05-.71,6.96-.96,2.92-.25,5.71-.16,6.3-.06-1.19-.06-2.37-.08-3.57-.05,2.37.05.71.07-1.45.25-2.17.17-4.83.62-4.49.63-5.29.57-13.97,3.05-22.2,7.58-1.81,1.05,1.56-.84.6-.25-1.04.56-2.19,1.21-3.63,2.17-1.42.97-3.15,2.21-5.24,4.16l.48-.42c-2.96,2.68-5.26,5.51-7.04,8.49-.87,1.51-1.65,3.01-2.25,4.62l-.31.77c-.17.03-.49-.13-.59-.16l-.93-.31-1.84-.61c-4.96-1.5-10.16-2.94-17.86-3.87l1.15.05c-3.32-.39-4.02-.43-5.56-.51-1.9-.2.43-.07,2.8.17,2.36.25,4.77.61,3.05.28-2.2-.23-8.03-.9-13.75-.78-5.7.07-11.24.82-12.73,1.26-5.14.9,1.49-.43-3.63.56l-1.35.38-1.3.2c-3.34.87-5.01,1.5-5.13,1.57.81-.23,2.3-.64,3.17-.89-4.33,1.1-12.11,4.09-13.57,4.76,1.59-.69,3.2-1.32,4.82-1.95-6.85,2.56-14.53,5.73-21.14,11.68-3.27,2.98-6.2,6.63-8.49,10.74-2.29,4.1-3.96,8.59-5.04,13,.1-.46.17-.92.27-1.36-.9,3.34-1.29,5.77-1.55,7.69-.12.97-.21,1.81-.28,2.61-.04.4-.06.78-.08,1.14l-.04.6c-.03.26-.02.53-.16.73-.69,1.43-1.25,2.65-2,4.59-.72,1.91-1.6,4.42-2.36,8.12l.13-.54c-.35,1.47-.65,3.23-.84,5.13-.21,1.91-.13,3.97-.08,6.03.02-1.92.02-.11.3,1.46.22,1.61.42,3.03.22.59.06.92.19,1.72.34,2.45.13.73.24,1.39.34,1.99.29,1.15.51,2.04.69,2.76.39,1.41.66,2.07.81,2.63.17.54.25.99.57,1.78.15.4.34.9.6,1.56.24.69.6,1.48,1.11,2.48.37.55.72,1.13,1.11,1.65,1.52,2.54,1.41,3.1,5.59,7.9-3.35-4.03,2.82,2.75-.9-1.79,4.26,4.53,7.89,7.14,10.96,9.08,1.51,1.01,2.96,1.69,4.27,2.35.33.17.66.3.99.42.39.14.77.28,1.16.42.99.34,1.95.65,2.91.99l-.63,1.43c-1.07,1.97-1.27,2.35-1.17,1.95.12-.42.65-1.68,1.41-3.17-.97-.37-2.12-.82-3.27-1.26-.84-.29-1.65-.69-2.31-1.02-1.34-.66-2.11-1.02-1.26-.57-1.03-.41-.46-.01.81.7.64.33,1.42.85,2.32,1.19.87.39,2.14.87,3.07,1.3-.47.89-.87,1.76-1.2,2.54-.56,1.31-.85,2.31-1.17,3.56-.29,1.22-.55,2.51-.74,4.06-.13.77-.17,1.6-.24,2.51-.09.91-.06,1.88-.07,2.96-.04,1.08.13,2.21.18,3.5.09.63.2,1.27.31,1.95.05.34.1.69.16,1.05.08.34.17.69.26,1.04-.3-1.13-.26-1.24-.42-2.43.82,4.34,2.03,8.57,4.93,12.57.33.65.66,1.38,1.12,1.97.46.58.91,1.16,1.33,1.69.42.53.79,1.02,1.09,1.41.31.38.54.71.59.96l-.83-.87-.76-.96-1.53-1.93c-.53-.62-.92-1.41-1.38-2.1-.43-.73-.94-1.38-1.3-2.19,2.71,5.13,5.87,9.88,12.99,14.72-.25-.26-.88-.81-1.6-1.45-.37-.3-.76-.65-1.15-.97-.37-.36-.74-.71-1.06-1.03,1,.79,1.96,1.54,2.93,2.29.95.8,1.98,1.47,3.09,2.09-.1-.24-.72-.74-1.67-1.42-.92-.75-2.18-1.64-3.49-2.75-2.68-2.13-5.49-5.29-7.18-7.8.96,1,2.62,3.31,4.06,4.71.67.77,1.28,1.32,1.6,1.53.31.23.32.13-.14-.46,2.65,3.54,7.76,6.13,13.47,9.52l-.28-.55c.46.25,1.16.64,1.96,1.09.81.4,1.74.81,2.61,1.17-1.02-.61-2.04-1.13-3.03-1.8,4.7,2.57,9.51,3.24,14.3,4.52-2.55-.51-3.92-.96-4.69-1.1-.76-.16-.87-.12-.81-.02.13.18.98.65-1.17.15,3.07,1.07,5.09,1.58,6.59,1.8,1.5.27,2.47.32,3.5.31,1.04,0,2.1.08,3.8.13.85.04,1.86.09,3.1.21,1.25.06,2.72.13,4.51.23-.97-.07-2.78-.11-3.99-.08-1.2,0-1.79.05-.28.29,1.37.02,2.95.07,4.4.04,1.45-.08,2.79-.18,3.62-.29,9.51-.4-1.47.51,2.57.57.82-.17,1.51-.26,2.17-.29.65-.08,1.27-.1,1.91-.1.33,0,.66,0,1,0h.27s.41-.01.41-.01c.28,0,.56-.03.85-.03.15,0,.29,0,.44-.02.11.1.2.29.3.43.2.3.39.62.6.96.37.57.62.91.99,1.44l.25-.29c1.94,2.32,3.15,3.48,3.82,4.26.68.79.91,1.1,1.08,1.41.39.57.57,1.28,4.76,4.33-1.11-1.03-2.14-2.19-3.18-3.3l2.06,1.82,2.12,1.69-.7-1.11c1.13.98,2.08,1.72,2.97,2.33.86.64,1.65,1.17,2.46,1.61.81.45,1.61.93,2.53,1.4.93.43,1.97.91,3.22,1.49-1.25-.28.4,1.18,4.97,2.85,1.6.38,1.18.12,1.19.06,0-.03.1-.02.6.13.51.17,1.42.48,3.07.88-1.46-.6-2.96-1.51-5.89-2.03-.25-.26-1.34-.86-1.59-1.12,1.68.54,3.78,1.23,5.76,1.87,1.99.52,3.87,1.09,5.05,1.33-.93-.15-2.01-.44-2.59-.5.79.25,1.56.51,2.35.73l2.4.57,2.39.57,2.42.4c1.56-.02.35-.28-.84-.55,1.97.29,3.32.54,6.25.7-.74-.43-.54-.77-4.63-1.2,1.53.21,3.08.29,4.63.45,1.55.03,3.11.14,4.66.08.31-.1,1.51-.33,2.48-.51.96-.18,1.69-.44,1.1-.42,5.1-.82,12.73-1.46,19.22-5.01.35-.1,1.06-.29,2.44-1.03,3.02-1.65,5.72-3.72,8.35-6.1,1.34-1.18,2.61-2.53,3.91-3.96.46-.55.92-1.12,1.39-1.67l.9-1.06.46-.54.56.22c.73.31,1.48.62,2.22.93.43.19.87.41,1.31.6,1.43.25,2.87.43,4.3.6,5.75,1.67-5.89-.5,3.74,2.22,3.44.86,4.12.71,4.24.51.12-.21-.33-.55.9-.49,3.37.87,9.46,2.22,15.97.86-2.14.04-3.82.3-5.83.24l.02-.2ZM1315.69,96.46c-.76.09-1.89.45-2.98.74-1.09.3-2.11.68-2.62,1.16.9-.14,1.67-.28,2.53-.62.86-.29,1.8-.85,3.07-1.3v.02ZM1429.69,105.61c-1.07-.18-2.75.03-4.64.37,1.37,0,2.93-.11,4.64-.37ZM1406.51-12.61s.08-.09.12-.14c2.22-3.64,1.44-2.34-.12.14ZM1403.21-8.56c-.58-.13-.59-.23-.28-.3.35.1.41.16.73.21.13.01.31.08.45,0,.1-.19.22-.38.34-.58-.02.18-.11.41-.26.69-.06.23-.22.09-.4.11-.16-.02-.37-.06-.59-.11v-.02ZM1059.11,99.85c.09.61.3,1.16.45,1.75-.24-.99-.37-1.67-.41-2.14-.06-.46-.09-.66-.11-.7-.03-.09.02.5.07,1.11v-.02Z"/>
  <path class="cls-1" d="M1416.8,105.05c-.41.12-.53.23-.64.35-.57-.14-.57-.24.64-.35Z"/>
  <path class="cls-1" d="M1206.34,151.44l-.22.11c-.12.02-.19.03-.23,0l.45-.12Z"/>
  <path class="cls-1" d="M1330.23,9.99c-.31.13-.63.3-.95.47-.3.1-.69.55-.83,0l.16-.07.07.12s.08-.03.12-.04l.21-.11c.14-.07.28-.14.43-.21.28-.14.53-.26.76-.37.49-.23.88-.41,1.11-.49.45-.15.24,0-1.07.72v-.03Z"/>
  <path class="cls-1" d="M1327.25,93.01l.31.17c-.65.27-1.63.33-3.59.53l3.26-.7h.02Z"/>
  <path class="cls-1" d="M1280.77,133.16c.24-.21.48-.45.71-.68-.35.62-.72,1.19-1.12,1.75l.42-1.09v.02Z"/>
  <path class="cls-1" d="M1237.54,140.31c.89.19,1.86.36,2.82.53.97.17,1.95.37,2.85.41-1.95-.24-3.52-.37-4.54-.39-1.01-.1-1.45-.18-1.14-.54h.01Z"/>
  <path class="cls-2" d="M1362,11.32c.15,0,.32,0,.45.01.04.04-.15,0-.45-.01Z"/>
  <path class="cls-2" d="M1307.94,89.66c.03-.09.08-.18.12-.27.86-1.06.52-.57-.12.27Z"/>
  <path class="cls-2" d="M7,8.32c.14,0,.32,0,.45.01.04.04-.16,0-.45-.01Z"/>
  <path class="cls-2" d="M184.55,98.02s.03.07.04.11c-.23-.36-.18-.29-.04-.11Z"/>
</svg>