<svg width="199" height="207" viewBox="0 0 199 207" fill="none" xmlns="http://www.w3.org/2000/svg">
<path d="M75.3949 -50.9662C95.3766 -50.5427 112.805 -34.6083 116.381 -12.9365C133.021 -23.1462 153.933 -19.7633 166.364 -5.31931C177.582 7.71665 179.886 27.4311 171.917 43.693C173.494 44.6136 192.254 55.9565 194.129 78.3351C195.727 97.3786 184.409 116.255 166.041 123.971C166.585 125.914 172.762 149.558 158.095 168.42C146.403 183.451 126.361 189.159 107.974 182.45C107.117 183.961 95.1702 204.201 72.8777 204.947C55.4748 205.529 39.0754 193.99 31.9533 175.925C16.7425 182.498 -0.574677 178.721 -11.6026 166.522C-21.3528 155.737 -24.804 139.896 -20.7201 125.202C-36.214 119.685 -46.7713 104.314 -46.9665 87.1089C-47.1714 69.2525 -36.1598 53.1446 -19.9585 47.765C-30.5814 32.5297 -30.9226 12.1857 -21.3569 -1.858C-9.86624 -18.7263 13.9624 -23.6206 32.4308 -11.0179C35.339 -34.2402 54.1593 -51.4152 75.3895 -50.9663L75.3949 -50.9662Z" fill="#E1F9FF"/>
<path d="M130.224 184.014L131.598 183.76C130.948 183.879 130.53 183.96 130.224 184.014Z" fill="#725941"/>
<path d="M120.157 184.107L119.905 184.155C120.377 184.155 120.57 184.14 120.157 184.107Z" fill="#725941"/>
<path d="M46.0603 194.548C45.9279 194.387 45.7956 194.22 45.6632 194.058C45.2047 193.807 44.7729 193.568 44.3892 193.352C44.8894 193.712 45.4643 194.119 46.0603 194.548Z" fill="#725941"/>
<path d="M47.9804 194.416L49.9935 196.256C49.553 195.816 48.905 195.22 47.9804 194.416Z" fill="#725941"/>
<path d="M166.969 146.425L166.975 144.693C166.67 147.353 166.896 146.195 166.969 146.425Z" fill="#725941"/>
<path d="M126.324 185.982C127.204 185.895 127.574 185.824 127.548 185.795C126.646 185.905 126.137 185.957 126.324 185.982Z" fill="#725941"/>
<path d="M188.213 60.9696C188.177 60.8834 188.129 60.7915 188.093 60.6996C187.235 59.6385 187.573 60.1337 188.213 60.9696Z" fill="#725941"/>
<path d="M152.235 174.27C151.787 174.608 151.37 174.992 150.906 175.295L149.514 176.228C151.124 174.995 152.374 173.757 153.001 173.192C153.618 172.616 153.559 172.627 152.317 173.585C152.305 173.67 152.148 173.869 151.871 174.151C151.59 174.423 151.227 174.83 150.725 175.196C149.726 175.945 148.462 176.982 147.055 177.784C144.326 179.548 141.344 180.778 141.208 181.067C140.514 181.3 139.846 181.589 139.142 181.782C139.744 181.605 139.815 181.498 140.391 181.281C139.401 181.665 138.692 181.834 138.148 182.039C137.605 182.239 137.207 182.417 136.771 182.612C136.34 182.825 135.851 182.974 135.146 183.189C134.792 183.293 134.383 183.409 133.894 183.529C133.653 183.589 133.384 183.655 133.099 183.726C132.809 183.768 132.498 183.816 132.16 183.87C130.271 184.134 128.951 184.262 130.229 184.008L129.708 184.099L129.182 184.156L128.131 184.265C127.428 184.325 126.725 184.437 126.017 184.458C124.785 184.444 125.086 184.362 126.313 184.376L123.086 184.391C122.01 184.333 120.939 184.236 119.862 184.161L119.91 184.15C119.444 184.179 118.7 184.062 117.934 184.002C117.169 183.925 116.392 183.859 115.884 183.779C114.291 183.327 116.702 183.914 116.302 183.738C115.125 183.536 113.954 183.266 112.772 183.036C111.389 182.511 114.292 183.201 116.715 183.685C115.903 183.453 115.343 183.201 114.808 183.07C114.279 182.927 113.797 182.83 113.198 182.715C112.588 182.622 111.894 182.386 110.905 182.083C110.622 181.994 110.323 181.894 110.002 181.787C109.767 181.71 109.522 181.628 109.265 181.545C109.137 181.503 109.009 181.462 108.88 181.42L108.683 181.355L108.581 181.326C108.581 181.326 108.543 181.382 108.521 181.411C108.369 181.66 108.211 181.921 108.042 182.194C107.955 182.33 107.868 182.466 107.781 182.603C107.737 182.671 107.694 182.744 107.645 182.807L107.558 182.931C107.329 183.266 107.074 183.623 106.792 183.992L107.271 183.26C107.439 182.987 107.532 182.863 107.842 182.34L108.229 181.682L108.42 181.352L108.518 181.188C108.572 181.188 108.631 181.217 108.689 181.235L110.105 181.668C109.646 181.48 109.166 181.292 108.658 181.109L108.466 181.044L108.357 181.209L108.134 181.555C107.982 181.793 107.824 182.031 107.666 182.275C107.585 182.4 107.508 182.531 107.416 182.65L107.275 182.848C107.182 182.979 107.084 183.115 106.987 183.251C106.786 183.523 106.585 183.806 106.367 184.095C105.504 185.257 104.473 186.566 103.124 187.974C103.465 187.664 104.819 186.25 105.718 185.231C106.613 184.218 107.143 183.681 106.012 185.36C105.306 186.25 104.373 187.417 103.016 189.122C102.862 189 101.506 190.625 99.5913 192.421L99.5463 192.089C97.5119 194.044 97.7376 193.978 96.5311 195.136C94.0203 197.022 93.3175 197.094 92.6131 197.332C90.4892 198.577 91.2591 198.22 91.9478 197.942C92.6313 197.652 93.2496 197.459 90.7159 198.951C88.8844 199.891 87.2962 200.616 85.5852 201.289C83.8743 201.961 82.0509 202.621 79.6764 203.188C76.8487 203.517 80.1295 202.891 79.1052 202.953L77.8853 203.294C77.4769 203.398 77.0634 203.479 76.6497 203.577C76.0382 203.633 76.2269 203.521 76.3239 203.465C75.2772 203.631 75.2338 203.682 75.0451 203.8C74.9481 203.85 74.8189 203.906 74.4968 203.959C74.3357 203.986 74.1318 204.018 73.8581 204.049C73.5847 204.063 73.2523 204.071 72.8288 204.078C72.3767 204.273 70.6358 204.167 68.5393 203.721C66.4313 203.349 64.0159 202.619 61.9665 202.282C61.0164 201.888 62.509 202.162 62.2489 201.913C59.5171 201.208 58.3581 200.79 57.3438 200.39C56.8312 200.195 56.3451 200.024 55.7042 199.8C55.0796 199.547 54.3165 199.207 53.2223 198.743C52.6416 198.394 52.1209 197.937 51.5782 197.525C51.0464 197.102 50.4983 196.701 49.9828 196.255C51.1038 197.262 50.8569 197.294 49.912 196.912C49.4587 196.689 48.8512 196.334 48.1638 195.932C47.8227 195.728 47.4604 195.513 47.0981 195.291C46.7414 195.053 46.3956 194.792 46.0443 194.542C46.4046 194.969 46.7112 195.396 47.035 195.714C47.348 196.043 47.6293 196.326 47.8576 196.546L46.7236 195.767L45.6441 194.904L44.5647 194.034L44.0223 193.6L43.5125 193.125C43.0944 192.578 43.6008 192.858 44.3732 193.346C44.0807 193.109 43.7989 192.889 43.5862 192.715C42.3259 191.158 43.2533 191.682 44.3977 192.484C44.5932 192.766 44.7997 193.031 45.0169 193.285C45.2288 193.545 45.4406 193.804 45.6472 194.052C46.2442 194.385 46.82 194.694 47.2416 194.87C47.6796 195.024 47.9582 195.038 47.9333 194.844C47.6186 194.692 47.0921 194.274 46.5286 193.799C46.8378 193.968 47.0406 194.062 46.9509 193.913C46.8453 193.751 46.3712 193.46 45.6364 192.966C45.4529 192.547 45.2586 192.145 45.1129 191.703L44.765 191.653L43.6151 190.32C43.4243 190.095 43.2282 189.882 43.0482 189.651L42.5245 188.942C41.8318 187.992 41.1011 187.08 40.5056 186.056C40.0814 185.589 39.6678 185.133 39.2489 184.676C38.83 184.22 38.4651 183.719 38.0626 183.234C37.6708 182.744 37.2576 182.254 36.8607 181.735C36.4909 181.194 36.1104 180.641 35.7141 180.065C35.5187 179.771 35.3179 179.477 35.1172 179.178C35.0168 179.034 34.9165 178.873 34.806 178.672C34.7006 178.482 34.6007 178.292 34.4953 178.102C34.1058 177.378 33.6953 176.619 33.269 175.82L33.1164 175.532C33.1065 175.452 33.0362 175.514 32.9824 175.531L32.8209 175.603C32.6056 175.704 32.3902 175.798 32.1694 175.905C31.7442 176.094 31.3081 176.295 30.8613 176.496C29.9781 176.926 29.118 177.185 28.1661 177.511C29.9288 176.48 28.3623 176.633 28.3253 176.044C28.5986 176.047 28.8937 176.011 29.2051 175.957C29.3608 175.93 29.5219 175.898 29.6885 175.854C29.9036 175.776 30.1241 175.699 30.3554 175.621C31.2698 175.283 32.287 174.854 33.4334 174.358L33.4872 174.336L33.5142 174.325L33.5247 174.348L33.5719 174.446L33.6718 174.647C33.7402 174.779 33.8085 174.917 33.8768 175.055C34.0188 175.331 34.1607 175.612 34.3026 175.9C34.597 176.486 34.8965 177.089 35.2013 177.704L35.4325 178.181L35.548 178.423C35.5901 178.509 35.6268 178.584 35.6532 178.63C35.7743 178.854 35.9007 179.078 36.0217 179.302C36.2638 179.757 36.5058 180.222 36.7316 180.693C35.781 178.717 36.2228 179.025 36.5453 179.474C35.9957 178.679 35.0558 176.697 34.288 175.202L33.7045 174.041L33.6677 173.972C33.6677 173.972 33.6573 173.944 33.6466 173.938L33.6089 173.955L33.4529 174.021L33.1407 174.155L32.5217 174.423L30.1264 175.464C30.1599 175.328 30.0424 175.286 29.8009 175.318C29.511 175.372 29.3072 175.381 28.9904 175.446C28.3728 175.565 27.5291 175.795 26.6218 175.951C27.0064 176.081 26.9025 176.297 26.4557 176.492C26.0143 176.693 25.2403 176.913 24.3323 177.143C23.4244 177.356 22.3568 177.469 21.3582 177.641C20.3495 177.755 19.3895 177.813 18.6648 177.937C18.5698 177.781 18.6948 177.606 19.2804 177.463C19.8608 177.304 20.9063 177.264 22.6451 177.032C22.1577 177.004 21.7127 177.011 21.3104 177.046C20.9081 177.082 20.5329 177.083 20.184 177.142C19.4809 177.237 18.8682 177.419 18.2501 177.595C17.6324 177.725 17.004 177.867 16.2959 177.927C15.942 177.946 15.5611 177.988 15.1597 177.932C14.7528 177.881 14.3195 177.797 13.8491 177.671C14.7112 177.75 15.1711 177.858 15.521 177.707C15.0168 177.742 14.3311 177.705 13.6028 177.646C13.2387 177.613 12.8638 177.586 12.5053 177.531C12.1469 177.452 11.7939 177.38 11.4623 177.313C10.8045 177.163 10.2539 177.02 9.93884 176.902C9.62384 176.778 9.55516 176.675 9.84991 176.678L10.6953 176.825C9.99433 176.708 9.21946 176.477 8.3856 176.25C7.96866 176.137 7.53561 176.029 7.09205 175.898C6.65943 175.745 6.21074 175.591 5.76205 175.438C5.31341 175.278 4.84853 175.136 4.39464 174.965C3.94629 174.777 3.49261 174.584 3.03889 174.396C2.59065 174.196 2.1259 174.043 1.69396 173.821C1.26196 173.604 0.829886 173.394 0.408549 173.183C-0.00737227 172.967 -0.439763 172.791 -0.823418 172.564C-1.21249 172.342 -1.59089 172.126 -1.95334 171.922C-2.3212 171.724 -2.67302 171.531 -3.00348 171.345C-3.33394 171.158 -3.62673 170.955 -3.91448 170.786C-4.48458 170.442 -4.97495 170.168 -5.36441 169.987C-5.75929 169.811 -6.01523 169.677 -6.16551 169.698C-6.15417 169.635 -5.85319 169.547 -5.51495 169.488C-5.17672 169.429 -4.7741 169.365 -4.59218 169.395C-7.81636 168.073 -10.998 166.238 -13.9705 163.844C-13.3878 163.999 -13.3139 163.028 -12.9444 162.518C-12.7597 162.263 -12.5117 162.117 -12.1059 162.265C-11.9029 162.335 -11.6631 162.481 -11.3815 162.724C-11.238 162.846 -11.084 162.99 -10.9141 163.158C-10.7334 163.314 -10.5369 163.499 -10.3247 163.713C-10.748 163.16 -11.1487 162.487 -11.7037 161.697C-12.291 160.931 -12.8977 159.947 -13.792 158.777C-13.3931 159.633 -13.4002 161.444 -14.172 160.361C-14.3283 159.908 -14.4748 159.546 -14.5735 159.219C-14.6721 158.892 -14.7552 158.623 -14.8279 158.382C-14.9787 157.912 -15.0933 157.585 -15.2292 157.235C-15.3706 156.89 -15.4954 156.506 -15.6668 155.944C-15.7498 155.663 -15.8483 155.33 -15.9677 154.94C-16.0248 154.745 -16.087 154.533 -16.1544 154.298C-16.2057 154.063 -16.2621 153.805 -16.3183 153.525C-16.1376 154.23 -16.4496 154.346 -16.9232 153.998C-17.1573 153.824 -17.4332 153.535 -17.6973 153.149C-17.9615 152.763 -18.2355 152.286 -18.3907 151.713C-18.1148 151.996 -17.345 151.107 -16.9772 151.86C-17.4406 151.026 -17.9255 150.192 -18.3779 149.324C-18.782 148.445 -19.2503 147.565 -19.6218 146.647C-19.1263 148.035 -18.6196 146.646 -18.5048 145.333C-18.5508 145.647 -18.8284 144.444 -18.953 142.945C-18.9922 142.573 -19.0366 142.184 -19.0757 141.801C-19.1094 141.417 -19.1163 141.029 -19.1396 140.668C-19.1754 139.948 -19.2281 139.319 -19.2673 138.941C-19.3235 139.752 -19.3583 140.563 -19.4039 141.386C-19.4281 140.574 -19.4801 139.864 -19.5543 139.235C-19.607 138.606 -19.6498 138.051 -19.7306 137.547C-19.8007 137.043 -19.9141 136.585 -19.9848 136.15C-20.0609 135.714 -20.1427 135.308 -20.2297 134.89C-20.3167 134.477 -20.4038 134.059 -20.4798 133.612C-20.529 133.172 -20.5726 132.697 -20.5942 132.171C-20.6051 131.645 -20.6369 131.062 -20.5609 130.417C-20.4847 129.755 -20.3923 129.075 -20.2119 128.175C-20.1624 128.592 -19.8848 129.247 -19.5045 129.274C-19.3171 129.293 -19.1238 129.255 -18.8775 128.738C-18.6263 128.261 -18.3183 127.458 -17.9954 126.233C-18.0143 125.976 -18.0486 125.655 -18.0933 125.295C-18.1184 125.123 -18.1434 124.934 -18.1682 124.734C-18.22 124.556 -18.1101 124.277 -18.5552 124.307C-19.8453 124.144 -21.2267 124.008 -22.4534 123.937C-23.053 123.868 -23.615 123.793 -24.2464 123.689C-24.8616 123.573 -25.5308 123.491 -26.1664 123.267C-26.8129 123.066 -27.4752 122.835 -28.1426 122.571L-28.6443 122.365L-29.1296 122.114C-29.4494 121.939 -29.7746 121.758 -30.0943 121.572L-30.8082 120.586C-31.4582 120.202 -32.0593 119.738 -32.6929 119.314L-33.6351 118.657L-34.5284 117.933C-34.1869 118.085 -33.7924 118.295 -33.3228 118.506C-32.8531 118.706 -32.3248 118.935 -31.7537 119.176C-30.6548 119.702 -29.3083 120.129 -28.0001 120.618C-27.3432 120.859 -26.6373 121.022 -25.9747 121.223C-25.3067 121.419 -24.6602 121.621 -24.0022 121.743C-23.3658 121.887 -22.7454 122.025 -22.1625 122.158C-21.9917 122.228 -21.9115 122.24 -21.7993 122.276C-21.6924 122.306 -21.5854 122.335 -21.4785 122.359C-21.2646 122.413 -21.0508 122.467 -20.8476 122.515C-20.4199 122.629 -20.0083 122.736 -19.6181 122.838C-20.3966 122.434 -20.8443 122.178 -21.148 121.997C-21.2972 121.904 -21.4143 121.829 -21.5155 121.759C-21.6326 121.683 -21.6805 121.643 -21.8776 121.521C-22.1488 121.306 -22.5058 121.091 -24.0258 120.336C-24.4661 119.874 -24.0118 119.999 -23.3174 120.236C-22.9756 120.36 -22.5752 120.518 -22.2069 120.677C-22.0255 120.759 -21.8494 120.835 -21.6893 120.905C-21.5987 120.952 -21.5079 120.993 -21.4172 121.034C-21.3478 121.064 -21.2785 121.093 -21.2144 121.117C-21.0863 121.169 -20.9635 121.217 -20.8567 121.263L-21.273 121.082C-21.353 121.041 -21.3851 121.035 -21.5077 120.97L-21.7103 120.865L-22.1368 120.632L-22.9898 120.165L-23.8427 119.698L-24.6574 119.158C-25.1952 118.797 -25.7492 118.454 -26.2761 118.082L-27.8133 116.882C-27.8475 117.093 -28.2006 117.032 -28.7021 116.798C-29.1819 116.541 -29.8156 116.122 -30.4545 115.692C-31.1098 115.291 -31.6781 114.764 -32.1574 114.456C-32.6259 114.136 -32.9567 113.978 -33.012 114.155L-31.3162 115.563C-30.7255 115.998 -30.1239 116.405 -29.5331 116.829C-28.9586 117.269 -28.3189 117.614 -27.7061 117.981C-27.088 118.342 -26.4862 118.737 -25.8352 119.025C-25.8588 119.241 -26.1971 119.312 -26.7859 119.237C-27.353 119.128 -28.1488 118.85 -29.1094 118.428C-29.6005 118.234 -30.0745 117.926 -30.5967 117.611C-31.108 117.285 -31.6674 116.948 -32.2047 116.536C-33.2413 115.673 -34.3735 114.717 -35.2997 113.524C-35.6896 112.839 -35.2445 112.816 -34.7096 112.919C-34.1693 113.022 -33.539 113.24 -33.484 113.104C-33.6546 113.01 -33.9841 112.727 -34.3877 112.345C-34.7913 111.963 -35.2851 111.495 -35.6979 110.959C-36.1269 110.44 -36.5451 109.909 -36.8625 109.483C-37.1798 109.05 -37.353 108.683 -37.3946 108.545C-36.8648 109.18 -36.2378 109.724 -35.6539 110.296C-36.5302 108.943 -37.3835 107.968 -38.3163 106.895C-39.152 105.771 -40.0563 104.526 -40.4815 102.538C-40.6071 102.223 -40.7263 101.81 -40.8076 101.363C-40.8675 100.905 -40.9324 100.424 -40.9923 99.9779C-41.1069 99.0965 -41.2446 98.3863 -41.4747 98.3437C-41.621 100.685 -43.9201 102.306 -45.1079 101.006C-45.1234 100.943 -45.1645 100.771 -45.2264 100.525C-45.2883 100.279 -45.3654 99.9462 -45.4259 99.5512C-45.5521 98.7611 -45.7243 97.7475 -45.8641 96.7001C-45.9501 95.6361 -46.0251 94.5437 -46.0696 93.6117C-46.0603 92.6688 -46.0151 91.892 -45.9627 91.464C-45.7683 90.2259 -45.2408 91.0891 -44.7346 91.9406C-44.2232 92.7979 -43.7278 93.6493 -43.5517 92.6397C-43.771 92.5972 -44.1825 91.381 -44.3328 90.8649C-44.3363 90.1276 -44.15 90.2612 -44.0314 90.1882C-43.9128 90.1152 -43.8242 89.8305 -43.9535 88.2688C-44.156 88.1465 -44.2747 87.6823 -44.3443 87.1328C-44.3765 86.5838 -44.3434 85.9441 -44.3228 85.4814C-44.2762 84.5618 -44.2361 84.2993 -44.6733 86.7862C-44.8139 83.647 -44.4583 83.4567 -43.9672 79.8445C-44.3207 80.3721 -44.6015 79.4945 -44.7371 78.0242C-44.8317 77.2859 -44.7537 76.4352 -44.6913 75.5444C-44.6548 75.099 -44.6021 74.6481 -44.5442 74.2087C-44.4755 73.7694 -44.3589 73.3535 -44.2585 72.9545C-44.1324 73.2074 -43.6495 72.6127 -43.4269 72.3294C-43.2838 71.9424 -43.1515 71.5667 -43.0193 71.2024C-42.855 70.8499 -42.7016 70.5087 -42.5482 70.1732C-42.2362 69.5081 -41.9459 68.8712 -41.6505 68.2687C-41.3179 67.6895 -40.9962 67.133 -40.68 66.5879C-40.3638 66.0428 -40.0691 65.5088 -39.7052 65.0214C-39.004 64.0291 -38.3723 63.0074 -37.5535 62.045C-37.1628 61.5465 -36.7611 61.0366 -36.3432 60.5041C-35.8934 60.0004 -35.4273 59.4742 -34.9341 58.9139C-34.4806 58.5818 -32.2712 56.8233 -32.9144 57.9134C-32.4092 57.2276 -32.0638 56.437 -30.6697 55.2867C-29.1393 54.4523 -29.8909 55.1183 -30.7021 55.8579C-31.5292 56.5802 -32.3577 57.4453 -31.1304 56.8989C-31.1869 56.6468 -30.412 55.7868 -29.3834 54.741C-28.2862 53.8046 -26.967 52.6477 -25.9094 51.9223C-26.1607 51.8623 -26.6071 52.0174 -27.1726 52.2968C-27.7171 52.6165 -28.3596 53.1008 -29.0348 53.6305C-29.7258 54.1371 -30.3595 54.8159 -30.9712 55.4262C-31.2744 55.7372 -31.5668 56.0368 -31.8375 56.3195C-32.0977 56.6138 -32.3257 56.9085 -32.5318 57.1576C-32.6907 56.973 -32.6548 56.5847 -32.4349 56.0271C-32.2044 55.481 -31.7531 54.8174 -31.1395 54.0127C-29.9178 52.4033 -27.825 50.5121 -25.1069 48.7937C-24.8267 48.6482 -24.5735 48.5139 -24.3472 48.3907C-24.1748 48.3012 -24.0186 48.2229 -23.8786 48.1559C-23.6363 48.0386 -23.4534 47.9663 -23.3029 47.9223C-23.0072 47.8284 -22.8467 47.8588 -22.7722 47.9168C-22.6126 48.0329 -22.8243 48.3106 -22.5707 48.1362C-21.7155 47.8315 -20.9892 47.5481 -20.4186 47.2916C-20.3542 47.2866 -20.4233 47.2344 -20.4391 47.1999L-20.5184 47.0904C-20.5713 47.0213 -20.6188 46.9464 -20.6717 46.8773C-20.7722 46.739 -20.8727 46.6064 -20.968 46.4796C-21.1584 46.226 -21.3437 45.9954 -21.5185 45.7819C-21.8627 45.3609 -22.1864 45.0315 -22.43 44.7259C-22.5571 44.5759 -22.6791 44.4488 -22.7958 44.3274C-22.9178 44.1946 -23.003 44.1365 -23.167 43.9175C-23.4634 43.5427 -23.7546 43.1794 -24.0454 42.7761C-24.3147 42.3616 -24.5675 41.9073 -24.8411 41.3841C-25.1145 40.8553 -25.3927 40.2578 -25.6912 39.5401C-25.9411 38.8 -26.2007 37.9456 -26.4749 36.9366C-26.6329 36.1119 -26.5909 35.6551 -26.5084 35.4389C-26.4259 35.2226 -26.2759 35.2357 -26.116 35.3233C-25.7908 35.5041 -25.3936 35.9828 -25.2984 35.5724C-24.9006 36.5427 -24.5768 37.4036 -24.3114 38.2067C-24.249 38.4075 -24.1813 38.6025 -24.1242 38.7975C-24.0511 38.9869 -23.9832 39.1705 -23.9153 39.3485C-23.7848 39.71 -23.6543 40.0601 -23.5343 40.3986C-23.2837 41.0758 -23.092 41.7409 -22.8194 42.3612C-22.5466 42.9643 -22.2263 43.6366 -21.9577 44.1196L-22.6181 42.6034C-22.8702 42.0748 -23.0522 41.5127 -23.2505 40.9618C-23.071 41.2382 -22.8656 41.612 -22.623 42.0147C-22.3643 42.4063 -22.0953 42.8493 -21.8264 43.2981C-21.568 43.7354 -21.3099 44.1897 -21.089 44.6151C-20.8735 45.0462 -20.6304 45.4032 -20.4941 45.7077C-20.5718 45.4382 -20.8199 45.0468 -21.0661 44.4725C-21.3285 43.9038 -21.6806 43.1911 -22.075 42.4209C-22.1749 42.2255 -22.2748 42.0243 -22.38 41.8231C-22.4744 41.6106 -22.5687 41.3924 -22.6629 41.1684C-22.8569 40.7262 -23.056 40.2611 -23.2656 39.7786C-23.7172 38.8306 -24.0766 37.7693 -24.4678 36.679C-24.8914 35.5998 -25.1854 34.4364 -25.5063 33.2783L-25.7443 32.407C-25.8218 32.1146 -25.8671 31.8169 -25.9286 31.5248C-26.0407 30.9349 -26.1582 30.3506 -26.2704 29.7721C-26.3211 29.4801 -26.388 29.1993 -26.428 28.9074C-26.4627 28.6155 -26.492 28.3294 -26.5268 28.049C-26.5855 27.4825 -26.6497 26.9275 -26.7033 26.3839C-26.7731 25.8459 -26.7786 25.3201 -26.7897 24.8113C-26.7954 24.3026 -26.8014 23.8167 -26.8022 23.3538C-26.8633 23.0274 -26.956 22.6434 -26.9951 22.26C-27.0396 21.8823 -27.0841 21.5047 -27.1294 21.207C-27.22 20.6059 -27.3188 20.3019 -27.4314 20.8435C-27.4016 21.6326 -27.4309 22.4266 -27.3314 23.2107C-27.4762 24.3121 -27.7333 23.2062 -27.8679 22.1817C-27.9758 21.1632 -28.0578 20.2307 -28.18 21.7553C-28.247 20.943 -28.3191 20.1021 -28.3909 19.2268C-28.4091 18.3522 -28.4001 17.4379 -28.38 16.4837C-28.3723 16.2438 -28.3646 16.0038 -28.3568 15.7581C-28.3276 15.5184 -28.2984 15.273 -28.2745 15.0218C-28.216 14.5253 -28.1467 14.0174 -28.0666 13.5039C-27.9438 12.4594 -27.6226 11.4057 -27.3009 10.3006L-26.5279 9.63482C-26.6192 9.65666 -26.8833 10.351 -27.1383 11.2111C-27.2658 11.6383 -27.3884 12.1113 -27.4891 12.5502C-27.5579 13.0009 -27.6048 13.4176 -27.6134 13.7433C-27.636 12.7658 -26.9873 11.1099 -26.451 9.44135C-25.7757 7.80866 -25.2073 6.15191 -25.1001 5.06152C-25.3566 5.52729 -25.6504 5.97551 -25.8749 6.45879L-26.5646 7.91415C-26.4748 7.50938 -26.3796 7.09324 -26.2844 6.67139C-26.2394 6.45472 -26.189 6.2381 -26.1386 6.02148C-26.0722 5.80505 -26.0112 5.59427 -25.9447 5.37212C-25.6735 4.50074 -25.4125 3.57783 -25.0765 2.65573C-24.6978 1.75698 -24.2922 0.835663 -23.849 -0.0795181C-23.3633 -0.965647 -22.7975 -1.8223 -22.2158 -2.66163C-22.9401 -2.04107 -23.0601 -1.82525 -23.2507 -1.51305C-23.3488 -1.35412 -23.4685 -1.17257 -23.6909 -0.90073C-23.8101 -0.764901 -23.9457 -0.600676 -24.1192 -0.402586C-24.282 -0.198662 -24.4773 0.0448919 -24.7213 0.32792C-24.2451 -0.135395 -24.3237 0.223771 -24.6632 0.962941C-24.833 1.33253 -25.0627 1.7986 -25.325 2.31002C-25.5979 2.81562 -25.8074 3.40768 -26.0649 3.97059C-26.3063 4.53941 -26.5369 5.09689 -26.7453 5.58034C-26.9324 6.07547 -27.0492 6.51425 -27.1272 6.81628C-27.2726 7.42617 -27.1823 7.50718 -26.6537 6.62153C-27.0727 7.26265 -27.4112 7.89324 -27.7069 8.53002C-27.8654 8.8483 -27.9812 9.17278 -28.0862 9.50308C-28.1914 9.8391 -28.2965 10.1751 -28.4017 10.5169C-28.507 10.8643 -28.6122 11.2117 -28.723 11.5763C-28.8391 11.9407 -28.9554 12.3166 -29.0504 12.7156C-29.2565 13.5135 -29.5062 14.3736 -29.8481 15.3471C-29.7404 15.2969 -29.5816 14.9615 -29.5452 15.0705C-29.5243 15.1278 -29.5367 15.2934 -29.5886 15.6643C-29.619 16.0355 -29.6837 16.6177 -29.7888 17.4967C-29.7476 17.6629 -29.7084 18.0405 -29.684 18.2865C-29.7012 18.3949 -29.7069 18.4291 -29.7239 18.5204C-29.7071 18.452 -29.6959 18.4007 -29.6844 18.3265C-29.6699 18.481 -29.6646 18.4925 -29.6676 18.2524C-29.4986 17.4199 -29.3314 16.7588 -29.1948 16.4974C-29.0428 17.3907 -29.1517 19.2012 -29.0464 21.0312C-29.0349 21.4885 -29.0233 21.9459 -29.0115 22.3861C-28.9891 22.8264 -28.9343 23.2557 -28.8954 23.6562C-28.8122 24.4572 -28.7278 25.1439 -28.6411 25.5964C-28.6083 26.6198 -28.6599 26.4135 -28.7907 26.0919C-28.9055 25.7706 -29.003 25.3295 -29.089 25.9058C-28.8622 26.817 -28.6138 27.717 -28.3761 28.617C-28.4787 28.7016 -28.5523 29.0951 -28.5729 29.5578C-28.5775 30.0207 -28.5827 30.5578 -28.5864 30.9292C-28.6045 31.6834 -28.7452 31.819 -29.338 29.4235C-29.2165 30.1507 -29.0629 30.8782 -28.9307 31.6055C-28.7824 32.333 -28.6717 33.0658 -28.4536 33.7712C-28.2251 35.0654 -27.951 36.6172 -27.4397 38.0346C-27.2002 38.7516 -26.9659 39.4515 -26.7096 40.0945C-26.421 40.7206 -26.1372 41.2896 -25.8632 41.7727C-25.6751 42.2606 -25.4177 42.795 -25.1546 43.2895C-24.8591 43.7671 -24.558 44.2048 -24.3201 44.5447C-24.262 44.6254 -24.2091 44.7003 -24.1615 44.7694C-24.1403 44.7867 -24.119 44.8041 -24.0977 44.8158C-24.0604 44.8448 -24.0339 44.8679 -24.0286 44.8737C-24.0127 44.891 -24.066 44.8676 -24.2207 44.7859C-24.1042 44.9358 -23.9984 45.0741 -23.8927 45.2296C-23.7763 45.3795 -23.6438 45.5295 -23.5114 45.6968L-23.0931 46.2101L-22.9819 46.3485C-22.9819 46.3485 -23.052 46.3934 -23.0844 46.4159L-23.3107 46.5449L-23.4815 46.4744C-23.7451 46.5686 -23.9979 46.6629 -24.2457 46.7916C-24.3697 46.8588 -24.4936 46.926 -24.623 47.0102L-24.7308 47.0719L-25.011 47.2174L-25.5712 47.5083C-25.9536 47.6926 -26.3096 47.9229 -26.671 48.1589C-27.0324 48.3892 -27.3937 48.6195 -27.7551 48.8555C-28.1165 49.0858 -28.4833 49.3217 -28.85 49.5519C-29.2009 49.8109 -29.5519 50.0756 -29.9028 50.3403C-30.2538 50.5992 -30.6101 50.8639 -30.9664 51.1285L-31.5009 51.5226L-32.0143 51.9512C-32.7006 52.5265 -33.3976 53.1016 -34.1107 53.6652C-34.7814 54.2863 -35.4734 54.8958 -36.1815 55.5051C-36.5488 55.7982 -36.8843 56.1259 -37.2252 56.4536C-37.5714 56.7755 -37.923 57.103 -38.2852 57.4247C-39.6698 59.2438 -40.9594 61.2126 -43.0063 64.4359L-43.7448 64.8619C-43.9036 65.2031 -44.0948 65.5724 -44.3077 65.9701C-44.526 66.3677 -44.7552 66.7881 -44.9581 67.2487C-45.3797 68.1584 -45.8768 69.1073 -46.2826 70.0457C-46.6564 70.996 -47.003 71.9066 -47.2516 72.6639C-47.5056 73.4212 -47.5761 74.049 -47.5634 74.3921C-48.0526 75.0896 -48.6114 76.3235 -48.9541 77.9199C-49.0491 78.3189 -49.1443 78.735 -49.2343 79.1684C-49.2793 79.3851 -49.3244 79.6075 -49.3695 79.8298C-49.4038 80.0524 -49.4276 80.2864 -49.4567 80.5204C-49.5623 81.4508 -49.663 82.4269 -49.7479 83.4261C-49.7738 84.426 -49.773 85.4376 -49.7775 86.4434C-49.78 86.6948 -49.7771 86.9406 -49.7742 87.1921C-49.7552 87.4381 -49.7415 87.684 -49.7225 87.93C-49.6898 88.4218 -49.6517 88.9023 -49.6188 89.377C-49.5806 89.8518 -49.5584 90.315 -49.5145 90.7613C-49.4546 91.2077 -49.3999 91.637 -49.345 92.0548C-49.246 92.8846 -49.157 93.6514 -49.0779 94.321L-48.4624 94.4079C-48.2943 95.3013 -48.1101 96.1892 -47.9098 97.0773C-47.688 97.9599 -47.3911 98.8319 -47.1159 99.7323C-46.8568 100.638 -46.4475 101.523 -46.0707 102.453C-45.8662 102.912 -45.6942 103.4 -45.4523 103.872C-45.2104 104.343 -44.9685 104.82 -44.7161 105.314L-44.363 104.832C-44.1205 105.241 -43.8837 105.684 -43.6472 106.166C-43.4 106.638 -43.1153 107.121 -42.8471 107.644C-42.5789 108.167 -42.3002 108.713 -42.011 109.277C-41.6949 109.829 -41.3681 110.392 -41.0362 110.979C-40.8676 111.272 -40.6991 111.571 -40.5305 111.871C-40.3511 112.164 -40.1503 112.446 -39.9602 112.74C-39.5639 113.322 -39.1624 113.915 -38.7556 114.514C-38.3218 115.09 -37.8503 115.65 -37.3843 116.215L-36.669 117.057C-36.4198 117.329 -36.1489 117.578 -35.8888 117.838C-36.0918 117.767 -36.4695 117.477 -36.8459 117.061C-37.2116 116.64 -37.6084 116.121 -37.9096 115.683C-36.9925 117.254 -35.7302 118.6 -34.3918 119.849C-33.6901 120.434 -32.9668 121.002 -32.2379 121.548C-31.4927 122.07 -30.704 122.531 -29.9422 123.002C-29.1914 123.496 -28.3695 123.854 -27.5965 124.268C-27.2072 124.473 -26.8233 124.671 -26.4394 124.876C-26.0445 125.052 -25.655 125.227 -25.2655 125.403C-24.8814 125.585 -24.5026 125.766 -24.1239 125.948L-23.8466 126.088C-23.7933 126.117 -23.8839 126.07 -23.8359 126.094L-23.772 126.129L-23.5266 126.246C-23.2065 126.404 -22.9296 126.584 -22.7492 126.769L-22.6047 126.793C-22.6047 126.793 -22.5947 126.856 -22.5896 126.885C-22.5903 126.953 -22.5909 127.022 -22.6023 127.09C-22.6197 127.227 -22.6479 127.37 -22.6867 127.501C-22.7591 127.769 -22.8741 128.019 -22.9673 128.229C-22.956 128.178 -22.9554 128.115 -22.9657 128.075C-22.9825 128.144 -23.0048 128.235 -23.0163 128.309L-23.0272 128.326L-23.0438 128.389L-23.0826 128.52L-23.1603 128.782C-23.2156 128.958 -23.2656 129.135 -23.3209 129.317C-23.4264 129.682 -23.5479 130.052 -23.6376 130.451C-23.4221 129.79 -23.1962 129.164 -23.0568 128.611C-23.1486 129.233 -23.3117 130.014 -23.3685 130.882C-23.4306 131.75 -23.515 132.693 -23.5242 133.63L-24.0837 134.389C-24.0852 134.544 -24.0864 134.669 -24.088 134.829C-24.3742 136.678 -23.9204 136.317 -23.4822 135.362C-23.47 136.299 -23.3338 137.164 -23.2117 137.822C-23.4136 138.192 -23.4989 138.688 -23.5151 139.248C-23.5046 139.808 -23.4303 140.432 -23.3508 141.073C-23.3165 141.393 -23.2821 141.719 -23.2478 142.04C-23.2081 142.36 -23.163 142.681 -23.1392 142.99C-23.0918 143.613 -23.1084 144.213 -23.2584 144.754C-23.1274 145.053 -22.8932 145.764 -22.6557 146.687C-22.4397 147.615 -22.0915 148.717 -21.7324 149.806C-21.6439 150.076 -21.5609 150.351 -21.4616 150.615C-21.357 150.874 -21.2524 151.132 -21.1476 151.385C-20.9382 151.884 -20.7337 152.349 -20.5394 152.757C-20.1455 153.573 -19.7168 154.127 -19.4394 154.261C-19.5208 154.363 -19.3759 154.885 -19.7422 153.978C-19.5808 154.46 -19.4139 154.936 -19.2525 155.418C-19.0965 155.9 -18.8703 156.342 -18.6711 156.796C-18.4665 157.244 -18.2511 157.681 -18.0301 158.095C-17.8037 158.509 -17.5287 158.889 -17.2643 159.252L-17.3876 160.342C-16.927 160.925 -16.3962 161.451 -15.887 161.988C-15.3777 162.519 -14.8846 163.056 -14.3319 163.537C-13.7057 164.716 -13.2639 165.572 -13.1866 165.882C-13.156 166.042 -13.2368 166.081 -13.4554 165.97C-13.6795 165.865 -14.0199 165.604 -14.5084 165.135C-13.9676 165.736 -13.463 166.199 -13.0382 166.603C-12.6188 167.014 -12.2632 167.361 -11.9499 167.661C-11.307 168.234 -10.8501 168.645 -10.4145 169.033C-9.5701 169.825 -8.73511 170.481 -6.48158 171.86L-6.92282 172.038C-6.14569 172.584 -5.10166 173.242 -4.11001 173.773C-3.1021 174.287 -2.21739 174.794 -1.80361 175.227C-0.957766 175.871 0.591919 176.883 2.72686 177.787C2.99368 177.904 3.26038 178.033 3.54334 178.145C3.82641 178.245 4.12015 178.351 4.41924 178.457C5.01748 178.664 5.6424 178.883 6.28334 179.107C6.94087 179.28 7.61982 179.453 8.31475 179.638C8.6623 179.722 9.01506 179.823 9.37338 179.902C9.73187 179.963 10.101 180.03 10.4649 180.091C11.2034 180.202 11.9466 180.382 12.707 180.448C13.4674 180.519 14.2438 180.596 15.0148 180.673C15.7914 180.728 16.574 180.719 17.3562 180.745C17.7474 180.75 18.1384 180.777 18.5298 180.758C18.9212 180.74 19.3073 180.721 19.6987 180.703C21.2533 180.675 22.7723 180.452 24.2477 180.291C24.9831 180.185 25.6921 180.027 26.3953 179.909C26.7443 179.85 27.0933 179.785 27.4315 179.726C27.7699 179.656 28.1031 179.562 28.4308 179.486C27.3074 179.268 28.5264 179.024 30.0517 178.704C30.3256 178.644 30.6156 178.585 30.8949 178.531C31.0989 178.487 31.2816 178.438 31.4483 178.383C31.7764 178.266 32.046 178.103 32.2042 177.819C32.2332 178.146 32.3042 178.552 32.3021 178.764C32.3 178.981 32.2246 179.014 31.9968 178.749C32.1442 179.019 32.2861 179.301 32.4121 179.571C32.4751 179.709 32.5327 179.841 32.5957 179.973C32.6325 180.047 32.6375 180.082 32.6901 180.191C32.7584 180.323 32.8268 180.45 32.8899 180.576C33.4105 181.594 33.8732 182.507 34.3149 183.37C35.3117 185.015 36.1867 186.505 37.6313 187.847C37.8445 188.513 36.6527 187.076 36.8939 187.628C37.2067 187.968 38.1188 188.962 38.3759 189.519C38.6385 190.065 37.7274 188.98 37.1177 188.305C40.7491 192.906 41.7968 192.643 42.468 192.508C42.9181 193.073 43.326 193.558 43.7023 193.99C44.1057 194.389 44.4882 194.731 44.8603 195.044C45.6099 195.658 46.3123 196.174 47.2513 196.608C47.9193 197.358 49.1404 198.532 46.3039 196.489C46.6921 196.79 47.4793 197.405 48.442 198.158C48.9151 198.552 49.4907 198.884 50.055 199.274C50.6302 199.646 51.2158 200.047 51.8126 200.396C52.4204 200.718 53.0175 201.039 53.5721 201.33C54.132 201.617 54.6384 201.897 55.1031 202.062C56.0214 202.421 56.6465 202.622 56.7331 202.537C56.9941 202.7 57.5965 203.027 58.2325 203.206C58.8629 203.413 59.4828 203.597 59.7288 203.657C60.2416 203.828 60.6846 204.016 61.1016 204.124C61.5185 204.237 61.8874 204.338 62.2295 204.428C62.9137 204.613 63.475 204.762 64.0363 204.911C64.6088 205.009 65.1759 205.112 65.8608 205.229C66.2032 205.284 66.5777 205.351 66.9951 205.418C67.4124 205.497 67.8786 205.503 68.4034 205.554L67.2473 205.387C68.1011 205.219 68.9636 205.269 70.045 205.395C70.5801 205.481 71.1804 205.477 71.85 205.507C72.5198 205.52 73.2698 205.563 74.1117 205.515L74.0147 205.571C77.8957 205.5 78.7138 205.149 79.5192 205.004C79.9273 204.923 80.3197 204.807 81.0878 204.639C81.4745 204.557 81.9471 204.46 82.5597 204.295C82.8659 204.219 83.2044 204.131 83.5859 204.038C83.9621 203.934 84.3761 203.801 84.8383 203.669L84.3677 203.561C84.6287 203.181 86.2569 202.748 88.2641 201.93C90.2763 201.141 92.6678 199.939 94.4714 198.57C93.9971 198.834 93.5335 199.114 93.0541 199.355C94.0475 198.623 95.5508 197.811 97.0071 196.873C98.4686 195.952 99.9094 194.951 100.824 194.086C101.24 193.731 100.244 194.743 99.6865 195.274C100.951 194.214 101.574 193.592 101.893 193.247C102.213 192.902 102.224 192.833 102.187 192.793C102.113 192.706 101.898 192.767 103.529 190.933C103.88 190.646 103.749 190.924 103.807 190.976C103.866 191.023 104.125 190.843 105.199 189.575C105.767 188.97 107.212 187.014 108.667 184.607C108.76 184.454 108.847 184.306 108.939 184.153L109.076 183.92L109.13 183.818L109.234 183.625L109.289 183.522C109.289 183.522 109.353 183.523 109.38 183.523L109.583 183.577L109.871 183.66C110.203 183.761 110.534 183.856 110.86 183.957C112.158 184.4 113.431 184.655 114.484 184.969C113.56 184.656 112.657 184.343 114.818 184.773C115.636 184.988 116.615 185.136 117.664 185.319C118.188 185.411 118.729 185.508 119.274 185.611C119.826 185.669 120.388 185.727 120.945 185.784C121.502 185.836 122.059 185.888 122.605 185.94C123.151 185.981 123.682 185.952 124.191 185.958C124.7 185.952 125.188 185.94 125.644 185.923C126.1 185.911 126.523 185.875 126.899 185.794C127.328 185.782 127.489 185.801 127.51 185.818C128.154 185.751 128.991 185.657 129.919 185.559C130.837 185.392 131.836 185.215 132.808 185.043C133.296 184.974 133.758 184.825 134.204 184.71C134.65 184.589 135.075 184.474 135.462 184.369C135.849 184.259 136.198 184.16 136.499 184.072C136.795 183.979 137.037 183.867 137.22 183.795C138.421 183.705 142.287 182.451 145.527 180.521C145.732 180.409 145.937 180.303 146.142 180.191C146.336 180.068 146.53 179.944 146.724 179.82C147.107 179.579 147.479 179.337 147.841 179.113C148.563 178.658 149.232 178.254 149.756 177.843C150.835 177.066 151.558 176.6 151.616 176.715L152.026 176.416L152.415 176.084L153.188 175.418L154.734 174.086L156.179 172.634C156.651 172.142 157.164 171.69 157.588 171.146L157.489 171.351C158.346 170.355 159.072 169.517 159.664 168.781C160.218 168.01 160.696 167.381 161.06 166.802C161.425 166.223 161.719 165.729 161.987 165.275C162.238 164.815 162.445 164.394 162.659 163.973C163.323 162.941 162.907 163.742 162.88 163.844C164.885 160.512 165.682 158.475 166.365 156.602C167.016 154.712 167.548 152.924 168.089 149.666L168.433 149.041C168.554 148.151 169.171 145.363 169.485 141.761C169.805 138.169 169.773 133.768 169.13 129.932C169.172 130.001 169.235 130.156 169.342 130.763C169.186 129.676 169.01 128.536 168.812 127.368C168.716 126.784 168.604 126.189 168.492 125.604C168.436 125.329 168.38 125.037 168.313 124.768C168.313 124.745 168.286 124.711 168.313 124.699L168.389 124.672L168.534 124.616C168.631 124.577 168.733 124.544 168.819 124.499L169.68 124.132C170.079 123.965 170.477 123.798 170.87 123.636C171.252 123.441 171.629 123.251 172.006 123.055C172.76 122.669 173.493 122.288 174.209 121.919C174.9 121.504 175.552 121.083 176.178 120.678C177.456 119.909 178.483 119.024 179.326 118.279C179.737 117.895 180.121 117.567 180.393 117.205C180.669 116.854 180.887 116.53 181.024 116.24L182.004 115.234C182.329 114.895 182.664 114.573 182.957 114.199L184.753 112.024C182.256 114.654 182.355 114.346 182.791 113.648C183.232 112.95 183.999 111.856 182.933 112.867C183.394 112.335 183.946 111.752 184.477 111.21C184.97 110.632 185.452 110.106 185.815 109.733C186.546 108.992 186.81 108.875 185.756 110.275L185.366 110.659C185.293 111.03 185.617 110.782 186.148 110.205C186.413 109.917 186.733 109.549 187.08 109.135C187.427 108.722 187.749 108.217 188.096 107.724C188.444 107.225 188.792 106.726 189.124 106.249C189.461 105.779 189.712 105.29 189.968 104.899C190.463 104.104 190.822 103.599 190.907 103.709C191.386 102.931 191.743 102.078 192.142 101.259C192.536 100.429 192.952 99.6169 193.26 98.7516C193.59 97.898 193.931 97.0446 194.25 96.1909C194.521 95.3138 194.787 94.4366 195.058 93.5595C195.356 92.6942 195.505 91.7814 195.722 90.8923C195.924 89.9973 196.142 89.1081 196.247 88.1949C196.374 87.2876 196.523 86.3806 196.633 85.4731C196.691 84.5593 196.748 83.6455 196.81 82.7318C196.9 81.8184 196.828 80.9032 196.827 79.9944C196.803 79.0797 196.812 78.1654 196.714 77.2614C196.593 75.4426 196.283 73.6503 195.942 71.8748C195.167 68.3456 193.995 64.9377 192.407 61.8109C192.449 62.4057 192.486 62.9948 192.497 63.595C192.182 62.8542 191.803 62.147 191.451 61.423C191.067 60.7214 190.704 60.003 190.288 59.324C190.031 58.7381 189.922 58.2968 190.099 58.3674C190.189 58.4027 190.349 58.5702 190.597 58.9159C190.851 59.2559 191.178 59.7854 191.589 60.5501C191.324 59.6384 190.516 58.4178 189.716 57.4887C188.927 56.5426 188.151 55.8881 188.07 55.8929C187.146 54.5052 186.787 53.9297 186.789 53.7869C186.79 53.6497 187.168 53.9397 187.603 54.3789C188.5 55.2348 189.638 56.6763 189.057 55.8125C188.507 55.0463 187.925 54.3139 187.337 53.5872C187.448 53.7656 187.553 53.9554 187.664 54.1453C186.857 53.3476 186.362 52.9705 185.73 52.4148C185.103 51.8534 184.36 51.0964 182.954 49.6462C181.226 47.7466 182.297 48.393 181.586 47.6706C181.624 47.631 181.39 47.3769 180.444 46.6177C179.694 45.9635 178.945 45.315 178.163 44.7005C177.775 44.3932 177.381 44.0916 176.982 43.7957L176.354 43.3315C176.412 43.4864 176.501 43.6646 176.596 43.8543C176.866 44.1659 177.131 44.4832 177.385 44.8003C176.916 44.5151 176.437 44.2182 176.011 43.9563C175.707 43.77 175.435 43.6012 175.233 43.4904C175.03 43.3852 174.897 43.338 174.853 43.389C174.815 43.4457 174.873 43.5949 175.132 43.9636C174.978 43.7447 174.761 43.4965 174.463 43.2417L174.432 43.2185C174.432 43.2185 174.448 43.1901 174.459 43.1731L174.513 43.0823C174.551 43.0198 174.59 42.9574 174.628 42.895C174.699 42.77 174.775 42.6451 174.851 42.5145C174.988 42.2646 175.135 41.9976 175.293 41.7194C175.364 41.583 175.435 41.4466 175.512 41.3046C175.533 41.2649 175.544 41.2478 175.572 41.1853L175.643 40.9974C175.693 40.8723 175.742 40.7471 175.792 40.6219C175.989 40.1155 176.193 39.5862 176.402 39.0456C177.222 36.8716 177.858 34.3755 178.299 31.963C178.439 31.3644 178.499 30.7593 178.574 30.1715C178.65 29.5837 178.72 29.0072 178.789 28.4479C178.875 27.8945 178.881 27.3459 178.918 26.8263C178.95 26.3065 178.976 25.8096 179.002 25.347C179.081 24.4163 179.03 23.5985 179.047 22.9414C179.054 22.2842 179.064 21.7928 179.094 21.5017C178.509 17.706 177.999 13.9969 176.687 9.55874C176.804 10.1259 176.778 10.6171 176.581 10.4834C176.485 10.4195 176.348 10.2008 176.165 9.76436C176.076 9.54619 175.977 9.27075 175.862 8.93799C175.81 8.77167 175.748 8.58236 175.685 8.38735C175.612 8.19222 175.534 7.97989 175.445 7.75029C175.845 7.97765 175.912 7.65835 175.779 6.99391C175.713 6.66169 175.594 6.24314 175.443 5.7671C175.365 5.53191 175.282 5.27382 175.193 5.00994C175.083 4.75153 174.968 4.48733 174.847 4.21166C174.365 3.10896 173.841 1.86292 173.241 0.764611C172.963 0.207128 172.7 -0.33874 172.475 -0.844194C172.244 -1.34399 172.012 -1.78093 171.871 -2.17114C172.175 -1.49906 171.915 -1.74203 171.391 -2.41657C171.132 -2.75094 170.804 -3.19468 170.444 -3.68449C170.052 -4.14609 169.628 -4.64803 169.21 -5.14421C168.781 -5.62908 168.4 -6.14198 167.991 -6.50661C167.592 -6.88826 167.253 -7.2064 167.008 -7.40916C166.514 -7.81475 166.422 -7.75863 167.051 -6.83717C165.969 -8.0323 165.997 -8.1406 166.11 -8.19649C166.212 -8.24107 166.438 -8.26709 165.622 -9.20779C162.666 -11.6984 159.233 -14.1657 155.286 -16.1072C151.35 -18.043 146.888 -19.3845 142.293 -19.7388C142.142 -19.6548 143.65 -19.3464 141.684 -19.3856C141.288 -19.4643 140.892 -19.5545 140.491 -19.6161L139.286 -19.7496C138.483 -19.8272 137.675 -19.9448 136.861 -19.971C135.954 -19.8726 135.545 -19.7057 134.949 -19.5695C134.653 -19.5042 134.304 -19.4453 133.832 -19.4048C133.36 -19.3472 132.754 -19.2568 131.928 -19.1975C132.399 -19.2037 133.096 -19.2073 131.904 -18.9863C127.487 -18.3442 123.131 -16.8384 119.116 -14.6144L118.421 -14.2221C118.281 -14.1494 118.146 -14.0823 118.006 -13.9981L117.796 -13.8748L117.688 -13.8131C117.688 -13.8131 117.667 -13.8876 117.657 -13.922C117.621 -14.0824 117.579 -14.2372 117.549 -14.409L117.503 -14.661L117.478 -14.787L117.432 -14.999L117.237 -15.8813C117.103 -16.4657 116.996 -17.067 116.798 -17.635C116.434 -18.7821 116.097 -19.9404 115.712 -21.082L114.367 -24.4232C110.45 -33.1826 103.995 -40.5931 96.2115 -45.3665C98.3267 -44.0855 96.8984 -44.9074 95.2677 -45.8514C96.3227 -45.2281 95.219 -45.812 95.4105 -45.6612C94.8615 -45.976 94.3345 -46.3419 93.7637 -46.6112L92.0568 -47.4361L91.2033 -47.8515C90.9207 -47.9975 90.6326 -48.1265 90.3334 -48.227L88.5659 -48.8926C88.4003 -48.9401 88.1599 -49.0228 87.8607 -49.1233C87.5616 -49.2295 87.2038 -49.3593 86.7974 -49.4495C85.9902 -49.6586 85.0333 -49.9093 84.0924 -50.1599C83.6276 -50.308 83.1455 -50.3362 82.6962 -50.427C82.2467 -50.5006 81.824 -50.5682 81.4494 -50.6295C80.7002 -50.7465 80.1438 -50.8442 79.9454 -50.835C80.7322 -50.729 81.5079 -50.5889 82.2946 -50.4658C80.7317 -50.6833 81.8175 -50.4539 83.2243 -50.1696C83.5774 -50.1085 83.9462 -50.0015 84.2934 -49.889C84.6408 -49.7823 84.9773 -49.6756 85.2659 -49.5867C85.8376 -49.4088 86.2008 -49.279 86.0829 -49.2804C86.5105 -49.167 86.9814 -49.0874 87.4567 -48.9107C87.9319 -48.7339 88.4393 -48.5454 88.9679 -48.3508C89.4966 -48.1506 90.0465 -47.9387 90.6232 -47.7208C91.1779 -47.446 91.7486 -47.1653 92.3353 -46.873C92.9166 -46.575 93.5356 -46.3052 94.1325 -45.9613C94.7239 -45.6061 95.326 -45.245 95.9387 -44.8781C96.2424 -44.6975 96.5515 -44.5169 96.8606 -44.3306C97.1696 -44.1499 97.4568 -43.9181 97.7603 -43.7147C98.3619 -43.3022 98.9634 -42.8897 99.5703 -42.4714C100.608 -41.6882 98.649 -43.0761 99.1915 -42.6471C99.4949 -42.4379 99.836 -42.2398 100.171 -41.9675C100.501 -41.6894 100.862 -41.3882 101.271 -41.0522C101.675 -40.7104 102.116 -40.3283 102.621 -39.8997C103.121 -39.4598 103.614 -38.8999 104.208 -38.2989L103.932 -38.5592C107.243 -35.1959 109.242 -32.3846 110.98 -29.2733C111.919 -27.7597 112.615 -26.0545 113.486 -24.1988C113.836 -23.229 114.206 -22.2133 114.608 -21.1115C114.828 -20.5718 114.967 -19.9816 115.132 -19.3739C115.298 -18.7663 115.469 -18.1414 115.644 -17.4879L115.561 -18.3004C115.711 -17.7387 115.835 -17.2857 115.939 -16.9074C116.032 -16.5291 116.066 -16.2087 116.117 -15.9395C116.203 -15.3842 116.263 -14.9778 116.349 -14.4282C116.607 -13.4251 116.603 -13.5966 116.486 -14.2495C116.4 -14.7134 116.242 -15.5667 116.079 -16.4258C115.688 -18.0475 115.189 -19.6705 115.644 -18.5395C115.715 -18.1558 115.844 -17.6228 116.004 -16.9752C116.148 -16.3221 116.258 -15.5436 116.421 -14.696C116.477 -14.4096 116.533 -14.1175 116.589 -13.814C116.65 -13.4818 116.717 -13.1667 116.794 -12.8629C116.83 -12.7082 116.871 -12.5478 116.907 -12.3873L116.964 -12.1466L116.98 -12.0893C116.98 -12.0893 117.012 -12.1004 117.028 -12.1059L117.136 -12.1619C117.416 -12.3073 117.701 -12.4527 117.992 -12.5981C118.913 -13.0907 119.867 -13.5944 120.815 -14.0982C121.687 -14.4656 122.548 -14.8275 123.366 -15.1727C123.571 -15.2561 123.775 -15.3395 123.974 -15.423C124.179 -15.4893 124.383 -15.5499 124.582 -15.6105C124.98 -15.7318 125.356 -15.8476 125.716 -15.9579C126.436 -16.1613 127.066 -16.3829 127.597 -16.4513C128.128 -16.5368 128.536 -16.5779 128.788 -16.5694C130.421 -16.934 130.169 -16.9426 129.917 -16.9511C129.794 -16.9525 129.665 -16.9539 129.773 -17.0098C129.827 -17.0321 129.94 -17.0709 130.144 -17.1257C130.348 -17.1863 130.638 -17.2516 131.057 -17.2984L131.957 -17.2769L132.775 -17.5764C133.864 -17.747 134.7 -17.692 135.262 -17.6514C135.825 -17.6109 136.124 -17.5389 136.166 -17.4756C135.636 -17.4701 134.665 -17.378 134.101 -17.3443C134.814 -17.3306 135.661 -17.3441 136.551 -17.3741C136.776 -17.383 137.001 -17.3919 137.227 -17.4008L137.907 -17.3704C138.362 -17.3539 138.813 -17.3431 139.252 -17.3267C139.691 -17.3161 140.114 -17.3 140.511 -17.2898C140.907 -17.2454 141.271 -17.2013 141.603 -17.1633C142.262 -17.0873 142.754 -17.0247 142.995 -16.9763L141.422 -17.2396C140.897 -17.3312 140.373 -17.4285 139.837 -17.4459C140.405 -17.451 140.973 -17.3704 141.551 -17.301C142.129 -17.2317 142.713 -17.1623 143.301 -17.0872C143.596 -17.061 143.89 -17.0063 144.184 -16.9344C144.478 -16.8682 144.772 -16.8078 145.067 -16.7416C145.655 -16.615 146.254 -16.4826 146.853 -16.3559C147.441 -16.1721 148.028 -15.9884 148.621 -15.8046L149.508 -15.5261C149.808 -15.437 150.102 -15.3423 150.39 -15.2133C150.966 -14.9725 151.548 -14.7374 152.125 -14.4967L152.995 -14.1383L153.832 -13.706C158.344 -11.4838 162.328 -8.34737 165.469 -5.15748L165.127 -5.78996C165.727 -5.17745 166.279 -4.68551 166.682 -4.1895C167.089 -3.69344 167.428 -3.26672 167.725 -2.88621C168.016 -2.50004 168.286 -2.17697 168.491 -1.8432C168.697 -1.5037 168.882 -1.1873 169.071 -0.870849C169.261 -0.548679 169.451 -0.226514 169.662 0.130182C169.767 0.308531 169.878 0.492678 169.999 0.694064C170.105 0.900985 170.22 1.11943 170.341 1.35511C170.589 1.82651 170.873 2.35548 171.215 2.97083C171.394 3.27574 171.562 3.62054 171.73 3.9939C171.909 4.36739 172.098 4.76955 172.308 5.20053L172.149 4.97017C172.35 5.29818 172.561 5.65487 172.782 6.04598C172.987 6.4369 173.165 6.87322 173.359 7.32117C173.553 7.76912 173.741 8.23987 173.929 8.71633C174.128 9.19291 174.247 9.71431 174.402 10.2247C173.643 8.43308 175.004 13.8834 174.047 11.5123C174.125 11.7361 174.198 11.9484 174.271 12.1492C174.333 12.3557 174.379 12.5505 174.431 12.7397C174.535 13.1123 174.628 13.4506 174.711 13.7544C174.882 14.3621 175.016 14.838 175.125 15.2164C175.294 15.9841 175.398 16.3625 175.502 16.6608C175.689 17.263 175.992 17.5007 176.53 20.0271L176.277 21.2245C176.446 22.0836 176.559 22.5592 176.659 23.3033C176.698 23.6752 176.763 24.1217 176.768 24.7162C176.762 25.3105 176.744 26.0647 176.702 27.0529C176.654 25.4236 176.482 26.0503 176.305 26.6084C176.122 27.1722 175.935 27.673 175.851 25.8832C175.195 29.8879 174.764 32.8207 174.226 35.2265C174.092 35.825 173.963 36.3951 173.839 36.9309C173.674 37.4549 173.502 37.9559 173.316 38.4225C173.129 38.8948 172.931 39.3383 172.708 39.7587L172.615 39.9234L172.479 40.1562L172.19 40.6273C171.988 40.9451 171.782 41.2629 171.553 41.5975C171.213 42.9653 171.412 42.9104 171.787 42.3202C171.978 42.0195 172.218 41.5707 172.486 41.0422C172.617 40.7807 172.754 40.4965 172.902 40.201C172.984 40.0362 173.017 39.9451 173.061 39.8313C173.105 39.7174 173.149 39.6036 173.193 39.4898C173.545 38.5736 173.892 37.6059 174.118 36.9912C174.301 36.3589 174.389 36.0913 174.293 36.616C174.49 36.2181 174.575 36.2191 174.589 36.4878C174.593 36.6193 174.58 36.8192 174.551 37.0704C174.516 37.3157 174.438 37.6063 174.36 37.9312C174.198 38.5752 173.976 39.35 173.733 40.1131C173.7 40.2099 173.678 40.2954 173.634 40.4035L173.497 40.7277C173.403 40.9381 173.316 41.1486 173.228 41.3533C173.047 41.7628 172.872 42.1495 172.702 42.4962C172.582 42.7635 172.45 43.0249 172.308 43.2862L172.085 43.6838L171.97 43.8882L171.91 43.9904C171.883 44.0244 171.92 44.042 171.92 44.0706C172.34 44.4125 172.754 44.8114 173.27 45.2915C173.535 45.5403 173.817 45.8063 174.114 46.084C174.406 46.3615 174.82 46.7377 175.022 46.9628C176.024 48.0199 177.33 49.2861 179.216 51.0275C178.759 50.5937 178.678 50.6328 178.211 50.2104C179.796 51.9655 181.832 53.1199 183.421 55.6409C184.94 56.4637 185.701 58.6497 186.581 58.5567C185.412 56.9719 184.14 55.4718 182.798 54.0566C183.971 55.2241 185.204 56.2952 186.471 57.7267C187.727 59.1581 189.039 60.9674 190.122 63.5913C189.952 63.4351 189.646 63.0087 189.286 62.5075C188.91 62.0232 188.519 61.4473 188.17 60.9977C188.798 62.5135 189.848 63.6397 190.336 65.2911C189.897 65.2462 189.141 63.626 188.023 61.7733C186.927 59.9036 185.452 57.8125 184.124 56.6375C184.529 57.4135 185.642 58.6376 186.377 59.6346C187.14 60.6089 187.535 61.3049 186.741 60.7874C187.854 61.5542 188.617 62.9515 189.362 64.5772C190.091 66.2256 190.775 68.0907 191.801 70.0396L191.298 69.914C191.429 70.2298 191.666 70.701 191.885 71.2636C192.089 71.8259 192.329 72.463 192.462 73.0817C192.105 72.3805 191.72 71.7018 191.335 71.0403C192.038 72.6369 192.348 74.3149 192.46 75.9793C192.554 76.8033 192.541 77.6433 192.613 78.4614C192.637 79.2903 192.656 80.1135 192.771 80.9435C192.691 79.1938 192.642 78.2274 192.62 77.7013C192.609 77.1754 192.675 77.0962 192.765 77.1429C192.941 77.2306 193.235 77.8282 193.197 76.3133C193.658 78.4731 193.665 79.9133 193.65 80.959C193.661 82.005 193.445 82.6713 193.278 83.361C193.188 83.7029 193.099 84.0562 193.009 84.461C192.925 84.8658 192.851 85.3336 192.711 85.8979C192.593 86.4681 192.474 87.1411 192.359 87.9742C192.33 88.1796 192.311 88.4023 192.266 88.6304C192.221 88.8585 192.176 89.0924 192.125 89.3433C192.029 89.8394 191.933 90.387 191.831 90.9859C191.917 90.3354 192.229 89.1444 192.435 88.358C192.609 87.5656 192.774 87.1902 192.753 88.2358C192.7 88.6981 192.545 89.1822 192.433 89.6782C192.305 90.1683 192.177 90.6697 192.054 91.1484C191.987 91.3877 191.926 91.6157 191.865 91.8436C191.782 92.0598 191.705 92.2704 191.628 92.4639C191.474 92.8565 191.337 93.1922 191.211 93.4479C191.005 94.2229 190.887 94.8045 190.765 95.2032C190.644 95.6019 190.577 95.8412 190.554 95.9667C190.509 96.2176 190.639 96.0133 190.814 95.7009C190.901 95.5419 191 95.3601 191.092 95.1954C191.18 95.025 191.251 94.8714 191.311 94.7807C191.425 94.599 191.483 94.6683 191.337 95.3525C190.744 96.3117 190.522 97.0693 190.336 97.9531C190.257 98.398 190.129 98.8481 189.979 99.3607C189.83 99.8791 189.642 100.454 189.378 101.126L189.042 100.962C187.263 104.188 187.14 104.695 187.071 105.135C187.037 105.357 187.014 105.557 186.757 106.046C186.626 106.29 186.441 106.602 186.163 107.028C186.022 107.238 185.869 107.482 185.674 107.748C185.467 108.003 185.229 108.286 184.968 108.609C185.187 108.177 185.427 107.768 185.619 107.319L186.184 105.982C185.884 106.476 185.601 106.981 185.29 107.475L184.296 108.893L184.422 108.06C183.916 108.849 183.496 109.513 183.094 110.08C182.66 110.618 182.27 111.088 181.869 111.54C181.668 111.767 181.467 111.993 181.256 112.225C181.05 112.457 180.833 112.695 180.574 112.915C180.076 113.372 179.519 113.88 178.854 114.496C179.231 114.294 179.24 114.489 178.86 115.027C178.485 115.572 177.63 116.339 176.387 117.383C175.939 117.704 175.746 117.77 175.676 117.775C175.606 117.774 175.655 117.706 175.65 117.683C175.645 117.66 175.58 117.682 175.284 117.885C174.987 118.082 174.463 118.453 173.535 119.117C173.908 118.738 174.293 118.331 174.801 117.914C175.055 117.705 175.341 117.491 175.675 117.272C175.994 117.03 176.356 116.777 176.776 116.524C176.875 116.308 177.438 115.709 177.537 115.493C176.565 116.15 175.457 117.127 174.313 117.897C173.757 118.308 173.217 118.708 172.737 119.062C172.235 119.382 171.782 119.657 171.437 119.871C171.976 119.551 172.644 119.21 172.973 119.013C172.093 119.672 171.171 120.262 170.264 120.892C169.816 121.219 169.331 121.47 168.852 121.745L168.124 122.154L167.014 122.742C165.556 123.365 166.51 122.759 167.701 122.098C167.276 122.31 166.872 122.512 166.511 122.713L165.966 123.016C165.799 123.122 165.568 123.2 165.486 123.348C165.684 123.956 165.897 124.587 166.089 125.269C166.135 125.441 166.187 125.613 166.239 125.796C166.265 125.888 166.296 125.974 166.317 126.072C166.332 126.135 166.348 126.203 166.368 126.272C166.43 126.513 166.492 126.776 166.554 127.057C166.406 126.838 166.294 126.757 166.131 126.458C166.089 126.378 166.052 126.309 166 126.177C165.932 125.976 165.848 125.746 165.755 125.471C165.562 124.886 165.307 124.117 164.969 123.079C165.017 123.039 165.066 123 165.12 122.961C165.185 122.921 165.26 122.882 165.33 122.843C165.481 122.759 165.643 122.675 165.81 122.58L165.368 122.82C165.217 122.899 165.072 122.983 164.964 123.073C165.255 124.002 165.551 124.909 165.784 125.774C165.939 126.296 165.959 126.439 166.037 126.691L166.218 127.408C166.45 128.365 166.66 129.339 166.843 130.318C166.839 130.764 167.035 133.692 166.861 132.856C167.004 134.663 167.261 136.884 167.339 139.273C167.428 141.658 167.339 144.217 166.935 146.601C166.927 146.853 166.895 147.361 166.746 148.382C166.338 150.618 165.771 152.687 165.053 154.805C164.336 156.923 163.484 159.09 162.35 161.512C161.828 162.37 161.235 163.18 160.665 163.997C159.581 165.756 160.184 164.946 160.623 164.436C161.03 163.904 161.348 163.719 159.433 166.612C159.074 167.111 158.792 167.508 158.563 167.825C158.33 168.137 158.13 168.341 157.989 168.505C157.702 168.822 157.599 168.895 157.551 168.894C157.46 168.893 157.608 168.569 157.039 169.203C156.859 169.447 156.658 169.713 156.447 169.996C156.338 170.138 156.229 170.285 156.115 170.438C155.991 170.58 155.861 170.727 155.73 170.874C155.194 171.474 154.593 172.13 153.943 172.832C153.266 173.504 152.488 174.158 151.693 174.852C151.304 175.208 150.861 175.512 150.419 175.821C149.971 176.125 149.523 176.434 149.064 176.743C150.215 175.836 151.191 175.235 152.192 174.286L152.235 174.27ZM106.066 185.292C106.344 184.878 106.746 184.248 107.127 183.647C107.323 183.34 107.487 183.074 107.677 182.784C107.949 182.359 108.178 181.995 108.346 181.769C108.144 182.212 107.931 182.627 107.745 182.951C107.614 183.189 107.473 183.416 107.31 183.655C106.989 184.125 106.587 184.629 106.061 185.298L106.066 185.292ZM41.3168 188.586C41.5985 188.823 41.9059 189.175 42.234 189.602C42.4035 189.81 42.5618 190.057 42.7471 190.288C42.9324 190.524 43.1283 190.772 43.3294 191.026C42.6442 190.401 41.9879 189.559 41.3168 188.586ZM-27.1666 36.9689C-27.1455 37.0091 -27.1244 37.038 -27.1033 37.0725C-26.478 39.4398 -26.6949 38.5972 -27.1666 36.9689ZM-28.2703 32.0358C-28.4371 31.5539 -28.5019 31.6046 -28.5256 31.8329C-28.4307 31.9883 -28.3217 32.3496 -28.2138 32.8251C-28.0898 33.2952 -27.924 33.8799 -27.7694 34.5046C-27.7514 34.3105 -27.7649 34.0532 -27.8469 33.6637C-27.8878 33.4689 -27.9446 33.2453 -28.0223 32.9759C-28.0894 32.7065 -28.1613 32.3914 -28.2649 32.0301L-28.2703 32.0358ZM181.106 47.4309C181.312 47.6676 181.514 47.9155 181.709 48.1635C180.077 46.8536 180.578 47.1621 181.106 47.4309Z" fill="#725941"/>
<path d="M47.7337 194.424C47.9138 194.643 47.9342 194.747 47.944 194.838C48.2799 195.025 48.3286 194.968 47.7337 194.424Z" fill="#725941"/>
<path d="M166.955 146.745L166.983 146.591C166.984 146.505 166.979 146.453 166.969 146.425L166.955 146.745Z" fill="#725941"/>
<path d="M100.766 190.651L100.668 190.844C101.008 190.597 101.463 190.162 102.335 189.24C101.821 189.726 101.302 190.194 100.772 190.651L100.766 190.651Z" fill="#725941"/>
<path d="M133.468 183.25C133.27 183.293 133.071 183.354 132.867 183.375C133.258 183.379 133.639 183.338 134.025 183.319L133.468 183.25Z" fill="#725941"/>
<path d="M158.372 167.12C158.019 167.642 157.558 168.14 157.135 168.684C156.706 169.216 156.277 169.749 155.865 170.23C156.728 169.171 157.459 168.373 157.931 167.858C158.397 167.338 158.56 167.065 158.372 167.126L158.372 167.12Z" fill="#725941"/>
<path d="M30.7305 80.1198H30.6226C30.6406 79.9758 30.6406 79.8319 30.6406 79.67C30.6766 79.8139 30.6945 79.9758 30.7305 80.1198Z" fill="white"/>
<path d="M74.4354 60.7594C74.4893 59.8957 74.7952 56.3691 77.7281 53.4542C80.7329 50.4494 84.4035 50.2155 85.2312 50.1795C85.4291 49.4418 86.7066 45.1235 90.9349 43.0543C94.9834 41.075 100.111 41.9387 103.764 45.3034C109.324 44.2958 114.92 46.329 118.23 50.5933C122.225 55.7213 121.073 61.713 120.875 62.6127C126.201 66.913 128.27 73.7683 126.165 79.5261C123.97 85.5537 118.104 87.7489 117.205 88.0727C117.565 89.7281 118.428 94.5682 115.855 99.4623C112.886 105.13 106.517 108.585 99.4816 108.441C99.3557 109.322 98.1501 117.041 90.9349 121.072C82.7121 125.66 74.4534 121.108 74.0215 120.874C69.6492 124.76 63.6216 126.038 58.3316 124.131C51.8902 121.81 49.5151 115.872 49.1732 114.972C47.9137 115.044 42.066 115.224 37.1539 110.906C30.7844 105.292 31.5581 97.0333 31.648 96.2416C31.0722 96.0077 21.7879 92.1032 20.0425 82.189C18.6031 74.0022 23.3892 67.9926 24.109 67.1109C21.338 60.6334 22.9394 53.3822 27.7795 49.3878C33.0695 44.9975 39.8168 46.5449 40.6085 46.7428C43.7213 42.9463 48.6514 41.237 53.2756 42.3525C59.5012 43.864 61.8043 49.6937 62.0022 50.1975C63.1718 50.1615 66.1766 50.2515 69.1274 52.2307C73.4997 55.1636 74.3094 59.9677 74.4174 60.7774L74.4354 60.7594Z" fill="#FFB5D7"/>
<path d="M74.4354 60.4895C74.4354 60.4895 74.2554 60.4355 74.2194 60.4895C74.1655 60.5615 74.1835 60.5255 74.1835 60.4715C74.2195 59.122 74.4714 57.7905 74.9392 56.531C76.5405 52.3027 80.643 49.3338 85.1952 48.92L84.0436 49.8376C86.1848 40.0494 98.0242 37.2425 105.167 43.774L103.422 43.2702C111.645 41.4529 120.821 46.4909 122.962 54.8217C123.7 57.5386 123.826 60.2916 123.268 63.0985L122.423 60.7234C132.985 69.0901 131.059 85.4278 117.798 89.6561L118.878 87.7129C121.415 99.7142 111.303 109.808 99.4996 109.286L100.345 108.567C99.8415 111.464 98.7619 114.199 97.1065 116.61C92.0325 124.275 81.3987 126.218 73.3738 122.08L74.9752 121.918C72.9779 123.771 70.5669 125.21 67.9219 126.02C59.5911 128.809 50.2168 123.915 47.086 115.782L49.3351 117.239C40.8604 118.013 32.3318 112.453 29.9567 104.23C29.111 101.532 28.7691 98.8686 28.9851 95.9357L30.6764 98.7606C28.9671 98.0589 27.6536 97.2672 26.2861 96.3135C15.8502 89.5482 13.9069 74.7219 22.0038 65.3116L21.5899 68.1905C20.3844 65.2396 19.8266 61.9829 20.1865 58.7801C21.0142 48.4522 31.3601 41.7768 41.1843 44.6017L38.9712 45.3394C46.0604 36.9007 59.6271 39.2937 63.2077 49.7477L62.0202 48.938C68.3717 48.938 73.9676 53.904 74.6873 60.1656L74.7233 60.4535C74.7233 60.5075 74.7592 60.5615 74.7053 60.4895C74.6513 60.4355 74.5253 60.4535 74.4714 60.4895H74.4354ZM74.4534 61.0293C74.1835 60.9573 74.0935 60.4715 74.0395 60.2736C72.744 54.9476 67.5441 50.8272 62.0382 51.421L61.2465 51.475L60.8507 50.6113C57.1621 42.2626 46.4383 41.5069 41.5442 49.0999C33.9691 46.9947 26.0882 50.9352 25.5664 59.284C25.2605 62.1089 26.1602 64.9517 27.3657 67.4888C21.8598 73.4624 20.8162 83.0707 26.682 89.2063C28.8051 91.6534 31.72 93.3447 34.5989 94.5322C32.7456 104.087 38.9712 112.885 49.0832 112.651L50.7926 112.615C53.4555 122.619 65.007 126.614 73.1399 119.794L73.9136 119.147L74.7592 119.632C85.0332 125.642 97.5384 119.507 98.8159 107.577C110.385 108.189 119.166 98.4187 115.261 87.0651C126.759 83.2326 127.821 70.3676 118.284 63.5483L118.554 62.0909C120.569 52.8245 112.221 45.3394 103.152 47.4446L102.432 46.7788C97.3225 41.6148 88.6498 43.3781 86.4727 50.4854L86.1488 51.403C80.8229 50.8812 75.6949 54.9296 74.8312 60.2556C74.7952 60.4715 74.7592 60.9033 74.4893 61.0113L74.4534 61.0293Z" fill="#B84C65"/>
<path d="M45.1787 55.6853C48.7593 57.9704 58.0437 63.2604 71.0346 63.2604C84.0256 63.2604 93.31 57.9704 96.8906 55.6853C94.6055 59.2659 89.3155 68.5503 89.3155 81.5413C89.3155 94.5322 94.6055 103.817 96.8906 107.397C93.31 105.112 84.0256 99.8221 71.0346 99.8221C58.0437 99.8221 48.7593 105.112 45.1787 107.397C47.4638 103.817 52.7537 94.5322 52.7537 81.5413C52.7537 68.5503 47.4638 59.2659 45.1787 55.6853Z" fill="#FFEB99"/>
<path d="M43.3434 56.3691C59.9869 66.9669 81.8664 66.2832 98.384 55.7573L94.9473 56.0272C84.9612 71.6991 84.9432 92.2291 94.9293 107.919L98.7258 106.731C82.0823 96.1336 60.2028 96.8173 43.6853 107.343L47.1219 107.073C57.108 91.4014 57.126 70.8714 47.1399 55.1815C46.5282 54.2099 42.8936 55.7213 43.2354 56.2251C53.1676 71.825 53.1856 92.1391 43.2534 107.739C42.7496 108.531 46.3662 107.667 46.6901 107.469C61.4264 98.0768 80.427 98.7606 95.0553 108.081C95.649 108.459 99.3016 107.595 98.8518 106.893C88.9197 91.2935 88.9017 70.9794 98.8338 55.3794C99.3376 54.5877 95.721 55.4514 95.3971 55.6493C80.6609 65.0417 61.6603 64.3579 47.032 55.0376C46.0963 54.4438 42.8036 56.0272 43.3434 56.3691Z" fill="#B84C65"/>
<path d="M73.176 34.3637C73.7518 34.3997 74.3276 34.4357 74.9034 34.4717C74.4715 38.1603 74.0577 45.7533 77.4584 54.4259C80.7151 62.7747 85.8971 67.9927 88.668 70.4397C88.668 70.4397 98.852 79.5622 114.938 81.9912C117.979 82.459 120.552 82.585 122.423 82.603C122.423 83.1608 122.441 83.7365 122.441 84.2943C120.498 84.1864 117.745 84.1324 114.47 84.3663C106.751 84.9421 94.8936 85.8057 86.149 93.7586C78.466 100.74 76.3968 110.24 74.3096 119.812C73.158 125.066 72.7982 129.547 72.6722 132.749C71.8626 127.729 71.0349 122.709 70.2252 117.671C69.1636 102.917 62.3083 95.8278 60.0951 93.7586C50.9907 85.2479 37.172 84.0784 26.1064 83.0708C23.5693 82.8369 21.4642 82.7649 20.0427 82.7469C20.0787 82.2431 20.0967 81.7213 20.1327 81.2175C21.5721 81.3255 23.5873 81.4334 26.0164 81.3435C29.8849 81.1995 43.9194 80.1559 55.9567 70.2238C71.9165 57.0529 73.0501 37.5485 73.176 34.3637Z" fill="#FFEB99"/>
<path d="M72.9241 34.7056C73.4999 34.7416 74.0757 34.7776 74.6515 34.8136L74.2556 34.5437C72.8702 46.3651 76.6667 58.4384 84.6376 67.2909C89.1718 72.329 95.0375 75.9276 101.245 78.5546C107.867 81.3435 114.956 82.8369 122.135 82.9449L121.739 82.7649C121.739 83.3227 121.739 83.8985 121.757 84.4563L122.675 83.9345C117.727 83.6646 112.707 84.0424 107.795 84.6542C102.882 85.2659 98.0064 86.3815 93.5081 88.4687C88.596 90.7538 84.2777 94.1905 81.2009 98.6887C78.0342 103.277 76.2888 108.621 74.9753 113.983C73.4459 120.19 72.2404 126.434 72.0065 132.839L73.302 132.57C72.6722 128.647 72.0245 124.743 71.3947 120.82C70.8369 117.365 70.603 113.875 69.8293 110.456C68.7858 105.85 66.9505 101.388 64.1975 97.5192C58.5837 89.6562 49.3173 86.0396 40.0869 84.3663C33.6094 83.1968 26.8801 82.513 20.2946 82.3871L20.6905 82.657C20.7264 82.1532 20.7444 81.6314 20.7804 81.1276L19.8628 81.5594C30.6946 82.4051 41.9942 79.7421 51.2426 74.0383C61.9664 67.4349 69.2356 56.6931 72.2764 44.5658C73.1221 41.2011 73.6798 37.7464 73.8238 34.2738C73.8418 33.77 72.5463 34.0399 72.5283 34.4537C72.2044 42.0827 70.0812 49.7838 66.4826 56.5311C60.0951 68.4965 48.7416 76.6833 35.6067 79.7241C30.6226 80.8757 25.4946 81.2895 20.4026 80.8757C20.2047 80.8757 19.5029 81.0196 19.4849 81.3075C19.4489 81.8113 19.431 82.3331 19.395 82.8369C19.395 83.0528 19.6109 83.0888 19.7908 83.1068C25.5666 83.2147 31.4323 83.8085 37.1361 84.7082C42.8398 85.6078 48.8135 87.0832 53.9775 89.9981C61.2647 94.1185 65.9069 101.064 68.084 109.053C69.0556 112.615 69.2896 116.232 69.8833 119.866C70.5851 124.221 71.3048 128.593 72.0065 132.947C72.0785 133.343 73.302 133.037 73.302 132.678C73.5179 127.226 74.4176 121.918 75.6231 116.592C76.8286 111.266 78.1421 106.228 80.6791 101.55C83.2161 96.8714 87.1926 92.6971 92.0327 89.9981C96.459 87.5331 101.443 86.2196 106.445 85.4999C111.447 84.7801 116.953 84.3663 122.189 84.6362C122.477 84.6362 123.107 84.4923 123.107 84.1144C123.107 83.5566 123.107 82.9808 123.089 82.4231C123.089 82.2791 122.783 82.2431 122.693 82.2431C111.735 82.0992 100.831 78.5366 91.8888 72.203C85.3033 67.5428 80.3552 60.5975 77.6563 53.0225C75.5511 47.0668 74.8314 40.6433 75.5691 34.3817C75.5871 34.1658 75.3352 34.1298 75.1733 34.1118C74.5975 34.0759 74.0217 34.0399 73.4459 34.0039C72.9781 33.9679 72.0605 34.6516 72.9241 34.7056Z" fill="#B84C65"/>
<path d="M73.8234 93.1109C75.1189 93.5967 77.0441 94.1545 79.4372 94.2624C80.1569 94.2984 87.552 94.5323 92.8779 89.5303C98.0059 84.7081 99.5713 76.5213 96.7464 68.9643C92.698 68.8563 89.6932 69.7559 88.0018 70.4217C80.3188 73.3545 73.5355 80.9476 73.3915 89.1344C73.3555 90.8977 73.6434 92.3192 73.8413 93.1109H73.8234Z" fill="#B84C65"/>
<path d="M73.3195 93.4527C77.7098 95.0721 82.424 95.0181 86.8503 93.5247C89.8191 92.5171 92.5541 90.8257 94.6053 88.4327C96.6565 86.0396 97.934 83.1247 98.4918 80.0479C99.1575 76.2874 98.7257 72.4009 97.4122 68.8203C97.3582 68.6584 97.1603 68.6044 97.0163 68.6044C91.8703 68.4964 86.8863 69.9359 82.6399 72.8507C78.3936 75.7656 74.9029 79.958 73.4275 84.906C72.6178 87.641 72.5279 90.5199 73.1936 93.2908C73.3016 93.7766 74.615 93.4347 74.4891 92.9489C72.168 83.2327 79.779 73.8044 88.5776 70.6016C91.1146 69.684 93.8136 69.3241 96.4945 69.3781L96.0987 69.1622C98.2219 74.9199 98.0239 81.6853 94.5153 86.8853C91.5105 91.3475 86.3825 93.5967 81.1285 93.8845C78.8254 94.0105 76.5043 93.5967 74.3452 92.805C74.0393 92.697 73.6974 92.733 73.4275 92.9129C73.2656 93.0209 73.0137 93.3448 73.3195 93.4527Z" fill="#FFEB99"/>
<path d="M72.2402 92.2831C76.0907 86.7413 81.7945 82.0991 88.6318 81.3074C85.537 82.261 82.8021 84.0243 80.5889 86.3274C78.4838 88.5046 76.6125 91.2395 75.425 93.9565L72.2402 92.2831Z" fill="#FFEB99"/>
<path d="M46.6359 67.6507C47.7875 67.6148 62.1819 67.4708 69.7749 78.7884C73.5895 84.4922 73.8773 90.3939 73.8234 93.1108C72.0421 94.0825 69.2351 95.288 65.6725 95.5939C64.6289 95.6838 52.8975 96.4575 46.9778 87.0832C43.3432 81.3254 43.2533 73.8583 46.6359 67.6507Z" fill="#B84C65"/>
<path d="M46.2041 67.9026C49.6588 67.8127 53.2214 68.4784 56.4781 69.594C62.9556 71.8071 68.3895 76.3234 71.1424 82.6749C72.5818 86.0216 73.2476 89.6562 73.1756 93.2908L73.3376 93.1108C68.8933 95.5039 64.1791 95.8818 59.321 94.7842C56.4241 94.1364 53.6352 92.9129 51.2961 91.0416C48.2913 88.6306 46.2221 85.1939 45.3225 81.4514C44.1889 76.7372 44.9806 71.7711 47.2657 67.5248C47.3377 67.3808 46.1501 67.4348 45.9882 67.7587C41.9218 75.3338 42.9114 85.2659 49.5868 91.0596C53.5992 94.5503 59.1771 96.0257 64.431 95.8818C67.8857 95.7918 71.2864 94.7482 74.3092 93.1108C74.3811 93.0749 74.4711 93.0209 74.4711 92.9309C74.5791 85.8237 71.8441 78.8064 66.4462 74.0922C62.2539 70.4217 56.82 68.3885 51.3501 67.6687C49.9287 67.4888 48.4892 67.3629 47.0678 67.3988C46.7979 67.3988 46.3661 67.4528 46.1501 67.6507C46.0062 67.7767 45.9162 67.9206 46.2221 67.9026H46.2041Z" fill="#FFEB99"/>
<path d="M72.0963 93.6147C69.8112 87.2452 62.488 84.1504 56.3884 82.3511L53.4196 81.6314L56.4784 81.9193C62.686 82.7469 69.2894 84.6362 73.5897 89.5303C74.3454 90.4299 74.9932 91.2396 75.5689 92.6431L72.1143 93.6327L72.0963 93.6147Z" fill="#FFEB99"/>
</svg>
