<?xml version="1.0" encoding="UTF-8"?>
<svg id="Layer_7" data-name="Layer 7" xmlns="http://www.w3.org/2000/svg" viewBox="0 0 1512 207">
  <defs>
    <style>
      .cls-1 {
        fill: #866344;
      }

      .cls-2 {
        fill: #ffeb99;
      }

      .cls-3 {
        fill: #b84c65;
      }

      .cls-4 {
        fill: #ffb5d7;
      }

      .cls-5 {
        fill: #e1f9ff;
      }
    </style>
  </defs>
  <path class="cls-1" d="M339.96,5.79c-2.85-1.81-4.22-3.36-5.98-5.51l1.03,3.61c1.66.66,3.29,1.31,4.95,1.9Z"/>
  <path class="cls-1" d="M117.96,1.18c-.08-.07-.12-.1-.2-.16.07.09.17.2.22.28v-.1s-.02-.02-.02-.02Z"/>
  <path class="cls-1" d="M123.96,6.79c-2.85-1.81-4.22-3.36-5.98-5.51l1.03,3.61c1.66.66,3.29,1.31,4.95,1.9Z"/>
  <path class="cls-1" d="M1231.85,13.18c.09-.07.12-.1.2-.16-.07.09-.16.2-.22.28v-.1s.02-.02.02-.02Z"/>
  <g>
    <path class="cls-5" d="M2357.6-65.59c-12.03-27.15-62.61-34.31-98.56-24.92-50.77,13.26-72.44,59.57-75.57,66.55-9.9,1.7-21.05,4.32-32.98,8.39-23.23,7.93-41.51,18.64-54.76,27.99-8.1-5.35-48.49-30.88-94.1-17.43-13.21,3.9-23.67,10.13-31.44,16.01-25.99-8.16-44.57-15.05-57-19.95-4.82-1.9-14.21-5.68-27.34-9.53-11.66-3.42-21.43-5.49-27.94-6.7-7.86,7.06-20.14,15.92-36.95,20.7-47.83,13.6-89.17-18.1-94.64-22.43-1.92-11-10.67-21.67-23.72-30.38-17.1-11.42-33.39-16.14-43.18-17.88-16.7-21.69-61.76-26.95-94.62-18.37-15.27,3.99-27.9,10.97-38.2,18.97-50.34-7.56-92.71,19.25-101.89,25.32-16.58-11.7-39.45-25.1-68.52-35.02-14.93-5.09-28.87-8.38-41.27-10.5-3.91-8.73-31.02-66.67-94.55-83.27-44.98-11.75-108.27-2.78-123.32,31.18-1.25,2.82-2.15,5.79-2.73,8.88-7.99-5.45-17.16-10.2-27.65-13.61-36.84-12-89.94-7.67-104.14,19.85-7.35,14.25-3.91,33.99,6.12,54.22-4.18-.92-7.54-1.36-9.77-1.52-38.11-2.73-65.25,19.69-71.32,24.96-9.72-7.36-22.81-15.15-39.34-20.03-16.06-4.74-31.59-5.61-45.86-4.27-28.24-2.27-61.52,4.88-80.32,20.36-10-6.52-21.82-13.29-35.44-19.5-11.38-10.38-26.25-19.91-45.17-24.85-7.76-2.03-16.21-3.28-24.8-3.73-10.11-18.96-37.75-61.22-90.48-74.99-44.98-11.75-108.27-2.78-123.32,31.18-1.25,2.82-2.15,5.79-2.73,8.88-7.99-5.45-17.16-10.2-27.65-13.61-36.84-12-89.94-7.67-104.14,19.85-16.09,31.18,19.52,88.71,62.65,119.95.22.16.45.32.68.48-1.52.69-2.99,1.4-4.42,2.11-15.19-8.79-28.79-11.22-34.17-11.61-18.45-1.32-33.67,4.73-43.89,10.65-3.67-.98-7.44-1.89-11.34-2.72-12.94-2.74-24.88-4.07-35.43-4.61-.08-.02-.17-.04-.25-.06-4.27-7.08-32.85-52.69-87.64-60.14-35.68-4.85-82.5,6.48-97.06,31.54-9.46-16.39-31.28-46.03-70.24-56.21-35.95-9.39-86.53-2.22-98.56,24.92-13.63,30.76,23.73,83.81,66.8,111.26C-5.19,81.38,101.15,49.83,122.55,97.97c3.13,7.05,3.17,17.17,13.31,25.06,15.52,12.08,41.61,19.17,65.61,17.76,8.9,15.66,32.72,28.52,59.41,32.26,34.19,4.8,54.71-7.95,56.19-8.9,27.4,9.61,58.69,10.04,78.25,1.25,11.93-5.36,16.43-12.78,17.85-19.18,11.74,14.71,37.76,24.7,65.55,25.23,36.46.69,56.36-15.27,57.79-16.46,29.94,6.6,62.81,3.08,82.2-8.6,7.78-4.69,12.07-9.9,14.29-14.89,11.63,10.63,29.32,19.2,48.78,23.12,35.3,7.11,57.44-4.89,59.04-5.79,27.93,11.7,60.48,14.08,81.37,6.14,14.39-5.46,19.1-14.24,20.33-21.34,3.22,1.56,6.65,2.96,10.22,4.2,14.35,14.49,38.95,25.7,65.91,29.48,2.72.38,5.37.67,7.94.89,8.65,3.71,18.38,6.45,28.53,7.88,34.19,4.8,54.71-7.95,56.19-8.9,27.4,9.61,58.69,10.04,78.25,1.25,4.43-1.99,7.84-4.27,10.44-6.67,2.22,5.42,7.01,11.14,16.7,15.49,19.55,8.78,50.85,8.35,78.25-1.25,1.48.96,22,13.7,56.19,8.9,26.69-3.74,50.51-16.6,59.41-32.26,12.58.74,25.72-.86,37.62-4.29,8.44,4.08,17.91,7.3,27.86,9.31,35.3,7.11,57.44-4.89,59.04-5.79,27.93,11.7,60.48,14.08,81.37,6.14,19.42-7.38,21.22-20.79,20.62-27.96.5-.02,1-.04,1.5-.07,11.13,19.59,40.94,35.68,74.33,40.37,42.78,6,68.46-9.94,70.31-11.14,34.28,12.02,73.44,12.56,97.9,1.57,4.71-2.12,8.49-4.49,11.52-7-.61,7.09,1.35,18.88,18.32,26.51,19.55,8.78,50.85,8.35,78.25-1.25,1.48.96,22,13.7,56.19,8.9,26.69-3.74,50.51-16.6,59.41-32.26,24,1.41,50.08-5.68,65.61-17.76,10.14-7.89,10.18-18.01,13.31-25.06,21.4-48.15,127.74-16.59,207.12-67.2,43.06-27.45,80.43-80.5,66.8-111.26Z"/>
    <g>
      <path class="cls-1" d="M564.65,153.29c-5.42-.38-11.01-1.17-15.8-2.04-2.38-.5-4.59-.92-6.47-1.36-.47-.11-.92-.22-1.35-.32-.81-.18-1.58-.34-2.31-.5-1.47-.31-2.79-.61-3.89-.8-2.74,2.22-3.8,3.04-3.03,2.79l.79-.45.82-.52,1.61-1.02c1.41.39,2.8.85,4.11,1.26.87.16,1.73.33,2.58.48.62.11,1.22.25,1.82.32,1.21.18,2.38.35,3.51.52,1.13.19,2.25.32,3.33.44,1.08.13,2.13.25,3.15.37,2.05.19,3.99.36,5.83.53,1.85.11,3.61.21,5.29.31Z"/>
      <path class="cls-1" d="M1179.84,175.42c-6.27,1.27-11.96,2-17.19,2.44-5.23.39-9.98.48-14.4.38,7.62.41,14.59.11,20.11-.48,2.75-.35,5.16-.66,7.09-1.11.97-.2,1.83-.4,2.57-.59.73-.21,1.34-.43,1.81-.64Z"/>
      <path class="cls-1" d="M1114.17,169.99c1.68,1.13,3.47,2.12,5.44,3,1.04.38,2.04.83,3.1,1.16,1.07.33,2.14.67,3.22,1,1.11.27,2.23.55,3.36.83,1.12.29,2.31.45,3.48.7,4.74.84,9.83,1.38,15.48,1.56-5.62-.34-11.58-1.06-17.46-2.36-5.87-1.29-11.67-3.2-16.63-5.9Z"/>
      <path class="cls-1" d="M1455.14,152.88c1.15.29,2.04.51,2.71.68.67.14,1.13.23,1.4.29.55.11.4.07-.09-.04-.98-.18-3.28-.79-4.02-.93Z"/>
      <path class="cls-1" d="M1501.12,159.7c-1.01.19-1.9.37-2.56.52-.67.12-1.11.24-1.23.35.39-.14.92-.25,1.56-.41.64-.16,1.39-.32,2.24-.47Z"/>
      <path class="cls-1" d="M1022.02,170.57c-.28-.06-.51-.13-.83-.22,2.81.89,2.33.71.83.22Z"/>
      <path class="cls-1" d="M1469.08,156.16c-1.76-.31-3.64-.73-5.64-1.12-1.98-.46-4.08-.94-6.25-1.49,1.9.51,5.48,1.49,11.89,2.61Z"/>
      <path class="cls-1" d="M1467.24,155.45c1.61.34,3.06.48,4.4.7.67.1,1.32.19,1.95.29.63.07,1.25.13,1.86.2.6-.02.64-.07-.52-.2-.58-.06-1.46-.14-2.71-.32-1.25-.18-2.9-.31-4.98-.66Z"/>
      <path class="cls-1" d="M1442.49,148.99c5.12,1.83,9.97,3.33,14.7,4.56-1.8-.53-2.54-.77-2.05-.67-.68-.17-1.42-.36-2.26-.57-.83-.22-1.75-.51-2.78-.82-1.02-.32-2.18-.62-3.43-1.06-1.26-.43-2.64-.91-4.19-1.44Z"/>
      <path class="cls-1" d="M327.12,171.38c.47.09.71.14,1.14.23-.46-.12-1.04-.27-1.45-.38l.31.15Z"/>
      <path class="cls-1" d="M295.57,176.9c5.02-1.35,9.24-2.82,13.01-4.37,1.89-.77,3.67-1.57,5.39-2.39.43-.21.85-.43,1.27-.64l.63-.32.22-.12.16-.09c.43-.23.81-.45,1.18-.68.44.07.88.27,1.33.42.78.27,1.56.53,2.35.8,1.84.55,3.72,1.11,5.68,1.7-1.77-.89-3.52-1.82-5.25-2.72l-1.28-.73-.64-.37-.45-.31-.96-.63-.52-.33-.27-.17c-.09-.03-.19-.17-.27-.11l-.32.09c-.68.56-1.24,1.02-1.96,1.54-.84.57-1.69,1.14-2.57,1.66-.86.55-1.75,1.05-2.64,1.55-.89.52-1.8.97-2.71,1.44-3.66,1.82-7.46,3.47-11.4,4.75Z"/>
      <path class="cls-1" d="M375.68-158.82c-8.15-3.06-16.58-5.18-25.12-6.59,7.8.73,15.04,2.1,21.06,3.76,6.04,1.62,10.82,3.48,13.91,4.75,3.09,1.27,4.51,1.92,3.83,1.43-.7-.47-3.49-2.12-9.24-4.63-1.12.3-7.73-1.92-17.31-3.86-9.57-1.98-22.16-3.48-34.83-3.15-12.66.24-25.38,2.51-34.76,6.05-4.7,1.73-8.54,3.75-11.21,5.47-2.68,1.71-4.18,3.17-4.39,3.68-2.49,1.69-4.96,3.51-7.15,5.72-.57.53-1.12,1.08-1.62,1.68l-1.55,1.77c-.93,1.27-1.95,2.5-2.74,3.89.66-1.21,1.29-2.08,1.82-2.85.52-.78.97-1.43,1.47-2.02.49-.61.97-1.23,1.57-1.92.63-.66,1.35-1.42,2.3-2.35-3.42,3-5.86,6.16-7.59,9.11-1.77,2.95-2.75,5.7-3.46,8.13-1.31,4.9-1.36,8.63-1.21,12.54.25,3.91.85,8.03,2.19,13.71,1.37,5.67,3.55,12.89,7.9,22.57,3,6.76,6.09,12.2,7.59,14.98,1.51,2.77,1.4,2.93-1.38-1.28,5.84,9.3,12.48,18,19.76,26.08,3.07,3.62,4.25,4.97,3.76,4.65-.24-.17-.87-.79-1.85-1.79-.95-1.03-2.23-2.46-3.76-4.27,10.47,12.25,22.29,23.36,35.47,32.76l.73-7.48-.75.36.16-.16c-.43.26-.93.56-1.49.9-.14.07-.3.2-.43.23-.12-.05-.24-.1-.36-.15-.25-.11-.52-.22-.79-.33-.13-.06-.29-.12-.42-.17-.31-.14-.63-.29-.95-.44-.64-.29-1.29-.61-1.96-.88-1.34-.57-2.72-1.16-4.12-1.68-5.59-2.19-11.48-3.77-15.4-4.56-1.55-.42-2.63-.69-3.32-.86-.69-.17-1-.26-1.02-.29-.04-.06,1.06.11,2.45.37,2.78.51,6.65,1.59,5.11.98-2.27-.59-4.57-1.09-6.9-1.48-2.32-.38-4.72-.71-7.15-.76-4.71-.18-9.43.09-14.06.8-2.87.19-3.57.21-2.73-.13.84-.3,3.26-.84,6.7-1.23,1.72-.16,3.69-.34,5.84-.35,1.07-.04,2.19-.02,3.34.02.57.02,1.16.04,1.75.06.62.04,1.26.09,1.87.16,4.92.52,9.91,1.72,14.57,3.22-3.04-1.33-5.77-2.28-8.28-2.99-2.52-.7-4.81-1.18-7.15-1.45-.3-.03-.59-.06-.88-.09l-.82-.05c-.54-.03-1.08-.06-1.62-.08-1.08-.07-2.15-.05-3.24-.03-.54.01-1.09.02-1.65.04-.55.04-1.11.08-1.68.12-.57.04-1.15.09-1.74.13-.59.07-1.19.14-1.81.22-4.91.62-10.78,1.71-18.58,4.42-1.95.67-4.01,1.48-6.2,2.41-1.09.48-2.22.97-3.37,1.52-.57.28-1.16.56-1.75.85-.55.28-1.11.57-1.68.86-.42.16-.84.61-1.36.31l-.34-.1-.17-.05-.49-.13c-.71-.19-1.43-.37-2.17-.57-2.95-.76-6.08-1.65-9.48-2.39,2.14.37,4.27.81,6.39,1.31l5.97,1.34.43.08.23.04c.07,0,.14-.08.21-.11l.41-.25c-.06.02.64-.35,1.1-.6,1.99-1.07,4.02-2.07,6.1-2.98-2.09.68-4.2,1.5-6.33,2.46-.48.22-1.26.59-1.15.5l-.32.08c-.1.06-.21-.02-.31-.07-.12-.05-.16-.09-.23-.13h-.02s-.22-.07-.22-.07l-.43-.12-.87-.24c-.58-.16-1.17-.32-1.77-.48-1.19-.32-2.4-.64-3.63-.97-2.46-.68-5.05-1.19-7.73-1.75-5.37-1.08-11.18-2.02-17.5-2.8-1.58-.19-3.19-.38-4.84-.55-.82-.08-1.66-.17-2.49-.25-.42-.04-.84-.08-1.27-.12h-.15s-.04-.02-.04-.02h-.07s-.14-.04-.14-.04c-.24-.04-.24-.06-.29-.08-.05-.01-.04-.11-.05-.15v-.08s0-.02,0-.02c0,0,0,0,.01.01.01.02-.05-.08-.07-.12l-.37-.6c-.5-.79-1.01-1.59-1.52-2.4.23.39.56.93.97,1.61.34.57,1.13,1.86.9,1.6,0,.07-.02.22.03.31.04.03.07.06.13.1.15.04.31.08.47.13,5.32.61,11.58,1.59,16.55,2.62,5,1.01,8.79,2.05,9.5,2.47.7.44-1.65.15-9.07-.78-4.15-.7-9-1.37-14.83-1.8-.73-.05-1.47-.1-2.23-.15-.39-.02-.78-.04-1.19-.05-.16,0-.33,0-.49-.01-.15-.03-.39.06-.44-.14-.19-.28-.38-.56-.58-.85-.39-.56-.78-1.12-1.19-1.7-.53-.74-1.06-1.5-1.63-2.25-1.12-1.52-2.34-3.06-3.62-4.64.32-.33-1.91-3.71-6.19-8.61-4.27-4.91-10.65-11.29-18.55-17.45l1.88-.15c-4.31-3.36-7.69-5.51-10.35-7.14-1.35-.79-2.5-1.47-3.55-2.03-1.06-.54-2-1.02-2.87-1.46-3.54-1.67-6.09-2.8-12.05-5.14-1.37-.65-2.7-1.18-3.97-1.7-1.26-.53-2.47-1.02-3.63-1.43-1.16-.43-2.26-.83-3.3-1.22-1.05-.35-2.05-.68-2.99-1-3.78-1.23-6.76-2.1-9.19-2.77-2.42-.73-4.31-1.19-5.92-1.67-1.62-.5-2.98-.85-4.4-1.24-4.89-.55-8.13-.68-10.16-.72-2.03-.05-2.83.03-2.84.09-.03.13,3.11.39,6.01.79,2.9.38,5.55.92,4.62,1.02-.47.06-1.82,0-4.49-.08-2.67-.08-6.65-.22-12.34-.02-3.83.07-7.52.29-11.11.62-3.58.37-7.07.82-10.48,1.43-3.41.62-6.76,1.31-10.07,2.2-3.31.85-6.59,1.85-9.85,3.02-3.27,1.15-6.53,2.5-9.79,4.05-3.27,1.54-6.54,3.32-9.78,5.44-3.24,2.11-6.47,4.55-9.54,7.49-.38.37-.77.74-1.15,1.11-.2.18-.37.39-.56.59l-.41.45c-.35.38-.63.73-.94,1.14-.62.78-1.19,1.67-1.75,2.65-.05.06-.09.19-.14.2l-.14-.21c-.09-.14-.19-.29-.29-.44-.2-.3-.41-.62-.62-.94-.69-1.19-1.2-2.06-1.55-2.67-.66-1.09-1.04-1.73-1.22-2.04-.4-.7.25-.02,1.1,1.08.11.14.22.28.33.43l.17.19c.11.11.21.23.32.34.2.21.38.4.51.52.25.23.31.15,0-.51l-.59-.64s-.04-.04-.09-.11l-.19-.25-.38-.5c-.25-.33-.5-.66-.77-.98-1.06-1.28-2.08-2.59-3.16-3.85l-3.29-3.73-3.42-3.6c-3.27-3.58-1.99-2.64-1.33-2.17-2.9-3.04-4.63-4.4-5.66-5.24-1.05-.82-1.48-1.05-2.17-1.43-.68-.4-1.58-.99-3.55-2.55-.96-.81-2.3-1.72-3.98-3.01-1.66-1.32-3.85-2.76-6.54-4.62-.8-.39-2.14-1.07-3.86-2.1-.86-.52-1.82-1.11-2.88-1.77-1.09-.61-2.28-1.27-3.56-1.98-2.51-1.52-5.57-2.87-8.83-4.52-3.37-1.38-7-3-10.99-4.2-7.89-2.71-16.9-4.41-25.91-5.16-9.01-.75-18.06-.34-26.05.99-3.98.35-3.06.03-1.44-.4,1.62-.46,3.95-.89,2.7-1.02-5.56.73-10.28,1.72-14.36,2.77-4.07,1.06-7.5,2.16-10.47,3.33-5.93,2.28-10.05,4.52-13.74,6.96-3.66,2.48-6.99,5.16-10.49,9.46-.91,1.04-1.69,2.3-2.58,3.6-.39.69-.79,1.4-1.21,2.13-.43.73-.74,1.55-1.13,2.37-1.42,3.33-2.53,7.35-2.81,12.07-.66,5.32-.3,10.68.65,15.86.96,5.18,2.52,10.2,4.43,15.05-2.01-5.39-2.41-7.88-2.2-8.02.11-.08.4.42.84,1.37.46.94,1.13,2.32,1.91,4.05,1.66,3.41,4.08,8.09,7.19,13.07,3.1,4.98,6.86,10.26,10.77,15.11-4.36-6.61-7.54-12.55-9.54-16.57,6.64,11.36,14.9,21.72,24.05,31.13,3.14,3.58.02,1.09-4.7-3.4,1.84,1.98,3.71,3.74,5.13,5.14,1.19,1.31,2.15,2.38,2.9,3.23.76.85,1.32,1.47,1.67,1.93.72.9.68,1.08.08.74-1.19-.69-4.61-3.49-8.34-7.02-3.12-3.75-6.07-7.59-8.73-11.44-6.75-7.19-12.27-14.77-11.83-12.61.76,1.08,1.86,2.65,3.18,4.53,1.36,1.84,2.9,4,4.61,6.18-1.74-1.95-2.85-3.21-2.25-2.15.72,1.17,3.39,4.47,7.87,9.32.79,1.33,1.6,2.65,2.44,3.95.83,1.31,1.66,2.62,2.55,3.9l1.93,1.25c11.9,13,25.47,24.58,40.73,33.78,16.91,8.92,33.93,14.36,53.74,18.53,9.92,2.06,20.58,3.75,32.43,5.22,11.85,1.49,24.88,2.68,39.56,4.21-14.67-.62-3.32,1.34-4.25,2.48-7.92-1.58-19.31-2.63-32.53-4.25-13.2-1.61-28.28-3.9-43.19-8.23,7.78,2.23,10.83,3.02,11.38,3.38.56.32-1.36.09-3.39-.3,18.05,4.03,36.3,6.19,54.44,7.91-1.35.9,11.48,2.04,25.5,4.15-2.6-.83-1.38-1.01,2.26-.79,3.63.23,9.68.89,16.65,2.01,6.96,1.13,14.86,2.79,22,5.24,3.57,1.22,6.94,2.63,9.9,4.2,2.96,1.56,5.52,3.26,7.56,4.89.13.35-.02.41-.65.11-.32-.15-.75-.4-1.31-.76-.57-.35-1.3-.79-2.2-1.34-1.83-1.06-4.41-2.51-8.14-4.12-3.74-1.59-8.64-3.33-15.04-4.95,6.98,2.11,12.47,4.15,17.15,6.28,4.65,2.17,8.5,4.43,11.84,7.31,1.69,1.42,3.2,3.04,4.59,4.85.71.9,1.33,1.89,1.97,2.9.57,1.05,1.18,2.14,1.65,3.26.96,2.33,1.68,5.07,2.64,8.14.95,3.05,2.2,6.44,4.3,9.86-2.01-3.01-3.03-5.58-3.8-7.59-.76-2.02-1.25-3.53-1.79-4.74.63,1.85,1.36,4.11,2.42,6.56,1.06,2.44,2.5,5.06,4.41,7.44,1.87,2.38,4.29,4.54,6.66,6.2.59.43,1.18.86,1.76,1.29.6.39,1.2.78,1.79,1.16.59.38,1.17.78,1.76,1.13.59.34,1.18.68,1.75,1.01,4.61,2.62,8.71,4.49,11.11,5.5,2.39,1.05,3.01,1.44.82.75-1.06-.41-2.13-.8-3.18-1.24l-3.13-1.37c10.3,4.83,24.19,8.73,39.29,9.76,1.89.07,3.79.22,5.7.22.96,0,1.92,0,2.88.01h.71s.42-.02.42-.02l.85-.03.85-.03.43-.02c.06.02.17-.05.19.03l.11.17.87,1.36c.04.06.07.11.12.17l.03.04.02.02s.08.1-.05-.07l.12.15.46.6.93,1.2c.6.83,1.3,1.54,1.98,2.28,1.31,1.53,2.81,2.83,4.25,4.2,1.53,1.23,2.99,2.56,4.59,3.65,3.1,2.35,6.4,4.26,9.65,6.07,13.18,6.97,26.53,10.15,36.67,11.4,10.18,1.3,17.21.58,18.85.22.48.19-5.87,2.14-8.67,2.2,8.44-.12,16.84-1.14,24.9-3.31,4.03-1.06,7.97-2.45,11.77-4.07.95-.41,1.9-.82,2.82-1.29.93-.44,1.85-.91,2.76-1.41.91-.47,1.8-1.02,2.68-1.53.8-.51,1.62-1.03,2.42-1.63,2.17.34,4.62,1.17,7.04,1.58l3.62.74,3.65.59c1.21.21,2.43.37,3.65.51,1.22.14,2.43.31,3.65.43,2.45.19,4.87.45,7.31.51-3.48.33,1.18,2.12,2.3,3.41.55.65.19,1.17-2.65,1.3-.71.03-1.57.04-2.62.03-1.04-.06-2.26-.15-3.68-.28-1.42-.11-3.04-.35-4.87-.64-.92-.15-1.9-.29-2.92-.49-1.02-.22-2.11-.45-3.25-.69,5.19,1.42,11.1,2.67,18.57,3.52,7.47.82,16.56,1.22,27.92-.32-1.85.14-3.93.2-5.85.12-1.92-.12-3.67-.28-4.87-.5-1.2-.25-1.85-.51-1.59-.71.26-.21,1.44-.31,3.91-.49,6.8.07,11.42-.36,15-.91.9-.14,1.73-.26,2.52-.38.78-.17,1.52-.32,2.23-.48.71-.16,1.4-.31,2.08-.46.67-.19,1.34-.38,2.02-.58.68-.2,1.37-.4,2.1-.61.72-.23,1.46-.53,2.25-.81,1.59-.57,3.36-1.26,5.42-2.3,2.05-1.03,4.43-2.34,7.04-4.4,1.31-1.02,2.66-2.25,4.02-3.73.33-.38.66-.78,1-1.18.2-.24.4-.49.6-.75.33-.43.58-.78.84-1.2-.22.38-.44.67-.63.88-.19.22-.43.42-.58.51-.32.2-.48.1-.45-.3.02-.2.09-.49.2-.85.08-.35.23-.76.39-1.29.34-1.03.8-2.46,1.15-4.29.04-.2.07-.4.11-.61l.03-.16s0-.06.02-.07l.04.04.18.17c.25.24.5.49.76.74.27.27.54.55.82.83.32.27.64.55.97.84.33.3.68.6,1.02.91.34.32.8.63,1.2.97.84.66,1.62,1.34,2.77,2.13-1.2-.65-1.25.01-1.66.4-.18.21-.58.27-.96.23-.41-.06-.96-.3-1.77-.88l1.41.98.36.25.55.36,1.18.75c.79.49,1.55,1.03,2.36,1.47l2.42,1.34c.8.46,1.63.85,2.45,1.24l2.47,1.18c1.69.69,3.35,1.43,5.05,2.04,6.79,2.51,13.77,4.22,20.8,5.3-1.31-.23-2.33-.37-3.09-.46-.76-.11-1.26-.14-1.54-.11-.56.07-.24.41.71.91.94.52,2.54,1.08,4.47,1.75.97.35,2.04.62,3.15.91,1.12.28,2.29.61,3.48.84-2.2-.63,7.08,1.18,18.5,1.04,5.7.07,11.92-.51,17.38-1.32,1.36-.24,2.68-.47,3.94-.69,1.26-.23,2.43-.54,3.54-.79,2.21-.47,4.07-1.06,5.46-1.48-5.99,1.55-12.08,2.61-18.2,3.06,11.88-1.23,20.57-4.12,27.41-7.15,3.41-1.57,6.4-3.14,9.06-4.88.68-.41,1.32-.86,1.96-1.3.64-.43,1.26-.88,1.87-1.34l.88-.66.63-.53c.43-.36.79-.7,1.19-1.08.49-.06,1.05.07,1.59.1l.84.09,1.11.14c1.52.22,3.08.31,4.66.47.79.07,1.6.15,2.42.23.82.05,1.66.1,2.51.15,1.71.1,3.47.24,5.35.27,1.87.05,3.83.16,5.91.14,1.04,0,2.11.02,3.22.02,1.1,0,2.24-.05,3.41-.07,4.69-.09,9.96-.41,15.98-1.13-.7.15-1.44.33-2.16.53-.72.19-1.41.37-2,.57-1.19.4-2.01.82-1.89,1.16.12.34,1.18.59,3.75.64,1.28,0,2.94-.11,5.04-.28,1.05-.07,2.21-.27,3.48-.44,1.28-.19,2.68-.38,4.19-.72.86-.28,1.88-.62,3.05-1.01,1.17-.41,2.47-.94,3.91-1.48,2.88-1.12,6.25-2.66,9.94-4.6.92-.5,1.84-1.07,2.79-1.62.47-.28.95-.56,1.44-.85.47-.32.94-.64,1.42-.97,1.93-1.27,3.9-2.69,5.78-4.36,1.89-1.65,3.72-3.52,5.34-5.63,1.63-2.05,3.18-4.8,4.48-8.03l.16-.24.08-.12c.02-.06.08.04.12.05l.51.39,1.04.79c.69.55,1.44,1.08,2.2,1.63.76.55,1.54,1.13,2.37,1.67l1.24.82c.36.23.7.47,1.07.68,2.89,1.79,5.96,3.42,9.14,4.96,3.18,1.55,6.5,2.95,9.91,4.22,3.41,1.28,6.91,2.45,10.5,3.46,2.42.98,4.88,1.87,7.37,2.7,1.28.27,2.57.5,3.85.75l3.88.58c2.57.45,5.18.61,7.77.86,5.19.31,10.4.43,15.55-.06-.96.13-2,.27-3.12.41-1.12.14-2.34.19-3.62.3-.64.05-1.3.09-1.98.14-.68.04-1.37.03-2.09.05-1.42,0-2.92.08-4.47.04-1.55-.06-3.16-.13-4.82-.2-1.66-.08-3.36-.31-5.11-.47-3.51-.31-7.14-.94-10.87-1.7-7.45-1.51-15.16-3.93-22.48-7.12-3.65-1.61-7.2-3.44-10.56-5.45l-1.26-.75-1.1-.7c-.58-.36-1.12-.68-1.63-1.03-.51-.34-1.01-.65-1.45-.98l-.67-.48-.32-.23-.08-.06s-.03.07-.05.1l-.09.22c-.32.79-.67,1.52-1.04,2.17-.18.33-.37.64-.55.93l-.28.43-.33.46-.16.23-.26.32c-.18.23-.37.45-.55.68-.38.43-.75.86-1.12,1.27-.76.81-1.52,1.58-2.28,2.28-3.06,2.83-6.07,4.88-8.93,6.55,3.72-1.82,5.91-3.31,7.45-4.34,1.53-1.05,2.38-1.7,3.23-2.38.84-.68,1.67-1.39,3-2.82.16-.18.34-.37.52-.57.09-.1.18-.21.28-.32.22-.25.32-.39.5-.61.32-.43.67-.97,1.01-1.68l.07-.15c.02-.05.08.05.12.07.09.08.18.16.27.24.19.16.39.33.59.51.44.35.88.72,1.45,1.12.05.06.11.11.15.16.11.1.21.19.31.27.21.18.38.34.52.46.28.24.42.39.44.45.04.11-.44-.09-1.24-.62-.09-.06-.19-.12-.29-.18-.04-.02-.09-.04-.13-.07-.09-.05-.18-.1-.28-.15-.19-.1-.38-.21-.58-.34-.2-.13-.42-.26-.62-.42-.1-.08-.21-.15-.31-.23-.1-.06-.23-.25-.27,0-.16.39-.34.76-.55,1.11-.1.17-.21.34-.32.49-.04.06-.16.21-.24.32l-.13.17-.33.39c-1.91,2.23-3.85,3.94-5.25,5.07,1.04-.84,2.07-1.71,3.05-2.66.5-.46.97-.96,1.45-1.45.24-.24.47-.51.7-.76l.54-.6.25-.3.15-.19c.1-.12.19-.25.28-.38.18-.26.33-.53.47-.8.04-.21.17,0,.26.07l.3.27c.2.18.41.35.61.52l.31.25.48.37c.85.65,1.74,1.22,2.61,1.84,3.51,2.38,7.16,4.51,10.9,6.43,7.48,3.85,15.35,6.78,23.4,9-1.21-1.09,10.79,2.16,23.24,2.5,1.55.03,3.1.16,4.62.11,1.53-.03,3.02-.06,4.47-.09,2.89-.2,5.57-.34,7.8-.7,1.12-.16,2.13-.29,3-.44.87-.18,1.61-.34,2.19-.48,1.16-.28,1.68-.48,1.35-.57-5.72,1.07-11.54,1.58-17.35,1.61l-2.18.03c-.73,0-1.45-.05-2.18-.08-1.45-.07-2.91-.1-4.36-.19-2.88-.31-5.8-.46-8.66-.97-5.76-.75-11.43-2.07-17.02-3.68-5.58-1.64-11.08-3.63-16.4-6.11-.49-.62,1.63.03,5.79,1.35,4.16,1.29,10.38,3.25,18.18,4.78,7.78,1.57,17.15,2.78,27.34,2.61,2.55.02,5.14-.2,7.77-.35,2.62-.28,5.28-.54,7.95-1.01,5.33-.89,10.73-2.17,15.99-4.08,1.36-.43,2.26-.7,2.81-.83.55-.12.75-.07.68.09-.13.33-1.31,1.18-2.86,2.05-3.07,1.79-7.64,3.62-7.12,3.69.5-.15,1.22-.43,2.15-.73.46-.15.97-.32,1.52-.5.55-.2,1.14-.42,1.76-.64,1.26-.44,2.64-1.01,4.14-1.64,1.78-.78,2.39-1.09,3.17-1.55.37.05.76.25,1.16.37.6.22,1.21.45,1.82.68,1.57.6,3.2,1.09,4.8,1.64,1.6.56,3.22,1.01,4.79,1.47.78.23,1.56.46,2.32.68.77.2,1.52.39,2.25.58,1.47.36,2.85.75,4.14,1.04,1.29.29,2.47.55,3.5.78,2.06.5,3.58.72,4.23.92-6.3-.89-12.58-2.12-18.74-3.85,11.96,3.99,22.26,5.34,33.13,5.85,5.45.2,11.06.12,17.21-.35,6.14-.51,12.83-1.37,20.33-3.59,2.57-.8,5.76-2.01,9.03-3.71.83-.4,1.63-.92,2.46-1.38.82-.49,1.61-1.05,2.41-1.59,1.55-1.17,3.08-2.4,4.4-3.8,1.35-1.36,2.49-2.85,3.44-4.3.43-.7,1-1.63,1.03-1.7.07-.13.14-.25.21-.37.05-.1.09-.19.14-.28.33-.73.4-1.31.31-1.74-.28.55-.68,1.04-1.26,1.64-.17.17-.32.34-.48.5-.28.34-.55.66-.81.98-.53.65-1.12,1.17-1.63,1.66-1.08.93-2.06,1.57-2.93,1.95-.84.41-1.56.57-2.11.56-1.09,0-1.49-.66-1.26-1.76.21-1.12,1.04-2.7,2.11-4.91.11-.14.26-.4.48-.76.11-.18.24-.39.38-.62.16-.29.35-.74.55-1.16.8-1.72,1.6-4.66,2.34-7.94l.21-.11.1-.05s.12.05.17.08c.24.12.49.25.74.37.5.25,1.02.51,1.55.77,1.06.51,2.17,1.05,3.33,1.61,1.16.54,2.35,1.07,3.6,1.58.49.2,1,.41,1.51.61.64.24,1.29.49,1.96.75.79.8,1.6,1.61,2.43,2.44.68.73,1.46,1.38,2.21,2.08.75.7,1.53,1.4,2.36,2.05.82.66,1.61,1.37,2.47,2,3.36,2.63,7.01,4.97,10.5,7.07,7.04,4.13,13.62,6.94,16.87,8.36,3.83,1.64,4.23,2.12,2.85,2.01-1.38-.11-4.56-.8-7.78-1.71-3.22-.9-6.49-1.98-8.14-2.44-1.66-.43-1.76-.15,1.44,1.65.35-.01,2.76.79,5.52,1.75,1.39.45,2.88.93,4.25,1.38,1.38.41,2.65.79,3.59,1.07,5.11,1.81,3.97,1.7,4.35,2.07.2.16.76.49,2.74,1.06,1.97.59,5.32,1.56,11.14,2.63,1.03-.13,4.49.35,8.58.81,1.98.2,4.11.42,6.16.64.14.02.32.03.48.06l.45.19c.45.18.88.37,1.31.54.92.38,1.81.72,2.62,1.03,3.25,1.23,5.34,1.87,4.41,1.52-.46-.18-1.68-.63-3.83-1.5-1.08-.44-2.38-.99-3.94-1.7-.29-.14-.58-.28-.9-.42-.14-.05-.3-.06-.46-.09-.17-.03-.34-.05-.51-.08-.98-.14-2.04-.3-3.18-.47,1.35.13,2.61.25,3.81.36l.33.03c.1.03.2.08.31.12.23.09.45.18.68.27.57.22,1.12.44,1.65.65,2.15.82,4.09,1.5,5.89,2.11,3.61,1.19,6.68,2.07,9.89,2.88,3.22.8,6.58,1.54,10.85,2.16,4.27.53,9.43,1.21,16.25,1.07-4.03-.5,1-.79,9.54-2.31,4.26-.78,9.4-1.94,14.63-3.73,2.6-.92,5.26-1.9,7.82-3.09.65-.28,1.28-.59,1.91-.9.63-.3,1.26-.62,1.87-.95l.92-.49.98-.57c.66-.37,1.31-.79,1.95-1.21.1-.09.23.02.34.03l.35.1.69.21c.46.14.91.28,1.36.41.84.26,1.66.51,2.47.76-1.38-.03,3.35,1.82,5.69,2.65,8.05,2.07,15.59,3.29,22.73,3.94,7.14.63,13.87.69,20.34.18,6.47-.51,12.69-1.57,18.7-3.45l2.25-.72,2.2-.87c1.48-.56,2.93-1.21,4.35-1.95.69-.35,1.46-.78,2.06-1.13.62-.36,1.23-.75,1.83-1.15.6-.4,1.18-.82,1.75-1.27.28-.22.56-.45.84-.68l.41-.35.2-.18s.07-.09.09-.06l.05.13c.43,1.07.97,2.1,1.58,3.09.3.5.64.97.98,1.45.36.46.69.91,1.16,1.44,1.75,2.06,3.89,3.85,6.2,5.44,2.34,1.56,4.88,2.93,7.59,4.06,1.37.54,2.73,1.17,4.18,1.59,1.44.47,2.88.98,4.4,1.33,1.88.77,8.02,2.2,12.65,2.91,4.62.7,7.66,1.05,3.12,1.06,3.17.12,6.21.09,10.14-.08,1.96-.06,4.15-.25,6.68-.41,1.26-.12,2.61-.24,4.07-.38,1.46-.12,3-.36,4.68-.54,6.5-.59,7.9-.75,6.64-.43-1.26.28-5.16,1-9.31,1.45-2.07.26-4.2.39-6.06.58-1.87.13-3.48.21-4.51.31-2.07.2-1.86.4,3.19.57.33-.15,1.83-.38,4.18-.69,1.17-.14,2.56-.31,4.1-.57,1.55-.25,3.27-.45,5.1-.82,1.83-.34,3.8-.66,5.83-1.14,1.02-.22,2.05-.45,3.11-.68,1.04-.27,2.11-.54,3.18-.82,2.15-.52,4.31-1.21,6.49-1.86,1.07-.3,2.2-.72,3.19-1.06.81-.26,1.62-.63,2.42-.8.43.26.87.49,1.32.73l.69.35.86.41c1.19.58,2.39,1.06,3.56,1.55,2.36.91,4.62,1.69,6.75,2.28-.88-.47-2.61-1.2-4.96-2.21-1.17-.5-2.49-1.11-3.92-1.79-.35-.18-.72-.36-1.09-.55-.37-.19-.76-.38-1.07-.56-.67-.36-1.35-.74-2.03-1.18-.08-.09-.18.01-.27.02l-.28.09-.57.19c-.39.13-.78.26-1.17.39-.87.29-1.77.58-2.68.89-1.91.54-3.88,1.16-5.92,1.7-4.09,1.05-8.4,2.09-12.72,2.8-8.63,1.55-17.23,2.19-23.69,2.14-.02-.7,4.84-1.04,13.18-2.26,4.17-.59,9.21-1.52,14.9-2.88,2.85-.66,5.85-1.51,9-2.44,1.56-.5,3.16-1.02,4.8-1.55.87-.31,1.74-.63,2.63-.95.52-.18,1.03-.37,1.55-.55l.79-.28.4-.14c.13-.03.27-.14.39-.08,1.16.69,2.5,1.41,3.64,1.96,1.01.48,2.06.93,3.14,1.36,1.07.44,2.18.83,3.3,1.23,1.14.35,2.27.77,3.45,1.09,4.68,1.36,9.7,2.37,14.93,2.97,8.7.91,14.05.7,17.2.62,3.16-.1,4.17-.01,4.27.1.21.32-3.23.83-.18.52,8.29-.67,15.28-2.23,21.23-3.95,5.95-1.75,10.85-3.75,14.98-5.81,4.14-2.05,7.55-4.09,10.46-6.19,2.96-2.03,5.35-4.17,7.6-6.27,2.14-2.2,4.18-4.38,5.89-6.93.25-.35.51-.71.76-1.07.34-.51.64-1.05.97-1.58.32-.54.65-1.08.98-1.62l.5-.83.25-.42c.05-.05.06-.19.16-.16h.24c.65.03,1.3.04,1.97.06.65.02,1.3.03,1.96.05.64,0,1.28.02,1.94.03h.48s.36,0,.36,0c.24,0,.48,0,.72-.01,3.86-.05,8.19-.28,13.21-.85,2.51-.28,5.2-.67,8.08-1.18,1.44-.26,2.93-.55,4.47-.88.77-.16,1.55-.35,2.35-.53,1.09-.26,2.35-.61,3.54-.91l.36-.09c.11.02.22.1.33.15.22.11.43.22.64.33.42.22.82.43,1.21.63.68.35,1.32.68,1.91.99.92.48,1.71.89,2.39,1.24,1.35.71,2.22,1.19,2.73,1.52,1.02.67.55.77-.42.66-1.94-.19-5.84-1.38-3.74-.06-.84-.35-1.67-.69-2.48-1.05-.84-.36-1.69-.76-2.51-1.14l-.31-.14-.33.09-.65.18c-.43.12-.86.24-1.28.36-.82.21-1.63.42-2.42.63-3.16.77-6.19,1.36-9.09,1.8-5.81.86-11.11,1.19-16.11,1.16-.62,0-1.24-.02-1.86-.03-.62-.02-1.21-.02-1.89-.06-1.3-.05-2.63-.13-3.98-.23-.16,0-.34-.04-.5-.02l-.27.41-.54.82-1.09,1.65c-.09.14-.18.28-.28.41l-.31.39-.54.68-1.08,1.35c-3.01,3.49-6.52,6.53-10.46,9.4,3.32-2.24,6.4-4.83,9.14-7.74.69-.72,1.39-1.44,1.99-2.24l.94-1.17.5-.63c.16-.23.31-.46.46-.69l.91-1.38.45-.69.23-.34c.02-.08.11-.06.17-.05h.21c1.11.08,2.23.17,3.3.21-.61,0-1.26.01-1.96,0-.35,0-.7-.01-1.06-.02-.17.01-.38-.04-.53.02-.1.16-.2.33-.3.5-.4.66-.81,1.35-1.24,2.06-.21.36-.43.71-.69,1.04-.24.32-.47.65-.72.98-.92,1.36-2.11,2.62-3.27,3.96-.6.65-1.27,1.26-1.91,1.9l-.98.96-1.05.89-2.11,1.78c-.74.55-1.48,1.09-2.21,1.64-.72.56-1.47,1.06-2.23,1.54-.75.49-1.49.96-2.22,1.43-1.5.86-2.95,1.7-4.33,2.43-1.41.69-2.72,1.35-3.93,1.89,1.06-.44,2.35-1.07,3.9-1.79.77-.36,1.56-.83,2.43-1.29.85-.48,1.79-.95,2.71-1.55,3.77-2.27,8.22-5.36,12.45-9.75,1.02-1.13,2.13-2.24,3.08-3.55.48-.65,1.03-1.26,1.45-1.93.43-.67.87-1.35,1.31-2.04l.16-.26.08-.13s.1,0,.14-.02l.62.03c.41.02.83.04,1.25.06.84.03,1.69.05,2.54.08,1.75.02,3.55.01,5.37-.05,7.29-.24,15.05-1.23,22.88-3.1.96-.24,1.99-.49,2.91-.74l1.41-.39.35-.1c.11.02.22.1.33.14l.66.32c1.74.82,3.69,1.68,5.58,2.45,3.83,1.55,7.77,2.92,11.79,4.08,4.02,1.14,8.09,2.16,12.22,2.81l3.08.54c1.02.2,2.06.27,3.09.4,1.03.12,2.06.25,3.08.37,1.02.14,2.06.15,3.08.23,8.2.56,16.29.21,23.82-1.07,3.77-.64,7.39-1.51,10.83-2.55,3.38-1.02,6.86-2.38,9.34-3.66.07-.07.15,0,.23.03l.23.1c.15.06.3.12.45.18.29.12.57.24.85.35,1.05.37,2.2.77,3.39,1.19,1.25.39,2.55.79,3.84,1.19,1.28.42,2.57.75,3.79,1.07,1.22.31,2.37.61,3.39.87,4.13.87,6.2,1.2,2.6.05-2.67-.62-5.28-1.45-7.91-2.21-2.59-.89-5.21-1.69-7.76-2.72-3.56-1.64-3.67-1.88-1.72-1.28.49.16,1.1.36,1.79.58.64.22,1.35.46,2.12.72,1.52.47,3.23,1,4.89,1.51,1.66.52,3.32.9,4.68,1.28,1.36.37,2.45.6,3.01.69.57.09.61.05-.11-.18-.72-.22-2.18-.71-4.63-1.51,5.24,1.51,10.75,2.63,16.5,3.53,5.75.89,11.76,1.47,18.04,1.58,6.27.12,12.81-.18,19.52-1.23,1.68-.24,3.34-.64,5.05-.95.83-.21,1.67-.43,2.52-.65.84-.23,1.71-.41,2.53-.71,3.36-1.02,6.68-2.39,9.81-4.15,1.76-.57,3.47-1.29,5.14-2.17-.15.07-1.22.77-2.83,1.87-.87.47-1.83,1.1-2.96,1.68-1.16.54-2.36,1.22-3.74,1.72-.67.27-1.36.55-2.06.84-.72.24-1.45.47-2.17.71-.73.23-1.44.52-2.19.69-.74.19-1.47.39-2.19.58-1.43.42-2.86.67-4.16.96-.65.14-1.28.28-1.88.41-.6.1-1.17.2-1.69.29.56-.09,1.16-.2,1.79-.3.63-.13,1.3-.27,2-.42.7-.14,1.44-.28,2.21-.43.76-.17,1.54-.39,2.36-.58,3.27-.76,6.88-1.95,10.47-3.61,3.58-1.67,7.07-3.98,9.81-6.98.37-.36.68-.75.98-1.16.3-.4.63-.79.92-1.2.53-.86,1.1-1.66,1.52-2.59.61-1.08.91-2.36,1.31-3.55.21-1.4.45-2.75.54-4.24.43-.65.6-1.31.86-1.96.11-.32.16-.65.24-.97.08-.32.14-.64.16-.96.03-.32.07-.63.09-.94,0-.31.01-.61.01-.92.01-.07-.02-.17.03-.21l.29-.02.57-.04c.37-.01.83-.15.94.17.77.86,1.5,1.64,2.19,2.3.87.89,1.74,1.74,2.54,2.46l-1.57-1.88-.79-.95-.19-.23-.15-.17-.3-.33-1.19-1.29-.6-.63c-.11-.1-.19-.23-.32-.29h-.58c-.37.03-.82-.01-1.12.05l-.08.67c-.06.44-.21.88-.35,1.31l-.32.64-.16.32-.25.32c-.34.42-.65.83-1.2,1.24-.06.82-.07,1.74-.16,2.5l-.23,2.37c-.01.43-.13.72-.22,1.04l-.28.96c-.19.63-.34,1.32-.64,1.87.27-.55.39-1.24.55-1.89l.24-1c.07-.35.19-.62.19-1.09.04-.86.08-1.72.13-2.59.03-.42.04-.89.04-1.39,0-.49,0-.98,0-1.48.22-.23.54-.45.69-.68l.52-.68.27-.34c.07-.11.11-.22.17-.33l.34-.66c.17-.44.32-.88.4-1.31l.11-.64c-.03-.07.13-.05.22-.07l.31-.02.61-.05.61-.05c.15.03.22.13.33.2l.63.43c.42.28.84.56,1.27.84.34.12,1.09.95,1.7,1.53.64.63,1.28,1.26,1.93,1.89.33.34.64.59.99,1l1.05,1.23c.71.83,1.42,1.67,2.14,2.5l1.08,1.27c.09.11.19.2.28.3l.14.14.2.18.39.35c.52.46,1.04.92,1.56,1.39,1.01.96,2.15,1.8,3.26,2.68.56.44,1.12.87,1.68,1.31.59.41,1.18.82,1.78,1.23,4.74,3.28,9.89,6.26,15.34,8.82,5.45,2.57,11.13,4.81,16.93,6.78-2.79-1.24-4.52-2.02-5.85-2.55-1.31-.59-2.22-.94-3.32-1.38-.55-.22-1.15-.46-1.88-.76-.71-.33-1.53-.73-2.55-1.24-1.01-.52-2.24-1.09-3.65-1.96-1.41-.86-3.14-1.79-5.03-3.15,2.45,1.8,1.96,1.75-.35.56-1.15-.6-2.8-1.43-4.61-2.63-.91-.59-1.95-1.18-2.95-1.91-1.01-.73-2.07-1.5-3.16-2.29-1.07-.83-2.11-1.74-3.21-2.64-.56-.44-1.07-.93-1.58-1.43-.52-.49-1.03-.98-1.55-1.48l-.39-.37-.34-.33-.32-.35-1.23-1.53c-.82-1.02-1.63-2.04-2.44-3.05-.4-.51-.81-1.01-1.21-1.51-.38-.37-.76-.75-1.14-1.12-.75-.74-1.5-1.46-2.23-2.18-.37-.36-.73-.72-1.09-1.07-.26-.16-.47-.21-.7-.32-.45-.19-.9-.38-1.33-.56-.22-.09-.43-.18-.64-.27-.07-.01-.07-.06-.19-.05l-.32.02-.62.03-.61.03-.3.02s-.03.06-.05.09c-.06.12-.12.25-.18.37-.12.24-.36.48-.52.71-.25.23-.54.46-.78.68-.31.22-.73.44-1.05.64-.28.2-.78.4-1.18.59.03,1.12.06,2.14.09,3.03,0,.81.02,1.51.02,2.09.02,1.16.04,1.85.08,2.01.04.16.09-.22.17-1.17.04-.47.08-1.09.14-1.85.03-.36.05-.82.06-1.33.02-.5.03-1.05.05-1.63.22-.05.65-.16.96-.32.31-.15.66-.35,1.04-.57-.62.33-1.09.63-1.99.91-.02.67-.03,1.33-.05,2,0,.7-.06,1.23-.09,1.86-.03.61-.06,1.22-.09,1.83-.02.3-.02.63-.05.91l-.18.7c-.25.92-.46,1.89-.75,2.78-.19.4-.35.84-.57,1.21l-.39.71c-.21.4-.51.76-.76,1.14l-.38.56c-.14.18-.29.35-.43.53l-.86,1.05-.96.97c-2.56,2.58-5.8,4.62-9.53,6.27-3.73,1.67-8.01,2.85-12.78,3.66-4.78.79-10.11,1.16-16.07.91.39.2,2.59.3,1.97.45-.32.05-1.34.2-3.67.16-1.17-.03-2.66.04-4.55-.11-.95-.06-1.99-.12-3.15-.19-1.15-.08-2.42-.24-3.79-.37-.5,0-1.35.01-2.26-.04-.91-.07-1.88-.14-2.63-.19-.67-.11-.91-.14-1.49-.23.44.08.77.14,1.21.21-.97-.07-1.05-.07.45.08,5.23.94,9.52,1.36,11.25,1.67-4.22.21-12.05-.26-20.63-1.93-2.14-.42-4.34-.85-6.52-1.42-1.09-.28-2.2-.51-3.29-.83-1.09-.31-2.17-.62-3.25-.93-1.08-.29-2.15-.63-3.19-.99-1.05-.35-2.08-.69-3.1-1.03-.51-.16-1.01-.36-1.5-.54-.55-.21-1.09-.41-1.63-.62-1.4-.52-2.78-1.11-4.11-1.53-.8.44-1.62.89-2.37,1.28-.37.19-.74.37-1.11.55l-.55.27-.39.17c-1.01.46-1.99.87-2.92,1.23-1.86.73-3.52,1.32-4.88,1.75-1.59.46-2.72.68-3.47.83-.75.15-1.13.22-1.24.21-.22,0,.62-.28,1.63-.6,1.02-.3,2.2-.72,2.68-.96.49-.23.28-.27-1.46.11-5.65,1.72-11.54,2.84-17.51,3.41-.46-.24-2.88-.21-5.78-.49-2.89-.13-6.23-.61-8.54-.9-2.3-.43-3.57-.73-2.34-.73.31,0,.77.02,1.41.06.32.02.68.05,1.1.08.41,0,.87.02,1.39.03,1.02.03,2.25.08,3.7.12,1.45.03,3.12-.03,5.04-.04-9.21.07-18.46-1.14-27.47-3.36-3.94-1.12-8.2-2.54-12.48-4.25-1.07-.43-2.15-.87-3.22-1.34-.54-.23-1.07-.47-1.6-.71l-.8-.36-.94-.44-2.91-1.38-.73-.35c-.12-.05-.24-.13-.37-.16l-.39.1-1.56.42-1.56.42c-.48.13-1.17.31-1.35.35l-1.71.42c-9.12,2.15-18.19,3.03-25.07,3.22-.88-.02-1.4,0-3.04-.07-.7-.02-1.41-.05-2.12-.07-.79-.03-1.58-.07-2.37-.1l-1.21-.05-.6-.02c-.12-.05-.14.11-.2.18l-.16.26-1.29,2.06-1.28,2.06-.32.51-.16.25-.08.13-.04.06-.15.19-.36.49c-1.79,2.66-4.07,4.92-5.79,6.69-1.85,1.67-3.17,2.87-3.57,3.12-.39.26.36-.23,2.32-2.14-5.25,4.58-11.51,8.26-18.06,11.27-6.56,3.03-13.55,5.27-20.67,6.86l-.44-.14c-1.24.26-2.47.52-3.73.7-1.25.19-2.5.43-3.76.59-1.26.14-2.53.29-3.79.43-.63.07-1.27.16-1.9.21l-1.91.11c-5.1.42-10.24.3-15.38-.11-5.14-.43-10.28-1.3-15.3-2.69-2.5-.72-5-1.49-7.4-2.48-.61-.23-1.2-.49-1.79-.75-.6-.25-1.19-.51-1.76-.8l-.87-.42-1.4-.78c-.93-.5-1.92-1.13-2.85-1.69-1.18.33-2.38.78-3.56,1.15l-2.82.94c-1.46.49-2.95.87-4.44,1.32-1.48.46-3,.78-4.51,1.16-1.51.39-3.03.7-4.57,1-6.13,1.23-12.41,2.03-18.76,2.31-6.35.28-12.77.05-19.1-.87-6.31-.93-12.56-2.56-18.2-5.17-1.61-.61-3.14-1.36-4.62-2.17-1.48-.82-2.91-1.74-4.23-2.78-.66-.53-1.3-1.08-1.9-1.66-.29-.31-.6-.58-.89-.92-.31-.36-.5-.5-1.09-1.35l-.76-1.05-.65-1.22c-.44-.79-.85-1.72-1.28-2.59-.84-1.78-1.69-3.63-2.45-5.37-.08.05-.15.05-.24.13l-.27.24-.54.49c-.37.33-.74.66-1.11,1-.76.67-1.53,1.35-2.3,2.03-.78.67-1.56,1.34-2.35,2.01-.79.63-1.58,1.22-2.42,1.74l-.62.39-.51.3-.72.41c-.48.27-.98.53-1.49.78-.51.25-1.04.5-1.57.74-.55.22-1.11.44-1.67.67-4.49,1.82-9.75,3.19-15.73,4.01l-2.37-.05c-.79-.04-1.59-.11-2.37-.16-3.42.44-7.57.55-12.05.52-4.49-.15-9.32-.48-14.14-1.17-4.81-.72-9.63-1.6-14.07-2.78-2.24-.51-4.35-1.2-6.38-1.76-.51-.14-1-.3-1.49-.46-.61-.2-1.21-.4-1.81-.59-1.71-.55-3.4-1.13-5-1.61-.96.59-1.92,1.21-2.82,1.73-.45.26-.89.51-1.32.76-.2.12-.4.23-.6.34l-.34.17c-.89.47-1.74.88-2.52,1.24-1.58.73-2.85,1.32-3.72,1.73-2.36.61-5.49,1.33-9.21,2.07-3.74.69-8.11,1.26-12.93,1.57-4.83.29-10.13.17-15.69-.28-2.77-.33-5.62-.58-8.49-1.09-2.87-.48-5.76-1.09-8.65-1.81-2.89-.72-5.77-1.58-8.6-2.54-1.42-.49-2.83-.99-4.21-1.55l-1.04-.41-1.77-.73c-.33-.18-.71-.18-1.07-.22l-1.19-.13-1.29-.13c-6.03-.51-11.96-1.49-17.57-2.75-5.61-1.26-10.89-2.84-15.67-4.55-4.77-1.75-9.01-3.66-12.61-5.49l-1.55.34c-3.9-2-7.63-4.23-11.17-6.7-.9-.61-1.78-1.23-2.62-1.9-.84-.67-1.75-1.28-2.55-1.99-.81-.7-1.66-1.38-2.46-2.1-1.1-1.03-2.2-2.07-3.3-3.11-.75-.26-1.5-.52-2.25-.78l-1.38-.49c-.69-.27-1.38-.53-2.07-.8-.75-.3-1.49-.61-2.24-.94-1.49-.66-3.01-1.38-4.52-2.08-.75-.35-1.51-.71-2.26-1.06-.73-.31-1.57-.83-2.11-.83-.47,2.42-1.04,5.14-1.63,7.67l-.47,1.88c-.19.57-.42,1.06-.63,1.59l-.32.78c-.06.16-.08.16-.12.24l-.1.18-.41.74c-1.16,1.95-2.72,3.77-4.64,5.41-3.83,3.28-9.08,5.74-14.98,7.44.62.14,1.25.31,1.87.42-8.85,2.97-20.78,4.11-33.85,2.87-6.54-.61-13.37-1.78-20.29-3.54-1.72-.47-3.45-.95-5.2-1.43-1.72-.55-3.46-1.1-5.21-1.65-1.72-.62-3.45-1.25-5.2-1.88-.97-.39-1.93-.78-2.9-1.18-1.37-.53-2.76-1.14-4.15-1.63l-2.17,1.14-2.09,1c-.2.1-.29.13-.4.18l-.34.14-.67.28c-.44.19-.9.36-1.36.53-.91.35-1.84.68-2.79.97-.94.32-1.89.6-2.86.86-3.85,1.06-7.81,1.91-11.83,2.43.63-.18,1.69-.39,3.04-.63,1.33-.3,2.96-.59,4.7-1,3.48-.75,7.39-1.9,10.52-3.04-7.92,2.69-16.54,4.24-25.28,4.64-8.75.4-17.66-.21-26.43-1.89-8.77-1.66-17.37-4.28-25.42-7.86-4.02-1.79-7.9-3.82-11.55-6.1-.92-.56-1.8-1.18-2.7-1.76-.23-.14-.44-.3-.66-.46l-.82-.59c-.68-.48-1.37-1.02-2.06-1.55-1.35-1.13-2.69-2.25-4.03-3.37l-1.95-1.69-.97-.84c-.16-.11-.34-.34-.47-.36l-.4-.1c-1.01,2.17-2.15,4.47-3.28,6.6-.28.54-.56,1.07-.88,1.53-.31.47-.61.99-.93,1.35l-.47.6-.23.3-.17.19-.63.7c-1.72,1.84-3.7,3.48-5.82,4.93-4.31,2.84-9.05,5.02-13.89,6.57-4.76,1.84-9.08,3.02-13.08,3.82-2,.42-3.94.66-5.8.96-1.89.2-3.71.4-5.53.55.96-.1,1.82-.24,2.55-.36-1.06.13-2.62.33-4.25.44-4.59.31-9.34.21-14.45.05,2.18.12,4.31.22,6.35.26,2.04-.03,4,.01,5.81-.11-2,.17-4.27.24-6.73.35-2.46.01-5.12.11-7.9,0-5.55-.13-11.61-.58-17.53-1.47-.81-.3-1.63-.56-2.43-.9l-1.2-.48c-.12-.04-.16-.07-.33-.13l-.52-.16-1.05-.33c-1.32-.24-2.68-.54-3.99-.74l-.51.42c-.5.39-.99.76-1.45,1.11-.47.36-.87.63-1.29.93-.2.15-.4.29-.6.43l-.29.21-.14.1-.09.05c-.23.14-.45.28-.66.41-.84.53-1.52.96-2.06,1.3-1.06.7-1.56,1.04-1.54,1.18.02.27,2.06-.36,4.77-1.73-4.75,3.36-9.7,5.8-13.56,7.57-4.67,1.03-12.03,3.47-20.18,4.83-2.03.34-4.11.57-6.17.85-2.07.16-4.14.28-6.14.38-2.01-.01-3.97-.06-5.83-.15-1.86-.12-3.61-.38-5.22-.64-1,.05-2.67-.03-4.85-.12-1.09-.05-2.3-.2-3.61-.32-1.32-.11-2.73-.31-4.22-.54-5.98-.87-13.2-2.53-20.08-5-6.87-2.48-13.32-5.85-18.06-9.14-.27-.15-.69-.52-1.05-.8-.37-.3-.73-.59-1.08-.87-.7-.57-1.38-1.11-2.03-1.63-1.35-1.34-2.56-2.52-3.62-3.51-1-1.01-1.83-1.84-2.51-2.47-.17-.15-.33-.3-.48-.44-.07-.07-.15-.13-.21-.19l-.05-.04s-.02.02-.03.03l-.06.06c-.15.17-.27.34-.37.52-.05.23-.06.32-.07.41-.22.06-1.28,3.55-.07-1.05.08-.04.25-.1.48-.18.03,0,.05-.06.1,0,.05.05.1.11.15.17.1.12.21.24.33.37.23.26.48.54.75.85l-1.07-1.24c-.21-.31-.29-.18-.41-.16l-.34.09c-.61,2.28-1.4,4.8-2.25,7.11-.4,1.2-.91,2.2-1.42,3.19l-.86,1.29c-.16.25-.25.35-.37.5l-.34.42c-1.81,2.24-4.09,4.11-6.52,5.73-2.45,1.6-5.07,2.95-7.79,4.01-1.32.61-2.7,1.06-4.05,1.54-1.34.52-2.72.88-4.07,1.29l-1.44.06-1.45-.02-2.87-.05c-4.7,1.06-9.52,1.77-14.4,2.2-4.88.37-9.81.45-14.76.29-8.93-1.24-15.05-2.99-16.8-3.7-1.74-.79.83-.28,9.59.65-5.47-.6-10.05-1.55-13.96-2.41-1.94-.5-3.74-.91-5.37-1.38-.99-.3-1.95-.59-2.86-.87-1.09-.32-2.16-.71-3.16-.93-.67.42-1.32.83-1.96,1.24-.63.36-1.24.72-1.84,1.06-.84.43-1.6.85-2.38,1.2-1.53.74-2.99,1.34-4.38,1.89-1.4.53-2.74,1.03-4.11,1.45-1.35.47-2.75.83-4.21,1.24-1.45.43-3.03.72-4.72,1.14-.86.16-1.76.33-2.7.51-.95.17-1.94.38-3,.51-1.06.15-2.18.3-3.36.47-1.19.13-2.45.22-3.78.34-1.33.15-2.75.18-4.26.24-1.51.06-3.1.13-4.79.07l1.8-.69c-6.46-.17-14.91-.9-22.55-2.62-7.65-1.64-14.44-4.15-17.87-6.04-.81-.41-1.69-.86-2.65-1.34-.93-.52-1.94-1.07-3.01-1.66-1.09-.56-2.16-1.28-3.34-1.97-1.18-.68-2.35-1.51-3.59-2.34-1.27-.8-2.46-1.8-3.76-2.76-.66-.47-1.25-1.04-1.89-1.57-.62-.56-1.31-1.06-1.91-1.68-.62-.6-1.24-1.21-1.88-1.83-.63-.62-1.19-1.32-1.8-1.99-.29-.34-.62-.67-.9-1.03-.27-.36-.55-.73-.83-1.1-.3-.39-.6-.79-.9-1.19-.43-.61-.78-1.21-1.17-1.82-.39-.61-.78-1.23-1.17-1.84l-.3-.47-.15-.23-.07-.12s-.08,0-.12-.01l-1.08.03c-1.45.05-2.92.09-4.41.14l-.56.02h-.42s-.79-.01-.79-.01c-.53,0-1.06-.01-1.6-.02-1.07,0-2.15-.03-3.24-.1-4.37-.17-8.91-.68-13.55-1.44-9.28-1.52-19.01-4.33-28.22-8.85-1.15-.56-2.3-1.14-3.4-1.79l-1.68-.95c-.56-.32-1.08-.69-1.63-1.03l-1.63-1.04-1.56-1.13c-.51-.38-1.07-.75-1.54-1.14l-1.4-1.18c-1.78-1.64-3.31-3.52-4.54-5.63-1.22-2.12-2.15-4.46-2.95-6.99-.81-2.52-1.47-5.26-2.52-8.15-.55-1.5-1.23-2.86-1.91-4.22l-1.13-2c-.4-.65-.83-1.29-1.25-1.93-3.48-5.06-8.16-9.19-13.21-12.28-5.07-3.1-10.45-5.33-15.82-7.08-5.38-1.74-10.75-3.05-16.03-4.12-10.57-2.15-20.76-3.48-30.25-4.78,7.25,2.03-1.58.71-12.58-.86-5.49-.78-11.52-1.64-16.37-2.34-4.85-.65-8.51-1.05-9.32-.71-4.31-1.17-14.66-3.15-2.48-1.72-19.15-2.6-33.18-6.12-45.43-10.05-6.13-1.96-11.81-4.05-17.45-6.32-5.64-2.27-11.24-4.72-17.18-7.57-1.78-1.29.11-.49,2.03.36,1.91.85,3.91,1.67,2.26.65-.69-.31-1.71-.81-2.9-1.41-.59-.3-1.23-.62-1.9-.96-.65-.36-1.33-.73-2.01-1.1-1.37-.74-2.73-1.56-3.95-2.33-1.23-.75-2.29-1.51-3.07-2.12-1.52-1.2-.3-.53,1.94.82,1.13.65,2.53,1.44,3.97,2.27,1.46.78,2.94,1.62,4.29,2.27-8.4-4.67-14.57-8.89-19.35-12.26-4.76-3.41-8.15-5.93-10.68-7.75-5.06-3.64-6.81-4.29-8.4-4.71-1.74-1.79-3.28-3.55-4.79-5.16-1.44-1.67-2.85-3.2-4.12-4.72-1.28-1.51-2.51-2.93-3.64-4.33-.58-.69-1.14-1.38-1.69-2.05-.54-.68-1.08-1.35-1.6-2.01-4.21-5.28-7.94-10.07-12.08-15.97-.75-1.57-1.65-3.38-2.31-4.92-.66-1.54-1.16-2.77-1.22-3.13-.06-.36.32.15,1.42,2.07,1.09,1.93,2.98,5.25,6.3,10.31-1.84-2.86-5.49-8.75-8.92-16.41-1.67-3.84-3.27-8.11-4.43-12.61-1.16-4.49-1.88-9.2-1.81-13.74.05-4.54.91-8.87,2.52-12.52,1.63-3.64,3.91-6.66,6.15-9,1.1-1.19,2.25-2.17,3.24-3.07,1.07-.82,1.94-1.62,2.76-2.19,1.58-1.2,2.57-1.91,2.64-2.13,1.84-.96,5.98-3.1,10.32-4.71,4.31-1.66,8.72-2.89,10.44-3.36,7.42-1.74,13.33-2.34,18.34-2.71,5.02-.34,9.17-.36,13.3-.25,4.13.12,8.24.42,13.16,1.03,4.9.65,10.67,1.54,17.82,3.72-1.32-.42-2.62-.89-3.95-1.26-1.34-.36-2.67-.74-4.03-1.04,1.5.09,2.98.34,4.52.59,1.52.31,3.05.7,4.65,1.12.79.22,1.6.44,2.43.66.82.25,1.63.58,2.46.88.83.32,1.69.64,2.56.97.87.34,1.77.64,2.65,1.09,7.17,3.13,15.35,7.85,24.88,15.41l-.64-.31c7.22,6.05,11.85,11.24,15.28,15.22.84,1.01,1.62,1.94,2.34,2.8.69.89,1.33,1.7,1.92,2.45,1.21,1.49,2.11,2.82,2.96,3.94.42.57.82,1.08,1.16,1.59.4.57.78,1.11,1.14,1.63.85,1.21,1.62,2.34,2.35,3.51.73,1.16,1.48,2.33,2.3,3.63.4.65.81,1.34,1.26,2.08.22.37.45.75.69,1.14.12.2.24.4.36.6l.05.08s.03,0,.05,0h.09s.19-.04.19-.04c.48-.75.99-1.57,1.56-2.46.61-.89,1.28-1.86,2.01-2.92.74-1.04,1.59-2.09,2.49-3.28.48-.54.99-1.1,1.52-1.64.22-.22.44-.44.66-.67.2-.21.43-.41.66-.61,3.59-3.31,8.87-7.22,16.87-10.88l-3.08.49c.9-1.02,4.08-2.96,9.06-4.9,2.49-.97,5.41-1.96,8.67-2.87,3.27-.89,6.88-1.73,10.72-2.43,7.69-1.37,16.33-2.19,25-2.28,8.67-.09,17.36.58,25.21,1.8-1.88-.37-3.75-.82-5.64-1.14-1.89-.34-3.8-.61-5.71-.87,4.37.16,9.59.91,15.07,2.36,5.48,1.43,11.21,3.55,16.67,6.17,5.46,2.61,10.65,5.72,15.25,8.88,4.61,3.15,8.64,6.35,11.98,9.03,1.41,1.24.22.35-1.88-1.16-2.11-1.5-5.17-3.6-7.41-4.91,4.61,3.15,7.95,5.83,10.48,7.92,1.25,1.06,2.31,1.96,3.21,2.72.89.77,1.61,1.41,2.21,1.93,2.37,2.09,2.77,2.21,2.96,2.03.18-.16.15-.65,1.58.41.71.53,1.81,1.41,3.43,2.97,1.63,1.55,3.79,3.76,6.54,6.97,1.73,2.62.11,1.34-.12,1.62-.12.14.1.66,1.22,2.25,1.09,1.61,3.13,4.27,6.21,8.93.55.89,1.22,1.99,2.02,3.28.26.37.54.73.83,1.11.15.18.29.4.45.56.17.14.35.29.52.44.18.14.35.31.55.44.11.05.22.12.34.16l.38.08c.51.11,1.03.23,1.57.35,1.07.31,2.22.31,3.41.38.85.05,1.75.1,2.67.15,1.58.09,3.28.2,5.08.34,7.21.55,16.08,1.53,25.44,3.41,2.38.51,4.79,1.04,7.23,1.57.99.22,1.98.45,2.97.67.48.09.98.26,1.45.29l1.31-.75c.88-.5,1.73-1,2.62-1.49l1.57-.86c2.12-1.12,4.3-2.14,6.5-3.06,2.21-.89,4.45-1.72,6.7-2.38,4.49-1.37,9.03-2.17,13.35-2.51,1.08-.11,2.15-.14,3.2-.16,1.05-.05,2.09-.02,3.1,0,1.02,0,2.01.08,2.99.17.49.04.97.08,1.45.12.45.06.87.1,1.32.18-.4-.09-.76-.14-1.14-.21-.4-.05-.8-.11-1.18-.16-.78-.11-1.51-.21-2.17-.3-1.31-.13-2.28-.25-2.57-.38-.29-.12.11-.24,1.54-.35.72-.07,1.69-.09,2.97-.07,1.31-.01,2.77.05,4.68.3,4.88.71,10.49,2.27,16.2,4.58,2.86,1.16,5.75,2.52,8.61,4.05l1.07.58.71.38.81.46c1.09.62,2.18,1.25,3.27,1.87l.21.12c.07.05.14.09.2.03l.4-.18.79-.36,1.6-.73c1.07-.49,2.15-.98,3.22-1.48l5.72-2.62-5.09-3.83c-7.42-5.59-14.52-11.87-20.71-17.99-6.22-6.11-11.61-11.98-15.97-16.64-1.81-2.51-2.4-3.52-2.38-3.7-2.9-3.61-6.56-8.48-10.17-14.1-3.62-5.61-7.18-11.98-10.06-18.38-2.88-6.4-4.99-12.84-6.19-18.36-1.24-5.52-1.47-10.1-1.56-12.81.28-1.02.49-2.35.91-3.88.19-.77.34-1.61.64-2.46.13-.43.26-.88.4-1.33.07-.23.13-.46.2-.7.09-.23.18-.46.27-.69,1.37-3.75,3.6-8.03,7.4-11.85,1.84-1.95,4.07-3.75,6.53-5.42,1.21-.86,2.54-1.6,3.87-2.39,1.38-.71,2.75-1.47,4.22-2.1,1.43-.69,2.95-1.25,4.45-1.86,1.54-.53,3.07-1.11,4.65-1.56,3.14-.98,6.37-1.75,9.61-2.38,12.96-2.56,25.9-2.46,35.25-1.48,9.38,1,15.21,2.76,14.94,3.43,6.85,1.49,13.54,3.51,19.95,6.25,3.2,1.36,6.35,2.88,9.4,4.56l.57.32.84.48,1.73,1.01c1.15.7,2.29,1.41,3.43,2.16l3.42,2.24,1.69,1.12c.54.32,1.2.93,1.52.76.37-1.9.79-3.88,1.23-5.83.45-1.96.87-3.88,1.51-5.59.73-2.03,1.16-2.63,1.67-3.73.45-1.03,1.11-1.96,1.68-2.94l-.45,1.34c2.16-3.59,4.73-6.57,7.4-9.05,2.7-2.45,5.41-4.48,8.05-6.19,5.29-3.4,10.17-5.58,14.42-7.35,8.6-3.38,14.81-5.11,21.06-6.59,4.18-.6,4.77-.5,4.21-.32-.55.17-2.22.57-2.55.71,6.57-.98,12.46-1.43,17.78-1.62,5.32-.17,10.07-.14,14.4.09,8.67.4,15.66,1.32,22.31,2.44,3.33.56,6.56,1.25,9.89,2.01,1.64.46,3.31.92,5.02,1.39.86.23,1.73.47,2.61.71.88.25,1.79.45,2.67.8,1.79.63,3.64,1.29,5.57,1.97.96.36,1.98.65,2.96,1.08.99.43,2,.87,3.03,1.32,1.04.45,2.1.91,3.19,1.39.55.24,1.1.48,1.66.72.54.28,1.09.57,1.65.85,2.21,1.18,4.6,2.33,7.03,3.72l3.35,3.38c3.49,2,11.64,7.84,21.07,17.37,4.63,4.84,9.62,10.54,14.44,17.08,1.17,1.66,2.41,3.31,3.58,5.05,1.14,1.76,2.37,3.49,3.48,5.33,1.13,1.83,2.29,3.67,3.36,5.58l.82,1.43.44.77.6,1.1c.81,1.47,1.62,2.95,2.43,4.44,1.7.11,3.41.22,5.12.34l2.02.17,1.65.17c2.2.24,4.4.53,6.6.88,4.39.7,8.76,1.62,13.02,2.84,8.54,2.39,16.7,5.89,24.1,10.1-.5-.15-1.48-.59-5.14-2.38,6.44,3.23,12.83,7.4,18.81,12.41.74.63,1.5,1.25,2.23,1.91l1.43,1.28c.15.12.27.27.44.36l.52.24,1.02.47c1.83.84,3.65,1.72,5.46,2.62,3.63,1.8,7.25,3.7,10.82,5.7,3.57,2,7.1,4.09,10.57,6.26l2.63,1.67,4.03,2.62,2.01,1.32.5.33.13.08s.08-.04.12-.06l.24-.18.96-.71c1.28-.96,2.56-1.91,3.83-2.86l.48-.36.28-.21.29-.2.61-.38,1.22-.77c.82-.5,1.59-1.06,2.46-1.49,1.7-.91,3.34-1.88,5.1-2.64.86-.41,1.73-.81,2.58-1.22.88-.36,1.76-.72,2.64-1.07,1.73-.75,3.53-1.34,5.29-1.96,14.18-4.8,28.18-6.47,39.6-6.99,1.43-.04,2.83-.13,4.18-.15,1.35-.01,2.67-.02,3.94-.03,1.27-.03,2.49.05,3.68.05.59,0,1.17.02,1.74.02.56,0,.95.06,1.41-.02.57-.06.69-.09,1-.13,4.32-.61,7.91-1.03,10.58-1.48,12.85-.32,25.77,1.51,38.09,5.45-5.92-2.07-10.39-3.19-13.57-3.93-3.19-.73-5.1-1.1-6.07-1.35-1.94-.45-.06-.42,2.74-.13,2.8.29,6.5.88,8.24,1.14,1.74.24,1.55-.07-3.54-1.41,4.92,1.02,10.46,2.67,15.51,4.66,5.06,1.96,9.61,4.26,12.81,6.09,3.2,1.82,5.07,3.15,4.85,3.18-.23.06-2.51-1.24-8.02-3.88-1.12-.62-2.26-1.18-3.4-1.77-2.3-.44.35.86,5.27,3.52,2.46,1.33,5.47,3.05,8.71,5.08,1.61,1.03,3.28,2.12,4.96,3.29.51.36,1.02.72,1.54,1.08.56.41,1.13.83,1.7,1.24,1.14.82,2.27,1.72,3.42,2.53,1.05-.89,2.1-1.78,3.17-2.66.53-.44,1.06-.89,1.61-1.31l1.48-1.14c1.61-1.2,3.21-2.37,4.83-3.42,3.18-2.17,6.33-3.93,9.04-5.39,2.75-1.38,5.04-2.48,6.67-3.07,1.62-.63,2.5-.9,2.42-.68,8.03-3.41,16.49-5.72,25.06-6.75l3.22-.38c1.08-.08,2.15-.1,3.23-.15l3.23-.14c1.08,0,2.15.06,3.23.09l1.9.06c.81.02,1.6.06,2.41.14,1.62.14,3.26.4,4.95.72,3.38.62,6.82,1.32,10.1,2.03l.08-.26s-.04-.14-.07-.22l-.13-.26-.5-1.06-1-2.11c-.67-1.4-1.33-2.83-1.99-4.28-1.38-2.89-2.51-5.75-3.69-8.62l-1.12-3.21c-.35-.98-.61-1.97-.92-2.95-.32-.98-.56-1.98-.81-2.97-.26-.99-.51-1.99-.7-2.99-1.69-7.95-2.04-16.21.32-23.54,2.27-7.32,7.57-13.27,14.19-17.48,6.63-4.24,14.35-6.92,22.22-8.65,7.91-1.69,16.05-2.44,24.16-2.46,4.06,0,8.11.17,12.15.51,4.03.36,8.04.89,12.01,1.58,7.93,1.41,15.69,3.49,23.05,6.44,3.68,1.48,7.27,3.15,10.75,5.03.44.23.87.47,1.3.71l.67.38,1.04.61,2.04,1.22,2.03,1.3,4.07,2.69,2.02,1.35,1,.68c.16.1.35.26.48.3l.37.06c.51-2.58,1.1-5.3,1.7-7.92.29-1.32.63-2.57,1.04-3.75.21-.59.43-1.17.66-1.74l.18-.41c.04-.09.07-.17.11-.25l.24-.48.95-1.9c.32-.63.74-1.22,1.1-1.83.69-1.24,1.63-2.34,2.45-3.5,3.61-4.45,8.15-8.21,13.16-11.29-3.12,1.41-6.22,2.96-9.08,4.92,7.81-6.91,17.65-11.52,27.83-14.68,2.03-.57,3.76-.9,4.85-1.06,1.09-.17,1.54-.15,1.04.1-.49.27-1.94.71-4.59,1.59-2.65.88-6.52,2.16-11.66,4.41,5.5-2.12,14.45-5.22,22.4-7.09,7.92-1.95,14.67-2.96,14.97-3.17,5.62-.44,9.59-.52,12.22-.47,2.63.02,3.93.14,4.27.24.34.1-.29.19-1.51.27-1.23.12-3.05.23-5.12.39-4.13.31-9.2.89-12.36,1.38-3.16.5-4.44.78-1.06.33,6.14-.78,12.34-1.2,18.56-1.26l-4.21-.09c3.77-.25,6.7-.38,9.39-.46,1.35-.02,2.63-.04,3.94-.06,1.31.02,2.63.05,4.06.08,1.42.05,2.94.15,4.63.26,1.69.15,3.56.31,5.66.58,4.22.52,9.43,1.38,16.1,3.08,2.09.61,3.78,1.16,5.16,1.59,1.38.43,2.41.89,3.23,1.2,1.63.66,2.34,1,2.74,1.24.79.49.35.52,3.51,1.77-.04.04.48.27,1.95.87.73.32,1.69.74,2.94,1.29.63.27,1.32.57,2.1.91.76.36,1.6.77,2.52,1.21,11.97,5.97,22.96,13.87,32.67,23.14-3.64-3.96-7.47-7.79-11.57-11.31,3.68,2.58,7.27,5.52,10.37,8.26,1.53,1.39,2.96,2.71,4.21,3.91,1.23,1.22,2.32,2.3,3.2,3.17,1.73,1.79,2.68,2.72,2.47,2.29-.24-.41-1.56-2.27-4.69-5.82,3.28,3.75,8.68,9.79,14.57,17.91,2.94,4.06,6.02,8.61,9.01,13.62,1.5,2.5,2.97,5.11,4.4,7.82.72,1.35,1.42,2.73,2.1,4.13.42.89.85,1.78,1.27,2.67.47,1.03.93,2.06,1.4,3.1,1.94.36,3.89.71,5.85,1.08,1.41.28,2.84.57,4.26.85,2.85.59,5.72,1.24,8.58,1.93,5.73,1.39,11.47,2.96,17.08,4.72,2.81.88,5.59,1.78,8.33,2.76,2.74.94,5.43,1.95,8.08,2.95,5.28,2.05,10.35,4.18,15.1,6.35,19.04,8.7,32.91,17.94,37.33,21.12l1.41.89,1.98,1.3c1.29.86,2.59,1.72,3.89,2.58l2.59-1.75,2.42-1.59c1.75-1.17,2.76-1.76,4.04-2.56,2.48-1.5,5.01-2.97,7.61-4.34,1.29-.7,2.6-1.39,3.94-2.03,1.33-.65,2.66-1.32,4.02-1.95,2.74-1.2,5.49-2.48,8.37-3.55,5.69-2.31,11.72-4.14,18.02-5.84,1.59-.36,3.19-.72,4.81-1.09.81-.18,1.62-.37,2.44-.55.83-.14,1.66-.28,2.49-.42,1.67-.28,3.36-.56,5.06-.84,1.71-.25,3.45-.37,5.2-.57-1.91.15-3.65.19-4.76.17-1.1.03-1.59-.07-1.01-.34.58-.31,2.24-.63,5.44-1.07,3.19-.51,7.94-.86,14.66-.82-2.46.59-.6,1.06,3.82,1.47,1.11.12,2.38.16,3.78.34,1.4.19,2.93.41,4.57.64,1.04.13,2.11.27,3.22.41.62.08,1.25.15,1.89.23.17.07.28-.1.42-.18l.39-.29.79-.58c.53-.39,1.07-.79,1.61-1.19.41-.29.83-.58,1.25-.88.78-.56,1.61-1.09,2.43-1.66,3.33-2.2,6.99-4.33,10.79-6.24,3.81-1.91,7.78-3.56,11.68-4.89,7.8-2.69,15.33-3.93,20.64-4.25-2.36.2-2.99.2-2.33-.02.66-.19,2.61-.63,5.42-1.03,2.81-.4,6.47-.83,10.53-1.03,4.06-.21,8.51-.24,12.87-.03,8.72.37,16.98,1.81,21.19,2.7,2.11.41,3.24.64,2.97.4-.27-.23-1.95-.93-5.58-1.95,5.41,1.25,8.08,2.23,9.4,2.78,1.31.54,1.27.68,1.06.77-.21.1-.57.15.08.55.63.43,2.33,1.12,5.98,2.91,3.62,1.54,7.14,3.43,10.36,5.75.82.57,1.56,1.21,2.35,1.82.72.67,1.5,1.3,2.18,2.01l1.03,1.06.26.27.38.46.77.91.77.92.38.46.1.11s.1.02.14.04l.3.06,2.37.45,1.93.39c.52.1,1.04.23,1.56.35,1.04.23,2.08.51,3.13.78,2.08.58,4.17,1.18,6.25,1.9,4.15,1.4,8.28,3.06,12.34,4.99,4.05,1.93,8.04,4.11,11.92,6.54,3.9,2.44,7.61,5.07,11.05,8.09.88.73,1.68,1.54,2.52,2.31.79.82,1.62,1.6,2.36,2.46,1.55,1.66,2.94,3.44,4.2,5.29,1.27,1.84,2.36,3.79,3.23,5.8.23.5.44,1,.61,1.52.18.51.39,1.02.52,1.54l.22.78.11.39.03.1.07.29.07.34c.2.9.38,1.82.6,2.72l2.7,2.08c.97.74,1.47,1.1,2.14,1.59,1.29.92,2.58,1.83,3.9,2.7,2.64,1.75,5.34,3.41,8.11,4.98,5.54,3.14,11.33,5.91,17.35,8.25,12.02,4.67,25.04,7.51,38.26,7.55.54-.13-2.08-.37-2.97-.62-.45-.12-.46-.23.55-.3,1.01-.05,3.05-.12,6.71-.33,12.04.06,24.19-2.37,35.42-7.11,5.48-2.67,8.02-4.61,11.12-6.85,1.53-1.14,3.2-2.38,5.33-4.03,1.07-.82,2.24-1.74,3.57-2.81.67-.53,1.37-1.1,2.11-1.72.24-.2.49-.4.75-.61.22-.16.43-.41.68-.5,1.61.38,3.46.82,5.55,1.31-.81-.22-1.73-.47-2.51-.68-.39-.11-.75-.21-1.04-.3-.15-.05-.28-.09-.39-.12-.11-.04-.13-.06-.18-.08-.08-.05-.11-.08-.06-.1.07-.01.1-.03.49.02.7.09,2.02.31,4.17.74,15.84,3.47,31.45,8.24,46.68,14.3,15.39,6.05,31.08,11.48,46.92,16.54l5.95,1.88,2.98.92,1.91.59,1.06.32c.09,0,.18.09.26.04l.23-.16.45-.33,3-2.18c.84-.59,1.67-1.18,2.53-1.74,1.7-1.14,3.43-2.23,5.21-3.25,7.08-4.12,14.68-7.37,22.62-9.49,15.87-4.38,32.88-4.26,49.01-.47,8.08,1.86,15.98,4.58,23.57,7.99,3.79,1.71,7.52,3.57,11.14,5.62,1.81,1.02,3.6,2.08,5.36,3.19l1.63,1.04.46.3c.15-.06.3-.19.45-.28l.9-.62,2.65-1.84c13.77-9.44,28.66-17.25,44.24-23.22,7.79-2.99,15.75-5.52,23.83-7.57,4.04-1.02,8.11-1.93,12.2-2.71l3.07-.57.56-.1.14-.03s.04-.08.07-.12l.12-.26.37-.81.66-1.41c.9-1.87,1.85-3.72,2.84-5.54,7.99-14.56,18.6-27.71,31.41-38.18-.86.72-1.63,1.36-2.32,1.93-.67.59-1.26,1.11-1.77,1.56-1.03.9-1.72,1.54-2.15,1.95-.86.81-.69.64.19-.21,1.78-1.69,6.54-6,12.15-9.93-7.19,5.25.12-.18-1.3.84,3.73-2.72,7.65-5.2,11.71-7.39,4.06-2.2,8.25-4.18,12.58-5.8,8.62-3.35,17.71-5.4,26.89-6.48,2.51-.31,7.47-.85,13.61-.94,3.07-.06,6.43,0,9.92.19,3.48.22,7.09.53,10.64,1.05,7.1,1,13.97,2.67,19.24,4.55,5.3,1.84,9.01,3.78,10.29,4.46-5.18-2.75-10.7-4.82-16.36-6.33,5.62,1.59,6.41,2.01,4.61,1.36-1.82-.59-6.33-1.98-11.58-3.01-5.23-1.06-11.16-1.77-15.57-2.05-4.4-.29-7.27-.3-6.42-.3-6.54-.13-14.15.18-22.44,1.41-4.14.62-8.45,1.45-12.84,2.63-4.4,1.16-8.86,2.7-13.35,4.53-8.94,3.74-17.84,8.95-26.01,15.53-8.19,6.56-15.62,14.45-22.01,23.11-2.8,3.83-1.63,2.19-.12.09,1.53-2.08,3.47-4.53,1.88-2.55-3.31,4.34-6.79,9.27-10.63,15.96-.95,1.68-1.93,3.46-2.91,5.38-.49.96-.98,1.96-1.46,2.99-.12.26-.24.52-.36.78l-.11.25c-.04.08-.17.05-.25.08-.56.1-1.13.2-1.71.3-4.76.85-10.06,1.94-15.97,3.45l2.67-.7c-16.66,4.09-30.46,9.45-42.73,15.34-6.13,2.97-11.9,6.07-17.41,9.39-2.77,1.64-5.47,3.35-8.13,5.1l-1.99,1.32-1.69,1.16-.27.18c-.09,0-.18-.1-.27-.15l-.7-.46-2.03-1.3c-5.45-3.4-11.19-6.47-17.35-9.19-6.16-2.72-12.73-5.13-19.89-7-3.58-.96-7.31-1.73-11.19-2.36-3.88-.63-7.93-1.07-12.14-1.25-8.41-.41-17.51.26-27.07,2.48.96-.16,1.92-.28,2.88-.42.96-.13,1.91-.28,2.88-.36-8.27,1.47-13.1,3.18-16.85,4.47-3.73,1.36-6.38,2.46-9.94,4.17-4.21,2.39-3.66,2.24-.78.74,1.46-.72,3.52-1.74,5.94-2.79,2.43-1.05,5.21-2.14,8.06-3.08,5.69-1.93,11.63-3.18,15.05-3.63,1.7-.28,2.78-.36,2.88-.32.11.05-.77.17-2.9.64-.69.09-1.45.2-2.27.31-.82.14-1.7.32-2.65.5-1.9.32-4,.9-6.32,1.48-4.6,1.29-9.95,3.16-15.52,5.86-2.79,1.35-5.64,2.88-8.48,4.62-1.42.87-2.85,1.78-4.26,2.74-.69.46-1.46,1.01-2.07,1.44l-.58.42-.29.21-.34-.11c-1.45-.47-2.91-.94-4.39-1.42-1.65-.55-3.32-1.1-4.98-1.65-3.33-1.13-6.68-2.27-10.02-3.4-13.33-4.6-26.31-9.47-36.71-13.79-10.47-4.39-18.78-7.32-22.22-8.81-6.12-1.95-8.79-2.61-9.67-2.8-.89-.18,0,.17.88.52.88.35,1.76.7.88.52-.88-.17-3.51-.93-9.72-2.5-2.16-.69-4.34-1.35-6.52-1.99l-6.71-.87c-1.18-.24-2.34-.48-3.11-.64-1.05.81-2.07,1.77-3.03,2.53-.68.55-1.33,1.08-1.98,1.58-1.29,1-2.52,1.89-3.67,2.67-2.31,1.58-4.31,2.78-5.97,3.68-3.32,1.8-5.2,2.47-5.53,2.45,1.74-.86,4.12-2.27,6.47-3.79,2.35-1.52,4.63-3.21,6.28-4.49-4.22,3.04-9.51,6.41-15.41,9.23-5.89,2.85-12.37,5.14-18.62,6.57-6.25,1.45-12.24,2.03-17.07,2.14-1.21,0-2.35,0-3.4,0-1.05-.02-2.02-.08-2.89-.12-1.75-.05-3.1-.26-3.98-.34,7.74.9,15.58.74,23.28-.44-6.79,1.2-13.88,1.56-21.06,1.08-3.59-.27-7.19-.74-10.8-1.4-3.6-.7-7.2-1.57-10.77-2.63-7.12-2.18-14.16-5.04-20.91-8.59-3.38-1.77-6.7-3.68-9.92-5.75-1.62-1.03-3.2-2.11-4.77-3.21-.77-.54-1.58-1.13-2.29-1.67l-.62-.46-.51-.4c-.1-.28-.14-.59-.21-.89l-.6-2.09c-.25-.75-.53-1.49-.8-2.23-.29-.73-.62-1.44-.93-2.16-1.33-2.83-2.96-5.45-4.77-7.89-3.62-4.89-7.98-9-12.59-12.63-4.66-3.61-9.51-6.65-14.5-9.44-5-2.78-10.19-5.15-15.46-7.18-5.28-2.01-10.67-3.64-16.12-4.82l-1.55-.31c-.29-.07-.64-.06-.9-.21l-.61-.72c-.07-.08-.06-.08-.19-.22l-.38-.4-.77-.79c-2.06-2.09-4.28-3.95-6.61-5.55-4.63-3.27-9.62-5.61-14.6-7.5-5-1.86-10.04-3.17-15.01-4.13,1.69.49,3.35,1.07,5.01,1.64-6.43-1.54-11.96-2.35-16.77-2.83-4.82-.48-8.92-.66-12.56-.72-7.27-.11-12.66.21-18.2.71-2.77.29-5.58.62-8.66,1.16-3.08.51-6.45,1.21-10.31,2.27-3.85,1.06-8.2,2.46-13.13,4.59-4.93,2.11-10.46,4.94-16.5,8.92.56-.42,1.14-.82,1.72-1.22-1.21.81-2.43,1.69-3.7,2.6-.63.47-1.26.94-1.91,1.42-.32.25-.64.49-.97.74l-.44.34-.28.23-.57.47-.29.24-.15.12c-.05.03-.12,0-.18,0-.49-.04-.99-.07-1.5-.11-1.69-.16-3.43-.32-5.19-.48-.45-.04-.9-.09-1.36-.13-.46-.01-.92-.02-1.38-.03-.92-.02-1.85-.04-2.79-.06-1.87-.03-3.77-.12-5.68-.11-1.91.08-3.84.16-5.79.24-.97.04-1.95.08-2.92.12-.97.1-1.95.2-2.92.3,7.18-1.02.4-.57-5.89-.15-6.22.78-11.95,1.48-2.54-.4-1.76.33-3.43.64-5.03.93-1.6.28-3.08.72-4.51,1.05-1.42.35-2.78.68-4.06,1-1.28.34-2.46.73-3.6,1.07-4.56,1.3-8,2.64-10.77,3.62-5.47,2.16-8.12,3.36-10.17,4.42-1.02.53-1.91.99-2.93,1.51-1,.56-2.12,1.2-3.63,2.05-1.52.82-3.38,1.94-5.87,3.41-1.25.72-2.62,1.62-4.19,2.58-.79.48-1.6,1.03-2.47,1.6-.85.56-1.87,1.21-2.55,1.71l-3.06,1.46c-.71-.6-1.37-1.21-1.99-1.77-.22-.12-.43-.24-.64-.36-.31-.18-.6-.36-.89-.53-.61-.36-1.19-.71-1.74-1.04-1.12-.64-2.15-1.23-3.16-1.81-2.02-1.13-3.94-2.21-6.28-3.52-2.34-1.32-5.12-2.86-8.87-4.88-3.77-2.01-8.51-4.51-14.89-7.53,5.28,2.39,6.9,3.1,6.79,2.87-.1-.23-1.97-1.35-3.77-2.4-1.79-1.08-3.54-2.06-3.33-2.16.21-.09,2.39.68,8.3,3.48-16.47-9.09-31.34-14.67-44.37-18.61-6.53-1.95-12.62-3.46-18.34-4.69-2.86-.62-5.62-1.17-8.31-1.66-1.32-.24-2.63-.47-3.91-.69-.72-.12-1.45-.22-2.15-.34-.4-.83-.8-1.64-1.19-2.44-.66-1.32-1.32-2.6-1.98-3.86-1.32-2.52-2.67-4.93-3.99-7.28-2.66-4.7-5.3-9.13-7.95-13.54-3.33-3.91-4.47-4.84-4.04-3.97.4.88,2.34,3.58,4.81,7.25,2.47,3.66,5.42,8.33,8.07,12.98,1.32,2.33,2.58,4.64,3.68,6.82.53,1.03,1.15,2.3,1.39,2.81.29.63.57,1.23.82,1.77.83.16,1.54.29,2.11.4.8.16,1.39.28,1.72.35.38.08.47.12.22.09-.24-.04-.8-.12-1.74-.26.28.07.53.13.76.19.25.07.48.13.67.18.39.11.68.2.86.27.36.14.31.2-.1.2-.4,0-1.16-.09-2.18-.21-.77-.08-1.78-.18-2.98-.35-.4-.77-.85-1.62-1.34-2.54-.31-.58-.63-1.19-.96-1.81-.35-.64-.71-1.29-1.08-1.97-1.49-2.68-3.18-5.57-4.99-8.46-3.58-5.81-7.69-11.58-11.05-16.05-5.82-7.47-10.64-14-18.92-22.4-4.16-4.16-9.24-8.76-16.11-13.61-6.86-4.82-15.52-9.97-26.94-14.27,4.53,1.74,4.87,1.78,9.3,3.74-8.18-4.07-16.78-6.85-25.99-8.92-9.23-2.02-19.05-3.33-30.15-4.25-6.25.34-13.44.42-19.52.88-3.04.21-5.8.54-8.01.9-2.2.42-3.85.84-4.68,1.37,7.28-1.15,14.62-1.77,21.98-1.96,7.35-.18,14.72.09,22.05.88-6.24-.6-12.41-.76-18.76-.57-6.35.2-12.88.75-19.86,1.74-6.97,1-14.38,2.51-22.4,4.82-4,1.21-8.15,2.62-12.43,4.39-4.26,1.81-8.65,3.99-13.03,6.8.64-.49,1.71-1.4,3.19-2.33.73-.47,1.54-1.01,2.42-1.56.9-.51,1.86-1.05,2.85-1.62,4.02-2.18,8.83-4.23,12.82-5.66-5.84,1.67-11.29,3.99-16.47,6.96-5.18,2.98-10.11,6.55-14.82,11.03.38-.9,2.94-4.05,7.66-7.52,4.68-3.5,11.46-7.21,19.26-10.1,3.9-1.47,8.05-2.69,12.27-3.8,4.23-1.05,8.54-1.93,12.79-2.62,8.49-1.37,16.69-2.01,23.44-2.38-3.26-.13-8.1,0-13.29.5-5.18.51-10.7,1.39-15.35,2.35-1.16.25-2.27.49-3.31.71-1.04.25-2,.48-2.88.7-1.76.4-3.16.8-4.08,1-1.83.41-1.74.17,1.48-1.14-4.04,1.52-8.44,3.16-13.13,5.12-4.69,1.98-9.66,4.32-14.65,7.45-4.97,3.14-9.98,7.1-14.26,12.32-.5.68-1.01,1.36-1.52,2.04-.25.34-.51.68-.76,1.04l-.68,1.1c-.45.74-.92,1.48-1.35,2.24-.39.79-.78,1.58-1.18,2.38-.18.38-.43.85-.55,1.15l-.21.53c-.13.36-.25.72-.36,1.1-.22.75-.4,1.54-.53,2.39l-.03.2s-.09-.04-.13-.05l-.3-.18-.62-.36c-.42-.24-.86-.47-1.31-.71-.46-.23-.94-.47-1.44-.7l-.19-.09-.08-.03-.17-.09-.74-.37-1.5-.72c.79.06,1.59.13,2.38.21-2.34-1.22-6.01-2.97-10.28-4.67-4.27-1.71-9.16-3.34-13.79-4.67,5.71,1.2,11.38,2.86,16.91,4.97-6.27-2.63-12.6-4.75-18.92-6.47-6.31-1.73-12.64-3-18.99-3.92-6.35-.92-12.72-1.44-19.14-1.44-6.41,0-12.86.44-19.29,1.64,6.75-1.09,12.04-1.38,16.12-1.49,4.08-.09,6.97.01,8.99.12,4.02.27,4.55.49,4.11.65-.44.15-1.85.32-1.73.52.12.22,1.77.42,7.38,1.11-8.22-.65-14.99-.53-20.67-.26-5.68.29-10.27.82-14.15,1.37-7.76,1.15-12.74,2.23-17.93,3.74-1.29.41-2.61.78-3.96,1.31-.68.25-1.38.51-2.09.78-.71.31-1.43.63-2.19.96-2.99,1.38-6.4,3.15-10.2,6.12-1.87,1.52-3.9,3.27-5.82,5.58-1.01,1.1-1.91,2.41-2.88,3.77-.46.69-.88,1.45-1.33,2.2-.47.75-.85,1.56-1.24,2.39-3.26,6.64-4.65,15.44-3.54,25.19-.07-.66-.15-1.4-.23-2.19-.03-.8-.07-1.67-.1-2.57-.05-.9-.03-1.86.01-2.84.04-.98.05-1.99.18-3.01.13-1.02.19-2.06.39-3.08.19-1.03.38-2.05.59-3.04.28-.99.55-1.95.81-2.88.27-.92.65-1.78.95-2.6.16-.41.31-.8.47-1.17.18-.37.36-.72.52-1.05.34-.66.65-1.26.92-1.78.59-1,1.07-1.65,1.27-1.88.21-.23.16-.03-.19.7-.16.37-.45.85-.73,1.53-.28.67-.63,1.51-1.06,2.51-1.53,3.6-2.58,7.69-3.06,11.83-.48,4.14-.48,8.35-.07,12.26.77,7.86,2.71,14.64,3.97,18.89.09.24.17.48.26.71.04.09.08.19.11.28.08.18.15.36.22.52.14.34.29.64.43.93.13.29.27.55.4.79.06.12.12.24.18.35l.09.16c.04.06-.07,0-.1.01-1.27-.2-1.63-.11-1.33.03.29.15,1.25.41,2.37.77l.2.06s-.02-.08-.02-.11l-.06-.24c-.04-.16-.08-.32-.12-.46-.07-.29-.11-.53-.08-.63.06-.19.34.2,1.38,2.1l.05.18s-.18-.05-.25-.06c-2.09-.65-3.41-.95-4.72-.99-1.25-.01-2.46-.02-3.67-.04-1.62-.06-3.24.18-4.89.3-6.58.63-13.8,1.82-23.84,5.09l-.43-.87c-1.36.43-2.66.84-3.91,1.23-1.24.41-2.39.89-3.5,1.3-2.24.8-4.19,1.72-5.97,2.52-3.54,1.64-6.26,3.12-8.4,4.41-4.28,2.55-6.3,4.16-7.6,5.26-1.31,1.09-1.84,1.79-2.96,2.81-.8.73-1.96,1.78-4.29,3.9-.51-.32-1.08-.77-1.75-1.22-.33-.23-.68-.48-1.06-.74-.28-.19-.57-.39-.87-.6-.33-.22-.66-.45-1-.68-2.75-1.85-6.15-4.02-10.43-6.41,3.08,1.41,6.11,2.94,9.08,4.6l2.22,1.27c.69.4,1.63.98,1.82,1.05.7.36,1.34.71,1.92.99l.29-.32-.29.26c-.36-.22-.72-.5-1.09-.74l-1.32-.87c-1.76-1.18-3.56-2.3-5.37-3.4-3.64-2.17-7.39-4.17-11.23-5.98,1.79.46,3.58.97,5.36,1.52-6.45-3.26-12.02-5.46-17.07-7.2-5.05-1.74-9.59-3-14.16-4.05-4.57-1.05-9.17-1.89-14.39-2.53-5.22-.61-11.08-1.01-18.13-.87,1.64.12,2.23.32,1.81.52-.42.2-1.86.43-4.25.72-1.2.15-2.63.34-4.31.55-.32.04-.65.09-.99.13h-.17s-.12,0-.25,0c-.23,0-.47-.01-.71-.02-.96-.03-1.98-.06-3.06-.09-4.32-.05-9.56-.07-15.69.38-2.1.03-3.52.13-4.48.16-.96.03-1.45.02-1.68-.01-.46-.07.14-.22.17-.29.02-.04-.1-.05-.57-.03-.47.02-1.28.07-2.63.26-.68.09-1.49.2-2.46.33-.97.13-2.11.28-3.42.54-1.31.24-2.81.49-4.52.84-1.69.39-3.61.78-5.73,1.32,1.89-.63,3.84-1.18,5.93-1.8,2.11-.52,4.36-1.1,6.86-1.54,5-.92,11.02-1.53,18.68-1.29,1.55-.41,7.84-.63,9.49-.83-4.58-.34-9.78-.47-15.15-.14-2.69.1-5.42.41-8.16.67-1.36.16-2.73.37-4.08.55-.68.1-1.36.19-2.03.29-.67.12-1.34.24-2.01.37-5.35.89-10.45,2.24-14.98,3.53-4.51,1.39-8.44,2.81-11.45,4.05,1.15-.5,2.39-.91,3.62-1.36,1.24-.42,2.46-.91,3.65-1.24,2.39-.7,4.53-1.37,6.02-1.65-8.21,2.47-16.23,5.76-23.71,10.23-.93.57-1.88,1.08-2.78,1.71l-2.7,1.86-.67.47s-.16.11-.11.08c0,0,.05-.03.02,0l-.13.11-.54.46-.55.47-.28.24s-.09.1-.14.1l-.15-.09-1.24-.7-.64-.36-1.27-.74c-1.81-1.05-3.63-2.08-5.46-3.09-6.67-4.25-1.06-1.44,4.41,1.54-4.38-2.6-8.19-4.63-12.57-6.84-2.19-1.11-4.53-2.25-7.16-3.52-1.32-.63-2.71-1.29-4.2-1.99-1.4-.64-2.88-1.32-4.47-2.05.14,0,.21-.01.37,0,.21.04.41.08.61.12.39.07.76.14,1.16.22.79.17,1.7.38,3.08.86,2.76.98,7.51,2.87,16.88,7.95-3.52-1.93-7.09-3.77-10.69-5.54-1.8-.89-3.61-1.75-5.43-2.59l-2.74-1.25-1.37-.61-.69-.3-.31-.13-.09-.03c-.13-.03-.25-.11-.34-.19l-.07-.06-.28-.24-.58-.5c-.77-.68-1.59-1.31-2.38-1.96-1.6-1.29-3.24-2.54-4.91-3.74-3.34-2.41-6.8-4.65-10.38-6.69-.66-.51-2.34-1.59-4.44-2.85-2.11-1.23-4.64-2.61-6.96-3.75-4.63-2.29-8.32-3.76-5.22-2.79-5.17-2.07-11.04-3.82-17.35-5.04-3.15-.61-6.41-1.1-9.75-1.47-1.67-.18-3.36-.34-5.07-.46l-.64-.04-.29-.02h-.06s-.25,0-.25,0l-.53.02-.53-.78c-.6-.96-1.2-1.94-1.8-2.91-.68-1.13-1.39-2.23-2.13-3.33-.73-1.1-1.47-2.21-2.21-3.32-1.57-2.16-3.04-4.41-4.72-6.53-.82-1.07-1.64-2.15-2.46-3.23-.83-1.07-1.72-2.11-2.58-3.16-6.92-8.42-14.65-16.32-22.81-23.32-1.49-1.12-4.5-3.36-10.79-7.69-1.76-1.17-3.5-2.33-5.24-3.48l-1.3-.86-1.35-.78c-.9-.52-1.8-1.04-2.69-1.55l-2.68-1.55-1.34-.77c-.45-.24-.92-.46-1.38-.69-1.85-.9-3.69-1.81-5.53-2.71-1.82-.96-3.75-1.67-5.65-2.44-1.91-.76-3.82-1.52-5.73-2.29-1.97-.62-3.94-1.24-5.92-1.86-1.98-.61-3.96-1.29-6.01-1.75-8.12-2.08-16.58-3.39-25.48-4.07-8.9-.62-18.26-.57-28.15.52-7.54.13-15.12.83-22.69,2.12-1.93.45-3.48.92-4.73,1.28-1.25.35-2.18.67-2.85.92-1.35.49-1.66.68-1.34.68.32,0,1.27-.19,2.45-.44,1.19-.23,2.62-.48,3.88-.71,2.53-.42,4.43-.56,2.52.09-.96.3-2.85.9-6.05,1.91-3.19,1.07-7.71,2.54-13.7,5.3-2.13.95-3.97,1.98-5.65,2.85-1.64.95-3.11,1.78-4.37,2.59-1.25.84-2.36,1.51-3.29,2.19-.93.67-1.72,1.25-2.4,1.73-2.64,2.06-3.51,2.62-3.83,2.63-.31.02-.07-.54-.38-.52-.16.01-.45.17-1.03.62-.56.47-1.47,1.16-2.67,2.45-2.19,2.56-4.37,5.74-6.31,9.48-.44.96-.89,1.94-1.34,2.94-.1.22-.26.59-.25.61l-.06.23-.13.48c-.16.66-.31,1.42-.42,2.27l-.02.15s-.07-.03-.1-.03l-.22-.12-.46-.25c-.33-.17-.67-.35-1.02-.53-.37-.18-.75-.37-1.13-.56-.47-.24-.94-.49-1.41-.73-.53-.27-1.07-.54-1.61-.81-4.32-2.15-8.96-4.14-13.86-5.89-9.81-3.5-20.55-5.92-31.64-7.42,5.58.43,10.54,1.22,15.35,2.25,4.81,1.03,9.49,2.31,14.52,3.95ZM224.56-22.74c3.66.43,9.13,1.15,14.31,2.14,2.57.56,5.09,1.13,7.27,1.67.27.07.54.14.8.2l.39.1.18.05c.17.06.33.11.48.16.17.06.33.12.48.18.14-.05.27-.09.39-.11l-.25.25s-.08.09-.13.12h-.15c-.2.02-.42.02-.62.02h-.3s-.16-.02-.16-.02l-.37-.06-1.47-.26c-1.95-.36-3.88-.8-5.94-1.31-4.12-.96-8.75-2.05-14.93-3.14ZM-95,26.09c-4.58-2.94-11.08-8.32-17.72-15.08,5.04,4.66,10.92,9.75,17.72,15.08ZM1350.39,144.27c-.45-.19-.76-.32-1.13-.48-.36-.17-.71-.45-1.09-.23-.37.1-.74.19-1.09.28-.71.19-1.4.36-2.05.53-.79.2-1.03.25-1.41.34-.35.08-.69.16-1.01.23-1.28.26-2.27.48-3,.61-1.46.27-1.89.34-1.51.28.38-.08,1.57-.28,3.31-.65.89-.18,1.83-.4,3.03-.69.94-.25,1.92-.5,2.94-.77.25-.07.51-.13.76-.2l.39-.1c.13-.01.25.1.37.14.49.24.99.48,1.49.72ZM1381.83,154.37c1.6.24,2.37.19,2.55.16.19-.05-.2-.16-.87-.3-1.13-.03-3.47-.4-6.54-.89-3.06-.58-6.83-1.5-10.76-2.72,1.06.44,2.58,1.02,5.02,1.69,1.22.33,2.68.69,4.42,1.05,1.74.38,3.8.64,6.17,1.01ZM1237.32-168.14l-1.42-.7-1.45-.63-2.9-1.26c1.68.62,3.08,1.14,4.26,1.57,1.15.49,2.07.88,2.8,1.19,1.44.62,2.09.93,2.21,1.01.24.17-1.64-.51-3.5-1.18Z"/>
      <path class="cls-1" d="M891.6,164.96c-3.34-1.18-5.87-2.29-7.89-3.16-1.99-.95-3.48-1.65-4.63-2.29-.22.03.37.44,2.28,1.34.96.44,2.22,1.07,3.92,1.73.84.34,1.79.71,2.83,1.13,1.05.4,2.22.79,3.5,1.25Z"/>
      <path class="cls-1" d="M1421.89,151.89c1.63-.39,2.65-.79,3.34-1.11.7-.31,1.06-.58,1.33-.82.53-.48.78-.76,2.51-1.32.78-.47.75-.54.17-.34-.29.1-.71.27-1.25.49-.54.21-1.2.47-1.94.76-2.96,1.16-7.38,2.55-11.04,3.41-1.82.49-3.45.77-4.56,1.04-1.11.26-1.72.41-1.52.44.2.06,1.2-.07,3.3-.36,2.09-.31,5.27-.9,9.66-2.2Z"/>
      <path class="cls-1" d="M1469.36,160.56c7.85,1.22,15.82,1.78,23.78,1.48-.37-.13,2.65-.4,6.33-.88-7.27.9-15,.72-20.76.28-5.77-.48-9.6-1.08-9.35-.88Z"/>
      <path class="cls-1" d="M1499.47,161.16c1.88-.28,3.77-.45,5.54-.85.89-.18,1.77-.35,2.62-.52.85-.19,1.66-.43,2.46-.64.79-.22,1.57-.41,2.29-.64.72-.25,1.41-.5,2.06-.73.65-.24,1.28-.44,1.84-.68.56-.26,1.08-.5,1.55-.72-.47.2-1.01.43-1.6.68-.6.23-1.27.44-1.98.69-.71.24-1.46.5-2.24.76-.8.21-1.62.44-2.46.66-3.36.93-7.06,1.54-10.09,1.99Z"/>
      <path class="cls-1" d="M1226.65,184.59c-8.59-.75-17.16-2.57-25.13-5.92-2.55-.84,3.74,2.69,13.29,4.75,3.08.56,7.01,1.16,9.7,1.34,2.69.18,4.1.21,2.14-.16Z"/>
      <path class="cls-1" d="M1301.96,165.53c-2.83,2.3-4.5,3.29-5.81,4.1-1.32.79-2.37,1.25-4.15,2.22,0,.5-.03.98-.05,1.48,3.51-2.36,6.93-4.87,10.01-7.8Z"/>
      <path class="cls-1" d="M1229.24,187.85c-2.74,1.22-38.6-6.21-5,.46,1.38.02,8.8.52,12.77.18,1.99-.05,3.11-.21,2.2-.23-.45-.01-1.41-.06-3.03-.09-.81-.01-1.78-.03-2.93-.05-1.15-.08-2.48-.16-4.02-.26Z"/>
      <path class="cls-1" d="M857.1,142.55c.84.74,1.72,1.43,2.61,2.1.89.67,1.76,1.38,2.69,2l.41-2.19-2.85-.9-1.44-.47-1.41-.53Z"/>
      <path class="cls-1" d="M539.92,161.19c1.97.44,3.75.67,5.32.95,1.57.28,2.96.44,4.19.58,2.45.29,4.24.46,5.58.49,2.68.11,3.54.04,4.31-.08.77-.12,1.43-.24,3.71-.23.57,0,1.24.02,2.04.02.8,0,1.73,0,2.81-.01,2.16.04,4.95-.05,8.57-.14,1.87-.28,1.32-.31-.42-.27-.87.01-2.05.03-3.37.04-.66.01-1.36.03-2.08.04-.72-.01-1.45-.02-2.19-.03-1.47-.03-2.94-.02-4.25-.1-1.31-.08-2.47-.16-3.32-.21-1.71-.13-2.2-.22-.28-.26-9.62-.14-16.89-1.38-20.69-1.91-.24-.04-.46-.07-.67-.1l-.15-.02h-.07s-.12-.01-.12-.01c-.16,0-.29,0-.39,0-.21.02-.3.07-.3.16,0,.09.11.21.29.37.08.07.19.16.32.27l.1.08c.11.04.22.08.33.12.23.08.48.17.74.27Z"/>
      <path class="cls-1" d="M560.54,161.98c1.54,0,3.12.04,4.76.01,1.63-.06,3.31-.13,5.04-.2-2.78.06-4.82.17-6.37.16-1.55,0-2.61.01-3.43.02Z"/>
    </g>
  </g>
  <g>
    <path class="cls-5" d="M82.13-72.45c23.27.22,43.74,17.4,48.15,41.01,19.26-11.35,43.64-7.91,58.28,7.7,13.21,14.09,16.12,35.59,7.02,53.44,1.85.98,23.82,13.14,26.26,37.55,2.08,20.77-10.88,41.52-32.17,50.16.65,2.11,8.12,27.85-8.74,48.62-13.44,16.55-36.7,23.03-58.19,15.93-.98,1.66-14.66,23.9-40.6,24.99-20.25.85-39.48-11.55-47.97-31.18-17.63,7.36-37.84,3.45-50.81-9.74-11.47-11.66-15.67-28.91-11.08-44.99-18.1-5.83-30.57-22.49-30.99-41.26-.44-19.49,12.19-37.21,30.99-43.28-12.54-16.5-13.17-38.71-2.19-54.16,13.19-18.56,40.86-24.19,62.51-10.66,3.12-25.39,24.83-44.37,49.55-44.13Z"/>
    <g>
      <path class="cls-1" d="M147.54,183.6l1.6-.29c-.76.14-1.24.22-1.6.29Z"/>
      <path class="cls-1" d="M135.78,183.84l-.29.04c.55,0,.77-.01.29-.04Z"/>
      <path class="cls-1" d="M49.64,195.97c-.16-.17-.32-.34-.49-.51-.52-.29-1.01-.56-1.44-.81.58.4,1.24.85,1.93,1.32Z"/>
      <path class="cls-1" d="M51.7,196.04l2.41,1.95c-.53-.46-1.31-1.09-2.41-1.95Z"/>
      <path class="cls-1" d="M190.13,141.97v-1.9c-.28,2.93-.07,1.65,0,1.9Z"/>
      <path class="cls-1" d="M142.99,185.45c1.02-.1,1.45-.17,1.42-.2-1.04.12-1.64.18-1.42.2Z"/>
      <path class="cls-1" d="M213.83,48.23c-.05-.09-.1-.19-.16-.29-1-1.16-.6-.63.16.29Z"/>
      <path class="cls-1" d="M173.14,172.66c-.51.38-.99.81-1.54,1.15l-1.61,1.05c1.88-1.35,3.34-2.71,4.07-3.34.72-.64.65-.61-.78.46-.05.15-.74.88-1.87,1.75-1.16.82-2.63,1.98-4.27,2.87-3.17,1.96-6.65,3.35-6.82,3.62-.8.27-1.58.6-2.4.83.7-.2.78-.31,1.45-.56-1.15.44-1.97.64-2.61.87-.64.22-1.1.41-1.61.62-.5.23-1.07.39-1.9.62-.42.11-.89.23-1.46.38-.28.07-.59.14-.92.22-.34.05-.7.11-1.1.17-2.2.32-3.74.5-2.25.21-.81.17-1.63.19-2.45.3-.82.07-1.64.2-2.46.23-1.44,0-1.09-.07.34-.08l-3.77.05c-1.26-.05-2.51-.14-3.77-.21h.06c-1.08-.02-3.51-.29-4.7-.41-1.87-.46.95.15.48-.03-1.38-.21-2.74-.5-4.12-.75-1.63-.52,1.76.22,4.6.71-1.89-.51-2.72-.75-4.13-.98-.71-.1-1.53-.36-2.69-.67-.29-.08-.6-.18-.93-.27-.27-.08-.54-.16-.83-.25-.15-.04-.3-.08-.45-.13l-.23-.07c-.08-.03-.16-.06-.19.04-.18.28-.36.56-.55.86-.15.23-.31.46-.48.7-.25.38-.56.76-.87,1.18l.55-.81.57-.88.45-.72.22-.36c.04-.05.07-.14.12-.17l.2.05,1.58.44-.11-.05-.2-.07-.42-.15c-.28-.09-.57-.19-.86-.28l-.22-.07c-.06.02-.09.11-.13.17l-.26.38c-.18.26-.36.53-.54.8-.45.65-.88,1.2-1.37,1.87-1,1.28-2.16,2.75-3.72,4.32.4-.34,1.94-1.94,2.95-3.09,1.01-1.14,1.61-1.74.29.09-.8.99-1.88,2.28-3.45,4.15-.07-.05-.5.37-1.2,1.05-.34.34-.75.75-1.2,1.21-.47.44-.99.91-1.54,1.42l-.02-.32c-1.15,1.12-1.72,1.59-2.13,1.99-.41.4-.69.71-1.39,1.35-1.47,1.02-2.39,1.6-3.04,1.95-.67.31-1.06.43-1.47.57-4.92,2.86,3.58-1.69-2.24,1.74-1.07.51-2.06.99-3.03,1.45-.99.4-1.95.79-2.94,1.19-.25.1-.49.21-.75.31-.26.08-.52.17-.78.25-.53.17-1.07.34-1.64.53-.57.18-1.15.39-1.77.56-.63.14-1.29.29-1.98.44-3.28.51.53-.3-.65-.17l-1.42.4c-.48.12-.96.17-1.45.27-.72.05-.5-.04-.38-.09-1.23.15-1.27.24-1.5.34-.11.05-.27.1-.64.17-.19.03-.43.07-.74.11-.32.02-.71.03-1.2.04-.53.17-2.56.11-5.02-.31-2.47-.34-5.32-1.07-7.71-1.47-1.13-.39.62-.08.3-.31-3.2-.77-4.56-1.23-5.75-1.67-.6-.21-1.17-.4-1.91-.66-.73-.3-1.62-.66-2.89-1.18-.69-.37-1.31-.85-1.95-1.28-.64-.45-1.29-.87-1.9-1.34,1.35,1.05,1.08,1.05,0,.61-.52-.25-1.22-.65-2.01-1.1-.4-.23-.81-.47-1.23-.71-.41-.26-.81-.55-1.22-.83.84.93,1.64,1.63,2.18,2.09l-1.32-.85-1.25-.94c-.82-.65-1.71-1.22-2.47-1.93-.5-.58.06-.25.93.3-.34-.26-.66-.51-.91-.7-1.51-1.66-.48-1.04.83-.14.47.6,1.02,1.1,1.52,1.65.68.38,1.33.74,1.81.95.49.19.8.23.75.04-.37-.17-.98-.63-1.64-1.15.35.2.58.31.47.15-.13-.17-.68-.5-1.52-1.05-.25-.42-.5-.83-.71-1.28l-.37-.08c-1.87-1.89-3.61-3.88-5.13-6.03-.49-.52-.97-1.02-1.45-1.53-.48-.51-.9-1.06-1.36-1.6-.45-.55-.91-1.1-1.38-1.66-.43-.6-.86-1.21-1.31-1.85-.45-.64-.93-1.29-1.33-2.03-.46-.81-.94-1.66-1.44-2.55l-.18-.32c-.02-.09-.08-.05-.15-.01l-.18.08c-.24.1-.49.21-.74.32-.49.21-.98.42-1.5.64-1.01.46-2.02.75-3.13,1.12,2.07-1.05.27-.8.25-1.32.31-.02.65-.07,1.02-.14.18-.04.37-.08.56-.13.24-.08.49-.17.74-.26,1.01-.37,2.14-.82,3.4-1.34.1-.08.11.06.16.12l.12.23.25.46c.17.32.35.64.53.96.33.63.66,1.28,1,1.94.49,1.01,1.15,1.96,1.68,3.01-1.15-2.15-.68-1.79-.31-1.29-.36-.59-.77-1.15-1.07-1.77l-1.35-2.57-.73-1.32s-.04-.15-.11-.12l-.17.07-.34.14-.67.28-2.63,1.09c.12-.27-.63-.04-1.27.07-.72.15-1.71.42-2.76.63.9.21-.57.69-2.7,1.19-1.06.24-2.31.37-3.48.57-1.18.14-2.31.2-3.15.33-.11-.14.04-.29.72-.43.68-.16,1.91-.21,3.94-.49-2.28.04-3.7.25-5.15.63-1.44.21-2.94.59-5.15.07,1.01.07,1.55.18,1.96.05-.59.03-1.39-.01-2.24-.07-.43-.03-.86-.06-1.29-.11-.42-.08-.84-.15-1.22-.22-.77-.15-1.42-.29-1.79-.4-.37-.12-.46-.22-.12-.2l.99.15c-.83-.11-1.74-.36-2.72-.59-.49-.12-1-.24-1.52-.37-.51-.16-1.04-.32-1.57-.49-.53-.17-1.08-.32-1.61-.5l-1.59-.61c-.53-.21-1.07-.38-1.58-.62-.51-.23-1.02-.47-1.51-.69-3.96-1.83-7.03-3.88-7.65-3.89,0-.11,1.25-.2,1.68-.12-3.68-1.6-7.26-3.74-10.56-6.44.61.21.58-.76.89-1.23.16-.24.4-.36.83-.17.45.17,1,.73,2.02,1.65-.51-.59-1.01-1.32-1.67-2.19-.7-.84-1.43-1.92-2.47-3.21.51.93.7,2.79-.2,1.59-.44-.94-.69-1.6-.88-2.11-.2-.5-.35-.86-.52-1.23-.18-.37-.34-.78-.57-1.4-.21-.62-.58-1.4-.88-2.62.51,1.54-1.25.38-2.16-2.09.29.32.95-.58,1.37.25-.51-.93-1.05-1.86-1.55-2.82-.44-.98-.95-1.95-1.36-2.96.55,1.53.95.05.98-1.39-.02.34-.36-.98-.54-2.63-.27-1.64-.29-3.59-.42-4.42l-.06,2.69c-.05-.89-.11-1.67-.2-2.37-.07-.69-.11-1.31-.19-1.86-.18-1.11-.33-2.01-.48-2.91-.08-.46-.15-.91-.23-1.39-.04-.48-.07-1-.08-1.57-.06-1.15.09-2.51.45-4.32.04.46.29,1.07.64,1.1.39-.04.66-.15,1.45-3,0-.27-.02-.63-.04-1.07-.01-.2-.02-.41-.04-.64-.07-.19.13-.54-.37-.51-1.4-.2-2.91-.39-4.26-.51-1.27-.21-2.72-.43-4.2-.89-1.47-.48-3.04-1.05-4.48-1.93l-.88-.99c-.75-.42-1.44-.93-2.17-1.39l-1.08-.72-1.03-.79c.38.18.81.43,1.34.67.53.24,1.12.5,1.76.79,1.23.62,2.75,1.14,4.24,1.73.75.29,1.55.49,2.31.75.76.24,1.51.49,2.26.65,1.76.44,3.4.85,4.75,1.19-1.8-.81-2.18-1.05-2.39-1.23-.29-.2-.74-.44-2.54-1.26-.55-.46-.02-.3.79-.03.4.14.87.32,1.31.5.22.09.42.18.61.25.21.08.29.14.59.24l-.24-.09-.13-.06-.25-.13-.51-.25-1.02-.5-1.02-.5-.97-.58c-.65-.39-1.3-.76-1.94-1.16l-1.85-1.3c-.01.2-.41.1-.99-.17-.56-.3-1.3-.78-2.04-1.26-.77-.45-1.43-1.04-1.98-1.39-.54-.36-.91-.56-.95-.39,2.57,2.19,5.46,3.94,8.42,5.44,0,.2-.37.23-1.04.11-.64-.16-1.55-.5-2.65-1-.56-.23-1.11-.57-1.71-.93-.59-.37-1.23-.75-1.86-1.2-1.21-.96-2.53-2-3.63-3.29-.96-1.43,1.79.06,1.85-.22-.19-.11-.57-.43-1.04-.86-.47-.43-1.05-.94-1.54-1.54-.51-.57-1-1.15-1.38-1.62-.38-.47-.59-.87-.65-1.02.6.71,1.32,1.33,1.99,1.97-1.08-1.46-2.05-2.57-3.12-3.77-.96-1.26-2.01-2.63-2.61-4.78-.15-.35-.31-.79-.44-1.28-.1-.49-.2-1.02-.3-1.5-.19-.96-.39-1.74-.61-1.8.07,2.53-2.02,4.06-3.27,2.62-.02-.14-.25-.71-.41-1.56-.17-.85-.41-1.94-.61-3.07-.14-1.15-.27-2.33-.36-3.33-.03-1.02-.02-1.86.02-2.32.13-1.34.66-.4,1.17.54.51.95,1.01,1.9,1.14.79-.21-.05-.64-1.4-.8-1.97-.03-1.62.6.59.28-2.86-.19-.13-.31-.65-.39-1.25-.04-.61,0-1.31.01-1.82.04-1.02.08-1.3-.32,1.44-.15-3.45.17-3.66.71-7.64-.35.59-.58-.35-.67-1.94-.07-.8.04-1.72.14-2.68.06-.48.12-.97.2-1.45.08-.48.23-.93.35-1.36.1.26.6-.42.84-.74.16-.42.31-.84.46-1.24.18-.39.36-.76.53-1.13.35-.73.69-1.43,1.01-2.1.78-1.27,1.41-2.49,2.2-3.6.79-1.1,1.51-2.23,2.45-3.3.45-.55.9-1.12,1.38-1.71.52-.56,1.05-1.14,1.62-1.76.49-.4,3.02-2.39,2.22-1.25.61-.73,1.04-1.57,2.66-2.83,3.45-2-3.47,2.94-.66,1.61-.04-.24.89-1.16,2.1-2.3,1.29-1.02,2.84-2.28,4.08-3.06-.27-.03-.79.16-1.44.49-.63.37-1.37.9-2.16,1.48-.81.55-1.55,1.29-2.27,1.96-.35.34-.7.66-1.02.96-.31.32-.57.64-.82.91-.15-.16-.07-.54.21-1.11.29-.56.85-1.25,1.58-2.09,1.46-1.7,3.9-3.7,7.04-5.56.64-.33,1.17-.58,1.59-.78.21-.09.39-.17.54-.24.1-.04.19-.07.27-.1.33-.11.49-.09.55-.03.13.11-.17.4.15.21.99-.34,1.83-.66,2.5-.94.02-.01.05-.01.05-.03l-.05-.06-.09-.12-.18-.23c-.12-.15-.23-.29-.34-.43-.22-.27-.43-.51-.62-.74-.38-.45-.74-.8-.99-1.11-.1-.09-.31-.36-.48-.57-.17-.21-.34-.42-.51-.63-.33-.41-.65-.81-.98-1.25-.31-.45-.59-.94-.91-1.51-.31-.57-.64-1.22-1-1.99-.3-.79-.62-1.71-.96-2.79-.22-.88-.22-1.36-.15-1.59.07-.23.21-.2.37-.1.32.21.74.75.8.31.94,2.11,1.49,3.78,2.14,5.23.31.73.55,1.45.89,2.11.34.66.69,1.32,1.09,1.99-.57-1.16-1.2-2.28-1.65-3.49.19.31.44.71.71,1.15.29.43.61.91.92,1.4.61.99,1.21,1.99,1.61,2.64-.12-.3-.42-.73-.73-1.36-.33-.63-.74-1.37-1.21-2.22-.51-.82-.91-1.83-1.43-2.86-.54-1.03-.97-2.18-1.44-3.37-.51-1.17-.86-2.44-1.26-3.7-.43-1.25-.64-2.56-.94-3.82-.5-2.53-.74-4.98-.74-7-.17-.71-.25-1.69-.34-2.34-.09-.66-.18-.99-.29-.4.03.86,0,1.73.13,2.58-.11,1.2-.38,0-.52-1.12-.11-1.11-.19-2.12-.3-.46-.07-.88-.14-1.79-.22-2.74-.02-.95,0-1.94.03-2.97-.01-1.04.21-2.1.35-3.23.13-1.13.48-2.28.83-3.48l.76-.77c-.09.03-.36.8-.64,1.73-.14.47-.27.98-.38,1.46-.08.49-.13.94-.14,1.3-.01-1.06.67-2.87,1.25-4.7.73-1.79,1.36-3.61,1.54-4.76-.61,1.01-1.09,2.07-1.57,3.15.39-1.75,1-3.67,1.75-5.67.44-.97.91-1.96,1.41-2.95.55-.96,1.19-1.89,1.84-2.81-.77.71-.91.94-1.13,1.28-.2.36-.59.75-1.6,2.04.5-.53.4-.15.01.65-.19.4-.46.9-.75,1.46-.3.55-.54,1.19-.82,1.8-.27.62-.53,1.22-.76,1.75-.21.54-.34,1.01-.43,1.33-.17.65-.09.74.46-.25-.43.71-.79,1.41-1.1,2.1-.33.69-.5,1.42-.74,2.16-.2.75-.49,1.52-.68,2.39-.21.86-.46,1.8-.81,2.86.1-.06.26-.42.29-.31.02.06,0,.24-.05.64-.03.4-.09,1.03-.2,1.98.04.18.07.59.09.85-.02.12-.02.16-.04.26.01-.08.03-.13.04-.21.01.17.02.18.01-.08.16-.9.32-1.62.46-1.9.14.96.02,2.92.14,4.9.02.49.03.99.05,1.47.03.48.1.94.14,1.38.1.87.19,1.61.29,2.1.06,1.11.01.88-.12.54-.12-.35-.22-.83-.29-.21l.78,2.93c-.09.09-.15.51-.14,1.01.02.5.05,1.07.07,1.47.02.81-.1.94-.79-1.64.15.78.34,1.56.5,2.35.18.78.32,1.57.58,2.33.3,1.38.66,3.04,1.28,4.56.29.76.56,1.52.87,2.2.34.67.67,1.28.97,1.8.23.52.52,1.09.83,1.63.34.51.68.99.95,1.36.53.73.77,1.02.12.26l.51.79c.03.05.1.16.11.17l.03.03s.06.07.08.11l.43.5.47.55.12.14-.13.07-.28.14-.16-.06c-.31.11-.6.21-.89.35l-.23.12-.64.31c-.43.21-.86.42-1.29.63-.86.42-1.66.97-2.5,1.46-.42.25-.83.5-1.25.76l-1.2.86c-.79.59-1.65,1.1-2.42,1.75-.79.62-1.58,1.25-2.39,1.88-.76.68-1.54,1.36-2.34,2.03-.81.66-1.54,1.43-2.35,2.13-1.58,1.96-3.07,4.08-5.36,7.6l-.76.51c-.34.74-.91,1.59-1.36,2.58-.47.98-1.02,2.01-1.46,3.03-.41,1.03-.79,2.01-1.07,2.83-.28.81-.37,1.49-.37,1.85-1.06,1.52-2.03,5.46-2.27,9.74,0,1.07,0,2.16-.01,3.23-.03,1.07.14,2.13.2,3.14.05.51.07,1,.13,1.48.07.48.14.94.21,1.38.12.89.24,1.71.34,2.42l.58.11c.21.96.43,1.91.66,2.86.26.95.61,1.88.93,2.85.3.98.77,1.92,1.21,2.93.42,1.01.97,2.02,1.56,3.08l.3-.48c.27.44.54.92.82,1.44.3.5.61,1.03.94,1.59.32.56.65,1.15.99,1.75.37.59.76,1.19,1.16,1.82.75,1.28,1.75,2.47,2.7,3.76.51.61,1.06,1.21,1.61,1.81l.83.9c.29.29.6.56.91.83-.22-.09-.65-.4-1.09-.85-.43-.45-.89-1-1.26-1.46,2.29,3.25,5.68,5.86,9.25,7.78.86.54,1.81.92,2.69,1.37.45.22.89.44,1.33.65.45.19.9.38,1.35.56.44.19.88.39,1.32.58l.64.3.34.14c.4.17.77.37,1.03.56l.17.03s0,.07,0,.11c0,.08-.02.16-.02.23-.02.15-.06.31-.1.45s-.09.29-.14.42c-.02.04-.06.18-.07.13l-.12.45c.03-.16.05-.31.05-.44-.03.18-.08.44-.13.71-.21.75-.46,1.53-.66,2.38.22-.72.45-1.4.59-2-.27,1.34-.47,3.4-.53,5.42l-.52.83c0,.17,0,.3,0,.47-.27,2,.16,1.6.57.56,0,1.02.15,1.94.27,2.66-.19.4-.26.94-.27,1.54.02.6.11,1.28.2,1.97.13,1.39.48,2.81.22,3.97.33.63.85,3.12,1.72,5.46.83,2.35,1.93,4.55,2.54,4.86-.07.1.11.66-.32-.32.39,1.04.78,2.08,1.29,3.03.24.48.49.95.75,1.41.27.45.58.86.88,1.26v1.11c.5.64,1.1,1.22,1.66,1.81.57.59,1.12,1.18,1.74,1.71.77,1.25,1.32,2.15,1.44,2.46.12.31-.35.16-1.44-.87.61.66,1.19,1.16,1.67,1.6.48.45.89.83,1.25,1.16.74.62,1.27,1.07,1.77,1.49.98.86,1.93,1.57,4.51,3.1l-.46.13c.9.58,2.1,1.31,3.24,1.89,1.16.56,2.19,1.12,2.69,1.55,1.96,1.35,7.41,4.06,14.26,5.05.85.11,1.71.3,2.6.36.88.07,1.77.14,2.67.21,1.8.03,3.62.12,5.41-.03,1.8-.05,3.55-.32,5.25-.52.85-.13,1.67-.31,2.47-.45.4-.07.8-.15,1.2-.22.39-.08.77-.19,1.15-.28-1.27-.12.13-.42,1.88-.81.2-.05.41-.09.61-.14l.42-.11c.27-.07.52-.15.75-.23.45-.16.8-.35.97-.6.04.32.12.68.12.86,0,.19-.08.2-.3-.04.15.23.29.5.42.77.13.27.26.52.38.78.14.3.29.58.45.85.61,1.09,1.16,2.07,1.68,3,1.18,1.77,2.2,3.37,3.82,4.86.29.69-1.08-.87-.77-.29.35.37,1.39,1.46,1.72,2.04.33.57-.72-.6-1.41-1.34,4.22,4.95,5.33,4.75,6.01,4.7.54.6,1.02,1.11,1.47,1.57.48.43.92.79,1.35,1.13.87.66,1.67,1.24,2.75,1.73.81.78,2.26,2-1.04-.2.45.32,1.37.98,2.5,1.78,1.14.78,2.57,1.59,3.93,2.39,1.42.68,2.76,1.4,3.83,1.78,1.07.39,1.79.61,1.88.54.59.41,2.91,1.06,3.48,1.19,4.77,1.36,5.23,1.47,10.08,1.97l-1.34-.16c.99-.14,1.99-.09,3.24.03.63.08,1.32.06,2.1.09.78,0,1.65.05,2.62-.03l-.11.05c2.24-.15,3.61-.26,4.53-.34.91-.17,1.38-.29,1.85-.39.92-.26,1.88-.26,6.15-1.51l-.53-.07c.16-.19.72-.35,1.51-.67.79-.32,1.83-.7,3.01-1.12,1.17-.43,2.4-1.07,3.67-1.66,1.25-.62,2.42-1.41,3.5-2.1l-1.64.88c.57-.4,1.31-.81,2.09-1.27.76-.49,1.6-1,2.45-1.51.86-.49,1.63-1.1,2.4-1.62.37-.27.73-.53,1.07-.77.32-.27.61-.52.88-.76.46-.41-.65.74-1.31,1.29,1.45-1.17,2.14-1.88,2.53-2.23.38-.37.39-.44.36-.47-.06-.07-.32,0,1.58-2,.4-.32.23-.03.29,0,.06.04.34-.17,1.57-1.57.66-.65,2.31-2.81,4-5.41.21-.31.43-.7.61-.98l.12-.21.06-.11s.07,0,.11.01l.23.06.49.13c.39.11.77.21,1.15.31,1.51.47,2.99.73,4.22,1.05-1.08-.31-2.14-.62.38-.16.95.23,2.09.37,3.31.56.61.09,1.24.19,1.87.29.64.05,1.29.1,1.94.16.65.05,1.3.1,1.93.14.63.04,1.25,0,1.84,0,1.18-.04,2.27-.02,3.14-.19.5-.02.69-.02.71,0,.75-.08,1.72-.18,2.8-.3,1.06-.19,2.22-.39,3.35-.59,1.12-.2,2.18-.53,3.08-.75.9-.23,1.63-.44,2.04-.63,1.38-.17,5.86-1.57,9.6-3.7.98-.45,1.83-1.07,2.68-1.55.83-.5,1.61-.95,2.21-1.4,1.25-.86,2.07-1.39,2.13-1.28,1.24-.91,2.39-1.93,3.58-2.9,1.09-1.08,2.25-2.1,3.28-3.24l-.12.21c.98-1.1,1.82-2.01,2.49-2.83.61-.86,1.12-1.58,1.56-2.2.42-.62.78-1.15,1.11-1.63.29-.5.51-.97.75-1.43.72-1.15.26-.27.22-.16.56-.92,1.06-1.74,1.5-2.47.38-.78.71-1.47,1.02-2.1.3-.64.57-1.21.83-1.75.25-.54.41-1.08.6-1.6.35-1.04.73-2.03,1.05-3.22.26-1.2.65-2.56.94-4.33l.33-.7c.05-.49.28-1.49.52-2.86.15-1.38.5-3.12.59-5.08.33-3.91.2-8.7-.57-12.87.04.08.11.24.24.91-.19-1.19-.4-2.43-.65-3.71-.11-.64-.27-1.28-.4-1.93-.09-.36-.17-.73-.26-1.1-.03-.04-.01-.05.03-.06l.08-.03.17-.06.32-.13,1.22-.51c.46-.19.91-.38,1.36-.56.44-.22.87-.44,1.3-.66.86-.44,1.7-.86,2.52-1.28.78-.48,1.53-.94,2.25-1.38,1.46-.85,2.63-1.83,3.6-2.63.99-.79,1.65-1.56,2-2.16.74-.75,1.54-1.43,2.24-2.23l2.08-2.36c-5.69,5.79.47-1.21-1.98,1.06.53-.58,1.17-1.23,1.77-1.83.56-.64,1.11-1.23,1.52-1.65.82-.84,1.1-.98-.11.55l-.43.43c-.11.38.24.09.85-.55.3-.32.66-.73,1.06-1.19.39-.46.76-1.01,1.16-1.55.39-.55.79-1.1,1.17-1.62.38-.52.67-1.05.95-1.48.56-.87.96-1.43,1.03-1.33,3.97-7.02,6.27-14.91,6.5-22.84.06-3.95-.25-7.92-1.24-11.72-.85-3.83-2.37-7.45-4.19-10.83.11.61.22,1.22.26,1.85-.34-.82-.84-1.55-1.26-2.33-.46-.75-.83-1.56-1.36-2.27-.33-.61-.49-1.07-.3-.98.09.04.28.23.57.59.15.19.32.41.52.7.18.3.38.65.63,1.07-.65-1.98-3.83-5.12-4.03-5.06-1.09-1.49-1.51-2.11-1.54-2.24-.02-.13.42.18.9.67.98.97,2.35,2.48,1.64,1.58-.67-.8-1.31-1.61-1.99-2.39.14.19.26.39.39.59-.91-.88-1.5-1.27-2.19-1.9-.69-.64-1.59-1.41-3.21-3-2.06-1.99-.84-1.28-1.67-2.05.04-.04-.24-.3-1.34-1.11-.85-.72-1.76-1.38-2.65-2.05-.45-.33-.92-.64-1.38-.96l-.62-.42-.39-.25.24.3.13.16.23.23.96.96c-.32-.19-.64-.38-.96-.56-.15-.09-.31-.19-.46-.28-.11-.06-.21-.12-.32-.18-.42-.24-.77-.45-.99-.56-.44-.21-.66-.26.02.48-.22-.23-.5-.5-.88-.77.26-.54.67-1.19,1.01-1.85.09-.17.18-.34.27-.51.09-.18.21-.51.32-.77.22-.56.45-1.13.68-1.72.91-2.37,1.61-5.08,2.1-7.7.27-1.3.35-2.6.53-3.81.14-1.21.14-2.35.21-3.36.08-1.01,0-1.89.02-2.6,0-.71,0-1.24.02-1.56-.63-4.11-1.26-8.14-2.83-12.94.29,1.23.08,2.05-1.32-2,.4.26.44-.07.26-.78-.09-.35-.24-.8-.43-1.32-.1-.26-.2-.53-.31-.82-.13-.28-.27-.56-.41-.86-.58-1.19-1.2-2.53-1.92-3.71-.34-.6-.65-1.18-.93-1.72-.28-.53-.57-.99-.75-1.4.38.71.09.44-.51-.29-.29-.37-.67-.85-1.09-1.37-.45-.5-.95-1.04-1.44-1.58-.94-1.1-1.98-2.01-2.55-2.46-.56-.45-.66-.4.11.56-2.56-2.55.12-.43-1.77-2.46-3.41-2.7-7.42-5.34-12.01-7.39-4.58-2.05-9.75-3.45-15.08-3.8-.17.07,1.58.36-.69.3-.46-.07-.92-.16-1.39-.21l-1.4-.11c-.93-.06-1.87-.16-2.81-.17-1.05.11-1.52.27-2.21.4-.35.07-.74.13-1.3.17-.55.07-1.25.18-2.2.26.54-.03,1.35-.06-.03.19-5.12.76-10.15,2.44-14.8,4.91l-.87.47-.56.29-.24.14-.12.07s-.02-.08-.04-.12c-.04-.18-.09-.35-.13-.53l-.43-1.77c-.16-.64-.29-1.29-.53-1.9-.43-1.25-.83-2.5-1.29-3.74l-1.59-3.63c-4.63-9.51-12.21-17.52-21.33-22.62,2.48,1.37.81.48-1.1-.53,1.23.67-.05.03.18.19-.64-.34-1.26-.73-1.93-1.02l-2-.88c-1.31-.63-2.7-1.07-4.08-1.54-.39-.09-1.12-.4-2.06-.6-.94-.22-2.06-.48-3.15-.74-2.22-.39-4.37-.67-4.82-.69.91.1,1.82.25,2.73.37-1.82-.23-.55,0,1.09.28,1.64.34,3.62.93,3.35.89.5.12,1.05.2,1.6.39.56.19,1.15.38,1.77.59.62.21,1.26.43,1.94.67.65.29,1.32.59,2.01.9.68.32,1.41.6,2.11.97.69.38,1.4.77,2.12,1.16,1.47.72,2.81,1.73,4.25,2.59,1.22.83-1.08-.66-.43-.2.36.23.75.44,1.14.74.39.3.81.62,1.29.99.47.37,1,.78,1.59,1.24.58.47,1.17,1.08,1.87,1.72l-.32-.28c3.9,3.63,6.27,6.68,8.34,10.05,1.12,1.64,1.96,3.49,3,5.51.43,1.05.88,2.16,1.36,3.36.49,1.19.81,2.53,1.27,3.95l-.14-.88c.19.61.34,1.1.46,1.52.12.41.16.76.23,1.05.11.59.19,1.02.3,1.61.09.31.19.62.2.62,0,0,0-.05-.01-.15-.01-.08-.04-.19-.06-.34-.1-.49-.29-1.37-.48-2.27-.48-1.77-1.09-3.54-.57-2.29.1.42.26,1,.46,1.7.18.71.33,1.56.53,2.48.06.26.11.52.17.78.08.34.15.72.24,1.06l.14.52c.05.16.05.45.26.26.33-.17.66-.34,1-.51,1.02-.53,2.08-1.07,3.13-1.61,1.01-.42,2.01-.83,2.96-1.22.24-.1.47-.19.7-.29.24-.07.47-.15.7-.22.46-.14.9-.27,1.32-.4.84-.24,1.57-.49,2.19-.59.62-.11,1.09-.17,1.38-.18,3.82-.83-1.18,0,2.66-.78l1.05-.02.96-.3c1.27-.2,2.24-.17,2.9-.15.66.02,1.01.07,1.06.13-.62.02-1.75.13-2.42.17.83,0,1.83-.04,2.87-.09.52-.04,1.06-.04,1.59-.02.53,0,1.06.02,1.58.03.51,0,1.01.02,1.47.02.46.04.89.09,1.28.12.77.07,1.35.13,1.63.18l-1.85-.25c-.62-.09-1.23-.18-1.86-.19.66-.01,1.33.07,2.01.14.68.07,1.36.14,2.05.21,1.38.18,2.76.5,4.17.75,1.38.39,2.79.73,4.16,1.19l2.05.76,1.02.38.99.46c5.32,2.37,10.05,5.76,13.74,9.26l-.44-.66c.71.67,1.35,1.21,1.83,1.75.47.55.88,1.01,1.24,1.42.73.81,1.17,1.49,1.62,2.19.23.35.46.7.72,1.08.27.38.54.81.82,1.33.59,1.02,1.41,2.29,2.36,4.21l-.18-.26c.23.37.47.76.73,1.18.24.43.44.91.67,1.4.45.98.93,2.04,1.25,3.18-.86-1.98.85,3.98-.24,1.37.4.97.56,1.81.78,2.47.2.67.36,1.19.48,1.61.19.85.31,1.26.42,1.59.2.66.52.93,1.09,3.71l-.2,1.31c.17.95.28,1.46.38,2.28.04.41.11.9.12,1.55,0,.65-.03,1.48-.07,2.56-.08-3.55-.65,2.69-.79-1.26-.62,4.42-1.14,7.67-1.78,10.31-.16.66-.31,1.28-.45,1.88-.19.58-.39,1.13-.6,1.65-.21.52-.43,1.02-.67,1.49l-.09.18-.14.24-.3.49c-.21.33-.42.66-.65,1-.39,1.39-.21,1.35.18.74.2-.31.45-.78.73-1.33.14-.27.29-.57.44-.88.15-.3.21-.5.32-.77.39-1.01.79-2.08,1.05-2.76.2-.7.3-.99.19-.42.21-.44.29-.45.29-.16,0,.29-.08.87-.3,1.57-.2.7-.46,1.55-.74,2.38-.32.87-.79,1.82-1.14,2.55-.24.55-.6,1.11-.86,1.66.51.36,1.04.79,1.67,1.28.3.25.62.52.96.8.17.14.38.3.53.44.14.13.29.26.44.4,1.23,1.08,2.79,2.46,5.04,4.34-.53-.48-.63-.44-1.18-.89,1.91,1.88,4.24,3.19,6.17,5.91.41.25.8.57,1.16.91.34.36.65.75.94,1.1.58.7,1.07,1.26,1.52,1.25l-2.15-2.53-2.3-2.39c.67.66,1.36,1.28,2.08,1.93.72.65,1.39,1.38,2.15,2.15,1.46,1.58,2.96,3.57,4.32,6.39-.38-.35-1.44-1.88-2.22-2.88.42.8.85,1.56,1.34,2.29.24.37.48.74.7,1.13.21.39.38.82.54,1.27-.22-.04-.52-.52-.98-1.23-.47-.69-1.05-1.64-1.67-2.68-.67-1.01-1.45-2.08-2.2-3.1-.83-.96-1.64-1.87-2.37-2.55.25.41.69.97,1.19,1.55.49.58,1.07,1.17,1.47,1.74.85,1.1,1.38,1.83.49,1.23,1.27.87,2.08,2.45,3.06,4.19.4.92.83,1.88,1.33,2.88.51.99.9,2.08,1.52,3.15l-.5-.16c.15.35.45.86.69,1.48.22.63.46,1.34.63,2.02-.4-.77-.75-1.55-1.17-2.29.4.88.64,1.81.88,2.71.12.45.22.91.32,1.36l.14,1.38c.09.92.17,1.83.28,2.74.05.91.08,1.83.21,2.75-.07-.97-.11-1.72-.13-2.3-.02-.58-.11-.99-.12-1.28-.04-.58.01-.66.1-.61.18.1.48.76.36-.9.23,1.19.51,2.17.53,3.01.06.84.08,1.52.08,2.09.04,1.15-.17,1.89-.32,2.65-.08.38-.17.77-.25,1.22-.08.45-.14.97-.29,1.6-.12.63-.25,1.38-.37,2.3-.09.93-.39,2-.59,3.33.1-.72.45-2.04.66-2.92.18-.88.34-1.3.3-.15-.4,2.02-1.08,4.65-1.67,5.79-2.09,6.83.73-.92.02,2.05-.64,1.08-.9,1.92-1.14,2.87-.23.96-.58,1.98-1.18,3.46l-.32-.14c-2.03,3.58-2.21,4.12-2.33,4.58-.06.23-.1.44-.4.97-.15.27-.37.61-.69,1.08-.16.23-.34.5-.56.8-.24.28-.51.6-.81.96.27-.46.56-.9.79-1.39l.7-1.44c-.35.54-.69,1.1-1.04,1.64l-1.17,1.56.21-.85c-.6.86-1.1,1.58-1.57,2.21-.51.59-.97,1.11-1.43,1.61-.48.49-.91,1.03-1.5,1.53-.58.51-1.22,1.08-2,1.76.42-.25.41-.06-.05.51-.45.58-1.46,1.41-2.9,2.57-2.14,1.34,1.03-.98-3.28,1.98.45-.4.9-.83,1.5-1.29.3-.23.63-.46,1.02-.71.37-.27.78-.56,1.27-.86.13-.22.8-.86.93-1.08-1.12.75-2.41,1.84-3.75,2.69-.65.45-1.28.89-1.85,1.29-.59.35-1.12.66-1.52.89.63-.36,1.41-.74,1.79-.97-1.03.72-2.12,1.36-3.18,2.05-.53.36-1.1.63-1.65.93l-.84.44-1.12.57c-.86.35-.98.37-.73.2.13-.08.35-.21.64-.36.27-.14.59-.31.9-.48-.46.22-.88.43-1.3.64-.41.22-.87.41-1.22.66.47,1.32.93,2.78,1.18,3.87-.15-.24-.27-.33-.44-.67-.13-.22-.44-1.11-1.23-3.42.23-.14.58-.31.95-.5-.32.17-.66.32-.95.5.36,1.04.62,1.89.9,2.78l.47,1.67c.26,1.07.53,2.13.73,3.22.04.49.3,3.7.11,2.78.42,3.94,1.08,9.81.15,15.08-.02.28-.08.83-.26,1.95-.12.61-.21,1.22-.35,1.82-.16.59-.32,1.17-.48,1.76-.16.58-.32,1.17-.48,1.75-.16.58-.4,1.15-.6,1.73-.44,1.15-.77,2.38-1.36,3.57-.27.61-.54,1.23-.82,1.87-.14.32-.28.65-.42.98-.16.32-.34.64-.51.97l-1.88,2.78c-2.62,3.82,2.9-3.55-1.53,2.81-.4.56-.72,1.01-.97,1.36-.26.35-.5.57-.66.75-.33.35-.45.44-.49.45-.09,0,.09-.33-.56.37-.44.52-.89,1.2-1.54,1.84-.63.65-1.33,1.38-2.08,2.15-.79.74-1.69,1.46-2.61,2.23-.91.78-2,1.41-3.04,2.12,1.34-1,2.47-1.68,3.63-2.72ZM119.55,185.22c.33-.45.8-1.14,1.23-1.8.22-.33.43-.65.62-.93.28-.41.52-.77.7-1.03-.56,1.07-.75,1.39-1.14,1.94-.37.52-.82,1.09-1.42,1.82ZM43.93,189.63c.66.52,1.41,1.57,2.4,2.63-.81-.68-1.58-1.59-2.4-2.63ZM-36.85,24.65s.05.07.07.11c.79,2.53.52,1.63-.07-.11ZM-38.24,19.35c-.19-.52-.24-.47-.25-.23.1.17.22.56.35,1.07.15.51.34,1.14.53,1.81,0-.2-.03-.48-.13-.9-.12-.41-.28-.97-.5-1.76ZM204.89,34.02c.25.24.49.51.72.77-1.88-1.43-1.32-1.07-.72-.77Z"/>
      <path class="cls-1" d="M51.43,196.03c.22.23.26.32.28.42.39.21.43.16-.28-.42Z"/>
      <path class="cls-1" d="M190.1,142.31l.03-.17c0-.1,0-.15,0-.18l-.03.35Z"/>
      <path class="cls-1" d="M113.52,191.25l-.12.21c.38-.29.89-.79,1.91-1.8l-1.79,1.6Z"/>
      <path class="cls-1" d="M151.33,182.77c-.23.05-.46.12-.7.15.45-.02.89-.08,1.34-.12l-.64-.03Z"/>
      <path class="cls-1" d="M180.31,164.81c-.85,1.13-1.97,2.36-2.89,3.44,1-1.17,1.84-2.06,2.38-2.64.54-.58.71-.9.51-.81Z"/>
    </g>
  </g>
  <g>
    <g>
      <path class="cls-4" d="M87.92,70.07c.05-.88.37-4.51,3.38-7.52,3.09-3.09,6.85-3.34,7.71-3.37.21-.76,1.51-5.2,5.86-7.33,4.16-2.04,9.43-1.14,13.19,2.3,5.71-1.03,11.46,1.06,14.86,5.44,4.1,5.27,2.91,11.43,2.72,12.35,5.47,4.42,7.6,11.47,5.44,17.38-2.27,6.19-8.28,8.46-9.21,8.79.38,1.69,1.25,6.68-1.38,11.7-3.05,5.82-9.6,9.37-16.83,9.23-.13.91-1.37,8.84-8.79,12.98-8.46,4.71-16.94.04-17.38-.21-4.49,3.99-10.68,5.3-16.12,3.35-6.63-2.38-9.07-8.49-9.42-9.42-1.29.07-7.3.26-12.35-4.19-6.55-5.77-5.74-14.26-5.65-15.07-.6-.24-10.14-4.26-11.93-14.45-1.48-8.41,3.44-14.59,4.19-15.49-2.85-6.65-1.2-14.1,3.77-18.21,5.45-4.5,12.37-2.92,13.19-2.72,3.19-3.9,8.27-5.65,13.02-4.5,6.4,1.55,8.77,7.55,8.96,8.06,1.21-.03,4.3.06,7.33,2.09,4.5,3.02,5.32,7.95,5.44,8.79Z"/>
      <path class="cls-3" d="M87.91,69.92s-.09-.07-.12-.06c-.03.02-.01-.02-.01-.07,0,0,.02-.27.02-.27.31-5.84,5.38-10.7,11.19-11.03,0,0-.64.51-.64.51,1.55-6.58,8.3-10.72,14.86-8.75,2.09.56,4.02,1.64,5.63,3.07l-.97-.28c5.23-1.01,10.96.5,14.78,4.31,3.9,3.79,5.39,9.59,4.33,14.88,0,0-.47-1.32-.47-1.32,7.03,5.44,9.28,16.64,2.87,23.41-1.98,2.16-4.45,3.73-7.17,4.69,0,0,.6-1.08.6-1.08.56,2.77.53,5.64-.16,8.37-.69,2.73-2.11,5.26-4.03,7.28-3.81,4.08-9.44,6.06-14.94,5.95,0,0,.47-.4.47-.4-.49,2.91-1.59,5.67-3.27,8.09-5.13,7.7-15.76,9.5-23.74,5.28,0,0,.89-.09.89-.09-6.01,5.73-16.28,6.35-22.5.56-2.07-1.87-3.67-4.15-4.73-6.75,0,0,1.25.81,1.25.81-2.7.16-5.39-.23-7.92-1.18-7.88-2.81-12.46-11.36-11.65-19.51,0,0,.94,1.57.94,1.57-13.16-5.56-17.52-21.12-8.39-32.33,0,0-.23,1.6-.23,1.6-3.86-8.62.05-20.09,9.65-22.6,2.98-.81,6.04-.81,9.02-.11,0,0-1.21.4-1.21.4,1.58-1.87,3.63-3.35,5.92-4.21,7.05-2.84,15.13,1.26,17.64,8.29,0,0-.66-.45-.66-.45,6.3-.15,11.98,4.77,12.85,10.98,0,0,.04.29.04.29,0,.05.02.1,0,.09-.02,0-.09.02-.12.07h0ZM87.93,70.22c-.19-.12-.22-.49-.27-.68-1.22-5.7-6.6-10.12-12.49-9.66,0,0-.46.02-.46.02,0,0-.21-.47-.21-.47-3.57-8.6-14.55-10.33-20.41-3.04,0,0-.45.57-.45.57-2.75-.67-5.79-.71-8.49.13-8.26,2.42-10.84,12.54-7.16,19.73-1.96,2.33-3.49,5.16-4.17,8.16-2.3,8.8,3.56,17.5,11.74,20.59-1.55,10.31,5.66,19.32,16.32,18.94,0,0,.93-.03.93-.03,0,0,.32.85.32.85,3.66,9.97,15.87,12.91,23.85,5.95,0,0,.41-.35.41-.35,0,0,.48.26.48.26,10.79,5.95,23.37.14,25.33-12.17,0,0,.06-.4.06-.4h.41c11.59.27,20.5-9.51,17.1-21.04,5-1.71,9.35-6.01,9.8-11.42.55-4.99-1.9-10.02-5.77-13.13,0,0-.63-.51-.63-.51l.16-.81c.88-4.39-.25-9.32-3.5-12.51-3.34-3.42-8.46-4.75-13.12-3.8-1.44-1.38-3.15-2.54-5.08-3.11-5.84-1.92-11.62,1.79-13.1,7.61-5.57-.23-10.66,4.17-11.39,9.69-.03.19-.03.53-.21.66h0Z"/>
    </g>
    <g>
      <path class="cls-2" d="M57.84,64.85c3.67,2.35,13.22,7.78,26.57,7.78,13.35,0,22.9-5.43,26.57-7.78-2.35,3.67-7.78,13.22-7.78,26.57s5.43,22.9,7.78,26.57c-3.67-2.35-13.22-7.78-26.57-7.78s-22.9,5.43-26.57,7.78c2.35-3.67,7.78-13.22,7.78-26.57s-5.43-22.9-7.78-26.57Z"/>
      <path class="cls-3" d="M56.83,65.25c13.73,8.77,31.16,10.25,46.27,4.22,2.97-1.19,5.84-2.65,8.54-4.37l-1.66-.23c-8.54,13.37-10.23,30.36-4.34,45.12,1.15,2.89,2.58,5.67,4.25,8.29l2.1-.69c-13.73-8.77-31.16-10.25-46.27-4.22-2.97,1.19-5.84,2.65-8.54,4.37l1.66.23c8.54-13.37,10.23-30.36,4.34-45.12-1.15-2.89-2.58-5.67-4.25-8.29-.41-.64-2.45.14-2.17.58,8.46,13.25,10.09,30.09,4.26,44.71-1.13,2.84-2.53,5.58-4.17,8.16-.51.8,1.38.41,1.66.23,12.98-8.29,29.34-9.7,43.61-3.9,2.74,1.11,5.37,2.46,7.86,4.06.36.23,2.47-.12,2.1-.69-8.46-13.25-10.09-30.09-4.26-44.71,1.13-2.84,2.53-5.58,4.17-8.16.51-.8-1.38-.41-1.66-.23-12.98,8.29-29.35,9.7-43.61,3.9-2.74-1.11-5.37-2.47-7.86-4.06-.59-.38-2.51.5-2.03.81Z"/>
    </g>
    <g>
      <path class="cls-2" d="M86.63,42.93c.59.03,1.19.07,1.78.1-.45,3.78-.87,11.6,2.62,20.52,3.36,8.59,8.67,13.94,11.52,16.45,0,0,10.46,9.37,26.99,11.88,3.12.47,5.78.6,7.7.62,0,.58.02,1.16.03,1.73-2.01-.11-4.83-.17-8.2.08-7.92.6-20.12,1.48-29.12,9.65-7.89,7.17-10.02,16.95-12.17,26.78-1.18,5.39-1.56,10.01-1.67,13.29-.84-5.16-1.67-10.33-2.51-15.49-1.09-15.16-8.13-22.46-10.41-24.59-9.36-8.75-23.55-9.95-34.93-10.98-2.61-.24-4.77-.31-6.24-.34.03-.52.06-1.05.08-1.57,1.47.12,3.56.22,6.04.13,3.97-.16,18.41-1.21,30.78-11.43,16.4-13.54,17.57-33.59,17.7-36.86Z"/>
      <path class="cls-3" d="M86.4,43.1c.59.03,1.19.07,1.78.1l-.13-.12c-1.43,12.16,2.51,24.56,10.72,33.65,4.6,5.09,10.54,8.73,16.82,11.4,6.8,2.89,14.11,4.44,21.5,4.54l-.21-.08c0,.58.02,1.16.03,1.73l.59-.27c-4.99-.27-10,.09-14.95.69-5.09.62-10.17,1.75-14.85,3.92-5.16,2.39-9.63,6.06-12.79,10.81-3.12,4.69-4.85,10.1-6.17,15.53-1.53,6.3-2.75,12.64-2.99,19.14l.72-.19c-.65-4.02-1.3-8.03-1.95-12.05-.16-.98-.32-1.97-.48-2.95s-.19-1.94-.31-2.91c-.19-1.61-.46-3.22-.82-4.8-1.07-4.73-2.95-9.32-5.78-13.28-2.1-2.94-4.73-5.41-7.77-7.37-5.11-3.29-11.05-5.04-16.98-6.11-3.33-.6-6.69-.99-10.06-1.32s-6.75-.63-10.14-.7l.21.13c.03-.52.06-1.05.08-1.57l-.59.23c4.74.38,9.5.08,14.17-.82,6.4-1.24,12.61-3.54,18.14-7.01,6.03-3.78,11.14-8.89,14.9-14.93,2.95-4.74,5.07-9.97,6.39-15.38.78-3.2,1.31-6.48,1.49-9.77,0-.17.02-.34.02-.52s-.71-.06-.72.19c-.12,2.82-.51,5.64-1.09,8.4-1.06,5.04-2.8,9.94-5.23,14.48-3.23,6.01-7.74,11.29-13.23,15.35-5.5,4.07-11.88,6.86-18.54,8.41-4.41,1.03-8.95,1.52-13.48,1.37-.79-.03-1.57-.07-2.36-.13-.13-.01-.58.04-.59.23-.03.52-.06,1.05-.08,1.57,0,.12.12.12.21.13,3.07.06,6.13.32,9.19.61s5.89.59,8.82,1.05c6,.94,12.04,2.46,17.36,5.5,3.31,1.89,6.25,4.37,8.58,7.39,2.78,3.62,4.71,7.85,5.91,12.24.46,1.69.82,3.41,1.08,5.15.31,2.03.46,4.07.79,6.1.72,4.43,1.44,8.85,2.15,13.28.03.22.72.03.72-.19.21-5.68,1.19-11.21,2.44-16.74s2.6-10.53,5.18-15.3c2.74-5.07,6.85-9.23,11.9-12.01,4.51-2.48,9.55-3.83,14.62-4.57,5.41-.8,10.97-1.23,16.43-.93.16,0,.59-.04.59-.27,0-.58-.02-1.16-.03-1.73,0-.08-.17-.08-.21-.08-11.29-.14-22.54-3.83-31.77-10.35-6.77-4.78-11.88-11.9-14.66-19.68-2.2-6.16-2.95-12.82-2.19-19.32,0-.08-.06-.12-.13-.12-.59-.03-1.19-.07-1.78-.1-.19-.01-.84.33-.46.35Z"/>
    </g>
    <g>
      <path class="cls-3" d="M87.29,103.32c1.32.49,3.31,1.08,5.76,1.19.73.03,8.35.28,13.81-4.85,5.28-4.96,6.88-13.37,3.98-21.15-4.16-.1-7.24.82-9,1.49-7.89,3.02-14.86,10.82-15.01,19.23-.03,1.81.26,3.27.46,4.08Z"/>
      <path class="cls-2" d="M86.95,103.44c4.39,1.62,9.06,1.53,13.48.09,2.98-.97,5.75-2.63,7.83-5.01s3.49-5.46,4.06-8.63c.69-3.85.24-7.82-1.11-11.47-.02-.04-.09-.05-.13-.05-5.09-.1-10.03,1.28-14.27,4.1s-8.09,7.26-9.62,12.37c-.83,2.79-.94,5.74-.26,8.57.04.15.76-.03.72-.19-2.63-10.95,6.88-21.65,17.14-24,1.52-.35,3.08-.53,4.64-.57.34,0,.87-.13,1.12.15.21.24.3.87.39,1.17.22.71.4,1.43.54,2.16.57,2.87.59,5.86-.05,8.71-1.25,5.57-5,10.19-10.38,12.22-4.33,1.64-9.07,1.74-13.42.13-.2-.07-.74.22-.68.24Z"/>
    </g>
    <path class="cls-2" d="M86.41,102.86c3.66-5.7,9.25-10.6,16.09-11.68-3.22.84-6.14,2.55-8.53,4.84-2.33,2.21-4.37,4.93-5.79,7.77,0,0-1.77-.93-1.77-.93h0Z"/>
    <g>
      <path class="cls-3" d="M59.34,77.15c1.18-.03,15.98-.19,23.78,11.45,3.92,5.86,4.22,11.93,4.17,14.72-1.83.99-4.71,2.24-8.38,2.55-1.06.09-13.13.88-19.22-8.75-3.74-5.92-3.83-13.59-.35-19.97Z"/>
      <path class="cls-2" d="M59.2,77.35c3.66-.1,7.45.63,10.89,1.85,6.95,2.45,12.64,7.53,15.23,14.52.67,1.82,1.13,3.71,1.38,5.63.1.76.17,1.52.2,2.29.01.31.02.62.03.93,0,.13,0,.26,0,.39,0,.25.04.26-.1.39-.25.24-.75.38-1.06.52-.41.19-.83.36-1.25.53-.98.38-1.98.68-3,.9s-2.19.38-3.2.41c-4.82.16-9.91-1.07-13.83-3.94-6.65-4.87-8.84-13.86-6.18-21.51.37-1.07.83-2.11,1.37-3.1.16-.29-.56-.21-.67,0-2.14,3.98-3.03,8.58-2.31,13.06.67,4.14,2.72,8.06,5.88,10.84,4.11,3.63,9.8,5.18,15.21,5.07,3.4-.07,6.75-1.08,9.73-2.69.04-.02.14-.09.14-.15.12-7.31-2.68-14.55-8.24-19.41-4.32-3.77-9.9-5.88-15.54-6.62-1.45-.19-2.92-.32-4.38-.28-.26,0-.77.41-.29.4Z"/>
    </g>
    <path class="cls-2" d="M86.33,103.59c-3.15-7.7-12.48-10.6-20.03-12.08,0,0,3.12.39,3.12.39,6.24,1.04,12.82,3.14,17.02,8.16.72.88,1.33,1.74,1.8,2.98l-1.92.55h0Z"/>
  </g>
</svg>