<svg width="79" height="78" viewBox="0 0 79 78" fill="none" xmlns="http://www.w3.org/2000/svg">
<path d="M78.9901 24.26C78.9901 11.78 68.87 1.67004 56.4 1.67004C50.02 1.67004 44.27 4.32001 40.16 8.57001C36.05 4.32001 30.3 1.67004 23.92 1.67004C11.44 1.67004 1.33008 11.79 1.33008 24.26C1.33008 24.36 1.34009 24.45 1.34009 24.55C1.34009 24.64 1.33008 24.72 1.33008 24.81C1.33008 42.07 26.48 65.28 36.3 73.68C38.53 75.59 41.8 75.59 44.02 73.68C53.84 65.28 78.9901 42.07 78.9901 24.81C78.9901 24.72 78.9801 24.64 78.9801 24.55C78.9801 24.45 78.9901 24.36 78.9901 24.26Z" fill="#F6AFBA"/>
<path d="M78.73 24.54C78.75 24.18 78.6999 24.31 78.6999 24.26C78.6799 24.86 78.75 24.53 78.73 24.54Z" fill="#725941"/>
<path d="M78.0398 30.26V30.16L77.8599 30.99L78.0398 30.26Z" fill="#725941"/>
<path d="M76.1299 35.33C76.3199 35.13 76.5098 34.68 76.6998 34.16C76.8998 33.65 77.1098 33.09 77.2898 32.63L77.3699 32.49L77.4298 32.05C77.0598 33.16 76.5199 34.59 76.1299 35.32V35.33Z" fill="#725941"/>
<path d="M74.45 37.72C74.6 37.6 74.1899 38.29 74.8099 37.15C74.7699 37.2 74.76 37.22 74.73 37.25C74.67 37.35 74.59 37.49 74.45 37.72Z" fill="#725941"/>
<path d="M74.7298 37.25C75.0098 36.76 74.4898 37.54 74.7298 37.25Z" fill="#725941"/>
<path d="M73.39 39.5L73.7301 38.84C73.6001 38.95 73.23 39.5 73.33 39.27C72.94 39.93 73.08 39.83 73.39 39.5Z" fill="#725941"/>
<path d="M73.1399 40.17L73.33 39.83C73.28 39.88 73.2099 39.96 73.1399 40.17Z" fill="#725941"/>
<path d="M73.7101 39.1L73.3301 39.83C73.4201 39.76 73.4901 39.78 73.5101 39.5C73.5301 39.59 73.5601 39.42 73.7101 39.1Z" fill="#725941"/>
<path d="M73.99 38.7301C74.25 38.4001 74.56 37.94 74.22 38.62C74.92 37.37 74.71 37.5001 73.99 38.7301Z" fill="#725941"/>
<path d="M76.1498 35.64L76.4298 35.14C76.4898 34.99 76.5298 34.83 76.5798 34.67C76.5198 34.91 76.0898 35.65 76.1498 35.63V35.64Z" fill="#725941"/>
<path d="M70.5298 43.19C70.5598 43.26 70.8298 43.09 70.9298 43.09L71.1998 42.61C70.9898 42.81 70.6398 43.22 70.5298 43.2V43.19Z" fill="#725941"/>
<path d="M70.9301 43.09L70.52 43.81C70.99 43.24 71.0201 43.09 70.9301 43.09Z" fill="#725941"/>
<path d="M73.2899 40.41C73.4899 40 73.67 39.58 73.87 39.17C73.63 39.66 73.3999 40.15 73.1499 40.63L73.2899 40.41Z" fill="#725941"/>
<path d="M68.5001 45.6L68.66 45.15L68.3301 45.93L68.5001 45.6Z" fill="#725941"/>
<path d="M67.13 47.18C67.23 46.83 66.58 47.36 66.75 47.03C66.38 47.46 66.17 47.9 65.98 48.3C66.24 47.92 66.59 47.57 67.13 47.18Z" fill="#725941"/>
<path d="M65.6399 48.96C65.7599 48.76 65.87 48.54 65.98 48.3C65.84 48.5 65.7199 48.72 65.6399 48.96Z" fill="#725941"/>
<path d="M69.6199 44.89C69.5499 44.92 69.3698 44.94 69.0298 45.27L69.4098 45.14C69.4698 45.06 69.5499 44.98 69.6199 44.89Z" fill="#725941"/>
<path d="M69.4199 45.14H69.4099C69.1799 45.41 69.02 45.6 68.95 45.68C69.01 45.61 69.1499 45.45 69.4199 45.14Z" fill="#725941"/>
<path d="M69.67 44.83C69.67 44.83 69.6401 44.87 69.6201 44.89C69.6601 44.88 69.67 44.87 69.67 44.83Z" fill="#725941"/>
<path d="M71.96 42.15C71.75 42.59 71.26 43.49 71.94 42.76C72.04 42.41 71.65 42.83 71.96 42.15Z" fill="#725941"/>
<path d="M70.1201 44.65L70.6901 43.97C70.6401 43.96 70.4801 44.04 70.5901 43.82L70.1201 44.65Z" fill="#725941"/>
<path d="M69.9099 45.03L70.12 44.65L69.9099 44.9V45.03Z" fill="#725941"/>
<path d="M66.8501 48.01C66.6901 48.36 66.4101 48.68 66.1201 49.04C66.5001 48.7 66.8701 48.33 67.1901 47.95C67.1701 47.85 67.2001 47.6 66.8601 48.01H66.8501Z" fill="#725941"/>
<path d="M68.14 46.64C68.14 46.64 68.1101 46.69 68.1001 46.71C68.1501 46.68 68.18 46.65 68.14 46.64Z" fill="#725941"/>
<path d="M62.97 52.41L63.0599 52.4L63.0299 52.35L62.97 52.41Z" fill="#725941"/>
<path d="M67.2799 47.91C67.5599 47.65 67.66 47.44 67.74 47.23C67.57 47.46 67.3899 47.7 67.1799 47.94C67.1799 47.99 67.1999 48 67.2699 47.9L67.2799 47.91Z" fill="#725941"/>
<path d="M64.8601 49.98C65.0401 49.88 65.24 49.75 65.43 49.6C65.23 49.69 64.8501 49.88 64.8601 49.98Z" fill="#725941"/>
<path d="M67.9499 46.77L67.98 46.72C67.86 46.78 67.8899 46.79 67.9499 46.77Z" fill="#725941"/>
<path d="M67.95 46.77C67.85 46.94 67.8 47.09 67.74 47.23C67.88 47.04 67.99 46.87 68.09 46.71C68.05 46.74 67.99 46.76 67.95 46.77Z" fill="#725941"/>
<path d="M63.63 54.84C63.44 54.58 63.89 53.65 64.69 53.19C65.07 52.4 63.99 52.22 63.06 52.4C63.14 52.5 63.2299 52.58 62.7799 53.33C63.1199 53.22 64.38 52.15 64.09 52.87C63.44 53.84 63.38 53.52 62.88 53.82C63.49 53.72 62.31 55.28 62.93 55.49L63.45 54.59C63.53 54.63 63.3899 55.01 63.6399 54.85L63.63 54.84Z" fill="#725941"/>
<path d="M64.22 51.21L64.44 50.93C64.12 51.2 63.8399 51.34 63.2899 51.58C62.9799 52.1 62.9799 52.26 63.0299 52.35L64.2699 51.1L64.22 51.22V51.21Z" fill="#725941"/>
<path d="M65.5299 49.75C65.5699 50.13 65.0899 50.86 65.6799 50.66C66.3599 49.85 65.9699 49.95 66.2899 49.4C65.2299 50.72 66.4899 48.94 65.5599 49.76C65.7399 49.48 65.93 49.25 66.11 49.03C65.88 49.24 65.6499 49.43 65.4199 49.6C65.4399 49.6 65.45 49.59 65.46 49.58C65.54 49.55 65.57 49.54 65.5 49.59C65.5 49.59 65.49 49.61 65.48 49.62C65.5 49.65 65.51 49.7 65.51 49.74C65.14 50.07 65.4 49.75 65.48 49.62C65.48 49.61 65.48 49.59 65.46 49.58L64.4299 50.93C64.7099 50.69 65.0099 50.36 65.5199 49.75H65.5299Z" fill="#725941"/>
<path d="M71.75 43.72C71.75 43.72 71.7 43.75 71.69 43.74C71.65 43.85 71.64 43.89 71.75 43.72Z" fill="#725941"/>
<path d="M71.2599 44.24C71.3099 44.12 71.3098 44 71.5498 43.68C71.7898 43.42 71.6198 43.73 71.6798 43.75C71.7698 43.52 72.0398 42.97 71.5498 43.56L71.4999 43.67C71.0599 44.2 70.3299 44.77 70.3799 44.66C70.6499 44.6 70.8499 44.53 71.2599 44.25V44.24Z" fill="#725941"/>
<path d="M68.5499 47.2L67.75 48.38L68.37 47.94L68.25 47.89C68.79 47.29 68.5599 47.33 68.5499 47.2Z" fill="#725941"/>
<path d="M62.73 52.43L62.6 52.07L62.4099 52.97L62.73 52.43Z" fill="#725941"/>
<path d="M61.4799 53.76L61.2898 53.5L61.0898 53.97L61.4799 53.76Z" fill="#725941"/>
<path d="M1.98999 16.41L2.10999 15.99C2.04999 16.19 2.00999 16.31 1.98999 16.41Z" fill="#725941"/>
<path d="M1.08008 19.41L1.12012 19.5C1.12012 19.35 1.12008 19.29 1.08008 19.41Z" fill="#725941"/>
<path d="M30.1499 64.75C29.9599 64.07 29.86 63.2 29.61 63.57L29.45 64.01C29.81 64.24 30.0199 64.49 30.1599 64.75H30.1499Z" fill="#725941"/>
<path d="M7.97998 43.03C7.97998 43.09 7.99 43.16 8 43.23C8.17 43.3 8.31996 43.36 8.45996 43.42C8.30996 43.3 8.14998 43.17 7.97998 43.03Z" fill="#725941"/>
<path d="M6.71997 43.32L6.45996 42.51C6.48996 42.71 6.57997 42.96 6.71997 43.32Z" fill="#725941"/>
<path d="M12.7099 3.34003L13.0799 2.92999C12.3699 3.31999 12.7199 3.23003 12.7099 3.34003Z" fill="#725941"/>
<path d="M47.9999 66.8301C47.4899 67.0501 47.1298 67.2701 46.8398 67.4901C47.4898 67.2701 48.1299 67.2201 47.9999 66.8301Z" fill="#725941"/>
<path d="M2.94999 17.98C2.97999 17.73 3.00001 17.62 2.97001 17.62C2.91001 17.87 2.90999 18.02 2.94999 17.98Z" fill="#725941"/>
<path d="M45.71 68.49C45.81 68.46 45.89 68.42 45.99 68.39C46.22 68.08 46.47 67.78 46.84 67.5C46.36 67.66 45.88 67.92 45.71 68.5V68.49Z" fill="#725941"/>
<path d="M69.1399 4.31C69.1399 4.31 69.21 4.38003 69.24 4.41003C69.27 4.40003 69.2099 4.36 69.1399 4.31Z" fill="#725941"/>
<path d="M78.1899 19.25C78.1399 19.08 78.07 18.82 78 18.56C78.04 18.69 78.0899 18.89 78.1899 19.25Z" fill="#725941"/>
<path d="M56.1001 58.82C56.3601 58.53 56.1101 58.75 56.1001 58.82Z" fill="#725941"/>
<path d="M58.6 58.58C58.57 58.67 58.57 58.75 58.63 58.82C58.58 58.73 58.58 58.65 58.6 58.58Z" fill="#725941"/>
<path d="M44.6799 73.21L44.6499 73.23C44.7999 73.23 44.7699 73.23 44.6799 73.21Z" fill="#725941"/>
<path d="M56.6499 58.54C56.5099 58.61 56.36 58.69 56.21 58.8C56.29 58.77 56.4299 58.69 56.6499 58.54Z" fill="#725941"/>
<path d="M56.46 58.46C56.57 58.38 56.65 58.31 56.73 58.25C56.72 58.17 56.65 58.17 56.46 58.46Z" fill="#725941"/>
<path d="M55.72 59.2C55.88 59.04 56.04 58.91 56.21 58.8C56.14 58.83 56.1 58.84 56.1 58.82C56.02 58.9 55.91 59.02 55.72 59.21V59.2Z" fill="#725941"/>
<path d="M39.52 6.40002C39.52 6.40002 39.54 6.45004 39.55 6.48004C39.77 6.48004 39.69 6.43002 39.52 6.40002Z" fill="#725941"/>
<path d="M19.7998 60.62C19.7998 60.62 19.8299 60.63 19.8499 60.64C19.8499 60.62 19.8298 60.6 19.8198 60.59L19.7998 60.62Z" fill="#725941"/>
<path d="M18.6201 59.77C19.3901 59.88 19.5801 60.18 19.8201 60.59L20.3501 59.44L18.6301 59.76L18.6201 59.77Z" fill="#725941"/>
<path d="M5.56995 9.84003L4.87 10.6C5.45 9.48004 6.03996 8.77002 5.32996 9.46002C5.45996 9.66002 4.84993 10.46 4.29993 11.3C3.78993 12.17 3.27993 13.03 3.42993 13.19L3.05994 13.76C3.14994 13.59 3.13998 13.55 3.22998 13.38C2.85998 13.93 2.8099 14.19 2.7699 14.49C2.7299 14.8 2.64998 15.12 2.34998 15.91C2.11998 16.45 1.91001 16.81 2.01001 16.42C1.90001 16.85 1.73993 17.25 1.67993 17.69C1.56993 18.06 1.53 17.95 1.63 17.58L1.13989 19.52V19.5C1.13989 19.82 1.13989 20.46 1.13989 20.77C0.999893 21.26 1.13994 20.51 1.05994 20.63L0.98999 21.73C0.79999 22.16 0.83999 21.24 0.98999 20.49C0.38999 21.46 0.87998 21.4 0.47998 23.62L0.5 22.56C0.19 23.23 0.19 24.05 0 25.25C0.03 25.09 0.179927 24.49 0.299927 24.11C0.439927 23.7 0.569966 23.48 0.589966 24.08C0.549966 24.41 0.499995 24.84 0.619995 25.5C0.459995 25.5 0.459937 26.16 0.559937 26.96L0.309937 26.93C0.459937 27.8 0.58 27.71 0.75 28.2C0.88 29.15 0.719956 29.39 0.579956 29.66C0.809956 31.21 0.709976 28.53 1.09998 30.32C1.27998 31.6 1.6099 32.45 2.2699 33.82C2.4699 34.69 2.03994 33.74 2.05994 34.07L2.55994 34.72C2.61994 34.9 2.51998 34.88 2.47998 34.86C2.80998 35.44 2.78001 34.8 3.26001 35.72C3.71001 35.81 3.56992 37.92 4.53992 38.88C4.57992 39.22 4.26993 38.85 4.17993 39C5.24993 40.43 5.04 40.26 6.13 41.29L6.5 42.5C6.33 41.55 7.1999 42.37 8.0199 43.02C7.9799 42.67 7.94991 42.37 7.90991 42.19L8.96997 43.38C9.00997 43.58 8.8 43.53 8.5 43.42C8.59 43.49 8.68 43.56 8.75 43.6C8.93 44.16 8.53999 44.07 8.10999 43.86C8.07999 43.65 8.05991 43.44 8.02991 43.23C7.58991 43.05 7.14998 42.89 6.97998 43.09C7.07998 43.15 7.21998 43.3 7.34998 43.48C7.23998 43.43 7.15 43.41 7.13 43.48C7.12 43.55 7.2899 43.64 7.5199 43.81L7.28992 44.39L7.5 44.36L8.35999 46.32C9.61999 47.29 11.0199 47.87 12.6499 49.58C11.9499 49.38 12.03 49.9 11.61 50.19C11.64 49.35 10.34 48.84 9.72998 47.75C10.05 48.31 9.79 48.33 9.63 48.24C10.17 48.76 10.7299 49.26 11.2799 49.76C10.9299 49.97 11.3099 50.32 11.5199 50.89C11.8999 50.04 12.93 51.87 13.7 52.39C13.51 52.61 13.1499 52.63 12.5399 51.73C12.7899 53.08 14.27 52.33 14.59 53.58C14.42 53.38 14.3599 53.24 14.1799 53.25C14.7699 53.57 15.5799 54.86 15.1599 54.76L14.99 54.56C16.03 56 18.49 58.65 19.25 58.3C19.19 58.38 18.4 58.77 18.21 58.79C19.56 58.98 20.9099 59.15 22.2799 59.27C21.5899 59.54 21.14 61.45 19.86 60.64C20.08 61.01 20.35 61.48 21.13 61.96C21 61.68 21.3599 60.75 21.6699 60.99C21.8499 62.3 21.89 61.81 22.33 63.24C22.14 62.82 23.25 62.4 23.7 62.9C23.51 62.94 22.96 63.71 22.71 63.61L24.6599 64.04C24.2299 63.88 23.95 64.65 24 65.14C24.03 64.86 25.0099 66.2 25.4099 66.44L25.08 65.75C26.31 67.22 27.51 65.94 28.83 67.27C28.5 67.29 27.4299 67.93 28.0199 68.71C28.7399 68.59 31.3699 67.97 32.9099 68.71V69.17L34.13 69.72C32.93 69.89 30 69.8 28.63 69.47C28.97 70.16 28.4999 69.9 29.2999 70.62C29.3599 71.12 28.5499 70.57 28.3099 70.37L29.99 72.24C30.38 71.65 31.8599 73.01 32.1899 72.5L29.71 71.21C30.1 70.63 32.1899 70.81 33.4099 72.06C33.5599 72.57 32.32 72.78 32.2 72.98C32.53 72.95 33.76 73.75 33.76 73.98L32.95 73.77C33.23 74.2 33.68 74.29 34.13 74.43C34.35 74.5 34.57 74.58 34.76 74.73C34.96 74.88 35.0699 75.07 35.3099 75.46C35.4999 75.65 35.7099 76.06 35.9299 76.41C36.1599 76.74 36.3999 76.99 36.5399 76.82C36.0199 75.62 37.4599 73.48 38.0199 73.1C38.0499 73.15 38.3099 73.52 38.6899 73.89C39.0599 74.27 39.5799 74.62 39.7899 74.84C40.0899 75.17 39.85 75.56 39.51 75.9C39.18 76.24 38.76 76.54 39.08 76.87C39.15 76.68 39.6299 76.5 39.8199 76.42C40.3399 76.59 39.5699 77.07 40.7699 76.93C40.9099 76.23 43.11 76.57 41.25 76.25C41.77 76.06 42.05 76.02 42.36 75.98C42.67 75.94 43.03 75.91 43.6 75.59C43.3 75.47 43.3999 75 43.5499 74.45C43.7199 73.92 43.8699 73.33 44.1599 72.95C44.2399 73.13 44.55 73.18 44.7 73.2C46.14 72.04 47.0999 71.63 48.3899 70.48C48.6299 70.51 49.38 70.1 49.33 70.57C49.43 70.31 49.4299 69.97 49.8099 69.6C50.9899 69.36 49 70.48 50.08 70.49C49.85 70.14 50.71 69.13 51.08 68.42C50.48 68.11 49.72 69.52 49.33 70.23C48.73 69.57 49.08 68 50.12 66.5C51.01 65.38 50.9599 66.49 51.0499 66.23C53.0999 64.5 51.67 63.6 53.71 62.51C54.72 62.28 54.4899 63.24 54.8999 63.38C54.2099 64.34 53.39 64.39 52.83 64.94L53.71 64.45C53.57 64.84 53.0999 65.47 52.6899 65.65C53.5699 65.5 56.02 62.56 57.76 61.36C57.89 60.97 58.21 60.4 57.85 60.47L57.4399 60.99C56.7199 61.13 57.8999 59.72 57.1799 60.17C57.5799 59.34 57.97 58.36 58.99 57.63L59.5499 57.84C59.4099 57.75 58.75 58.2 58.63 58.56C58.81 58.03 60.48 57.7 60.35 56.81L59.48 57.18C59.9 56.37 60.24 55.22 61.12 54.56C60.4 54.58 60.99 54.78 60 54.93C61.03 54.96 58.01 56.86 59.36 56.65C58.26 56.71 58.17 57.41 56.95 57.68C57.11 57.79 57.47 57.68 56.75 58.24C56.76 58.31 56.75 58.42 56.73 58.49C56.71 58.5 56.6999 58.51 56.6799 58.52L56.73 58.5C56.73 58.5 56.73 58.55 56.75 58.5C56.97 58.41 57.1599 58.35 57.2899 58.37C57.2899 58.99 56.2399 60 56.0499 60.5C55.5999 60.82 56.0499 60.19 55.6899 60.25L55.4099 61.01C55.0499 60.76 53.85 61.49 54.59 60.43L53.74 61.2C53.08 61.49 52.3299 62.04 52.0399 62.57C51.5799 62.87 51.39 63.86 51.49 63.28L50.37 64.7L50.2799 64.63C48.9299 65.78 48.1 67.66 46.01 68.37C45.64 68.85 45.2799 69.37 44.4299 69.92L44.01 69.74C43.54 70.34 41.9599 70.95 42.0599 71.43C41.5399 71.14 41.23 71.27 40.86 71.43C40.51 71.61 40.02 71.77 39.75 71.63L39.63 72.16C39.17 72.03 38.6899 72.04 38.0199 71.79L37.75 72.19C37.75 72.19 37.65 72.17 37.61 72.16C37.55 72.13 37.4899 72.09 37.4299 72.06C37.3099 71.98 37.2 71.89 37.08 71.78C36.85 71.57 36.6299 71.31 36.3999 71.03C35.9399 70.47 35.46 69.83 34.85 69.33C35.05 69.27 35.32 69.56 35.46 69.83C34.75 67.82 31.96 67.79 31.21 66.08C30.78 65.92 30.59 65.67 30.45 65.38C30.48 65.41 30.5099 65.42 30.5399 65.43C30.5099 65.4 30.4599 65.35 30.4199 65.31C30.3399 65.13 30.2599 64.93 30.1499 64.74C30.2099 64.94 30.27 65.12 30.35 65.25C30.1 65.04 29.69 64.74 29.26 64.49L29.4399 64C29.4399 64 29.38 63.96 29.35 63.93C29.12 63.48 28.91 63.83 28.85 64.27C28.62 64.16 28.3899 64.07 28.1799 64.04C28.4299 63.22 27.07 63.34 27.26 62.39C26.74 62.45 25.2899 60.9 24.5199 61.29C24.5799 61.2 24.52 61.07 24.71 61.25C24.39 60.8 24.0699 60.35 23.5599 60.16L23.8099 59.59L22.4199 59.28C22.1699 58.52 22.1099 58.17 22.9299 58.37C21.2299 57.6 21.7699 57.54 20.2699 56.92L20.59 56.73C20.22 56.36 19.2899 56.06 19.2999 55.63C18.9999 54.33 15.4799 51.23 14.0399 48.53C13.6599 49.56 13.49 47.2 12.85 47.54C12.92 47.27 12.75 46.87 13.21 47.14C12.07 46.08 12.06 45.15 10.95 44.65C11.01 44.39 11.3899 44.74 11.3999 44.55C11.2899 44.48 10.97 44.26 10.97 44.07C10.97 43.88 11.24 44.15 11.46 44.29C10.5 43.08 9.9 43.28 9.37 43.5C9.14 42.7 8.8899 42.4 8.2699 42.11C8.2699 41.78 8.16001 41.31 8.76001 42.08C8.46001 41.62 7.14993 39.16 6.79993 39.3C6.79993 39.1 6.43996 38.63 6.32996 38.52C5.74996 37.44 5.72989 37.33 5.13989 36.28C5.16989 36.39 5.19999 36.5 5.23999 36.6C4.63999 36.36 4.72 35.73 4.25 34.88H4.29993C3.69993 32.73 3.74992 34.06 3.28992 31.9L3.12 32.08C2.59 32.03 2.74995 30.15 2.31995 28.97V29.44C2.15995 29.12 2.20001 28.61 2.26001 28.11C2.34001 27.61 2.45993 27.11 2.42993 26.78C2.43993 26.63 2.51996 27 2.57996 27.2C2.53996 25.43 2.26998 27 2.09998 25.68C2.20998 25.43 2.4499 25.98 2.3999 25.09C2.4699 24.66 1.93999 22.44 2.35999 21.25C2.23999 21.51 2.10989 21.77 2.13989 21.14C2.20989 20.66 2.31992 20.02 2.53992 19.42C2.73992 18.81 2.90989 18.22 2.88989 17.76C2.93989 17.65 2.98 17.61 3 17.61C3.19 16.9 3.68994 15.32 3.80994 14.88C4.18994 14.68 4.59 13.61 5.13 12.69C5.59 11.73 6.17998 10.94 6.34998 11.08C6.57998 10.78 6.78991 10.47 7.02991 10.18L7.78992 9.34003V9.42004C8.03992 9.16004 8.23991 8.94 8.40991 8.75C8.58991 8.57 8.75 8.42003 8.87 8.28003C9.12 8.00003 9.26992 7.79001 9.41992 7.57001C9.68992 7.37001 9.53992 7.56999 9.53992 7.60999C11.2699 6.38999 11.4099 6.27 12.7999 5.13L13.0599 5.21002C13.2299 5.02002 13.96 4.76 14.86 4.44C15.3 4.26 15.8099 4.11003 16.3199 3.97003C16.8299 3.83003 17.3299 3.6 17.8099 3.44C17.7999 3.47 17.77 3.52003 17.62 3.59003C18.16 3.40003 18.7799 3.26999 19.3999 3.17999C20.0299 3.09999 20.6799 3.14 21.2699 3.13C22.4499 3.13 23.42 3.26004 23.84 2.67004C24.34 2.60004 24.85 2.53004 25.36 2.48004C23.39 2.27004 25.68 1.98 24.87 1.75C25.68 1.71 26.8899 2.26999 25.9199 2.23999L25.7699 2.17004C25.3799 2.71004 28.1799 2.73002 28.0399 3.21002C29.9099 3.60002 31.64 4.38 33.21 5.31C33.99 5.79 34.7299 6.30004 35.4299 6.85004C35.7899 7.11004 36.12 7.40999 36.46 7.67999C36.54 7.74999 36.63 7.82001 36.71 7.89001L37.0199 8.16003C37.2899 8.39003 37.57 8.64002 37.84 8.90002C37.77 8.52002 37.7099 8.20001 37.6799 7.89001C38.1299 8.28001 38.56 8.76001 39 9.20001C39.31 9.72001 39.4 10.33 38.35 9.23004C38.55 9.68004 39.01 10.05 39.38 10.25C39.76 10.46 40.05 10.48 40.1 10.4C40.12 10.38 40.12 10.37 40.12 10.36C40.16 10.36 40.2 10.36 40.23 10.36C40.27 10.33 40.3 10.31 40.33 10.29C40.39 10.25 40.45 10.21 40.5 10.18C40.6 10.12 40.68 10.09 40.73 10.08C40.83 10.06 40.8399 10.14 40.7899 10.27C40.7399 10.4 40.63 10.59 40.5 10.79C40.37 11 40.22 11.21 40.09 11.31C39.87 11.19 39.7399 11.11 39.9399 11.33L40.09 11.48C40.21 11.42 40.33 11.3 40.45 11.17L40.8099 10.8L40.61 10.89C41.28 9.88001 41.2299 9.52003 42.4299 8.47003C43.2699 7.91003 43.0599 8.47003 43.3899 8.22003C43.3999 8.24003 43.4499 8.21999 43.5199 8.17999C43.5699 8.14999 43.64 8.08002 43.75 7.96002C44.17 7.68002 44.57 7.38 45.01 7.12C44.75 7.09 44.48 7.05004 44.21 7.04004C44.62 6.43004 45.44 6.25002 44.51 6.15002C45.2 6.21002 46.47 5.54002 47.74 4.96002C49 4.37002 50.27 3.87999 50.61 3.92999C51.43 3.29999 52.3899 3.08 53.5699 2.94C53.2699 2.89 52.9999 2.37999 54.0599 2.29999C53.7899 3.39999 56.01 2.56002 56.83 3.33002C56.1 2.83002 59.73 3.25001 58.63 2.57001C59.48 2.75001 58.65 2.93003 59.26 3.22003C59.77 3.19003 60.32 3.20003 60.87 3.28003C61.41 3.40003 61.9699 3.55001 62.5399 3.70001C63.6599 4.08001 64.83 4.50004 66 4.98004C66.08 4.92004 65.7399 4.62003 66.3099 4.72003C66.6699 5.02003 66.9999 5.34999 67.3199 5.67999C67.7799 5.86999 67.9699 5.50999 68.6399 6.17999C68.5599 6.05999 68.44 5.89004 68.75 6.04004C70.79 7.52004 72.8199 9.19002 74.4299 11.27C76.0499 13.33 77.2499 15.76 77.8999 18.28C77.7499 17.59 77.8799 18.04 78.0299 18.56C77.9499 18.22 78.08 18.56 78.09 18.48C78.26 19.19 78.43 19.9 78.5 20.63C78.57 20.82 78.66 21.4 78.75 21.96C78.78 22.53 78.81 23.07 78.85 23.18L78.7999 22.49C78.8599 22.95 78.8899 22.62 78.9099 22.2C78.9399 21.77 78.87 21.25 78.95 21.31C78.81 20.8 78.7899 20.1 78.6499 19.34C78.4699 18.59 78.37 17.71 77.98 16.93C77.88 16.56 78.13 17.22 78.09 17.02C77.89 16.63 77.7199 16.12 77.3999 15.2L77.46 15.29C77.18 14.66 76.93 14.12 76.71 13.62C76.5 13.11 76.22 12.69 75.98 12.23C75.74 11.77 75.4999 11.3 75.1599 10.81C74.8199 10.32 74.51 9.72 74.01 9.12L74.0599 9.38C73.6399 8.85 73.5799 8.72001 73.3999 8.45001C72.7499 8.00001 74.61 9.91001 73.99 9.51001C73.9 9.30001 73.66 8.97002 73.35 8.58002C73.05 8.18002 72.67 7.74003 72.25 7.34003C71.84 6.93003 71.45 6.52 71.12 6.19C70.78 5.87 70.54 5.60003 70.49 5.41003C69.68 4.73003 70.5999 5.77999 69.7899 5.10999L69.6499 4.83002C69.5499 4.81002 69.45 4.81 69.34 4.81C68.79 4.41 68.59 4.07001 68.62 3.95001C68.75 4.06001 69.0299 4.20004 69.1799 4.29004C68.8499 3.97004 68.32 3.59999 67.84 3.29999C67.34 3.03999 66.89 2.83999 66.76 2.73999L67.61 3.32001C65.11 1.91001 61.71 0.430032 58.83 0.470032L59.0199 0.660034C57.9399 0.680034 57.5199 0.63002 57.0699 0.52002C56.6199 0.41002 56.13 0.290015 54.95 0.390015L55.0299 0.340027C54.5699 0.540027 53.9499 0.650022 53.3099 0.710022C53.8799 0.440022 52.13 0.420037 52.88 0.100037C50.59 0.800037 51.7499 0.549988 50.4199 1.54999L50 1.34003C49.58 1.76003 49.57 1.90004 48.51 2.35004C49.32 1.78004 47.6299 2.11999 48.5299 1.42999C47.2099 1.47999 46.4099 2.04999 45.7799 2.48999C45.1599 2.95999 44.6999 3.31002 43.9299 3.15002C43.6699 3.84002 44.21 3.67002 44.74 3.40002C45.28 3.15002 45.85 2.80003 45.61 3.03003C46.21 3.06003 45.0999 4.05 44.4199 4.37C44.0799 4.55 43.66 4.49002 43.09 4.52002C42.8 4.52002 42.4899 4.58001 42.1499 4.70001C41.9799 4.76001 41.8 4.84 41.61 4.94C41.52 4.99 41.43 5.05 41.33 5.12C41.26 5.17 41.19 5.23003 41.11 5.28003C41.18 5.23003 41.17 5.15003 41.33 5.03003C41.25 5.06003 41.14 5.13002 41.09 5.15002C41.05 5.17002 41.02 5.20004 40.99 5.23004C40.93 5.29004 40.89 5.38002 40.84 5.46002C40.74 5.63002 40.5799 5.82 40.3999 5.75C40.3799 6.01 40.32 6.14999 40.26 6.23999C40.2 6.31999 40.14 6.43004 40.08 6.35004C40.02 6.35004 39.9799 6.41001 39.9399 6.70001L40.08 6.79999C40.08 6.79999 40.1299 6.88002 40.1599 6.83002L40.24 6.73004L40.3999 6.53003C40.4999 6.40003 40.6 6.27002 40.7 6.15002C40.61 6.29002 40.5299 6.48001 40.4299 6.70001C40.3799 6.81001 40.3199 6.92999 40.2699 7.04999C40.2099 7.16999 40.15 7.35002 40.08 7.27002C39.79 7.24002 39.31 6.95 38.88 6.31C39.02 6.25 39.3499 6.31002 39.5299 6.33002C39.3699 5.92002 39.03 6.05004 38.87 5.67004C39.06 5.47004 39.26 5.51003 39.46 5.66003C39.66 5.80003 39.89 6.05004 40.08 6.10004C40.1 6.10004 40.1199 6.13004 40.1399 6.10004L40.1899 5.98999C40.2199 5.91999 40.2499 5.84 40.2699 5.75C40.2399 5.72 40.2099 5.72 40.1799 5.75C40.1499 5.78 40.12 5.83003 40.08 5.78003C39.91 5.73003 39.63 5.80999 39.86 5.29999C39.66 5.75999 39.4599 5.52001 39.2999 5.32001L39.1699 5.16003C39.1699 5.16003 39.13 5.11001 39.08 5.07001L38.8899 4.92999C38.6299 4.74999 38.3099 4.62001 37.9299 4.57001L38.24 4.29004C38.03 4.21004 37.54 4.12002 37.21 3.90002L38.12 3.85999C36.93 3.61999 36.46 2.38 35.34 2.13C37.38 3.15 35.57 2.77003 36.26 3.47003C34.94 3.04003 34.7099 2.66003 34.4299 2.22003C34.1599 1.79003 33.8399 1.25999 32.2999 0.859985C32.7399 0.919985 33.7199 1.60003 33.0399 1.53003C32.5199 1.24003 31.8099 0.899985 31.5199 0.609985C29.4799 0.179985 31.7199 1.04003 30.7999 1.03003C30.2499 0.440029 29.7699 0.970044 28.8899 0.920044L28.96 0.580017C26.7 0.0500171 28.24 1.16001 26.25 0.700012C26.55 0.560012 26.8599 0.450007 27.1699 0.320007C26.7999 0.320007 26.44 0.319985 26.08 0.359985L26.34 0C25.13 0.23 24.78 0.139995 23.63 0.119995C23.9 0.299995 23.48 0.67001 22.5 0.76001C21.81 0.65001 22.86 0.450005 21.45 0.630005C21.75 0.420005 22.09 0.169985 22.73 0.359985C22.79 0.259985 23.04 0.149988 23.1 0.0499878C22.34 -0.0700122 21.21 0.200027 20.71 0.340027C20.91 0.310027 21.1499 0.270039 21.2699 0.290039L19.2899 1.04999C18.9599 1.02999 19.1899 0.89002 19.4299 0.77002C19.0199 0.87002 18.7699 1.10004 18.1899 1.29004C18.2999 1.05004 18.2099 0.87001 19.0399 0.51001L17.1899 1.32001C17.0299 1.25001 16.1699 1.48001 16.3899 1.32001C15.8599 1.49001 15.2599 1.84001 14.6399 2.20001C14.0399 2.62001 13.4 3.03001 12.73 3.32001C12.68 3.38001 12.5699 3.48999 12.3199 3.67999C11.7499 4.03999 11.17 4.33001 10.62 4.70001C10.09 5.10001 9.52997 5.54 8.96997 6.12L8.15991 6.57001C7.28991 7.47001 9.24993 5.95 7.79993 7.44C6.82993 8.54 7.28989 7.70003 6.88989 8.03003C6.68989 8.35003 6.41996 8.77999 6.07996 9.23999C5.75996 9.71999 5.39992 10.26 4.91992 10.75C5.14992 10.37 5.38 10.1 5.62 9.76001L5.56995 9.84003ZM0.559937 24.06C0.539937 23.76 0.479966 23.16 0.589966 22.95C0.759966 23.3 0.649937 23.55 0.559937 24.06ZM8.63 45.24C8.42 45.12 8.27993 44.81 8.17993 44.43C8.34993 44.64 8.51 44.91 8.63 45.24ZM53.2799 62.02V62.06C52.6799 62.36 52.8999 62.26 53.2799 62.02ZM54.38 61.26C54.43 61.12 54.3799 61.08 54.2899 61.07C54.3099 61.22 54.1 61.43 53.83 61.64C53.99 61.66 54.17 61.61 54.38 61.26ZM43.4099 7.97003C43.3399 7.97003 43.19 8.05003 43.08 8.09003C43.21 7.95003 43.29 7.86 43.35 7.81C43.39 7.77 43.4199 7.76001 43.4299 7.76001C43.4599 7.78001 43.4299 7.87003 43.4199 7.97003H43.4099Z" fill="#725941"/>
<path d="M6.86996 43.3C6.86996 43.2 6.90993 43.1501 6.95993 43.1001C6.84993 43.0301 6.79996 43.06 6.86996 43.3Z" fill="#725941"/>
<path d="M12.6399 3.42004L12.6799 3.40002C12.6799 3.40002 12.7 3.36004 12.71 3.35004L12.6399 3.42004Z" fill="#725941"/>
<path d="M39.7398 77.21C39.3698 77.13 39.1798 76.98 39.0598 76.87C39.0198 76.98 39.1698 77.14 39.7398 77.21Z" fill="#725941"/>
<path d="M58.8501 55.89L58.3301 56.55C58.6101 56.25 58.7801 56.22 58.9801 56.12C58.8901 56.07 58.6701 56.08 58.8601 55.89H58.8501Z" fill="#725941"/>
<path d="M65.6398 52.07C65.6898 51.95 65.7999 51.86 65.8499 51.74L65.7098 51.67C65.3798 52.08 65.2398 52.45 65.6398 52.07Z" fill="#725941"/>
<path d="M60.4199 56.27C60.7199 56.46 61 55.99 61.36 55.52C61.34 55.55 61.3199 55.5701 61.2899 55.6001C61.0599 55.1601 60.7299 55.71 60.4199 56.28V56.27Z" fill="#725941"/>
<path d="M61.46 55.41C61.58 55.27 61.7 55.12 61.83 55C61.74 54.82 61.65 55.14 61.46 55.41Z" fill="#725941"/>
<path d="M55.3998 59.92C55.6698 59.8 55.1698 59.45 55.3998 59.45C55.2698 58.88 54.4798 61.16 55.3998 59.92Z" fill="#725941"/>
<path d="M61.6 56.69L61.1399 56.56L61.1699 57.04L61.6 56.69Z" fill="#725941"/>
<path d="M58.1302 59.91L58.8802 59.31C58.8102 59.27 58.8701 59.15 58.9401 59.02C58.5201 59.43 58.0102 59.83 58.1202 59.91H58.1302Z" fill="#725941"/>
<path d="M58.95 59.02C59.17 58.81 59.3599 58.59 59.4199 58.41C59.3099 58.53 59.08 58.8 58.95 59.02Z" fill="#725941"/>
<path d="M60.8201 57.74L60.5601 57.89L60.0801 58.36L60.8201 57.74Z" fill="#725941"/>
<path d="M50.7499 67.01L50.0898 67.83C50.1298 68.03 50.4198 67.92 50.6498 67.6C50.7498 67.34 50.9799 67.02 50.7499 67.01Z" fill="#725941"/>
<path d="M54 65.8401C53.72 65.9601 53.6299 65.8901 53.3999 65.8801L53.8099 66.36L53.99 65.8401H54Z" fill="#725941"/>
<path d="M51.8999 68.07C51.9499 68.27 51.1399 69.49 52.0799 68.55C52.0399 68.35 52.6899 67.51 51.8999 68.07Z" fill="#725941"/>
<path d="M38.1899 75.0701L38.46 75.1501L38.73 74.0901C38.56 74.4201 38.3799 74.7501 38.1899 75.0801V75.0701Z" fill="#725941"/>
<path d="M25.8501 67.88C26.5701 68.94 26.5001 67.63 27.0901 68.64C27.4701 68.67 26.6001 67.81 26.9601 67.87C26.2401 67.53 26.0701 67.14 25.8501 67.87V67.88Z" fill="#725941"/>
<path d="M26.97 67.88C27.08 67.93 27.21 67.99 27.35 68.03C27.15 67.93 27.04 67.89 26.97 67.88Z" fill="#725941"/>
<path d="M78.6399 22.09L78.6599 22.88V22.37L78.6399 22.09Z" fill="#725941"/>
<path d="M78.7899 23.6L78.73 23.79L78.8099 24.26C78.7999 24.08 78.7799 23.74 78.7799 23.6H78.7899Z" fill="#725941"/>
<path d="M0.0698242 26.37L0.129883 26.43C0.189883 26.29 0.199829 26.1 0.199829 25.7L0.0698242 26.37Z" fill="#725941"/>
<path d="M2.17004 15.37L2.1001 15.55L2.39001 15.28L2.17004 15.37Z" fill="#725941"/>
<path d="M7.13977 7.37C6.86977 7.65 6.60984 8.03001 6.33984 8.32001C6.86984 7.65001 7.36977 7.46 7.13977 7.37Z" fill="#725941"/>
<path d="M26.3597 18.08C26.3597 21.45 23.6198 24.19 20.2498 24.19C16.8798 24.19 14.1396 21.45 14.1396 18.08C14.1396 14.71 16.8798 11.97 20.2498 11.97C23.6198 11.97 26.3597 14.71 26.3597 18.08Z" fill="white"/>
<path d="M26.6097 18.04C26.6097 18.1 26.6496 18.08 26.6596 18.09C26.6496 17.99 26.5997 18.05 26.6097 18.04Z" fill="#725941"/>
<path d="M26.4697 17.08L26.4897 17.09L26.4297 16.96L26.4697 17.08Z" fill="#725941"/>
<path d="M26.38 16.16C26.26 16.29 26.4399 16.49 26.4199 16.66L26.3999 16.69L26.5 16.74C26.46 16.54 26.3698 16.31 26.3898 16.15L26.38 16.16Z" fill="#725941"/>
<path d="M26.6597 15.52C26.5897 15.58 26.5997 15.42 26.6397 15.66C26.6397 15.65 26.6497 15.64 26.6597 15.63C26.6597 15.61 26.6597 15.58 26.6597 15.52Z" fill="#725941"/>
<path d="M26.6597 15.63C26.7097 15.54 26.6597 15.74 26.6597 15.63Z" fill="#725941"/>
<path d="M26.5898 15.14L26.6698 15.26C26.6698 15.26 26.7099 15.07 26.7499 15.11C26.6999 14.97 26.6498 15.03 26.5898 15.15V15.14Z" fill="#725941"/>
<path d="M26.4199 15.07L26.46 15.13C26.46 15.13 26.4799 15.08 26.4199 15.07Z" fill="#725941"/>
<path d="M26.5498 15.26L26.4699 15.13C26.4699 15.13 26.3799 15.2 26.4999 15.19C26.4399 15.2 26.4998 15.21 26.5498 15.26Z" fill="#725941"/>
<path d="M26.5297 15.36C26.4997 15.46 26.4897 15.57 26.4097 15.45C26.4597 15.7 26.5797 15.62 26.5297 15.36Z" fill="#725941"/>
<path d="M26.2197 16.1701L26.1997 16.27L26.2598 16.34C26.2598 16.34 26.2597 16.1501 26.2197 16.1701Z" fill="#725941"/>
<path d="M26.6 14.12C26.54 14.15 26.4599 14.26 26.3999 14.32L26.48 14.39C26.51 14.31 26.52 14.18 26.6 14.12Z" fill="#725941"/>
<path d="M26.3896 14.31L26.2598 14.21C26.2798 14.36 26.3296 14.36 26.3896 14.31Z" fill="#725941"/>
<path d="M26.1799 15.16C26.2499 15.21 26.3199 15.27 26.3899 15.33C26.3199 15.26 26.2499 15.18 26.1699 15.12V15.16H26.1799Z" fill="#725941"/>
<path d="M26.4698 13.43H26.6398C26.5598 13.42 26.4699 13.41 26.3799 13.41L26.4698 13.43Z" fill="#725941"/>
<path d="M26.3198 12.99C26.4698 12.96 26.4999 12.7 26.6099 12.72C26.5499 12.61 26.3998 12.59 26.2698 12.59C26.3598 12.64 26.3798 12.77 26.3298 12.99H26.3198Z" fill="#725941"/>
<path d="M26.0498 12.57C26.0998 12.59 26.1799 12.5901 26.2599 12.5901C26.2099 12.5601 26.1498 12.55 26.0498 12.57Z" fill="#725941"/>
<path d="M26.2197 13.91C26.2197 13.91 26.3397 13.78 26.3497 13.66L26.1997 13.85C26.1997 13.85 26.2097 13.89 26.2197 13.91Z" fill="#725941"/>
<path d="M26.2 13.85C26.18 13.77 26.1699 13.72 26.1699 13.7C26.1699 13.72 26.18 13.76 26.2 13.85Z" fill="#725941"/>
<path d="M26.2198 13.93V13.91C26.2198 13.91 26.1998 13.94 26.2198 13.93Z" fill="#725941"/>
<path d="M26.2097 14.71C26.1097 14.66 25.9596 14.55 25.8896 14.79C26.0096 14.79 26.0497 14.65 26.2097 14.71Z" fill="#725941"/>
<path d="M26.0398 14.15V14.34C26.0898 14.31 26.1498 14.24 26.1998 14.26C26.1498 14.22 26.0998 14.19 26.0398 14.16V14.15Z" fill="#725941"/>
<path d="M25.96 14.11L26.0399 14.15L26.0299 14.08L25.96 14.11Z" fill="#725941"/>
<path d="M25.9999 13.04C25.8899 13.04 25.8398 12.97 25.7898 12.89C25.7898 13.02 25.8199 13.14 25.8599 13.23C25.9299 13.19 26.0499 13.14 25.9999 13.04Z" fill="#725941"/>
<path d="M26.09 13.45H26.07C26.07 13.45 26.06 13.48 26.09 13.45Z" fill="#725941"/>
<path d="M25.3098 12.02C25.3098 12.02 25.2898 12.06 25.2798 12.08L25.3198 12.04V12.02H25.3098Z" fill="#725941"/>
<path d="M25.8298 13.27C25.8298 13.37 25.8898 13.37 25.9698 13.36C25.9298 13.32 25.8899 13.28 25.8599 13.22C25.8299 13.24 25.8098 13.25 25.8298 13.27Z" fill="#725941"/>
<path d="M25.8398 12.39C25.8198 12.47 25.8098 12.55 25.7898 12.63C25.8398 12.53 25.8998 12.35 25.8398 12.39Z" fill="#725941"/>
<path d="M26.1099 13.38H26.1199C26.1499 13.33 26.1299 13.35 26.1099 13.38Z" fill="#725941"/>
<path d="M26.11 13.38C26.11 13.38 26.02 13.37 25.96 13.38C25.99 13.41 26.0299 13.44 26.0599 13.45C26.0599 13.43 26.09 13.41 26.1 13.38H26.11Z" fill="#725941"/>
<path d="M23.8097 13.48C24.0097 13.23 24.3197 13.12 24.2097 13.46C24.4497 13.38 25.0097 12.64 25.2797 12.07C25.1897 12.17 25.1197 12.25 24.8997 12.25C24.8397 12.43 24.8898 12.84 24.6298 12.93C24.3998 12.89 24.5797 12.73 24.6097 12.52C24.4297 12.88 24.0698 12.79 23.7598 13.3L24.0098 13.23C23.9598 13.3 23.8197 13.38 23.8097 13.47V13.48Z" fill="#725941"/>
<path d="M25.4398 12.4L25.4999 12.44C25.4899 12.33 25.5299 12.2 25.6199 11.92C25.4599 11.91 25.3798 11.97 25.3098 12.04L25.4799 12.4H25.4398Z" fill="#725941"/>
<path d="M25.6698 12.74C25.4498 12.88 25.2599 12.84 25.0999 13.14C25.2299 13.28 25.3399 13.09 25.4899 13.11C25.2799 12.86 25.6498 13.09 25.6398 12.76C25.6998 12.79 25.7398 12.84 25.7798 12.88C25.7798 12.8 25.7798 12.71 25.7898 12.62V12.64C25.7898 12.64 25.7598 12.7 25.7698 12.67C25.7698 12.67 25.7098 12.71 25.6898 12.73C25.6898 12.59 25.7398 12.66 25.7698 12.67L25.7998 12.65C25.7098 12.57 25.6098 12.51 25.5198 12.44C25.5198 12.54 25.5898 12.61 25.6898 12.73L25.6698 12.74Z" fill="#725941"/>
<path d="M25.4999 14.85C25.4999 14.85 25.5198 14.83 25.5298 14.82C25.4998 14.82 25.4899 14.82 25.4999 14.85Z" fill="#725941"/>
<path d="M25.5398 14.68C25.5398 14.68 25.6398 14.66 25.6598 14.73C25.6398 14.81 25.5898 14.78 25.5398 14.81C25.5998 14.81 25.7099 14.87 25.7299 14.71H25.6998C25.6998 14.57 25.8499 14.28 25.8799 14.29C25.7399 14.42 25.6498 14.52 25.5398 14.68Z" fill="#725941"/>
<path d="M25.5497 13.83C25.4797 13.77 25.4097 13.73 25.3297 13.69L25.2397 13.93L25.3297 13.84C25.3697 13.99 25.4697 13.87 25.5497 13.83Z" fill="#725941"/>
<path d="M25.3896 11.86L25.6298 11.63C25.4998 11.69 25.3597 11.77 25.2197 11.85H25.3896V11.86Z" fill="#725941"/>
<path d="M25.1299 11.56L25.3298 11.32L25.1398 11.39L25.1299 11.56Z" fill="#725941"/>
<path d="M15.6299 20.82L15.6898 20.85C15.6898 20.85 15.6499 20.82 15.6299 20.82Z" fill="#725941"/>
<path d="M15.46 20.43L15.3999 20.45C15.3999 20.45 15.46 20.45 15.46 20.43Z" fill="#725941"/>
<path d="M15.7198 10.75C15.4098 10.51 14.9598 10.14 15.2198 10.5L15.4999 10.84C15.5399 10.72 15.6198 10.71 15.7198 10.76V10.75Z" fill="#725941"/>
<path d="M14.3297 16.89H14.4197C14.3297 16.84 14.2397 16.8 14.1597 16.76C14.2097 16.8 14.2697 16.85 14.3297 16.89Z" fill="#725941"/>
<path d="M15.5099 17.19L15.2898 17.26C15.3598 17.25 15.4399 17.23 15.5099 17.19Z" fill="#725941"/>
<path d="M17.4497 22.18L17.6198 22.04C17.5098 22.02 17.5097 22.1 17.4497 22.18Z" fill="#725941"/>
<path d="M21.47 9.58002C21.38 9.38002 21.29 9.29 21.21 9.25C21.33 9.54 21.38 9.95002 21.47 9.58002Z" fill="#725941"/>
<path d="M14.2998 21.36C14.2998 21.36 14.3798 21.39 14.4098 21.37C14.3598 21.34 14.3298 21.33 14.2998 21.36Z" fill="#725941"/>
<path d="M20.8599 9.21001C20.8599 9.21001 20.8998 9.27999 20.9198 9.31999C21.0098 9.24999 21.1098 9.19999 21.2198 9.24999C21.1298 9.02999 21.0099 8.90001 20.8699 9.21001H20.8599Z" fill="#725941"/>
<path d="M24.4097 20.89C24.4097 20.89 24.4297 20.89 24.4497 20.89C24.4297 20.87 24.4197 20.88 24.4097 20.89Z" fill="#725941"/>
<path d="M23.9897 10.26C24.0797 10.29 24.0197 10.23 23.9897 10.26Z" fill="#725941"/>
<path d="M23.6 11.9C23.6 11.9 23.53 11.98 23.48 12.06C23.53 11.98 23.57 11.93 23.6 11.9Z" fill="#725941"/>
<path d="M20.0498 12.05C20.0698 12.14 20.0698 12.12 20.0498 12.05Z" fill="#725941"/>
<path d="M24.0199 10.5C24.0199 10.44 24 10.38 23.98 10.33C23.98 10.37 23.9899 10.43 24.0199 10.5Z" fill="#725941"/>
<path d="M24.0898 10.32C24.0898 10.32 24.1198 10.38 24.1398 10.4C24.1798 10.35 24.1898 10.3 24.0898 10.32Z" fill="#725941"/>
<path d="M23.8799 10.21C23.8799 10.21 23.9599 10.28 23.9799 10.33C23.9799 10.29 23.9799 10.27 23.9899 10.26C23.9699 10.26 23.9299 10.24 23.8799 10.21Z" fill="#725941"/>
<path d="M20.8999 22.98C20.8999 22.98 20.8999 23 20.9199 23.01C20.9499 22.84 20.9299 22.87 20.8999 22.98Z" fill="#725941"/>
<path d="M17.1598 15.21C17.1598 15.21 17.1598 15.2 17.1498 15.19C17.1498 15.19 17.1399 15.19 17.1299 15.19L17.1598 15.21Z" fill="#725941"/>
<path d="M17.26 15.51C16.93 15.14 17.01 15.15 17.13 15.19L16.23 14.44C16.57 14.81 16.91 15.16 17.26 15.51Z" fill="#725941"/>
<path d="M16.2599 21.62V21.45C16.5199 21.44 16.5598 21.55 16.5898 21.36C16.2398 21.64 16.1999 21.02 15.8799 21.24L15.8998 21.12C15.8998 21.12 15.9298 21.1301 15.9498 21.1601C16.0098 20.9101 15.6298 21.2201 15.5598 20.9801C15.5498 20.8901 15.5698 20.81 15.6398 20.83L15.4598 20.7201C15.4398 20.6701 15.5098 20.65 15.5298 20.7C15.4798 20.62 15.4398 20.54 15.3998 20.46H15.4098C15.3398 20.45 15.2098 20.41 15.1498 20.39C15.1798 20.3 15.2099 20.4 15.2499 20.36L15.0999 20.26C15.1899 20.15 15.3299 20.23 15.3499 20.34C15.7099 20.03 15.1898 20.27 15.3898 19.87L15.4698 19.99C15.6998 19.81 15.5999 19.73 15.7599 19.53C15.6599 19.59 15.3799 19.98 15.2499 19.86C15.2799 19.8 15.2798 19.74 15.1698 19.68C15.3398 19.63 15.2998 19.55 15.2798 19.45L15.5198 19.39C15.4598 19.3 15.3298 19.34 15.2098 19.3C15.2298 19.17 15.4299 19.1 15.6099 19.03C15.6899 18.82 15.2599 19.23 15.2399 19C15.3699 18.81 15.2699 18.72 15.1199 18.53C15.2499 18.4 15.3098 18.53 15.4098 18.49L15.1798 18.4101C15.1798 18.4101 15.2698 18.39 15.3098 18.39C15.2298 18.31 14.9898 18.4 14.9098 18.26C14.7298 18.25 14.8598 18.17 15.0198 18.08C15.1798 17.99 15.3498 17.9 15.1398 17.81C15.2598 17.78 15.3599 17.84 15.5099 17.84C15.2699 17.6 15.3498 17.64 14.9698 17.4C15.0798 17.36 15.1798 17.32 15.2998 17.28C14.9498 17.34 14.6298 17.1501 14.3398 16.9201C14.1798 16.9401 14.0398 16.9601 13.9698 16.9801C13.8998 16.8801 13.8298 16.7701 13.7698 16.6701C13.8498 16.6501 13.9898 16.72 14.1698 16.8C14.1398 16.78 14.1098 16.7501 14.0798 16.7301C14.2598 16.6701 14.5099 16.79 14.7299 16.9C14.6399 16.9 14.5398 16.92 14.4398 16.93C14.6898 17.04 14.9598 17.15 15.2098 17.18C15.1698 17.16 15.1299 17.12 15.1199 17.09C15.1899 17.12 15.2498 17.14 15.2898 17.14C15.3398 17.14 15.2498 17.1 15.1498 17.05L15.6598 17.11L15.4698 17.06C15.6198 17 15.7598 16.9501 15.9098 16.9101C15.4898 16.6201 14.8098 16.19 14.7198 15.74C15.0698 15.99 15.3498 16.0301 15.8098 16.2301C15.2798 16.1001 15.8998 16.52 15.7198 16.61C15.8098 16.56 16.0198 16.65 16.0798 16.69L15.7898 16.3C16.1598 16.46 16.0998 16.37 16.2998 16.38C15.5198 16.09 15.9199 15.99 15.7499 15.77C16.0099 15.9 16.2499 16.05 16.1099 16.13C16.7599 16.31 15.3298 15.51 15.9098 15.64C15.8898 15.67 15.8398 15.66 15.9598 15.75C15.7898 15.56 16.0798 15.5 16.2698 15.68L16.2499 15.71C16.4599 15.59 16.6799 15.24 16.1099 14.7C16.1799 14.77 16.8098 15.32 16.9298 15.43C16.3398 14.8 15.7899 14.1 15.2599 13.33C15.7299 13.83 16.9998 14.88 17.1498 15.26C17.2598 15.3 17.3798 15.34 17.2898 15.11C17.1998 15.05 16.5199 14.46 16.5099 14.38C17.1599 14.84 16.8798 14.61 17.4498 15.01C17.3098 14.93 16.6198 14.0801 16.7198 14.0401C16.8198 14.1701 17.4399 14.8701 17.4899 14.9701C17.2999 14.6601 17.1198 14.34 16.9598 14.01C17.0398 14.2 17.5399 14.7401 17.7599 14.9701C17.6099 14.8101 17.9098 14.91 17.8898 14.8L17.6698 14.63C17.9398 14.66 16.9699 13.2101 17.2599 13.1001C17.3499 13.3201 17.9399 14.37 18.1099 14.45C17.8399 13.93 16.9598 11.86 17.0898 11.26L17.2898 11.5401C17.3098 11.3801 17.3299 11.22 17.3599 11.07C17.5299 11.99 18.0298 13.87 18.2798 14.52C18.4798 14.73 18.4898 14.86 18.5798 14.81C18.7598 15.09 18.7499 15.25 18.7299 15.27L19.0198 15.4101C18.7198 14.7701 18.8998 14.7201 18.6798 14.1701C18.6798 14.4201 18.6798 14.6801 18.7098 14.9201C18.3798 14.3101 18.0298 13.04 18.3398 13.07C18.4898 13.32 18.7398 14.2601 18.8398 14.4801C18.7698 14.2501 18.8498 13.99 18.9298 14.15L18.9799 14.53C19.1499 14.76 18.8498 13.58 19.1798 14.21C19.2398 14.24 19.5298 15.0901 19.4298 14.6701C19.1898 13.8801 18.4998 11.44 18.4398 10.81C18.4898 10.85 19.0098 11.47 19.1498 11.87C19.3498 12.49 19.2798 13.41 19.4698 13.94C19.4398 13.75 19.4298 13.5001 19.4398 13.4201C19.5198 13.5801 19.5199 14.0301 19.6099 13.9201C19.5199 13.1901 19.8398 13.95 19.5698 13.3C19.6598 13.08 19.7098 13.42 19.8398 13.38C19.7398 12.91 19.8399 11.77 19.9999 11.55C19.9999 11.74 20.0398 11.98 20.0598 12.09C20.3598 12.13 20.4999 12.5 20.7499 12.5C20.7599 12.67 20.8498 12.89 20.7698 13.19C20.8098 13.07 20.8698 12.83 20.9498 12.82C21.0098 13.45 20.7798 12.9 20.7998 13.65C20.8498 13.24 21.0398 13.1 21.1898 12.86C21.2598 12.23 20.9498 12.7 20.8298 12.95C20.9098 12.06 21.2298 11.1701 21.6598 10.8501C21.9798 10.7001 21.6599 11.43 21.7299 11.32C22.1399 11.6 22.5498 9.99003 22.7898 10.76C22.7698 11.33 22.4499 11.76 22.3599 12.14C22.1199 12.26 22.1798 11.71 22.0398 11.7L22.1299 11.99C22.0199 12.14 21.8598 12.25 21.8298 12.08C21.8198 12.57 22.5099 12.3901 22.6299 12.9101C22.7499 12.7701 22.9198 12.66 22.9598 12.46L22.8298 12.4801C22.9098 12.0501 23.2598 12.07 23.2098 11.82C23.4698 11.64 23.8498 11.34 23.9298 11.7L23.6898 12.2C23.7698 12.06 23.7299 11.82 23.5999 11.93C23.7999 11.79 23.4998 12.7701 23.9498 12.2201L24.0198 11.8C24.2898 11.67 24.7798 11.36 24.8298 11.68C25.0498 11.19 24.7599 11.69 24.9899 11.07C24.6899 11.79 24.5598 10.6 24.3098 11.45C24.5498 10.72 24.2599 10.98 24.3699 10.27C24.2899 10.44 24.2698 10.64 24.1498 10.43C24.1198 10.47 24.0698 10.52 24.0398 10.55V10.53V10.56C24.0198 10.58 24.0198 10.58 24.0398 10.56C24.0398 10.66 24.0399 10.77 23.9999 10.87C23.7199 11.2 23.4798 11.02 23.2998 11.18C23.2398 11.04 23.4298 11 23.4598 10.78C23.3698 10.86 23.2798 10.94 23.1898 11.03C23.3498 10.63 23.1798 10.21 23.5298 10.11L23.2998 9.97005C23.2498 9.67005 23.0698 9.47006 22.8898 9.60006C22.7898 9.46006 22.4498 9.97006 22.6498 9.67006L22.1898 9.81002L22.2098 9.70003C21.8098 9.52003 21.3098 10.2601 20.9398 9.35006C20.7898 9.45006 20.6498 9.59002 20.4198 9.44002L20.3799 9.02004C20.1999 9.15004 19.8099 8.60006 19.7499 9.04006C19.4699 7.91006 18.7998 8.88002 18.4498 8.75002L18.5398 9.29006C18.3198 9.30006 18.1398 9.52001 17.9498 9.80001L18.0898 10.26C17.9998 10.68 17.4698 10.12 17.1498 10.31C17.0998 10.13 17.2098 10.1401 17.2998 10.2201C16.9098 9.80005 16.7598 10.09 16.6698 10.4C16.5698 10.72 16.5198 11.03 16.1798 10.81C16.1798 11.01 16.0999 11 15.9899 10.94C15.9899 10.94 15.9899 10.9201 15.9899 10.9101C15.9799 10.9101 15.9698 10.91 15.9598 10.93C15.8898 10.89 15.7999 10.83 15.7299 10.8C15.8199 10.87 15.8998 10.93 15.9498 10.94C15.8998 10.99 15.8298 11.1 15.8098 11.26L15.5099 10.88C15.5099 10.88 15.4999 10.8901 15.4999 10.9101C15.3099 10.8301 15.5598 11.1501 15.7998 11.4201C15.7998 11.5101 15.8199 11.63 15.8599 11.74C15.3499 11.16 15.8099 12.1201 15.2399 11.5401C15.4199 11.9001 15.0298 12.13 15.5498 12.78C15.4798 12.7 15.4198 12.68 15.4598 12.64C15.3198 12.64 15.1798 12.66 15.2798 12.89L14.8398 12.5C14.9598 12.75 15.0899 12.9901 15.2299 13.2201C14.8899 13.0801 14.6998 13 14.4698 12.58C14.7398 13.32 14.4698 12.99 14.7998 13.64L14.5298 13.4C14.4798 13.5 14.7699 13.9201 14.4999 13.7901C13.8099 13.5801 13.8298 14.69 13.1498 15.03C14.0498 15.29 12.6799 15.15 13.3499 15.44C13.1399 15.39 13.0099 15.44 12.8499 15.27C12.9899 15.66 12.4398 15.6601 12.9698 16.0401C12.7698 16.0201 12.6898 15.89 12.5698 15.89C12.6098 15.93 12.7299 16.04 12.6199 16.05C12.4999 16.05 12.4599 15.96 12.3799 15.88C12.4099 16.25 12.9898 16.41 13.5398 16.56C13.2598 16.65 13.2998 16.7401 13.6398 16.9101C13.4598 16.9301 13.2899 16.9901 13.2299 16.7901C13.1999 16.8901 12.9898 17.41 13.3898 17.46C13.2898 17.48 13.3698 17.6 13.4198 17.63C13.4198 17.85 13.3798 17.87 13.4398 18.09L13.4899 18.03C13.9199 18.12 13.5998 18.21 13.6798 18.38H13.6398C13.4298 18.79 13.7798 18.53 13.5698 18.95L13.7898 18.9C14.2698 18.87 13.5898 19.27 13.8398 19.46L13.9298 19.36C14.0898 19.44 13.4799 19.81 13.4899 19.95C13.4699 19.99 13.4199 19.92 13.3699 19.89C13.2899 20.27 13.6298 19.87 13.7798 20.09C13.6798 20.17 13.4399 20.1301 13.4999 20.2901C13.4599 20.4001 14.0899 20.6 13.9899 20.88C14.0399 20.8 14.0998 20.73 14.2098 20.8C14.3198 20.93 14.1598 21.35 14.4698 21.36C14.4698 21.39 14.4498 21.4101 14.4298 21.4201C14.5598 21.5001 14.7598 21.72 14.9098 21.71C14.5798 22.1 15.5698 22.2001 15.2198 22.4801L15.4999 22.78L15.4598 22.81C15.5998 23.04 15.7598 23.01 15.8998 22.99C15.9198 23.06 15.8598 23.06 15.8298 23.08C16.0098 23.44 16.0598 23.47 16.4698 23.45L16.3799 23.63C16.4999 23.58 16.6098 24.31 17.0598 24.33C17.0398 24.35 17.0199 24.39 16.9799 24.4C17.2299 24.4 17.3598 24.7301 17.5198 24.9801C17.6798 25.2201 17.8599 25.38 18.0999 24.89C18.2099 24.86 18.3298 24.8 18.4498 24.74C18.1398 24.52 18.6398 24.2701 18.5498 24.0401C18.6898 24.0001 18.7899 24.49 18.6099 24.49V24.4201C18.3799 24.9901 18.9699 24.8001 18.8699 25.2301C19.5899 25.4601 20.3498 26.01 21.1598 26.05L21.0099 25.4201L21.2698 25.44C21.3598 25.58 21.4299 25.9401 21.2399 25.9201C21.3899 26.2801 21.5199 25.59 21.4999 25.45C21.9099 25.67 21.4798 26.2201 21.5898 26.2201L21.7499 26.15L21.6998 26.08C21.7798 25.8 21.7398 25.53 21.9598 25.51C22.1298 25.61 22.1198 25.89 22.1898 25.9C22.1998 25.95 22.2298 25.96 22.2798 25.9L22.6299 25.87L22.3499 25.4101C22.4199 25.1301 22.6498 25.35 22.3398 24.83C22.5698 25.24 22.8898 25.2 23.1598 25.09C23.4298 24.96 23.6299 24.75 23.7499 24.84C23.7599 24.42 23.8999 24.31 24.1199 24.2C24.0199 24.15 23.7098 23.7201 23.8998 23.6701C24.4398 24.6301 24.4399 23.83 24.9899 24.28C24.5999 24.02 25.3099 23.71 24.7399 23.4C24.8999 23.33 24.9798 23.6601 25.1998 23.7201C25.2198 23.1401 25.8698 23.09 25.9598 22.5C25.8898 22.44 25.7498 22.43 25.6898 22.25C25.8398 22.26 25.9899 22.26 26.1299 22.25C26.1299 22.12 25.7898 21.91 26.0698 21.89C26.0098 21.89 25.9198 21.8601 25.9198 21.7901C26.2198 21.4401 26.2798 20.9201 26.3398 20.4701C26.3998 20.0101 26.4899 19.58 26.5999 19.15C26.5499 19.26 26.5498 19.18 26.5598 19.09C26.5498 19.15 26.5099 19.09 26.4799 19.09C26.5099 18.97 26.5598 18.86 26.5798 18.74C26.5098 18.67 26.5798 18.35 26.5198 18.31V18.4201C26.4598 18.2701 26.3499 18.62 26.2499 18.59C26.3499 18.77 26.0299 18.99 26.1199 19.27C26.0799 19.32 26.0898 19.21 26.0598 19.24C26.0998 19.32 26.0799 19.4 25.9999 19.53V19.51C25.8499 19.9 25.6898 20.05 25.3098 20.37L25.4498 20.4C25.3698 20.47 25.3199 20.47 25.2499 20.49C25.3699 20.67 25.4498 20.28 25.5798 20.45C25.2498 20.45 25.1498 21.02 24.6998 20.84C24.5798 20.93 24.9198 20.93 24.7998 21.02L24.6598 20.9801L24.7698 21.09C24.6798 21.14 24.4898 21.07 24.3898 21C24.4198 21 24.4198 20.95 24.4398 20.93C24.1898 20.9 24.1598 21.12 24.0898 21.11H24.2898C24.0598 21.41 23.4398 21.38 23.3998 21.82L23.5298 21.93C23.4698 22.28 23.2098 21.8701 23.0298 22.1001V22.06C23.0698 22.23 23.0298 22.3301 22.9498 22.3501C22.8998 22.1501 22.5998 22.04 22.5698 21.81C22.4998 22.21 22.5999 22.09 22.7599 22.78L22.5698 22.51C22.6398 22.79 22.6998 22.93 22.5898 23.07C22.5898 22.77 22.2999 22.65 22.2599 22.28C21.7299 21.71 22.1099 23.08 21.6299 22.13C21.7999 23.05 22.0398 22.54 22.0298 22.75C22.1998 23.01 22.1498 23.43 22.0198 23.38C21.9098 23.41 21.4998 22.29 21.3098 22.37C21.3298 22.37 21.3098 22.3 21.3398 22.3C21.2098 22.09 21.2598 22.67 21.0798 22.3C21.1198 22.86 20.9498 22.3 21.0498 23L21.2399 22.8C21.1699 23.01 21.1599 23.84 20.8699 23.49C20.8699 23.35 20.9198 23.1501 20.9398 23.0401C20.8598 22.8501 20.8399 23.21 20.7499 23C20.6999 22.31 20.9898 22.7801 21.0198 22.2301C20.9198 21.9501 20.8798 22.79 20.8298 22.02C20.8698 23 20.6298 21.96 20.5498 22.71V22.3C20.5198 22.37 20.4798 22.58 20.4398 22.58L20.4899 22.03C20.3899 22.51 20.2798 21.72 20.1798 21.99C20.3898 21.92 20.2198 22.4501 20.3198 22.7201C19.9898 23.2901 20.1699 21.73 19.8699 22.03C19.9099 21.96 20.0098 22.2 19.9298 22.39C19.8698 22.33 19.8098 22.2101 19.7898 22.0401C19.5698 22.1801 19.7798 22.4 19.6498 22.64C19.6298 22.23 19.5099 22.8301 19.3699 22.9701L19.4298 22.63C19.1998 22.47 19.2099 23.33 18.9999 23.08L19.2198 22.64L19.0598 22.76L19.1798 22.4C18.9698 22.68 18.9398 22.6201 18.8298 22.5401C18.7998 22.7401 18.6499 23.0501 18.5099 23.0401C18.4799 22.8701 18.6498 22.79 18.4498 22.82C18.5598 22.66 18.6798 22.45 18.6698 22.7C18.7098 22.61 18.7698 22.53 18.8098 22.44C18.7898 22.26 18.5898 22.42 18.5298 22.43C18.5498 22.43 18.5798 22.4501 18.5798 22.4801C18.4398 22.6101 18.3098 22.71 18.1698 22.8C18.1698 22.71 18.2298 22.64 18.2998 22.58C18.2298 22.6 18.1498 22.7 18.0598 22.71C18.1698 22.54 18.2498 22.36 18.3998 22.26C18.2798 22.33 18.1698 22.4 18.0498 22.45C18.0698 22.37 18.0198 22.24 18.0898 22.19C18.0098 22.09 17.5798 22.44 17.4598 22.28C17.4298 22.3 17.3999 22.32 17.3499 22.32C17.2099 22.21 17.1499 22.05 16.8499 22.08L16.9098 21.84C16.7298 21.79 16.8498 22.15 16.5498 22.06C16.3298 21.99 16.6199 21.8801 16.6099 21.7901C16.4499 21.8101 16.1598 21.84 16.1598 21.59C16.2298 21.61 16.2398 21.66 16.2998 21.69L16.2599 21.62ZM15.2299 19.84C15.2299 19.84 15.3898 19.9101 15.2998 19.9701C15.1098 19.9901 15.1899 19.92 15.2299 19.84ZM15.0698 16.7301C15.1698 16.7901 15.0998 16.81 14.9498 16.83C14.9398 16.79 14.9598 16.7501 15.0698 16.7301ZM22.9999 10.12V10.14C22.9199 9.90003 22.9399 9.99001 22.9999 10.12ZM23.1898 10.44C23.1898 10.44 23.2598 10.33 23.2698 10.26C23.2098 10.36 23.1498 10.34 23.0898 10.28C23.0698 10.41 23.0698 10.5 23.1798 10.44H23.1898ZM22.1299 25.7L22.0498 25.6001C22.1398 25.4501 22.1299 25.57 22.1299 25.7Z" fill="#725941"/>
<path d="M15.3798 17.15C15.3198 17.15 15.2597 17.15 15.1997 17.13C15.2497 17.15 15.3098 17.17 15.3798 17.15Z" fill="#725941"/>
<path d="M17.4097 22.2L17.4197 22.21L17.4497 22.18L17.4097 22.2Z" fill="#725941"/>
<path d="M19.5599 14.16C19.5199 14.09 19.48 14 19.46 13.9C19.48 14.02 19.5199 14.13 19.5599 14.16Z" fill="#725941"/>
<path d="M24.8098 10.7L24.6099 10.66C24.6899 10.71 24.6698 10.81 24.6698 10.9C24.7198 10.81 24.7698 10.66 24.8098 10.7Z" fill="#725941"/>
<path d="M24.38 13.63C24.38 13.63 24.41 13.65 24.46 13.63L24.5599 13.51C24.4899 13.45 24.36 13.51 24.38 13.62V13.63Z" fill="#725941"/>
<path d="M24.1897 11.99C24.0097 12.29 24.1596 12.25 24.2696 12.28C24.2696 12.28 24.2597 12.28 24.2597 12.27C24.5497 11.9 24.3797 11.94 24.1897 12V11.99Z" fill="#725941"/>
<path d="M24.2898 12.2801C24.2898 12.2801 24.3499 12.3101 24.3699 12.3501C24.4899 12.2101 24.3698 12.2901 24.2898 12.2801Z" fill="#725941"/>
<path d="M23.6199 10.38C23.6299 10.51 23.8498 9.95001 23.8198 10.11C24.0798 9.69001 23.2199 10.43 23.6199 10.38Z" fill="#725941"/>
<path d="M23.6299 12.99L23.8398 12.62L23.5999 12.88L23.6299 12.99Z" fill="#725941"/>
<path d="M23.1299 12.31L23.2098 12.5C23.2398 12.43 23.2798 12.4 23.3198 12.38C23.2398 12.32 23.1799 12.19 23.1199 12.31H23.1299Z" fill="#725941"/>
<path d="M23.3198 12.38C23.3198 12.38 23.4098 12.43 23.4698 12.38C23.4398 12.37 23.3898 12.35 23.3198 12.38Z" fill="#725941"/>
<path d="M23.3799 12.99L23.3898 12.89L23.3198 12.81L23.3799 12.99Z" fill="#725941"/>
<path d="M21.5198 11.61L21.3198 11.73C21.2698 11.9 21.2999 12.02 21.3799 11.96C21.4399 11.84 21.5198 11.79 21.5298 11.61H21.5198Z" fill="#725941"/>
<path d="M21.6698 13.09C21.6698 12.98 21.6898 12.87 21.7098 12.7L21.5398 13.31L21.6698 13.09Z" fill="#725941"/>
<path d="M21.2298 13.16C21.1798 13.33 20.9498 13.65 21.1198 13.62C21.1598 13.44 21.3298 13.32 21.2298 13.16Z" fill="#725941"/>
<path d="M19.0099 12.39L19.0398 12.38L18.8098 11.31L19.0099 12.39Z" fill="#725941"/>
<path d="M18.3998 15.24C18.6398 15.41 18.0899 14.7 18.3499 14.92C18.2499 14.7 18.1298 14.74 18.0498 14.55C18.1098 14.8 17.9998 14.69 18.3998 15.24Z" fill="#725941"/>
<path d="M18.0497 14.55C18.0497 14.55 18.0198 14.46 18.0098 14.4C18.0198 14.47 18.0397 14.51 18.0497 14.55Z" fill="#725941"/>
<path d="M26.5898 18.45L26.6199 18.32L26.5798 18.4L26.5898 18.45Z" fill="#725941"/>
<path d="M26.5298 18.19L26.5999 18.16L26.5498 18.08C26.5498 18.08 26.5498 18.17 26.5398 18.19H26.5298Z" fill="#725941"/>
<path d="M15.6598 19.4H15.5999C15.5399 19.44 15.5298 19.47 15.5198 19.52L15.6598 19.4Z" fill="#725941"/>
<path d="M15.8597 20.84L15.8497 20.82L15.7197 20.96L15.8597 20.84Z" fill="#725941"/>
<path d="M16.84 21.58C16.84 21.58 16.7299 21.55 16.6899 21.51C16.7999 21.55 16.69 21.75 16.84 21.58Z" fill="#725941"/>
</svg>
