<svg width="93" height="73" viewBox="0 0 93 73" fill="none" xmlns="http://www.w3.org/2000/svg">
<path d="M17.5847 72.6513L90.4047 51.4913C91.7647 51.0913 92.5247 49.6013 92.1047 48.1513L78.8547 2.55131C78.4347 1.10131 76.9947 0.251278 75.6347 0.641278L2.81466 21.8013C1.45466 22.2013 0.694646 23.6913 1.11465 25.1413L14.3646 70.7413C14.7846 72.1913 16.2247 73.0413 17.5847 72.6513Z" fill="#FFFDF5"/>
<path d="M17.5646 72.5514C38.6246 66.4114 59.3946 59.2514 80.5646 53.4814C80.5946 53.4214 89.3846 51.1014 89.4946 51.0414C89.7946 50.9514 90.2246 50.8514 90.4146 50.7814C91.4246 50.3714 91.8646 49.1714 91.4846 48.0914L90.9446 46.1014C87.0546 31.6914 82.7846 16.8714 78.3846 2.6314C78.0546 1.5214 76.8246 0.801418 75.7946 1.15142C65.3146 4.40142 54.8146 7.59142 44.3046 10.7114C31.2646 14.6214 17.9246 18.5114 4.8246 22.2614L3.83461 22.5414L3.34462 22.6814L3.10463 22.7515C2.32463 22.9615 1.89462 23.8714 2.03462 24.6614C2.05462 24.7614 2.0846 24.8814 2.1346 25.0714L2.68458 27.0514C5.18458 36.2314 8.78462 49.5014 11.2246 58.8414C11.9246 61.4914 12.6746 64.1314 13.3946 66.7814L14.5146 70.7414C14.8546 72.0214 16.2846 72.9414 17.5846 72.5414L17.5646 72.5514ZM17.6146 72.7414C16.2046 73.1914 14.6446 72.2015 14.2646 70.8115L13.0846 66.8715C12.2746 64.2515 11.4946 61.6214 10.6646 59.0114C7.54462 48.9314 3.19463 35.6214 0.234632 25.6314C-0.525368 23.6714 0.6246 21.2114 2.7646 20.7614C3.0246 20.6714 3.95458 20.4214 4.24458 20.3314C17.3246 16.4714 30.6546 12.6014 43.7646 8.92144C54.3146 5.91144 64.8846 2.99144 75.4746 0.11144C77.1146 -0.36856 78.8846 0.76144 79.3046 2.36144C82.5146 14.1314 86.0246 26.2415 89.5646 37.9415L92.0046 45.8014L92.6146 47.7714C93.2146 49.2714 92.5546 51.3714 90.9246 52.0114C89.6946 52.4614 82.4346 54.6114 81.0246 55.0814C60.0546 61.5614 38.6846 66.6415 17.6146 72.7515V72.7414Z" fill="#754C29"/>
<path d="M1.11462 25.1312C4.41462 27.8412 9.35463 31.3613 15.9346 34.2513C19.9646 36.0213 33.4947 41.9613 46.4047 39.2913C61.6747 36.1313 74.0047 21.3413 78.8547 2.54126" fill="#FFFDF5"/>
<path d="M1.17462 25.0613C10.5946 31.5213 21.1547 36.2113 32.2247 38.9413C41.3747 41.0313 51.0647 38.5212 58.4547 32.8812C68.3847 25.3512 74.6646 14.2512 78.7546 2.52124L78.9446 2.57123C77.4246 10.8212 74.0547 18.8612 68.8347 25.6312C63.6047 32.3112 56.2647 37.7713 47.8447 39.4813C39.4947 41.1413 30.9047 40.0412 22.7747 37.8212C14.7347 35.2912 7.05468 31.1212 1.04468 25.2112L1.17462 25.0613Z" fill="#754C29"/>
<path d="M50.6246 44.0913C49.2546 44.4313 46.5246 44.8613 43.5446 43.7413C42.6746 43.4113 38.0246 41.6613 37.2446 37.5013C36.9446 35.8813 37.1046 33.2913 38.5946 32.3913C40.4046 31.3113 44.0446 32.8013 46.9346 36.7713C46.9346 36.7713 46.4146 27.6213 52.8746 29.2413C52.8746 29.2413 61.4446 30.8713 50.6246 44.0913Z" fill="#F4C2C2"/>
<path d="M50.6745 44.1813C46.1245 46.0913 40.1146 44.4013 37.3746 40.1813C36.2346 38.2413 36.1546 35.8013 36.9946 33.7413C39.3546 28.9813 45.2746 33.7413 47.4546 36.3913L46.2846 36.8113C45.9546 33.5813 46.6246 29.0813 50.4046 28.1513C52.6646 27.7413 55.0446 28.4413 56.3446 30.4713C58.9146 35.3313 53.9046 40.9413 50.6646 44.1813H50.6745ZM50.5646 44.0113C52.3446 40.9613 54.4246 37.9313 55.0246 34.4213C55.1846 33.3413 55.0446 32.3313 54.5646 31.6013C53.6146 30.1913 50.9245 29.5613 49.6145 30.6813C47.5545 32.5813 47.6246 36.2113 47.4646 38.8713L46.4046 37.1513C45.0646 35.0413 43.1145 32.8713 40.5545 32.4113C39.2945 32.1613 38.1646 32.8013 37.9046 34.0813C36.5246 40.8113 44.7045 44.7413 50.5545 44.0113H50.5646Z" fill="#754C29"/>
</svg>
